<svg xmlns="http://www.w3.org/2000/svg" xmlns:xlink="http://www.w3.org/1999/xlink" viewBox="0 0 450 450"><defs><linearGradient id="b2255b90-2f87-4db4-bd2b-ca1ce88ddda0" x1="101.63" y1="91.08" x2="112.87" y2="71.62" gradientUnits="userSpaceOnUse"><stop offset="0.4" stop-color="#bfbdff"/><stop offset="0.77" stop-color="#e0dfff"/></linearGradient><clipPath id="b8804504-158c-4872-8792-c88fbbab143a"><path d="M191.32,74.81l2.38,1.39a1.81,1.81,0,0,0-1.85.18L189.47,75A1.84,1.84,0,0,1,191.32,74.81Z" fill="none"/></clipPath><clipPath id="b61ee8a0-6652-47ca-b330-590885f24847"><path d="M113.65,153.43l-2.38-1.38a1.81,1.81,0,0,1-.76-1.67l2.38,1.39A1.84,1.84,0,0,0,113.65,153.43Z" fill="none"/></clipPath><clipPath id="a64bb5cf-6906-4b7f-aa27-4fffd1f7b575"><path d="M112.82,125l-2.39-1.38a5.74,5.74,0,0,1,2.6-4.5l2.38,1.39A5.69,5.69,0,0,0,112.82,125Z" fill="none"/></clipPath><linearGradient id="b3b49431-147b-4c38-8af4-75e5b12ebc5d" x1="111.35" y1="124.16" x2="113.95" y2="119.66" xlink:href="#b2255b90-2f87-4db4-bd2b-ca1ce88ddda0"/><clipPath id="a33ec870-df03-4389-b8b1-25513fbe7fa9"><path d="M123.5,136.87l1.55.9a.77.77,0,0,0-.79.08l-1.55-.9A.77.77,0,0,1,123.5,136.87Z" fill="none"/></clipPath><clipPath id="b387d13f-330a-4a5e-956b-8071a99e2a8f"><path d="M118.69,143.24l-1.55-.9a.79.79,0,0,1-.33-.71,2.48,2.48,0,0,1,1.11-1.92l1.55.9a2.48,2.48,0,0,0-1.11,1.92A.77.77,0,0,0,118.69,143.24Z" fill="none"/></clipPath><clipPath id="af938c1d-484e-45b4-8f03-a6a67209c3d2"><path d="M136.46,129.39l1.55.9a.79.79,0,0,0-.79.07l-1.54-.9A.75.75,0,0,1,136.46,129.39Z" fill="#777687"/></clipPath><clipPath id="a704431f-7e3e-4b07-a4ef-15a256a204d2"><path d="M127.68,138.05l-1.55-.9a.77.77,0,0,1-.32-.71,2.45,2.45,0,0,1,1.1-1.92l1.55.9a2.45,2.45,0,0,0-1.1,1.92A.77.77,0,0,0,127.68,138.05Z" fill="none"/></clipPath><clipPath id="bc7dd4b6-4b0e-4969-b933-6fad8a3b5cc1"><path d="M139.37,122.78l1.55.9a.77.77,0,0,0-.79.08l-1.55-.9A.77.77,0,0,1,139.37,122.78Z" fill="#777687"/></clipPath><clipPath id="e26a97f3-8a6b-4aa3-ae9f-b9d14f85160b"><path d="M118.67,138.32l-1.55-.9a.77.77,0,0,1-.32-.71,2.44,2.44,0,0,1,1.11-1.92l1.55.9a2.44,2.44,0,0,0-1.11,1.92A.77.77,0,0,0,118.67,138.32Z" fill="none"/></clipPath><clipPath id="b12d0e86-a575-4de9-87af-d50d6b503048"><path d="M144.63,109.33l1.55.9a1.54,1.54,0,0,0-1.58.15l-1.55-.9A1.54,1.54,0,0,1,144.63,109.33Z" fill="none"/></clipPath><clipPath id="a2d2ef9b-c539-4d6b-83ef-a29a3b6618e7"><path d="M119,129.53l-1.55-.9a1.57,1.57,0,0,1-.65-1.42,4.92,4.92,0,0,1,2.21-3.84l1.55.9a4.92,4.92,0,0,0-2.21,3.84A1.55,1.55,0,0,0,119,129.53Z" fill="none"/></clipPath><clipPath id="b41d5129-5986-4a4c-88ec-6358ab6bf5ab"><path d="M128.71,143.46l-.77-.45a.18.18,0,0,0,.17,0l.78.45A.2.2,0,0,1,128.71,143.46Z" fill="none"/></clipPath><clipPath id="fa7c0875-8260-458d-b8cd-6ebcfd7492c7"><path d="M128.29,142.07l.77.45c.07,0,.1.15.1.31a.67.67,0,0,1-.27.61l-.78-.45a.68.68,0,0,0,.28-.61A.38.38,0,0,0,128.29,142.07Z" fill="none"/></clipPath><clipPath id="e91496ad-b6b1-49f7-88e6-379dd28a5640"><path d="M128.58,141.66l.77.45c-.11-.07-.27-.05-.47.06l-.77-.45A.46.46,0,0,1,128.58,141.66Z" fill="none"/></clipPath><clipPath id="b5f00e21-db10-45e8-a411-38eea9c83ca0"><path d="M128.42,143.87l-.77-.45c-.12-.07-.19-.24-.19-.5a1.37,1.37,0,0,1,.65-1.2l.77.45a1.39,1.39,0,0,0-.65,1.2C128.23,143.63,128.3,143.8,128.42,143.87Z" fill="none"/></clipPath><clipPath id="f8d2ce5c-53bc-4e26-ac1a-07334ebdfacd"><path d="M126.78,143.48,126,143a.2.2,0,0,0,.18,0,.69.69,0,0,0,.27-.61c0-.16,0-.27-.1-.31l.78.45a.38.38,0,0,1,.1.31.69.69,0,0,1-.28.61A.2.2,0,0,1,126.78,143.48Z" fill="none"/></clipPath><clipPath id="a6983fa2-cb34-4302-b88a-d56d239797e1"><path d="M126.5,143.89l-.78-.45c-.12-.07-.19-.24-.19-.5a1.39,1.39,0,0,1,.65-1.2c.2-.11.36-.13.47-.06l.77.45a.45.45,0,0,0-.46.06,1.4,1.4,0,0,0-.66,1.2C126.3,143.65,126.37,143.82,126.5,143.89Z" fill="none"/></clipPath><clipPath id="fdab5f7a-e6aa-468e-b283-da36695bfc74"><path d="M122.39,146.71l-.78-.45a.57.57,0,0,0,.6,0,.66.66,0,0,0,.37-.56.2.2,0,0,0-.07-.17l.77.45s.07.08.07.17a.66.66,0,0,1-.37.56A.55.55,0,0,1,122.39,146.71Z" fill="none"/></clipPath><clipPath id="b2d9c241-49b1-4e00-ba1c-848c4d71686b"><path d="M123.05,144.83l.78.45c-.16-.09-.41-.06-.73.13l-.21.12-.78-.45.22-.12A.74.74,0,0,1,123.05,144.83Z" fill="none"/></clipPath><clipPath id="fd0ca7e5-1dcd-4e5e-968e-94786b302e4a"><path d="M121.09,146.86l.77.45a.21.21,0,0,0-.21,0l-.77-.45A.2.2,0,0,1,121.09,146.86Z" fill="none"/></clipPath><clipPath id="b9df1c61-9976-4072-ade1-e9327fbd69c5"><path d="M121.45,148l-.77-.45a.2.2,0,0,1-.08-.19.59.59,0,0,1,.28-.5l.77.45a.62.62,0,0,0-.28.5A.2.2,0,0,0,121.45,148Z" fill="none"/></clipPath><clipPath id="e2deaf9a-5426-43f5-be5c-0946ea6be732"><path d="M191.42,115.83l2.38,1.38a1.84,1.84,0,0,0-1.85.18L189.57,116A1.81,1.81,0,0,1,191.42,115.83Z" fill="none"/></clipPath><clipPath id="a1b1b642-863b-4af4-84ed-3bf983cffb82"><path d="M113.76,194.45l-2.39-1.39a1.8,1.8,0,0,1-.76-1.67l2.39,1.39A1.81,1.81,0,0,0,113.76,194.45Z" fill="#bfbdff"/></clipPath><clipPath id="bb336837-710c-4e29-befd-a1dc1d6bd1f0"><path d="M112.92,166l-2.38-1.39a5.69,5.69,0,0,1,2.59-4.49l2.38,1.38A5.76,5.76,0,0,0,112.92,166Z" fill="none"/></clipPath><linearGradient id="f5d133a3-4143-47ef-a15e-be936da491c5" x1="111.46" y1="165.17" x2="114.05" y2="160.67" xlink:href="#b2255b90-2f87-4db4-bd2b-ca1ce88ddda0"/><clipPath id="ab38c9fd-0b31-4a0b-86b3-7ba39ba9a9fd"><path d="M123.6,177.89l1.55.9a.79.79,0,0,0-.79.07l-1.55-.9A.79.79,0,0,1,123.6,177.89Z" fill="#777687"/></clipPath><clipPath id="ad726de8-8438-44bf-9453-697b2e64b011"><path d="M118.79,184.26l-1.55-.9a.77.77,0,0,1-.32-.71,2.41,2.41,0,0,1,1.1-1.92l1.55.9a2.45,2.45,0,0,0-1.11,1.92A.8.8,0,0,0,118.79,184.26Z" fill="none"/></clipPath><clipPath id="a8441ef7-5839-4e31-8543-859565362a6c"><path d="M136.57,170.4l1.55.9a.77.77,0,0,0-.79.08l-1.55-.9A.77.77,0,0,1,136.57,170.4Z" fill="#777687"/></clipPath><clipPath id="b6faf545-b6f7-46fa-8f90-49a3ae9c574f"><path d="M127.78,179.06l-1.55-.9a.76.76,0,0,1-.32-.71,2.42,2.42,0,0,1,1.11-1.91l1.55.9a2.42,2.42,0,0,0-1.11,1.91A.76.76,0,0,0,127.78,179.06Z" fill="none"/></clipPath><clipPath id="ba7de9a4-b7ec-4c86-9c19-9550ccd71db6"><path d="M139.47,163.79l1.55.9a.8.8,0,0,0-.79.08l-1.55-.9A.8.8,0,0,1,139.47,163.79Z" fill="#777687"/></clipPath><clipPath id="f7c24e38-c825-4dec-9d80-02f8ee260b0d"><path d="M118.77,179.34l-1.54-.9a.8.8,0,0,1-.33-.72,2.44,2.44,0,0,1,1.11-1.91l1.55.9a2.42,2.42,0,0,0-1.11,1.91A.81.81,0,0,0,118.77,179.34Z" fill="none"/></clipPath><clipPath id="be56a63c-6618-4d29-9028-a2b731900eda"><path d="M144.73,150.34l1.55.9a1.59,1.59,0,0,0-1.58.15l-1.55-.9A1.59,1.59,0,0,1,144.73,150.34Z" fill="none"/></clipPath><clipPath id="e8c43b1c-7c67-4fa7-8af3-c01f33839561"><path d="M119.07,170.54l-1.55-.9a1.56,1.56,0,0,1-.65-1.42,4.88,4.88,0,0,1,2.22-3.83l1.55.9a4.88,4.88,0,0,0-2.22,3.83A1.56,1.56,0,0,0,119.07,170.54Z" fill="none"/></clipPath><clipPath id="e85ecb55-a9dc-4e10-8f4c-b5a93ad1acf1"><path d="M120.74,188.13l.77.45q-.08,0-.21,0l-.77-.45A.21.21,0,0,1,120.74,188.13Z" fill="none"/></clipPath><clipPath id="bc04cc5c-bf49-4109-8fc5-b423d7d05ff8"><path d="M121.1,189.3l-.78-.45a.2.2,0,0,1-.08-.19.6.6,0,0,1,.29-.5l.77.45a.59.59,0,0,0-.28.5A.2.2,0,0,0,121.1,189.3Z" fill="none"/></clipPath><clipPath id="e45e7ff3-a177-4e11-85cb-2d31c37d8073"><path d="M119.67,189.63l-.77-.45a.2.2,0,0,0,.19,0l.77.45A.2.2,0,0,1,119.67,189.63Z" fill="none"/></clipPath><clipPath id="af95ea52-a3a7-403d-9fbf-442e97b099d1"><path d="M119.27,187.38l.77.45c.1.06.15.28.15.71,0,.61-.09.93-.33,1.06l-.77-.45c.23-.13.33-.45.33-1.06C119.41,187.66,119.37,187.44,119.27,187.38Z" fill="none"/></clipPath><clipPath id="bb74df13-772f-40b5-83ca-5a33546cccb9"><path d="M119.7,186.82l.77.45a.62.62,0,0,0-.62.09l-.77-.45A.62.62,0,0,1,119.7,186.82Z" fill="none"/></clipPath><clipPath id="fc4a9618-ee1c-4d72-9b8b-b7d9a9cee19c"><path d="M119.24,190.19l-.77-.45c-.2-.12-.31-.43-.31-.93a2.05,2.05,0,0,1,.92-1.9l.77.45a2,2,0,0,0-.91,1.9Q118.94,190,119.24,190.19Z" fill="none"/></clipPath><clipPath id="aab3cb56-7ecc-4c3e-a6fb-af9eadf81a28"><path d="M128.36,184.73l-.78-.45a.15.15,0,0,0,.18,0l.77.45A.14.14,0,0,1,128.36,184.73Z" fill="none"/></clipPath><clipPath id="f8df46bb-215d-4ba8-b40a-6b163d2fd2ac"><path d="M127.93,183.35l.78.45c.06,0,.1.14.1.31a.66.66,0,0,1-.28.6l-.77-.45a.68.68,0,0,0,.28-.6C128,183.49,128,183.39,127.93,183.35Z" fill="none"/></clipPath><clipPath id="bbf38126-5973-431c-b4c9-b3ebe3d43bc7"><path d="M128.22,182.94l.78.45a.46.46,0,0,0-.47.06l-.77-.45A.45.45,0,0,1,128.22,182.94Z" fill="none"/></clipPath><clipPath id="f1e8b134-5ab9-4615-aed9-f834a993fa30"><path d="M128.07,185.15l-.78-.45c-.12-.07-.19-.24-.19-.5a1.37,1.37,0,0,1,.66-1.2l.77.45a1.39,1.39,0,0,0-.66,1.2C127.88,184.91,127.94,185.08,128.07,185.15Z" fill="none"/></clipPath><clipPath id="e214f0f2-8498-420b-93c0-e013ef94b279"><path d="M126.43,184.76l-.77-.45a.16.16,0,0,0,.17,0,.66.66,0,0,0,.28-.6c0-.17,0-.27-.1-.31l.77.45c.07,0,.1.14.1.31a.68.68,0,0,1-.27.6A.18.18,0,0,1,126.43,184.76Z" fill="none"/></clipPath><clipPath id="e6e84114-6dfd-4911-935b-db598c2399b3"><path d="M126.14,185.17l-.77-.45c-.13-.07-.2-.24-.2-.5a1.39,1.39,0,0,1,.66-1.2.46.46,0,0,1,.47-.06l.77.45c-.11-.07-.27,0-.47.06a1.38,1.38,0,0,0-.65,1.2C126,184.93,126,185.1,126.14,185.17Z" fill="none"/></clipPath><clipPath id="f9542a38-00a5-4433-9f74-deb1c5ebe691"><path d="M124.36,185.41l.77.45a.24.24,0,0,1,.09.22.67.67,0,0,1-.34.58l-.77-.45a.66.66,0,0,0,.33-.58A.27.27,0,0,0,124.36,185.41Z" fill="none"/></clipPath><clipPath id="f5745027-f5e8-40fe-9833-c0eb5df7671b"><path d="M124.62,186.7l-.77-.45c.06,0,.14,0,.26,0l.77.45A.29.29,0,0,1,124.62,186.7Z" fill="none"/></clipPath><clipPath id="ff833a7b-32b7-4e62-9a50-685517b626ed"><path d="M124.79,184.8l.77.45a.53.53,0,0,0-.54.07l-.78-.45A.55.55,0,0,1,124.79,184.8Z" fill="none"/></clipPath><clipPath id="eaa5e454-b5ca-4c19-8178-089ed9bd8e3e"><path d="M124.47,185.93l-.77-.45a1.32,1.32,0,0,1,.54-.61l.78.45A1.29,1.29,0,0,0,124.47,185.93Z" fill="#c41616"/></clipPath><clipPath id="a811eaef-4a5b-4162-a448-a821526eb55f"><path d="M124.22,187.29l-.78-.45c-.2-.12-.31-.41-.31-.86a2.35,2.35,0,0,1,1.06-2,1.32,1.32,0,0,1,.75-.21l.78.45a1.3,1.3,0,0,0-.75.21,2.3,2.3,0,0,0-1.06,2C123.91,186.88,124,187.17,124.22,187.29Z" fill="none"/></clipPath><clipPath id="ada07b4e-8209-48ef-a300-9de51bca2a54"><path d="M191.32,156.88l2.38,1.39a1.81,1.81,0,0,0-1.85.18l-2.38-1.39A1.86,1.86,0,0,1,191.32,156.88Z" fill="none"/></clipPath><clipPath id="aff0e81f-8bc2-4bbf-be48-d44e58135992"><path d="M113.65,235.51l-2.38-1.39a1.81,1.81,0,0,1-.76-1.67l2.38,1.39A1.85,1.85,0,0,0,113.65,235.51Z" fill="none"/></clipPath><clipPath id="e60cf59b-fa09-4fdf-94c8-5b2478e64264"><path d="M112.82,207.07l-2.39-1.38a5.73,5.73,0,0,1,2.6-4.49l2.38,1.38A5.69,5.69,0,0,0,112.82,207.07Z" fill="none"/></clipPath><linearGradient id="aeaaccfb-95bb-4010-ac9b-ae31b15ca7f8" x1="111.35" y1="206.23" x2="113.95" y2="201.73" xlink:href="#b2255b90-2f87-4db4-bd2b-ca1ce88ddda0"/><clipPath id="ac65c885-dd4b-4ae5-956c-9eef8ba39164"><path d="M123.5,218.94l1.55.91a.77.77,0,0,0-.79.07l-1.55-.9A.8.8,0,0,1,123.5,218.94Z" fill="none"/></clipPath><clipPath id="ed9109fc-5580-4043-82f7-37cfb9a71bb3"><path d="M118.69,225.32l-1.55-.9a.82.82,0,0,1-.33-.72,2.44,2.44,0,0,1,1.11-1.91l1.55.9a2.44,2.44,0,0,0-1.11,1.91A.8.8,0,0,0,118.69,225.32Z" fill="none"/></clipPath><clipPath id="a0c94f54-633e-48e7-b2d9-325df7454195"><path d="M136.46,211.46l1.55.9a.77.77,0,0,0-.79.08l-1.54-.9A.76.76,0,0,1,136.46,211.46Z" fill="#777687"/></clipPath><clipPath id="b0d4cc70-fe08-4086-ab2b-5cadb559364b"><path d="M127.68,220.12l-1.55-.9a.76.76,0,0,1-.32-.71,2.47,2.47,0,0,1,1.1-1.92l1.55.9a2.47,2.47,0,0,0-1.1,1.92A.76.76,0,0,0,127.68,220.12Z" fill="none"/></clipPath><clipPath id="b6e66b5c-e3da-4350-889c-f48c65390ed7"><path d="M139.37,204.85l1.55.9a.77.77,0,0,0-.79.08l-1.55-.9A.77.77,0,0,1,139.37,204.85Z" fill="#777687"/></clipPath><clipPath id="b1f7df36-f353-49b9-a6a7-a65d2eb40d41"><path d="M118.67,220.39l-1.55-.9a.76.76,0,0,1-.32-.71,2.42,2.42,0,0,1,1.11-1.91l1.55.9a2.42,2.42,0,0,0-1.11,1.91A.76.76,0,0,0,118.67,220.39Z" fill="none"/></clipPath><clipPath id="a3f42d03-0ac0-48bf-8337-3f34831473f6"><path d="M144.63,191.4l1.55.9a1.57,1.57,0,0,0-1.58.15l-1.55-.9A1.57,1.57,0,0,1,144.63,191.4Z" fill="none"/></clipPath><clipPath id="bbd9e667-ba5a-4fa6-99e8-4bd21e66dd1b"><path d="M119,211.6l-1.55-.9a1.56,1.56,0,0,1-.65-1.42,4.88,4.88,0,0,1,2.21-3.83l1.55.9a4.88,4.88,0,0,0-2.21,3.83A1.54,1.54,0,0,0,119,211.6Z" fill="none"/></clipPath><clipPath id="b1e21867-b3e2-435b-b410-404a9cacd4a6"><path d="M128.71,225.53l-.77-.45s.1,0,.17,0l.78.45A.17.17,0,0,1,128.71,225.53Z" fill="none"/></clipPath><clipPath id="e083aff0-9a80-4185-98f7-c0993ee2a2d8"><path d="M128.29,224.15l.77.45c.07,0,.1.14.1.3a.66.66,0,0,1-.27.61l-.78-.45a.67.67,0,0,0,.28-.61C128.39,224.29,128.35,224.19,128.29,224.15Z" fill="none"/></clipPath><clipPath id="aedb4eed-5618-4101-8509-a4df088b1539"><path d="M128.58,223.73l.77.45a.47.47,0,0,0-.47.07l-.77-.45A.47.47,0,0,1,128.58,223.73Z" fill="none"/></clipPath><clipPath id="be2c28da-86d3-41ed-9544-7e9ec219cb3b"><path d="M128.42,226l-.77-.45a.58.58,0,0,1-.19-.51,1.34,1.34,0,0,1,.65-1.19l.77.45a1.36,1.36,0,0,0-.65,1.19A.58.58,0,0,0,128.42,226Z" fill="none"/></clipPath><clipPath id="b3b27b43-849e-4ebb-b908-84a355eda747"><path d="M126.78,225.55l-.77-.45s.1,0,.18,0a.69.69,0,0,0,.27-.61c0-.16,0-.26-.1-.3l.78.45c.06,0,.1.14.1.3a.69.69,0,0,1-.28.61A.17.17,0,0,1,126.78,225.55Z" fill="none"/></clipPath><clipPath id="bf3c24ab-7379-4729-84ed-b4874575cdca"><path d="M126.5,226l-.78-.45a.57.57,0,0,1-.19-.51,1.36,1.36,0,0,1,.65-1.19.47.47,0,0,1,.47-.07l.77.45a.46.46,0,0,0-.46.07,1.37,1.37,0,0,0-.66,1.19C126.3,225.72,126.37,225.9,126.5,226Z" fill="none"/></clipPath><clipPath id="aa4140bf-2ad8-4e08-b815-0c9d8bd694d6"><path d="M122.39,228.79l-.78-.45a.59.59,0,0,0,.6,0,.66.66,0,0,0,.37-.56.21.21,0,0,0-.07-.17l.77.45a.18.18,0,0,1,.07.17.66.66,0,0,1-.37.56A.57.57,0,0,1,122.39,228.79Z" fill="none"/></clipPath><clipPath id="a812cab5-4cd3-4ae9-98df-2150ea8f3e3f"><path d="M123.05,226.9l.78.45c-.16-.09-.41,0-.73.13l-.21.13-.78-.45a2.53,2.53,0,0,1,.22-.13C122.64,226.85,122.89,226.81,123.05,226.9Z" fill="none"/></clipPath><clipPath id="e48d07d6-a3ee-4c3f-8f6a-cc75e1ea57b6"><path d="M121.09,228.93l.77.45s-.12,0-.21,0l-.77-.45A.21.21,0,0,1,121.09,228.93Z" fill="none"/></clipPath><clipPath id="f51ab4fb-8f31-4980-9ef7-eda317da8d30"><path d="M121.45,230.1l-.77-.45a.22.22,0,0,1-.08-.2.58.58,0,0,1,.28-.49l.77.45a.6.6,0,0,0-.28.49A.22.22,0,0,0,121.45,230.1Z" fill="none"/></clipPath><linearGradient id="bb4c0528-d0ae-4f57-84ae-58fa7db48ca8" x1="185.84" y1="139.7" x2="197.08" y2="120.24" xlink:href="#b2255b90-2f87-4db4-bd2b-ca1ce88ddda0"/><linearGradient id="aa16537e-c9f7-4b91-bb14-9cce0e61d1ae" x1="177.53" y1="280.23" x2="285.35" y2="93.48" gradientUnits="userSpaceOnUse"><stop offset="0" stop-color="#00226b"/><stop offset="0.11" stop-color="#0c2174"/><stop offset="0.32" stop-color="#2b208d"/><stop offset="0.59" stop-color="#5e1db5"/><stop offset="0.91" stop-color="#a41aec"/><stop offset="0.96" stop-color="#af19f4"/></linearGradient><linearGradient id="f6eda892-b3d6-40dc-bccf-e9bcfd90d71b" x1="197.23" y1="197.28" x2="208.47" y2="177.82" xlink:href="#b2255b90-2f87-4db4-bd2b-ca1ce88ddda0"/><linearGradient id="ab3dd7dd-d15c-4d9b-b075-7a6ec03bd039" x1="281.44" y1="210.56" x2="292.68" y2="191.1" xlink:href="#b2255b90-2f87-4db4-bd2b-ca1ce88ddda0"/></defs><g style="isolation:isolate"><g id="e7ea009f-0a25-47db-b07a-ec9a4fa915f2" data-name="Layer 1"><rect y="-0.92" width="450" height="450" fill="#fff"/><g style="isolation:isolate"><path d="M108,240.11l-3.5-2c-2-1.18-3.28-3.68-3.29-7.23l3.5,2C104.76,236.43,106,238.93,108,240.11Z" fill="#bfbdff"/><path d="M182.93,34.34l3.5,2c-2.05-1.19-4.89-1-8,.78l-3.5-2C178.05,33.31,180.88,33.14,182.93,34.34Z" fill="#e0dfff"/><polygon points="104.75 232.88 101.25 230.85 101.05 90.73 104.55 92.77 104.75 232.88" fill="#bfbdff"/><polygon points="115.78 73.31 112.28 71.28 174.91 35.12 178.41 37.15 115.78 73.31" fill="#e0dfff"/><path d="M104.55,92.77l-3.5-2c0-7.16,5-15.87,11.23-19.46l3.5,2C109.55,76.91,104.53,85.62,104.55,92.77Z" fill="url(#b2255b90-2f87-4db4-bd2b-ca1ce88ddda0)"/><path d="M178.41,37.15c6.22-3.59,11.29-.71,11.31,6.45l.2,140.11c0,7.15-5,15.86-11.23,19.45l-62.64,36.16c-6.22,3.6-11.28.71-11.3-6.44l-.2-140.11c0-7.15,5-15.86,11.23-19.46Z" fill="#fbb800"/></g><g style="mix-blend-mode:multiply"><path d="M185.11,72.49c1.44-.83,2.61-.17,2.62,1.49l.07,26.76a5.72,5.72,0,0,1-2.59,4.49l-76.44,44.13c-1.44.83-2.61.17-2.61-1.48l-.08-26.77a5.74,5.74,0,0,1,2.59-4.49Z" fill="#9795cc"/><path d="M182.81,46.24c2.33-1.35,4.23-.27,4.24,2.41v5.16a9.28,9.28,0,0,1-4.21,7.29l-41.6,24c-2.34,1.35-4.23.26-4.24-2.42l0-5.15a9.28,9.28,0,0,1,4.22-7.29Z" fill="#9795cc"/><path d="M130.63,76.36c2.33-1.34,4.23-.26,4.23,2.42l0,5.15a9.3,9.3,0,0,1-4.21,7.3l-19.8,11.43c-2.34,1.35-4.23.26-4.24-2.42V95.09a9.24,9.24,0,0,1,4.21-7.29Z" fill="#9795cc"/><path d="M185.22,113.5c1.43-.83,2.6-.16,2.61,1.49l.07,26.76a5.71,5.71,0,0,1-2.59,4.5l-76.44,44.13c-1.44.83-2.61.16-2.61-1.49l-.08-26.76a5.73,5.73,0,0,1,2.6-4.49Z" fill="#9795cc"/><path d="M185.11,154.56c1.44-.83,2.61-.16,2.62,1.49l.07,26.76a5.72,5.72,0,0,1-2.59,4.49l-76.44,44.14c-1.44.83-2.61.16-2.61-1.49l-.08-26.76a5.74,5.74,0,0,1,2.59-4.5Z" fill="#9795cc"/></g><path d="M189,47.75l2.75,1.6a3,3,0,0,0-3,.29L186,48.05A3,3,0,0,1,189,47.75Z" fill="#b3b4b8"/><path d="M144.14,88.82l-2.75-1.6a3,3,0,0,1-1.23-2.71l2.74,1.6A3,3,0,0,0,144.14,88.82Z" fill="#b3b4b8"/><polygon points="142.9 86.11 140.16 84.51 140.14 79.36 142.89 80.95 142.9 86.11" fill="#b3b4b8"/><polygon points="147.1 73.66 144.35 72.06 185.96 48.05 188.7 49.64 147.1 73.66" fill="#b3b4b8"/><path d="M188.7,49.64c2.34-1.35,4.23-.26,4.24,2.42l0,5.15a9.31,9.31,0,0,1-4.22,7.3l-41.6,24c-2.33,1.35-4.23.27-4.24-2.41V81a9.28,9.28,0,0,1,4.21-7.3Z" fill="#d8d9dd"/><path d="M188.46,51.37c1.67-1,3-.19,3,1.72v4.76a6.63,6.63,0,0,1-3,5.21L147.38,86.79c-1.67,1-3,.2-3-1.72l0-4.76a6.62,6.62,0,0,1,3-5.2Z" fill="#fff"/><path d="M142.89,81l-2.75-1.6a9.3,9.3,0,0,1,4.21-7.3l2.75,1.6A9.28,9.28,0,0,0,142.89,81Z" fill="#b3b4b8"/><path d="M136.78,77.88l2.75,1.59a3,3,0,0,0-3,.3l-2.75-1.6A3,3,0,0,1,136.78,77.88Z" fill="#b3b4b8"/><path d="M113.76,106.36l-2.75-1.6a3,3,0,0,1-1.23-2.71l2.74,1.6A3,3,0,0,0,113.76,106.36Z" fill="#b3b4b8"/><polygon points="112.52 103.65 109.78 102.05 109.76 96.9 112.51 98.5 112.52 103.65" fill="#b3b4b8"/><polygon points="116.72 91.2 113.97 89.6 133.77 78.17 136.52 79.77 116.72 91.2" fill="#b3b4b8"/><path d="M112.51,98.49l-2.75-1.59A9.3,9.3,0,0,1,114,89.6l2.75,1.6A9.28,9.28,0,0,0,112.51,98.49Z" fill="#b3b4b8"/><path d="M136.52,79.77c2.33-1.35,4.23-.27,4.24,2.42v5.15a9.24,9.24,0,0,1-4.21,7.29l-19.8,11.43c-2.33,1.35-4.23.27-4.24-2.41V98.49a9.28,9.28,0,0,1,4.21-7.29Z" fill="#d8d9dd"/><g style="isolation:isolate"><g style="isolation:isolate"><g clip-path="url(#b8804504-158c-4872-8792-c88fbbab143a)"><path d="M191.85,76.38,189.47,75a1.84,1.84,0,0,1,1.85-.18l2.38,1.39a1.81,1.81,0,0,0-1.85.18Z" fill="#e0dfff"/></g></g><g style="isolation:isolate"><g clip-path="url(#b61ee8a0-6652-47ca-b330-590885f24847)"><path d="M113.65,153.43l-2.38-1.38a1.81,1.81,0,0,1-.76-1.67l2.38,1.39a1.84,1.84,0,0,0,.76,1.66Z" fill="#bfbdff"/></g></g><polygon points="112.89 151.76 110.51 150.38 110.43 123.62 112.82 125 112.89 151.76" fill="#bfbdff"/><polygon points="115.41 120.51 113.03 119.12 189.47 74.99 191.85 76.38 115.41 120.51" fill="#e0dfff"/><g style="isolation:isolate"><g clip-path="url(#a64bb5cf-6906-4b7f-aa27-4fffd1f7b575)"><path d="M112.82,125l-2.39-1.38a5.74,5.74,0,0,1,2.6-4.5l2.38,1.39a5.69,5.69,0,0,0-2.59,4.49Z" fill="url(#b3b49431-147b-4c38-8af4-75e5b12ebc5d)"/></g></g><path d="M191.85,76.38c1.44-.83,2.61-.17,2.61,1.48l.08,26.77a5.73,5.73,0,0,1-2.6,4.49L115.5,153.25c-1.43.83-2.6.17-2.61-1.48L112.82,125a5.69,5.69,0,0,1,2.59-4.49Z" fill="#fff"/></g><g style="isolation:isolate"><g style="isolation:isolate"><g clip-path="url(#a33ec870-df03-4389-b8b1-25513fbe7fa9)"><path d="M124.26,137.85l-1.55-.9a.77.77,0,0,1,.79-.08l1.55.9a.77.77,0,0,0-.79.08Z" fill="#777687"/></g></g><polygon points="119.47 140.61 117.92 139.71 122.71 136.95 124.26 137.85 119.47 140.61" fill="#777687"/><g style="isolation:isolate"><g clip-path="url(#b387d13f-330a-4a5e-956b-8071a99e2a8f)"><path d="M118.69,143.24l-1.55-.9a.79.79,0,0,1-.33-.71,2.48,2.48,0,0,1,1.11-1.92l1.55.9a2.48,2.48,0,0,0-1.11,1.92.77.77,0,0,0,.33.71Z" fill="#777687"/></g></g><path d="M124.26,137.85c.61-.35,1.11-.07,1.11.63a2.42,2.42,0,0,1-1.11,1.92l-4.78,2.77c-.62.35-1.11.07-1.12-.64a2.48,2.48,0,0,1,1.11-1.92Z" fill="#a6a5bd"/></g><g style="isolation:isolate"><g style="isolation:isolate"><path d="M136.46,129.39l1.55.9a.79.79,0,0,0-.79.07l-1.54-.9A.75.75,0,0,1,136.46,129.39Z" fill="#777687"/><g clip-path="url(#af938c1d-484e-45b4-8f03-a6a67209c3d2)"><path d="M137.22,130.36l-1.54-.9a.75.75,0,0,1,.78-.07l1.55.9a.79.79,0,0,0-.79.07Z" fill="#777687"/></g></g><polygon points="128.46 135.42 126.92 134.52 135.68 129.46 137.22 130.36 128.46 135.42" fill="#777687"/><g style="isolation:isolate"><g clip-path="url(#a704431f-7e3e-4b07-a4ef-15a256a204d2)"><path d="M127.68,138.05l-1.55-.9a.77.77,0,0,1-.32-.71,2.45,2.45,0,0,1,1.1-1.92l1.55.9a2.45,2.45,0,0,0-1.1,1.92.77.77,0,0,0,.32.71Z" fill="#777687"/></g></g><path d="M137.22,130.36c.62-.35,1.12-.07,1.12.64a2.42,2.42,0,0,1-1.11,1.91L128.47,138c-.61.36-1.11.07-1.11-.63a2.45,2.45,0,0,1,1.1-1.92Z" fill="#a6a5bd"/></g><g style="isolation:isolate"><g style="isolation:isolate"><path d="M139.37,122.78l1.55.9a.77.77,0,0,0-.79.08l-1.55-.9A.77.77,0,0,1,139.37,122.78Z" fill="#777687"/><g clip-path="url(#bc7dd4b6-4b0e-4969-b933-6fad8a3b5cc1)"><path d="M140.13,123.76l-1.55-.9a.77.77,0,0,1,.79-.08l1.55.9a.77.77,0,0,0-.79.08Z" fill="#777687"/></g></g><polygon points="119.46 135.69 117.91 134.79 138.58 122.86 140.13 123.76 119.46 135.69" fill="#777687"/><g style="isolation:isolate"><g clip-path="url(#e26a97f3-8a6b-4aa3-ae9f-b9d14f85160b)"><path d="M118.67,138.32l-1.55-.9a.77.77,0,0,1-.32-.71,2.44,2.44,0,0,1,1.11-1.92l1.55.9a2.44,2.44,0,0,0-1.11,1.92.77.77,0,0,0,.32.71Z" fill="#777687"/></g></g><path d="M140.13,123.76c.61-.36,1.11-.07,1.11.63a2.44,2.44,0,0,1-1.1,1.92l-20.68,11.93c-.61.36-1.11.07-1.11-.63a2.44,2.44,0,0,1,1.11-1.92Z" fill="#a6a5bd"/></g><g style="isolation:isolate"><g style="isolation:isolate"><g clip-path="url(#b12d0e86-a575-4de9-87af-d50d6b503048)"><path d="M144.6,110.38l-1.55-.9a1.54,1.54,0,0,1,1.58-.15l1.55.9a1.54,1.54,0,0,0-1.58.15Z" fill="#777687"/></g></g><polygon points="120.53 124.27 118.98 123.37 143.05 109.48 144.6 110.38 120.53 124.27" fill="#777687"/><g style="isolation:isolate"><g clip-path="url(#a2d2ef9b-c539-4d6b-83ef-a29a3b6618e7)"><path d="M119,129.53l-1.55-.9a1.57,1.57,0,0,1-.65-1.42,4.92,4.92,0,0,1,2.21-3.84l1.55.9a4.92,4.92,0,0,0-2.21,3.84,1.55,1.55,0,0,0,.65,1.42Z" fill="#777687"/></g></g><path d="M144.6,110.38c1.22-.71,2.22-.14,2.22,1.27a4.84,4.84,0,0,1-2.21,3.83l-24.06,13.89c-1.23.71-2.22.14-2.23-1.26a4.92,4.92,0,0,1,2.21-3.84Z" fill="#a6a5bd"/></g><g style="isolation:isolate"><polygon points="187.95 95.42 186.4 94.52 191.12 86.35 192.66 87.25 187.95 95.42" fill="#607a4d"/><polygon points="187.49 94.41 185.94 93.51 191.11 84.55 192.66 85.45 187.49 94.41" fill="#3c542b"/><polygon points="187.46 94.35 185.91 93.45 191.11 84.46 192.66 85.36 187.46 94.35" fill="#4fcf53"/><polygon points="183.95 97.72 182.41 96.82 186.4 94.52 187.95 95.42 183.95 97.72" fill="#617c4e"/><polygon points="177.46 108.97 175.91 108.07 182.41 96.82 183.95 97.72 177.46 108.97" fill="#607a4d"/><polygon points="183.49 96.71 181.94 95.81 185.94 93.51 187.49 94.41 183.49 96.71" fill="#3d552c"/><polygon points="177 107.96 175.45 107.06 181.94 95.81 183.49 96.71 177 107.96" fill="#3c542b"/><polygon points="176.97 107.91 175.42 107.01 181.92 95.76 183.47 96.66 176.97 107.91" fill="#4fcf53"/><polygon points="183.47 96.66 181.92 95.76 185.91 93.45 187.46 94.35 183.47 96.66" fill="#4fcf53"/><polygon points="173.6 111.2 172.05 110.3 175.91 108.07 177.46 108.97 173.6 111.2" fill="#617c4e"/><polygon points="174.06 109.66 172.51 108.76 175.45 107.06 177 107.96 174.06 109.66" fill="#3d552c"/><polygon points="174.08 109.58 172.53 108.68 175.42 107.01 176.97 107.91 174.08 109.58" fill="#4fcf53"/><polygon points="171.36 109.92 169.81 109.02 172.05 110.3 173.6 111.2 171.36 109.92" fill="#5a7348"/><polygon points="171.82 108.38 170.27 107.48 172.51 108.76 174.06 109.66 171.82 108.38" fill="#384f28"/><polygon points="171.84 108.3 170.29 107.4 172.53 108.68 174.08 109.58 171.84 108.3" fill="#384f28"/><polygon points="167.83 111.96 166.28 111.06 169.81 109.02 171.36 109.92 167.83 111.96" fill="#617c4e"/><polygon points="168.28 110.42 166.73 109.52 170.27 107.48 171.82 108.38 168.28 110.42" fill="#3d552c"/><polygon points="168.31 110.34 166.76 109.44 170.29 107.4 171.84 108.3 168.31 110.34" fill="#4fcf53"/><polygon points="158.96 126.98 157.41 126.08 157.39 120.07 158.94 120.97 158.96 126.98" fill="#53bf37"/><polygon points="165.05 110.38 163.5 109.48 166.28 111.06 167.83 111.96 165.05 110.38" fill="#5a7348"/><polygon points="158.94 120.97 157.39 120.07 163.5 109.48 165.05 110.38 158.94 120.97" fill="#607a4d"/><polygon points="192.66 87.25 192.72 107.49 158.96 126.98 158.94 120.97 165.05 110.38 167.83 111.96 171.36 109.92 173.6 111.2 177.46 108.97 183.95 97.72 187.95 95.42 192.66 87.25" fill="#69f246"/><polygon points="158.94 120.97 157.39 120.07 157.39 118.27 158.94 119.17 158.94 120.97" fill="#348f37"/><polygon points="192.66 85.45 192.66 87.25 187.95 95.42 183.95 97.72 177.46 108.97 173.6 111.2 171.36 109.92 167.83 111.96 165.05 110.38 158.94 120.97 158.94 119.17 165.05 108.58 168.28 110.42 171.82 108.38 174.06 109.66 177 107.96 183.49 96.71 187.49 94.41 192.66 85.45" fill="#3a9e3d"/><polygon points="158.94 119.17 157.39 118.27 163.5 107.68 165.05 108.58 158.94 119.17" fill="#3c542b"/><polygon points="165.05 108.58 163.5 107.68 166.73 109.52 168.28 110.42 165.05 108.58" fill="#384f28"/><polygon points="158.94 119.17 157.39 118.27 157.39 118.17 158.94 119.07 158.94 119.17" fill="#3a9e3d"/><polygon points="165.05 108.48 163.5 107.58 166.76 109.44 168.31 110.34 165.05 108.48" fill="#384f28"/><polygon points="158.94 119.07 157.39 118.17 163.5 107.58 165.05 108.48 158.94 119.07" fill="#4fcf53"/><polygon points="192.66 85.36 192.66 85.45 187.49 94.41 183.49 96.71 177 107.96 174.06 109.66 171.82 108.38 168.28 110.42 165.05 108.58 158.94 119.17 158.94 119.07 165.05 108.48 168.31 110.34 171.84 108.3 174.08 109.58 176.97 107.91 183.47 96.66 187.46 94.35 192.66 85.36" fill="#6d984e"/></g><g style="isolation:isolate"><polygon points="119.94 148.96 119.17 148.51 119.16 146.39 119.94 146.84 119.94 148.96" fill="#2e7d30"/><polygon points="119.48 147.1 118.71 146.65 118.71 146.07 119.48 146.52 119.48 147.1" fill="#2e7d30"/><polygon points="119.48 146.52 118.71 146.07 119.77 145.46 120.55 145.91 119.48 146.52" fill="#2e7d30"/><polygon points="120.55 145.91 120.56 148.6 119.94 148.96 119.94 146.84 119.48 147.1 119.48 146.52 120.55 145.91" fill="#46be49"/></g><g style="isolation:isolate"><polygon points="118.13 149.6 117.36 149.15 117.36 148.51 118.13 148.96 118.13 149.6" fill="#2e7d30"/><polygon points="118.51 148.3 117.73 147.85 118.29 147.53 119.07 147.98 118.51 148.3" fill="#2e7d30"/><polygon points="117.57 149.29 116.8 148.84 116.8 148.4 117.57 148.85 117.57 149.29" fill="#2e7d30"/><polygon points="117.57 148.85 116.8 148.4 117.36 148.07 118.13 148.52 117.57 148.85" fill="#2e7d30"/><polygon points="118.13 148.52 117.36 148.07 117.35 147.43 118.13 147.88 118.13 148.52" fill="#2e7d30"/><polygon points="118.13 147.88 117.35 147.43 117.73 147.21 118.51 147.66 118.13 147.88" fill="#2e7d30"/><polygon points="118.51 147.66 118.51 148.3 119.07 147.98 119.07 148.42 118.51 148.74 118.51 149.38 118.13 149.6 118.13 148.96 117.57 149.29 117.57 148.85 118.13 148.52 118.13 147.88 118.51 147.66" fill="#46be49"/></g><g style="isolation:isolate"><g style="isolation:isolate"><g clip-path="url(#b41d5129-5986-4a4c-88ec-6358ab6bf5ab)"><path d="M128.71,143.46l-.77-.45a.18.18,0,0,0,.17,0l.78.45a.2.2,0,0,1-.18,0Z" fill="#2e7d30"/></g></g><g style="isolation:isolate"><g clip-path="url(#fa7c0875-8260-458d-b8cd-6ebcfd7492c7)"><path d="M128.89,143.44l-.78-.45a.68.68,0,0,0,.28-.61.38.38,0,0,0-.1-.31l.77.45c.07,0,.1.15.1.31a.67.67,0,0,1-.27.61Z" fill="#2e7d30"/></g></g><g style="isolation:isolate"><g clip-path="url(#e91496ad-b6b1-49f7-88e6-379dd28a5640)"><path d="M128.88,142.17l-.77-.45a.46.46,0,0,1,.47-.06l.77.45c-.11-.07-.27-.05-.47.06Z" fill="#2e7d30"/></g></g><g style="isolation:isolate"><g clip-path="url(#b5f00e21-db10-45e8-a411-38eea9c83ca0)"><path d="M128.42,143.87l-.77-.45c-.12-.07-.19-.24-.19-.5a1.37,1.37,0,0,1,.65-1.2l.77.45a1.39,1.39,0,0,0-.65,1.2c0,.26.07.43.19.5Z" fill="#2e7d30"/></g></g><path d="M128.88,142.17c.41-.23.66-.06.66.44a1.38,1.38,0,0,1-.65,1.2c-.4.23-.66.06-.66-.44A1.39,1.39,0,0,1,128.88,142.17Zm0,1.27a.67.67,0,0,0,.27-.61c0-.28-.1-.38-.28-.28a.67.67,0,0,0-.27.6c0,.28.1.39.28.29Z" fill="#46be49"/><polygon points="128.47 141.33 129.03 141.01 127.36 144.67 126.8 145 128.47 141.33" fill="#46be49"/><polygon points="128.47 141.33 127.69 140.88 128.25 140.56 129.03 141.01 128.47 141.33" fill="#2e7d30"/><polygon points="126.8 145 126.03 144.55 127.69 140.88 128.47 141.33 126.8 145" fill="#2e7d30"/><g style="isolation:isolate"><g clip-path="url(#f8d2ce5c-53bc-4e26-ac1a-07334ebdfacd)"><path d="M126.78,143.48,126,143a.2.2,0,0,0,.18,0,.69.69,0,0,0,.27-.61c0-.16,0-.27-.1-.31l.78.45a.38.38,0,0,1,.1.31.69.69,0,0,1-.28.61.2.2,0,0,1-.18,0Z" fill="#2e7d30"/></g></g><g style="isolation:isolate"><g clip-path="url(#a6983fa2-cb34-4302-b88a-d56d239797e1)"><path d="M126.5,143.89l-.78-.45c-.12-.07-.19-.24-.19-.5a1.39,1.39,0,0,1,.65-1.2c.2-.11.36-.13.47-.06l.77.45a.45.45,0,0,0-.46.06,1.4,1.4,0,0,0-.66,1.2c0,.26.07.43.2.5Z" fill="#2e7d30"/></g></g><path d="M127.62,142.63a1.38,1.38,0,0,1-.66,1.2c-.4.23-.66.06-.66-.44a1.4,1.4,0,0,1,.66-1.2C127.36,142,127.61,142.13,127.62,142.63Zm-.94.54c0,.28.11.39.28.29a.69.69,0,0,0,.28-.61c0-.28-.11-.38-.28-.28a.65.65,0,0,0-.28.6Z" fill="#46be49"/></g><g style="isolation:isolate"><polygon points="125.85 144.43 125.08 143.97 125.38 143.8 126.15 144.25 125.85 144.43" fill="#2e7d30"/><polygon points="125.29 145.87 124.52 145.42 124.52 144.84 125.29 145.28 125.29 145.87" fill="#2e7d30"/><polygon points="124.85 145 124.08 144.55 124.52 144.3 125.29 144.75 124.85 145" fill="#2e7d30"/><polygon points="125.29 144.18 124.51 143.73 125.08 143.41 125.85 143.85 125.29 144.18" fill="#2e7d30"/><polygon points="125.29 144.75 124.52 144.3 124.51 143.73 125.29 144.18 125.29 144.75" fill="#2e7d30"/><polygon points="124.23 145.9 123.45 145.45 123.45 144.97 124.23 145.42 124.23 145.9" fill="#2e7d30"/><polygon points="125.5 143.04 124.85 145 125.29 144.75 125.29 144.18 125.85 143.85 125.85 144.43 126.15 144.25 126.16 144.79 125.85 144.96 125.86 145.54 125.29 145.87 125.29 145.28 124.23 145.9 124.23 145.42 124.92 143.38 125.5 143.04" fill="#46be49"/><polygon points="124.23 145.42 123.45 144.97 124.14 142.93 124.92 143.38 124.23 145.42" fill="#2e7d30"/><polygon points="124.92 143.38 124.14 142.93 124.73 142.59 125.5 143.04 124.92 143.38" fill="#2e7d30"/></g><g style="isolation:isolate"><g style="isolation:isolate"><g clip-path="url(#fdab5f7a-e6aa-468e-b283-da36695bfc74)"><path d="M122.39,146.71l-.78-.45a.57.57,0,0,0,.6,0,.66.66,0,0,0,.37-.56.2.2,0,0,0-.07-.17l.77.45s.07.08.07.17a.66.66,0,0,1-.37.56.55.55,0,0,1-.59,0Z" fill="#2e7d30"/></g></g><polygon points="122.13 147.39 121.35 146.94 121.59 146.25 122.37 146.7 122.13 147.39" fill="#2e7d30"/><g style="isolation:isolate"><g clip-path="url(#b2d9c241-49b1-4e00-ba1c-848c4d71686b)"><path d="M122.89,145.53l-.78-.45.22-.12a.74.74,0,0,1,.72-.13l.78.45c-.16-.09-.41-.06-.73.13l-.21.12Z" fill="#2e7d30"/></g></g><polygon points="122.33 146.42 121.55 145.97 121.55 144.43 122.32 144.88 122.33 146.42" fill="#2e7d30"/><polygon points="122.32 144.88 121.55 144.43 123.13 143.51 123.9 143.97 122.32 144.88" fill="#2e7d30"/><path d="M123.9,144v.56l-1,.59v.41l.21-.12c.55-.32.91-.19.91.29a1.8,1.8,0,0,1-1,1.49,1.4,1.4,0,0,1-.93.2l.24-.69a.56.56,0,0,0,.61,0,.66.66,0,0,0,.37-.56c0-.2-.13-.24-.37-.11s-.51.3-.65.4v-1.54Z" fill="#46be49"/></g><g style="isolation:isolate"><g style="isolation:isolate"><g clip-path="url(#fd0ca7e5-1dcd-4e5e-968e-94786b302e4a)"><path d="M121.65,147.33l-.77-.45a.2.2,0,0,1,.21,0l.77.45a.21.21,0,0,0-.21,0Z" fill="#2e7d30"/></g></g><g style="isolation:isolate"><g clip-path="url(#b9df1c61-9976-4072-ade1-e9327fbd69c5)"><path d="M121.45,148l-.77-.45a.2.2,0,0,1-.08-.19.59.59,0,0,1,.28-.5l.77.45a.62.62,0,0,0-.28.5.2.2,0,0,0,.08.19Z" fill="#2e7d30"/></g></g><path d="M121.65,147.33c.17-.09.29,0,.29.17a.63.63,0,0,1-.28.5c-.17.1-.29,0-.29-.17A.62.62,0,0,1,121.65,147.33Z" fill="#46be49"/></g><g style="isolation:isolate"><polygon points="150.75 109.91 149.98 109.46 152.18 104.66 152.95 105.11 150.75 109.91" fill="#3a9e3d"/><polygon points="152.95 105.11 155.17 107.36 150.75 109.91 152.95 105.11" fill="#46be49"/></g><g style="isolation:isolate"><g style="isolation:isolate"><g clip-path="url(#e2deaf9a-5426-43f5-be5c-0946ea6be732)"><path d="M192,117.39,189.57,116a1.81,1.81,0,0,1,1.85-.18l2.38,1.38a1.84,1.84,0,0,0-1.85.18Z" fill="#e0dfff"/></g></g><g style="isolation:isolate"><path d="M113.76,194.45l-2.39-1.39a1.8,1.8,0,0,1-.76-1.67l2.39,1.39A1.81,1.81,0,0,0,113.76,194.45Z" fill="#bfbdff"/><g clip-path="url(#a1b1b642-863b-4af4-84ed-3bf983cffb82)"><path d="M113.76,194.45l-2.39-1.39a1.8,1.8,0,0,1-.76-1.67l2.39,1.39a1.81,1.81,0,0,0,.76,1.67Z" fill="#bfbdff"/></g></g><polygon points="113 192.78 110.61 191.4 110.54 164.63 112.92 166.02 113 192.78" fill="#bfbdff"/><polygon points="115.51 161.53 113.13 160.14 189.57 116.01 191.95 117.39 115.51 161.53" fill="#e0dfff"/><g style="isolation:isolate"><g clip-path="url(#bb336837-710c-4e29-befd-a1dc1d6bd1f0)"><path d="M112.92,166l-2.38-1.39a5.69,5.69,0,0,1,2.59-4.49l2.38,1.38a5.76,5.76,0,0,0-2.59,4.5Z" fill="url(#f5d133a3-4143-47ef-a15e-be936da491c5)"/></g></g><path d="M192,117.39c1.44-.83,2.61-.16,2.61,1.49l.08,26.76a5.76,5.76,0,0,1-2.59,4.5l-76.44,44.13c-1.44.83-2.61.16-2.61-1.49L112.92,166a5.76,5.76,0,0,1,2.59-4.5Z" fill="#fff"/></g><g style="isolation:isolate"><g style="isolation:isolate"><path d="M123.6,177.89l1.55.9a.79.79,0,0,0-.79.07l-1.55-.9A.79.79,0,0,1,123.6,177.89Z" fill="#777687"/><g clip-path="url(#ab38c9fd-0b31-4a0b-86b3-7ba39ba9a9fd)"><path d="M124.36,178.86l-1.55-.9a.79.79,0,0,1,.79-.07l1.55.9a.79.79,0,0,0-.79.07Z" fill="#777687"/></g></g><polygon points="119.57 181.63 118.02 180.73 122.81 177.97 124.36 178.87 119.57 181.63" fill="#777687"/><g style="isolation:isolate"><g clip-path="url(#ad726de8-8438-44bf-9453-697b2e64b011)"><path d="M118.79,184.26l-1.55-.9a.77.77,0,0,1-.32-.71,2.41,2.41,0,0,1,1.1-1.92l1.55.9a2.45,2.45,0,0,0-1.11,1.92.8.8,0,0,0,.33.71Z" fill="#777687"/></g></g><path d="M124.36,178.86c.61-.35,1.11-.06,1.11.64a2.44,2.44,0,0,1-1.1,1.92l-4.79,2.76c-.61.35-1.11.07-1.12-.63a2.45,2.45,0,0,1,1.11-1.92Z" fill="#a6a5bd"/></g><g style="isolation:isolate"><g style="isolation:isolate"><path d="M136.57,170.4l1.55.9a.77.77,0,0,0-.79.08l-1.55-.9A.77.77,0,0,1,136.57,170.4Z" fill="#777687"/><g clip-path="url(#a8441ef7-5839-4e31-8543-859565362a6c)"><path d="M137.33,171.38l-1.55-.9a.77.77,0,0,1,.79-.08l1.55.9a.77.77,0,0,0-.79.08Z" fill="#777687"/></g></g><polygon points="128.56 176.44 127.02 175.54 135.78 170.48 137.33 171.38 128.56 176.44" fill="#777687"/><g style="isolation:isolate"><g clip-path="url(#b6faf545-b6f7-46fa-8f90-49a3ae9c574f)"><path d="M127.78,179.06l-1.55-.9a.76.76,0,0,1-.32-.71,2.42,2.42,0,0,1,1.11-1.91l1.55.9a2.42,2.42,0,0,0-1.11,1.91.76.76,0,0,0,.32.71Z" fill="#777687"/></g></g><path d="M137.33,171.38c.61-.36,1.11-.07,1.11.63a2.42,2.42,0,0,1-1.11,1.92L128.57,179c-.61.35-1.11.07-1.11-.64a2.42,2.42,0,0,1,1.11-1.91Z" fill="#a6a5bd"/></g><g style="isolation:isolate"><g style="isolation:isolate"><path d="M139.47,163.79l1.55.9a.8.8,0,0,0-.79.08l-1.55-.9A.8.8,0,0,1,139.47,163.79Z" fill="#777687"/><g clip-path="url(#ba7de9a4-b7ec-4c86-9c19-9550ccd71db6)"><path d="M140.23,164.77l-1.55-.9a.8.8,0,0,1,.79-.08l1.55.9a.8.8,0,0,0-.79.08Z" fill="#777687"/></g></g><polygon points="119.56 176.71 118.01 175.81 138.68 163.87 140.23 164.77 119.56 176.71" fill="#777687"/><g style="isolation:isolate"><g clip-path="url(#f7c24e38-c825-4dec-9d80-02f8ee260b0d)"><path d="M118.77,179.34l-1.54-.9a.8.8,0,0,1-.33-.72,2.44,2.44,0,0,1,1.11-1.91l1.55.9a2.42,2.42,0,0,0-1.11,1.91.81.81,0,0,0,.32.72Z" fill="#777687"/></g></g><path d="M140.23,164.77c.61-.35,1.11-.07,1.12.63a2.45,2.45,0,0,1-1.11,1.92l-20.68,11.94c-.61.35-1.11.07-1.11-.64a2.42,2.42,0,0,1,1.11-1.91Z" fill="#a6a5bd"/></g><g style="isolation:isolate"><g style="isolation:isolate"><g clip-path="url(#be56a63c-6618-4d29-9028-a2b731900eda)"><path d="M144.7,151.39l-1.55-.9a1.59,1.59,0,0,1,1.58-.15l1.55.9a1.59,1.59,0,0,0-1.58.15Z" fill="#777687"/></g></g><polygon points="120.64 165.29 119.09 164.39 143.15 150.49 144.7 151.4 120.64 165.29" fill="#777687"/><g style="isolation:isolate"><g clip-path="url(#e8c43b1c-7c67-4fa7-8af3-c01f33839561)"><path d="M119.07,170.54l-1.55-.9a1.56,1.56,0,0,1-.65-1.42,4.88,4.88,0,0,1,2.22-3.83l1.55.9a4.88,4.88,0,0,0-2.22,3.83,1.56,1.56,0,0,0,.65,1.42Z" fill="#777687"/></g></g><path d="M144.7,151.39c1.22-.7,2.22-.13,2.23,1.27a4.9,4.9,0,0,1-2.22,3.84l-24.06,13.89c-1.23.71-2.22.14-2.23-1.27a4.88,4.88,0,0,1,2.22-3.83Z" fill="#a6a5bd"/></g><g style="isolation:isolate"><polygon points="192.85 137.43 191.3 136.53 191.31 134.73 192.86 135.63 192.85 137.43" fill="#823d3d"/><polygon points="179.69 145.36 178.14 144.46 181.25 142.66 182.8 143.56 179.69 145.36" fill="#8d4242"/><polygon points="182.8 143.56 181.25 142.66 184.76 136.58 186.31 137.48 182.8 143.56" fill="#8b4141"/><polygon points="180.14 143.82 178.59 142.92 180.78 141.65 182.33 142.55 180.14 143.82" fill="#662524"/><polygon points="177.77 142.38 176.22 141.48 178.62 142.84 180.17 143.74 177.77 142.38" fill="#5f2221"/><polygon points="177.72 142.44 176.17 141.54 178.59 142.92 180.14 143.82 177.72 142.44" fill="#5f2221"/><polygon points="176.61 143.61 175.06 142.71 178.14 144.46 179.69 145.36 176.61 143.61" fill="#823d3d"/><polygon points="177.72 142.44 176.17 141.54 176.15 136.66 177.7 137.56 177.72 142.44" fill="#5e2221"/><polygon points="176.61 143.61 175.06 142.71 175.04 137.83 176.59 138.73 176.61 143.61" fill="#5e2221"/><polygon points="174.28 137.41 176.59 138.73 176.61 143.61 179.69 145.36 182.8 143.56 186.31 137.48 189.6 135.58 192.85 137.43 192.86 135.63 192.82 148.5 158.58 168.27 158.54 156.15 163.62 153.22 168.75 144.33 170.22 143.48 173.44 137.9 174.28 137.41" fill="#ff6161"/><polygon points="189.6 135.58 188.06 134.68 191.3 136.53 192.85 137.43 189.6 135.58" fill="#823d3d"/><polygon points="190.06 134.04 188.51 133.14 191.31 134.73 192.86 135.63 190.06 134.04" fill="#5f2221"/><polygon points="190.08 133.96 188.53 133.06 191.31 134.64 192.86 135.54 190.08 133.96" fill="#5f2221"/><polygon points="186.31 137.48 184.76 136.58 188.06 134.68 189.6 135.58 186.31 137.48" fill="#8d4242"/><polygon points="182.33 142.55 180.78 141.65 184.3 135.57 185.85 136.47 182.33 142.55" fill="#652423"/><polygon points="185.85 136.47 184.3 135.57 188.51 133.14 190.06 134.04 185.85 136.47" fill="#662524"/><polygon points="182.31 142.5 180.76 141.6 184.27 135.52 185.82 136.42 182.31 142.5" fill="#ff2c2c"/><polygon points="185.82 136.42 184.27 135.52 188.53 133.06 190.08 133.96 185.82 136.42" fill="#ff2c2c"/><polygon points="180.17 143.74 178.62 142.84 180.76 141.6 182.31 142.5 180.17 143.74" fill="#ff2c2c"/><polygon points="174.28 137.41 172.73 136.51 175.04 137.83 176.59 138.73 174.28 137.41" fill="#823d3d"/><polygon points="174.74 135.87 173.19 134.97 176.15 136.66 177.7 137.56 174.74 135.87" fill="#5f2221"/><polygon points="174.76 135.79 173.21 134.89 176.21 136.6 177.76 137.5 174.76 135.79" fill="#5f2221"/><polygon points="170.22 143.48 168.67 142.58 171.9 137 173.44 137.9 170.22 143.48" fill="#8b4141"/><polygon points="173.44 137.9 171.9 137 172.73 136.51 174.28 137.41 173.44 137.9" fill="#8d4242"/><polygon points="163.62 153.22 162.07 152.32 167.2 143.43 168.75 144.33 163.62 153.22" fill="#8b4141"/><polygon points="168.75 144.33 167.2 143.43 168.67 142.58 170.22 143.48 168.75 144.33" fill="#8d4242"/><polygon points="169.76 142.47 168.21 141.57 171.43 135.99 172.98 136.89 169.76 142.47" fill="#652423"/><polygon points="172.98 136.89 171.43 135.99 173.19 134.97 174.74 135.87 172.98 136.89" fill="#662524"/><polygon points="169.73 142.42 168.18 141.52 171.41 135.93 172.96 136.83 169.73 142.42" fill="#ff2c2c"/><polygon points="172.96 136.83 171.41 135.93 173.21 134.89 174.76 135.79 172.96 136.83" fill="#ff2c2c"/><polygon points="168.28 143.32 166.74 142.42 168.21 141.57 169.76 142.47 168.28 143.32" fill="#662524"/><polygon points="163.15 152.21 161.6 151.31 166.74 142.42 168.28 143.32 163.15 152.21" fill="#652423"/><polygon points="163.13 152.16 161.58 151.26 166.71 142.37 168.26 143.27 163.13 152.16" fill="#ff2c2c"/><polygon points="168.26 143.27 166.71 142.37 168.18 141.52 169.73 142.42 168.26 143.27" fill="#ff2c2c"/><polygon points="158.58 168.27 157.03 167.37 157 155.25 158.54 156.15 158.58 168.27" fill="#ff4242"/><polygon points="158.54 156.15 157 155.25 162.07 152.32 163.62 153.22 158.54 156.15" fill="#8d4242"/><polygon points="158.54 154.88 156.99 153.97 161.6 151.31 163.15 152.21 158.54 154.88" fill="#662524"/><polygon points="174.74 135.87 177.7 137.56 177.72 142.44 180.14 143.82 182.33 142.55 185.85 136.47 190.06 134.04 192.86 135.63 192.85 137.43 189.6 135.58 186.31 137.48 182.8 143.56 179.69 145.36 176.61 143.61 176.59 138.73 174.28 137.41 173.44 137.9 170.22 143.48 168.75 144.33 163.62 153.22 158.54 156.15 158.54 154.88 163.15 152.21 168.28 143.32 169.76 142.47 172.98 136.89 174.74 135.87" fill="#db1212"/><polygon points="158.54 156.15 157 155.25 156.99 153.97 158.54 154.88 158.54 156.15" fill="#5e2221"/><polygon points="158.54 154.81 156.99 153.91 161.58 151.26 163.13 152.16 158.54 154.81" fill="#ff2c2c"/><polygon points="158.54 156.15 157 155.25 156.99 153.91 158.54 154.81 158.54 156.15" fill="#ff2c2c"/><polygon points="174.76 135.79 177.76 137.5 177.77 142.38 180.17 143.74 182.31 142.5 185.82 136.42 190.08 133.96 192.86 135.54 192.86 135.63 190.06 134.04 185.85 136.47 182.33 142.55 180.14 143.82 177.72 142.44 177.7 137.56 174.74 135.87 172.98 136.89 169.76 142.47 168.28 143.32 163.15 152.21 158.54 154.88 158.54 156.15 158.54 154.81 163.13 152.16 168.26 143.27 169.73 142.42 172.96 136.83 174.76 135.79" fill="#db1212"/></g><g style="isolation:isolate"><polygon points="122.48 188.57 121.7 188.12 121.69 186 122.47 186.45 122.48 188.57" fill="#c41616"/><polygon points="122.02 186.71 121.24 186.26 121.24 185.68 122.02 186.13 122.02 186.71" fill="#c41616"/><polygon points="122.02 186.13 121.24 185.68 122.31 185.07 123.08 185.52 122.02 186.13" fill="#c41616"/><polygon points="123.08 185.52 123.09 188.22 122.48 188.57 122.47 186.45 122.02 186.71 122.02 186.13 123.08 185.52" fill="#ff2c2c"/></g><g style="isolation:isolate"><g style="isolation:isolate"><g clip-path="url(#e85ecb55-a9dc-4e10-8f4c-b5a93ad1acf1)"><path d="M121.3,188.61l-.77-.45a.21.21,0,0,1,.21,0l.77.45q-.08,0-.21,0Z" fill="#c41616"/></g></g><g style="isolation:isolate"><g clip-path="url(#bc04cc5c-bf49-4109-8fc5-b423d7d05ff8)"><path d="M121.1,189.3l-.78-.45a.2.2,0,0,1-.08-.19.6.6,0,0,1,.29-.5l.77.45a.59.59,0,0,0-.28.5.2.2,0,0,0,.08.19Z" fill="#c41616"/></g></g><path d="M121.3,188.61c.17-.1.29,0,.29.17a.62.62,0,0,1-.29.5c-.16.09-.28,0-.28-.17A.59.59,0,0,1,121.3,188.61Z" fill="#ff2c2c"/></g><g style="isolation:isolate"><g style="isolation:isolate"><g clip-path="url(#e45e7ff3-a177-4e11-85cb-2d31c37d8073)"><path d="M119.67,189.63l-.77-.45a.2.2,0,0,0,.19,0l.77.45a.2.2,0,0,1-.19,0Z" fill="#c41616"/></g></g><g style="isolation:isolate"><g clip-path="url(#af95ea52-a3a7-403d-9fbf-442e97b099d1)"><path d="M119.86,189.6l-.77-.45c.23-.13.33-.45.33-1.06,0-.43,0-.65-.15-.71l.77.45c.1.06.15.28.15.71,0,.61-.09.93-.33,1.06Z" fill="#c41616"/></g></g><g style="isolation:isolate"><g clip-path="url(#bb74df13-772f-40b5-83ca-5a33546cccb9)"><path d="M119.85,187.36l-.77-.45a.62.62,0,0,1,.62-.09l.77.45a.62.62,0,0,0-.62.09Z" fill="#c41616"/></g></g><g style="isolation:isolate"><g clip-path="url(#fc4a9618-ee1c-4d72-9b8b-b7d9a9cee19c)"><path d="M119.24,190.19l-.77-.45c-.2-.12-.31-.43-.31-.93a2.05,2.05,0,0,1,.92-1.9l.77.45a2,2,0,0,0-.91,1.9q0,.75.3.93Z" fill="#c41616"/></g></g><path d="M119.85,187.36c.59-.34.92,0,.93.84a2.07,2.07,0,0,1-.92,1.9c-.59.34-.92,0-.92-.84A2,2,0,0,1,119.85,187.36Zm0,2.24c.24-.13.33-.45.33-1.06s-.1-.82-.33-.69-.34.45-.34,1.07.1.82.34.68Z" fill="#ff2c2c"/></g><g style="isolation:isolate"><polygon points="117.75 190.33 116.98 189.88 116.98 189.44 117.75 189.9 117.75 190.33" fill="#c41616"/><polygon points="117.75 189.9 116.98 189.44 117.86 188.93 118.64 189.38 117.75 189.9" fill="#c41616"/><polygon points="118.64 189.38 118.64 189.82 117.75 190.33 117.75 189.9 118.64 189.38" fill="#ff2c2c"/></g><g style="isolation:isolate"><g style="isolation:isolate"><g clip-path="url(#aab3cb56-7ecc-4c3e-a6fb-af9eadf81a28)"><path d="M128.36,184.73l-.78-.45a.15.15,0,0,0,.18,0l.77.45a.14.14,0,0,1-.17,0Z" fill="#c41616"/></g></g><g style="isolation:isolate"><g clip-path="url(#f8df46bb-215d-4ba8-b40a-6b163d2fd2ac)"><path d="M128.53,184.71l-.77-.45a.68.68,0,0,0,.28-.6c0-.17,0-.27-.11-.31l.78.45c.06,0,.1.14.1.31a.66.66,0,0,1-.28.6Z" fill="#c41616"/></g></g><g style="isolation:isolate"><g clip-path="url(#bbf38126-5973-431c-b4c9-b3ebe3d43bc7)"><path d="M128.53,183.45l-.77-.45a.45.45,0,0,1,.46-.06l.78.45a.46.46,0,0,0-.47.06Z" fill="#c41616"/></g></g><g style="isolation:isolate"><g clip-path="url(#f1e8b134-5ab9-4615-aed9-f834a993fa30)"><path d="M128.07,185.15l-.78-.45c-.12-.07-.19-.24-.19-.5a1.37,1.37,0,0,1,.66-1.2l.77.45a1.39,1.39,0,0,0-.66,1.2c0,.26.07.43.2.5Z" fill="#c41616"/></g></g><path d="M128.53,183.45c.4-.23.66-.06.66.44a1.38,1.38,0,0,1-.66,1.2c-.4.23-.65.06-.66-.44A1.39,1.39,0,0,1,128.53,183.45Zm0,1.26a.66.66,0,0,0,.28-.6c0-.28-.11-.39-.28-.29a.69.69,0,0,0-.28.61c0,.27.11.38.28.28Z" fill="#ff2c2c"/><polygon points="128.11 182.61 128.67 182.29 127.01 185.95 126.45 186.27 128.11 182.61" fill="#ff2c2c"/><polygon points="128.11 182.61 127.34 182.16 127.9 181.84 128.67 182.29 128.11 182.61" fill="#c41616"/><polygon points="126.45 186.27 125.67 185.82 127.34 182.16 128.11 182.61 126.45 186.27" fill="#c41616"/><g style="isolation:isolate"><g clip-path="url(#e214f0f2-8498-420b-93c0-e013ef94b279)"><path d="M126.43,184.76l-.77-.45a.16.16,0,0,0,.17,0,.66.66,0,0,0,.28-.6c0-.17,0-.27-.1-.31l.77.45c.07,0,.1.14.1.31a.68.68,0,0,1-.27.6.18.18,0,0,1-.18,0Z" fill="#c41616"/></g></g><g style="isolation:isolate"><g clip-path="url(#e6e84114-6dfd-4911-935b-db598c2399b3)"><path d="M126.14,185.17l-.77-.45c-.13-.07-.2-.24-.2-.5a1.39,1.39,0,0,1,.66-1.2.46.46,0,0,1,.47-.06l.77.45c-.11-.07-.27,0-.47.06a1.38,1.38,0,0,0-.65,1.2c0,.26.07.43.19.5Z" fill="#c41616"/></g></g><path d="M127.26,183.91a1.38,1.38,0,0,1-.65,1.2c-.4.23-.66.06-.66-.44a1.38,1.38,0,0,1,.65-1.2C127,183.24,127.26,183.41,127.26,183.91Zm-.93.54c0,.27.1.39.28.28a.68.68,0,0,0,.27-.6c0-.28-.1-.39-.28-.29a.7.7,0,0,0-.27.61Z" fill="#ff2c2c"/></g><g style="isolation:isolate"><g style="isolation:isolate"><g clip-path="url(#f9542a38-00a5-4433-9f74-deb1c5ebe691)"><path d="M124.88,186.66l-.77-.45a.66.66,0,0,0,.33-.58.27.27,0,0,0-.08-.22l.77.45a.24.24,0,0,1,.09.22.67.67,0,0,1-.34.58Z" fill="#c41616"/></g></g><g style="isolation:isolate"><g clip-path="url(#f5745027-f5e8-40fe-9833-c0eb5df7671b)"><path d="M124.62,186.7l-.77-.45c.06,0,.14,0,.26,0l.77.45a.29.29,0,0,1-.26,0Z" fill="#c41616"/></g></g><g style="isolation:isolate"><g clip-path="url(#ff833a7b-32b7-4e62-9a50-685517b626ed)"><path d="M125,185.32l-.78-.45a.55.55,0,0,1,.55-.07l.77.45a.53.53,0,0,0-.54.07Z" fill="#c41616"/></g></g><g style="isolation:isolate"><path d="M124.47,185.93l-.77-.45a1.32,1.32,0,0,1,.54-.61l.78.45A1.29,1.29,0,0,0,124.47,185.93Z" fill="#c41616"/><g clip-path="url(#eaa5e454-b5ca-4c19-8178-089ed9bd8e3e)"><path d="M124.47,185.93l-.77-.45a1.32,1.32,0,0,1,.54-.61l.78.45a1.29,1.29,0,0,0-.55.61Z" fill="#c41616"/></g></g><g style="isolation:isolate"><g clip-path="url(#a811eaef-4a5b-4162-a448-a821526eb55f)"><path d="M124.22,187.29l-.78-.45c-.2-.12-.31-.41-.31-.86a2.35,2.35,0,0,1,1.06-2,1.32,1.32,0,0,1,.75-.21l.78.45a1.3,1.3,0,0,0-.75.21,2.3,2.3,0,0,0-1.06,2c0,.45.11.74.31.86Z" fill="#c41616"/></g></g><path d="M125,185.32c.45-.26.75-.08.75.45a1.7,1.7,0,0,1-.86,1.43c-.62.36-1,.06-1-.77a2.3,2.3,0,0,1,1.06-2,1.3,1.3,0,0,1,.75-.21l-.23.61a.71.71,0,0,0-.48.11,1.08,1.08,0,0,0-.54,1A1.29,1.29,0,0,1,125,185.32Zm-.14,1.34a.67.67,0,0,0,.34-.58c0-.23-.12-.3-.33-.18a.67.67,0,0,0-.35.58c0,.2.11.31.34.18Z" fill="#ff2c2c"/></g><g style="isolation:isolate"><polygon points="150.74 148.56 149.97 148.11 154.39 145.56 155.16 146.01 150.74 148.56" fill="#db1212"/><polygon points="152.96 150.81 152.19 150.36 149.97 148.11 150.74 148.56 152.96 150.81" fill="#c91818"/><polygon points="150.74 148.56 155.16 146.01 152.96 150.81 150.74 148.56" fill="#ff2c2c"/></g><g style="isolation:isolate"><g style="isolation:isolate"><g clip-path="url(#ada07b4e-8209-48ef-a300-9de51bca2a54)"><path d="M191.85,158.45l-2.38-1.39a1.86,1.86,0,0,1,1.85-.18l2.38,1.39a1.81,1.81,0,0,0-1.85.18Z" fill="#e0dfff"/></g></g><g style="isolation:isolate"><g clip-path="url(#aff0e81f-8bc2-4bbf-be48-d44e58135992)"><path d="M113.65,235.51l-2.38-1.39a1.81,1.81,0,0,1-.76-1.67l2.38,1.39a1.85,1.85,0,0,0,.76,1.67Z" fill="#bfbdff"/></g></g><polygon points="112.89 233.84 110.51 232.45 110.43 205.69 112.82 207.07 112.89 233.84" fill="#bfbdff"/><polygon points="115.41 202.58 113.03 201.2 189.47 157.06 191.85 158.45 115.41 202.58" fill="#e0dfff"/><g style="isolation:isolate"><g clip-path="url(#e60cf59b-fa09-4fdf-94c8-5b2478e64264)"><path d="M112.82,207.07l-2.39-1.38a5.73,5.73,0,0,1,2.6-4.49l2.38,1.38a5.69,5.69,0,0,0-2.59,4.49Z" fill="url(#aeaaccfb-95bb-4010-ac9b-ae31b15ca7f8)"/></g></g><path d="M191.85,158.45c1.44-.83,2.61-.16,2.61,1.49l.08,26.76a5.73,5.73,0,0,1-2.6,4.49L115.5,235.33c-1.43.83-2.6.16-2.61-1.49l-.07-26.77a5.69,5.69,0,0,1,2.59-4.49Z" fill="#fff"/></g><g style="isolation:isolate"><g style="isolation:isolate"><g clip-path="url(#ac65c885-dd4b-4ae5-956c-9eef8ba39164)"><path d="M124.26,219.92l-1.55-.9a.8.8,0,0,1,.79-.08l1.55.91a.77.77,0,0,0-.79.07Z" fill="#777687"/></g></g><polygon points="119.47 222.69 117.92 221.79 122.71 219.02 124.26 219.92 119.47 222.69" fill="#777687"/><g style="isolation:isolate"><g clip-path="url(#ed9109fc-5580-4043-82f7-37cfb9a71bb3)"><path d="M118.69,225.32l-1.55-.9a.82.82,0,0,1-.33-.72,2.44,2.44,0,0,1,1.11-1.91l1.55.9a2.44,2.44,0,0,0-1.11,1.91.8.8,0,0,0,.33.72Z" fill="#777687"/></g></g><path d="M124.26,219.92c.61-.35,1.11-.07,1.11.64a2.42,2.42,0,0,1-1.11,1.91l-4.78,2.77c-.62.35-1.11.07-1.12-.64a2.44,2.44,0,0,1,1.11-1.91Z" fill="#a6a5bd"/></g><g style="isolation:isolate"><g style="isolation:isolate"><path d="M136.46,211.46l1.55.9a.77.77,0,0,0-.79.08l-1.54-.9A.76.76,0,0,1,136.46,211.46Z" fill="#777687"/><g clip-path="url(#a0c94f54-633e-48e7-b2d9-325df7454195)"><path d="M137.22,212.44l-1.54-.9a.76.76,0,0,1,.78-.08l1.55.9a.77.77,0,0,0-.79.08Z" fill="#777687"/></g></g><polygon points="128.46 217.49 126.92 216.59 135.68 211.54 137.22 212.44 128.46 217.49" fill="#777687"/><g style="isolation:isolate"><g clip-path="url(#b0d4cc70-fe08-4086-ab2b-5cadb559364b)"><path d="M127.68,220.12l-1.55-.9a.76.76,0,0,1-.32-.71,2.47,2.47,0,0,1,1.1-1.92l1.55.9a2.47,2.47,0,0,0-1.1,1.92.76.76,0,0,0,.32.71Z" fill="#777687"/></g></g><path d="M137.22,212.44c.62-.36,1.12-.07,1.12.63a2.44,2.44,0,0,1-1.11,1.92l-8.76,5.06c-.61.35-1.11.06-1.11-.64a2.47,2.47,0,0,1,1.1-1.92Z" fill="#a6a5bd"/></g><g style="isolation:isolate"><g style="isolation:isolate"><path d="M139.37,204.85l1.55.9a.77.77,0,0,0-.79.08l-1.55-.9A.77.77,0,0,1,139.37,204.85Z" fill="#777687"/><g clip-path="url(#b6e66b5c-e3da-4350-889c-f48c65390ed7)"><path d="M140.13,205.83l-1.55-.9a.77.77,0,0,1,.79-.08l1.55.9a.77.77,0,0,0-.79.08Z" fill="#777687"/></g></g><polygon points="119.46 217.77 117.91 216.87 138.58 204.93 140.13 205.83 119.46 217.77" fill="#777687"/><g style="isolation:isolate"><g clip-path="url(#b1f7df36-f353-49b9-a6a7-a65d2eb40d41)"><path d="M118.67,220.39l-1.55-.9a.76.76,0,0,1-.32-.71,2.42,2.42,0,0,1,1.11-1.91l1.55.9a2.42,2.42,0,0,0-1.11,1.91.76.76,0,0,0,.32.71Z" fill="#777687"/></g></g><path d="M140.13,205.83c.61-.35,1.11-.07,1.11.63a2.41,2.41,0,0,1-1.1,1.92l-20.68,11.94c-.61.35-1.11.07-1.11-.64a2.42,2.42,0,0,1,1.11-1.91Z" fill="#a6a5bd"/></g><g style="isolation:isolate"><g style="isolation:isolate"><g clip-path="url(#a3f42d03-0ac0-48bf-8337-3f34831473f6)"><path d="M144.6,192.45l-1.55-.9a1.57,1.57,0,0,1,1.58-.15l1.55.9a1.57,1.57,0,0,0-1.58.15Z" fill="#777687"/></g></g><polygon points="120.53 206.35 118.98 205.45 143.05 191.55 144.6 192.45 120.53 206.35" fill="#777687"/><g style="isolation:isolate"><g clip-path="url(#bbd9e667-ba5a-4fa6-99e8-4bd21e66dd1b)"><path d="M119,211.6l-1.55-.9a1.56,1.56,0,0,1-.65-1.42,4.88,4.88,0,0,1,2.21-3.83l1.55.9a4.88,4.88,0,0,0-2.21,3.83,1.54,1.54,0,0,0,.65,1.42Z" fill="#777687"/></g></g><path d="M144.6,192.45c1.22-.7,2.22-.14,2.22,1.27a4.83,4.83,0,0,1-2.21,3.83l-24.06,13.9c-1.23.7-2.22.14-2.23-1.27a4.88,4.88,0,0,1,2.21-3.83Z" fill="#a6a5bd"/></g><g style="isolation:isolate"><polygon points="187.95 177.49 186.4 176.59 191.12 168.43 192.66 169.33 187.95 177.49" fill="#607a4d"/><polygon points="187.49 176.48 185.94 175.58 191.11 166.62 192.66 167.52 187.49 176.48" fill="#3c542b"/><polygon points="187.46 176.43 185.91 175.53 191.11 166.53 192.66 167.43 187.46 176.43" fill="#4fcf53"/><polygon points="183.95 179.8 182.41 178.9 186.4 176.59 187.95 177.49 183.95 179.8" fill="#617c4e"/><polygon points="177.46 191.05 175.91 190.15 182.41 178.9 183.95 179.8 177.46 191.05" fill="#607a4d"/><polygon points="183.49 178.79 181.94 177.89 185.94 175.58 187.49 176.48 183.49 178.79" fill="#3d552c"/><polygon points="177 190.04 175.45 189.14 181.94 177.89 183.49 178.79 177 190.04" fill="#3c542b"/><polygon points="176.97 189.98 175.42 189.08 181.92 177.83 183.47 178.73 176.97 189.98" fill="#4fcf53"/><polygon points="183.47 178.73 181.92 177.83 185.91 175.53 187.46 176.43 183.47 178.73" fill="#4fcf53"/><polygon points="173.6 193.27 172.05 192.37 175.91 190.15 177.46 191.05 173.6 193.27" fill="#617c4e"/><polygon points="174.06 191.73 172.51 190.83 175.45 189.14 177 190.04 174.06 191.73" fill="#3d552c"/><polygon points="174.08 191.65 172.53 190.75 175.42 189.08 176.97 189.98 174.08 191.65" fill="#4fcf53"/><polygon points="171.36 192 169.81 191.09 172.05 192.37 173.6 193.27 171.36 192" fill="#5a7348"/><polygon points="171.82 190.45 170.27 189.55 172.51 190.83 174.06 191.73 171.82 190.45" fill="#384f28"/><polygon points="171.84 190.37 170.29 189.47 172.53 190.75 174.08 191.65 171.84 190.37" fill="#384f28"/><polygon points="167.83 194.04 166.28 193.14 169.81 191.09 171.36 192 167.83 194.04" fill="#617c4e"/><polygon points="168.28 192.49 166.73 191.59 170.27 189.55 171.82 190.45 168.28 192.49" fill="#3d552c"/><polygon points="168.31 192.41 166.76 191.51 170.29 189.47 171.84 190.37 168.31 192.41" fill="#4fcf53"/><polygon points="158.96 209.05 157.41 208.15 157.39 202.14 158.94 203.04 158.96 209.05" fill="#53bf37"/><polygon points="165.05 192.46 163.5 191.56 166.28 193.14 167.83 194.04 165.05 192.46" fill="#5a7348"/><polygon points="158.94 203.04 157.39 202.14 163.5 191.56 165.05 192.46 158.94 203.04" fill="#607a4d"/><polygon points="192.66 169.33 192.72 189.56 158.96 209.05 158.94 203.04 165.05 192.46 167.83 194.04 171.36 192 173.6 193.27 177.46 191.05 183.95 179.8 187.95 177.49 192.66 169.33" fill="#69f246"/><polygon points="158.94 203.04 157.39 202.14 157.39 200.34 158.94 201.24 158.94 203.04" fill="#348f37"/><polygon points="192.66 167.52 192.66 169.33 187.95 177.49 183.95 179.8 177.46 191.05 173.6 193.27 171.36 192 167.83 194.04 165.05 192.46 158.94 203.04 158.94 201.24 165.05 190.65 168.28 192.49 171.82 190.45 174.06 191.73 177 190.04 183.49 178.79 187.49 176.48 192.66 167.52" fill="#3a9e3d"/><polygon points="158.94 201.24 157.39 200.34 163.5 189.75 165.05 190.65 158.94 201.24" fill="#3c542b"/><polygon points="165.05 190.65 163.5 189.75 166.73 191.59 168.28 192.49 165.05 190.65" fill="#384f28"/><polygon points="158.94 201.24 157.39 200.34 157.39 200.25 158.94 201.15 158.94 201.24" fill="#3a9e3d"/><polygon points="165.05 190.56 163.5 189.66 166.76 191.51 168.31 192.41 165.05 190.56" fill="#384f28"/><polygon points="158.94 201.15 157.39 200.25 163.5 189.66 165.05 190.56 158.94 201.15" fill="#4fcf53"/><polygon points="192.66 167.43 192.66 167.52 187.49 176.48 183.49 178.79 177 190.04 174.06 191.73 171.82 190.45 168.28 192.49 165.05 190.65 158.94 201.24 158.94 201.15 165.05 190.56 168.31 192.41 171.84 190.37 174.08 191.65 176.97 189.98 183.47 178.73 187.46 176.43 192.66 167.43" fill="#6d984e"/></g><g style="isolation:isolate"><polygon points="119.94 231.03 119.17 230.58 119.16 228.46 119.94 228.91 119.94 231.03" fill="#2e7d30"/><polygon points="119.48 229.17 118.71 228.72 118.71 228.14 119.48 228.59 119.48 229.17" fill="#2e7d30"/><polygon points="119.48 228.59 118.71 228.14 119.77 227.53 120.55 227.98 119.48 228.59" fill="#2e7d30"/><polygon points="120.55 227.98 120.56 230.68 119.94 231.03 119.94 228.91 119.48 229.17 119.48 228.59 120.55 227.98" fill="#46be49"/></g><g style="isolation:isolate"><polygon points="118.13 231.67 117.36 231.22 117.36 230.59 118.13 231.03 118.13 231.67" fill="#2e7d30"/><polygon points="118.51 230.38 117.73 229.93 118.29 229.61 119.07 230.06 118.51 230.38" fill="#2e7d30"/><polygon points="117.57 231.36 116.8 230.91 116.8 230.47 117.57 230.92 117.57 231.36" fill="#2e7d30"/><polygon points="117.57 230.92 116.8 230.47 117.36 230.15 118.13 230.6 117.57 230.92" fill="#2e7d30"/><polygon points="118.13 230.6 117.36 230.15 117.35 229.5 118.13 229.95 118.13 230.6" fill="#2e7d30"/><polygon points="118.13 229.95 117.35 229.5 117.73 229.28 118.51 229.73 118.13 229.95" fill="#2e7d30"/><polygon points="118.51 229.73 118.51 230.38 119.07 230.06 119.07 230.5 118.51 230.82 118.51 231.46 118.13 231.67 118.13 231.03 117.57 231.36 117.57 230.92 118.13 230.6 118.13 229.95 118.51 229.73" fill="#46be49"/></g><g style="isolation:isolate"><g style="isolation:isolate"><g clip-path="url(#b1e21867-b3e2-435b-b410-404a9cacd4a6)"><path d="M128.71,225.53l-.77-.45s.1,0,.17,0l.78.45a.17.17,0,0,1-.18,0Z" fill="#2e7d30"/></g></g><g style="isolation:isolate"><g clip-path="url(#e083aff0-9a80-4185-98f7-c0993ee2a2d8)"><path d="M128.89,225.51l-.78-.45a.67.67,0,0,0,.28-.61c0-.16,0-.26-.1-.3l.77.45c.07,0,.1.14.1.3a.66.66,0,0,1-.27.61Z" fill="#2e7d30"/></g></g><g style="isolation:isolate"><g clip-path="url(#aedb4eed-5618-4101-8509-a4df088b1539)"><path d="M128.88,224.25l-.77-.45a.47.47,0,0,1,.47-.07l.77.45a.47.47,0,0,0-.47.07Z" fill="#2e7d30"/></g></g><g style="isolation:isolate"><g clip-path="url(#be2c28da-86d3-41ed-9544-7e9ec219cb3b)"><path d="M128.42,226l-.77-.45a.58.58,0,0,1-.19-.51,1.34,1.34,0,0,1,.65-1.19l.77.45a1.36,1.36,0,0,0-.65,1.19.58.58,0,0,0,.19.51Z" fill="#2e7d30"/></g></g><path d="M128.88,224.25c.41-.24.66-.07.66.43a1.37,1.37,0,0,1-.65,1.2c-.4.23-.66.07-.66-.44A1.36,1.36,0,0,1,128.88,224.25Zm0,1.26a.66.66,0,0,0,.27-.61c0-.28-.1-.38-.28-.28a.67.67,0,0,0-.27.6c0,.28.1.39.28.29Z" fill="#46be49"/><polygon points="128.47 223.41 129.03 223.08 127.36 226.75 126.8 227.07 128.47 223.41" fill="#46be49"/><polygon points="128.47 223.41 127.69 222.96 128.25 222.63 129.03 223.08 128.47 223.41" fill="#2e7d30"/><polygon points="126.8 227.07 126.03 226.62 127.69 222.96 128.47 223.41 126.8 227.07" fill="#2e7d30"/><g style="isolation:isolate"><g clip-path="url(#b3b27b43-849e-4ebb-b908-84a355eda747)"><path d="M126.78,225.55l-.77-.45s.1,0,.18,0a.69.69,0,0,0,.27-.61c0-.16,0-.26-.1-.3l.78.45c.06,0,.1.14.1.3a.69.69,0,0,1-.28.61.17.17,0,0,1-.18,0Z" fill="#2e7d30"/></g></g><g style="isolation:isolate"><g clip-path="url(#bf3c24ab-7379-4729-84ed-b4874575cdca)"><path d="M126.5,226l-.78-.45a.57.57,0,0,1-.19-.51,1.36,1.36,0,0,1,.65-1.19.47.47,0,0,1,.47-.07l.77.45a.46.46,0,0,0-.46.07,1.37,1.37,0,0,0-.66,1.19c0,.26.07.44.2.51Z" fill="#2e7d30"/></g></g><path d="M127.62,224.7a1.38,1.38,0,0,1-.66,1.2c-.4.23-.66.07-.66-.44a1.37,1.37,0,0,1,.66-1.19C127.36,224,127.61,224.2,127.62,224.7Zm-.94.54c0,.28.11.39.28.29a.69.69,0,0,0,.28-.61c0-.28-.11-.38-.28-.28a.66.66,0,0,0-.28.6Z" fill="#46be49"/></g><g style="isolation:isolate"><polygon points="125.85 226.5 125.08 226.05 125.38 225.87 126.15 226.32 125.85 226.5" fill="#2e7d30"/><polygon points="125.29 227.94 124.52 227.49 124.52 226.91 125.29 227.36 125.29 227.94" fill="#2e7d30"/><polygon points="124.85 227.07 124.08 226.62 124.52 226.37 125.29 226.82 124.85 227.07" fill="#2e7d30"/><polygon points="125.29 226.25 124.51 225.8 125.08 225.48 125.85 225.93 125.29 226.25" fill="#2e7d30"/><polygon points="125.29 226.82 124.52 226.37 124.51 225.8 125.29 226.25 125.29 226.82" fill="#2e7d30"/><polygon points="124.23 227.97 123.45 227.52 123.45 227.05 124.23 227.5 124.23 227.97" fill="#2e7d30"/><polygon points="125.5 225.11 124.85 227.07 125.29 226.82 125.29 226.25 125.85 225.93 125.85 226.5 126.15 226.32 126.16 226.86 125.85 227.03 125.86 227.62 125.29 227.94 125.29 227.36 124.23 227.97 124.23 227.5 124.92 225.45 125.5 225.11" fill="#46be49"/><polygon points="124.23 227.5 123.45 227.05 124.14 225 124.92 225.45 124.23 227.5" fill="#2e7d30"/><polygon points="124.92 225.45 124.14 225 124.73 224.66 125.5 225.11 124.92 225.45" fill="#2e7d30"/></g><g style="isolation:isolate"><g style="isolation:isolate"><g clip-path="url(#aa4140bf-2ad8-4e08-b815-0c9d8bd694d6)"><path d="M122.39,228.79l-.78-.45a.59.59,0,0,0,.6,0,.66.66,0,0,0,.37-.56.21.21,0,0,0-.07-.17l.77.45a.18.18,0,0,1,.07.17.66.66,0,0,1-.37.56.57.57,0,0,1-.59,0Z" fill="#2e7d30"/></g></g><polygon points="122.13 229.46 121.35 229.01 121.59 228.32 122.37 228.77 122.13 229.46" fill="#2e7d30"/><g style="isolation:isolate"><g clip-path="url(#a812cab5-4cd3-4ae9-98df-2150ea8f3e3f)"><path d="M122.89,227.61l-.78-.45a2.53,2.53,0,0,1,.22-.13c.31-.18.56-.22.72-.13l.78.45c-.16-.09-.41,0-.73.13l-.21.13Z" fill="#2e7d30"/></g></g><polygon points="122.33 228.49 121.55 228.04 121.55 226.5 122.32 226.95 122.33 228.49" fill="#2e7d30"/><polygon points="122.32 226.95 121.55 226.5 123.13 225.59 123.9 226.04 122.32 226.95" fill="#2e7d30"/><path d="M123.9,226v.57l-1,.58v.42l.21-.13c.55-.32.91-.19.91.29a1.8,1.8,0,0,1-1,1.49,1.4,1.4,0,0,1-.93.2l.24-.69a.56.56,0,0,0,.61,0,.66.66,0,0,0,.37-.56c0-.2-.13-.24-.37-.11s-.51.3-.65.4V227Z" fill="#46be49"/></g><g style="isolation:isolate"><g style="isolation:isolate"><g clip-path="url(#e48d07d6-a3ee-4c3f-8f6a-cc75e1ea57b6)"><path d="M121.65,229.41l-.77-.45a.21.21,0,0,1,.21,0l.77.45s-.12,0-.21,0Z" fill="#2e7d30"/></g></g><g style="isolation:isolate"><g clip-path="url(#f51ab4fb-8f31-4980-9ef7-eda317da8d30)"><path d="M121.45,230.1l-.77-.45a.22.22,0,0,1-.08-.2.58.58,0,0,1,.28-.49l.77.45a.6.6,0,0,0-.28.49.22.22,0,0,0,.08.2Z" fill="#2e7d30"/></g></g><path d="M121.65,229.41c.17-.1.29,0,.29.16a.6.6,0,0,1-.28.5c-.17.1-.29,0-.29-.17A.6.6,0,0,1,121.65,229.41Z" fill="#46be49"/></g><g style="isolation:isolate"><polygon points="150.75 191.98 149.98 191.53 152.18 186.73 152.95 187.18 150.75 191.98" fill="#3a9e3d"/><polygon points="152.95 187.18 155.17 189.43 150.75 191.98 152.95 187.18" fill="#46be49"/></g><g style="isolation:isolate"><path d="M192.25,288.73l-3.5-2c-2-1.18-3.28-3.68-3.29-7.23l3.5,2C189,285.05,190.22,287.55,192.25,288.73Z" fill="#bfbdff"/><path d="M267.14,83l3.5,2c-2.05-1.19-4.89-1-8,.78l-3.5-2C262.26,81.93,265.09,81.76,267.14,83Z" fill="#e0dfff"/><polygon points="188.96 281.5 185.46 279.47 185.26 139.35 188.76 141.39 188.96 281.5" fill="#bfbdff"/><polygon points="199.99 121.93 196.49 119.9 259.12 83.74 262.62 85.77 199.99 121.93" fill="#e0dfff"/><path d="M188.76,141.39l-3.5-2c0-7.15,5-15.86,11.23-19.45l3.5,2C193.76,125.52,188.74,134.23,188.76,141.39Z" fill="url(#bb4c0528-d0ae-4f57-84ae-58fa7db48ca8)"/><path d="M262.62,85.77c6.22-3.59,11.28-.71,11.31,6.44l.2,140.12c0,7.15-5,15.86-11.23,19.45l-62.64,36.16c-6.22,3.6-11.28.71-11.3-6.44l-.2-140.11c0-7.16,5-15.87,11.23-19.46Z" fill="url(#aa16537e-c9f7-4b91-bb14-9cce0e61d1ae)"/><g style="mix-blend-mode:multiply"><path d="M256.61,102.88c2.64-1.52,4.78-.3,4.79,2.73l.06,19.48a10.54,10.54,0,0,1-4.77,8.26l-16.95,9.78c-2.64,1.53-4.79.3-4.8-2.73l-.05-19.48a10.49,10.49,0,0,1,4.76-8.25Z" fill="#9795cc"/><path d="M267.28,139.46c6.22-3.59,11.28-.71,11.3,6.45l.21,71.46c0,7.15-5,15.86-11.24,19.46L204.92,273c-6.22,3.59-11.28.71-11.3-6.45l-.21-71.46c0-7.15,5-15.86,11.24-19.46Z" fill="#9795cc"/><path d="M219,124.55c2.64-1.53,4.79-.3,4.8,2.73l0,19.48a10.49,10.49,0,0,1-4.76,8.25l-17,9.79c-2.64,1.52-4.78.3-4.79-2.73l-.06-19.48a10.52,10.52,0,0,1,4.77-8.26Z" fill="#9795cc"/></g></g><g style="isolation:isolate"><path d="M203.64,277.66l-3.5-2c-2-1.18-3.27-3.68-3.28-7.23l3.49,2C200.36,274,201.62,276.49,203.64,277.66Z" fill="#bfbdff"/><path d="M278.54,140.54l3.49,2c-2-1.19-4.88-1-8,.78l-3.49-2C273.65,139.51,276.49,139.34,278.54,140.54Z" fill="#e0dfff"/><polygon points="200.35 270.43 196.86 268.4 196.65 196.94 200.15 198.97 200.35 270.43" fill="#bfbdff"/><polygon points="211.38 179.51 207.89 177.48 270.52 141.32 274.01 143.35 211.38 179.51" fill="#e0dfff"/><path d="M274,143.35c6.23-3.59,11.29-.71,11.31,6.44l.2,71.47c0,7.15-5,15.86-11.23,19.46l-62.63,36.16c-6.22,3.59-11.29.71-11.31-6.45l-.2-71.46c0-7.15,5-15.86,11.23-19.46Z" fill="#fff"/><path d="M200.15,199l-3.5-2c0-7.16,5-15.87,11.24-19.46l3.49,2C205.16,183.11,200.13,191.82,200.15,199Z" fill="url(#f6eda892-b3d6-40dc-bccf-e9bcfd90d71b)"/></g><polygon points="237.57 188.84 237.71 245.29 223.03 253.76 222.9 197.31 237.57 188.84" fill="#e0dfff"/><polygon points="218.39 213.91 218.49 256.39 203.81 264.86 203.72 222.38 218.39 213.91" fill="#e0dfff"/><polygon points="276.03 172.51 276.15 223.09 261.47 231.57 261.36 180.99 276.03 172.51" fill="#e0dfff"/><polygon points="256.77 168.08 256.93 234.19 242.25 242.67 242.09 176.55 256.77 168.08" fill="#e0dfff"/><g style="isolation:isolate"><polygon points="229.23 257.59 225.57 255.46 225.44 199 229.1 201.13 229.23 257.59" fill="#3161c2"/><polygon points="229.1 201.13 225.44 199 240.11 190.53 243.78 192.66 229.1 201.13" fill="#366bd6"/><polygon points="243.78 192.66 243.91 249.11 229.23 257.59 229.1 201.13 243.78 192.66" fill="#5788e6"/></g><g style="isolation:isolate"><polygon points="210.01 268.68 206.35 266.56 206.25 224.08 209.91 226.21 210.01 268.68" fill="#3161c2"/><polygon points="209.91 226.21 206.25 224.08 220.93 215.6 224.59 217.73 209.91 226.21" fill="#366bd6"/><polygon points="224.59 217.73 224.69 260.21 210.01 268.68 209.91 226.21 224.59 217.73" fill="#5788e6"/></g><g style="isolation:isolate"><polygon points="267.68 235.39 264.01 233.26 263.9 182.68 267.56 184.81 267.68 235.39" fill="#3161c2"/><polygon points="267.56 184.81 263.9 182.68 278.57 174.21 282.23 176.34 267.56 184.81" fill="#366bd6"/><polygon points="282.23 176.34 282.35 226.92 267.68 235.39 267.56 184.81 282.23 176.34" fill="#5788e6"/></g><g style="isolation:isolate"><polygon points="248.45 246.49 244.79 244.36 244.63 178.25 248.29 180.38 248.45 246.49" fill="#3161c2"/><polygon points="248.29 180.38 244.63 178.25 259.31 169.78 262.97 171.9 248.29 180.38" fill="#366bd6"/><polygon points="262.97 171.9 263.13 238.02 248.45 246.49 248.29 180.38 262.97 171.9" fill="#5788e6"/></g><g style="isolation:isolate"><path d="M276.46,337.35l-3.5-2c-2-1.17-3.28-3.67-3.29-7.22l3.5,2C273.18,333.67,274.43,336.17,276.46,337.35Z" fill="#a2ffd1"/><path d="M351.35,131.57l3.5,2c-2.05-1.19-4.89-1-8,.79l-3.5-2C346.46,130.55,349.3,130.38,351.35,131.57Z" fill="#a2ffd1"/><polygon points="273.17 330.12 269.67 328.09 269.47 187.97 272.97 190 273.17 330.12" fill="#a2ffd1"/><polygon points="284.2 170.55 280.7 168.52 343.33 132.36 346.83 134.39 284.2 170.55" fill="#a2ffd1"/><path d="M273,190l-3.5-2c0-7.15,5-15.86,11.23-19.45l3.5,2C278,174.14,273,182.85,273,190Z" fill="#a2ffd1"/><path d="M346.83,134.39c6.22-3.59,11.28-.71,11.3,6.44L358.34,281c0,7.15-5,15.86-11.23,19.45l-62.64,36.16c-6.22,3.59-11.28.71-11.3-6.44L273,190c0-7.15,5-15.86,11.23-19.45Z" fill="#8eff8b"/><g style="mix-blend-mode:multiply"><path d="M349.17,268.88c1.94-1.12,3.52-.21,3.53,2l0,10.29a7.74,7.74,0,0,1-3.51,6.07l-26,15c-1.93,1.12-3.52.21-3.53-2l0-10.29a7.79,7.79,0,0,1,3.51-6.07Z" fill="#a2ffd1"/></g><g style="mix-blend-mode:multiply"><path d="M308.59,292.31c1.94-1.12,3.52-.21,3.53,2l0,10.29a7.74,7.74,0,0,1-3.51,6.07l-26,15c-1.93,1.12-3.52.21-3.53-2l0-10.29a7.76,7.76,0,0,1,3.5-6.07Z" fill="#a2ffd1"/></g><g style="mix-blend-mode:multiply"><path d="M351.49,152.74c6.22-3.59,11.28-.7,11.3,6.45l.21,71.46c0,7.15-5,15.86-11.24,19.46l-62.63,36.16c-6.22,3.59-11.28.71-11.3-6.44l-.21-71.47c0-7.15,5-15.86,11.24-19.46Z" fill="#a2ffd1"/></g></g><g style="isolation:isolate"><path d="M287.85,290.94l-3.5-2c-2-1.17-3.27-3.67-3.28-7.23l3.49,2C284.57,287.27,285.83,289.77,287.85,290.94Z" fill="#bfbdff"/><path d="M362.75,153.82l3.49,2c-2.05-1.19-4.88-1-8,.78l-3.49-2C357.86,152.79,360.7,152.63,362.75,153.82Z" fill="#e0dfff"/><polygon points="284.56 283.71 281.07 281.68 280.86 210.22 284.36 212.25 284.56 283.71" fill="#bfbdff"/><polygon points="295.59 192.79 292.1 190.76 354.73 154.6 358.22 156.63 295.59 192.79" fill="#e0dfff"/><path d="M284.36,212.25l-3.5-2c0-7.16,5-15.86,11.24-19.46l3.49,2C289.37,196.39,284.34,205.1,284.36,212.25Z" fill="url(#ab3dd7dd-d15c-4d9b-b075-7a6ec03bd039)"/><path d="M358.22,156.63c6.23-3.59,11.29-.71,11.31,6.45l.2,71.46c0,7.15-5,15.86-11.23,19.46l-62.63,36.16c-6.23,3.59-11.29.71-11.31-6.44l-.2-71.47c0-7.15,5-15.86,11.23-19.46Z" fill="#45ff6a"/></g><polygon points="340.98 193.92 339.04 195.04 339.02 189.17 337.55 190.01 337.57 195.89 335.63 197.01 335.68 215.73 337.62 214.61 337.66 229.03 339.13 228.18 339.09 213.76 341.03 212.64 340.98 193.92" fill="#e0dfff"/><polygon points="331.47 228.87 331.43 215.43 329.49 216.54 329.53 229.99 331.47 228.87" fill="#e0dfff"/><polygon points="328.01 213.38 328.02 217.39 326.08 218.51 326.12 231.96 328.06 230.84 328.08 238.96 329.55 238.11 329.53 229.99 329.49 216.54 329.48 212.53 328.01 213.38" fill="#e0dfff"/><polygon points="360.24 210.93 360.18 192.21 358.24 193.33 358.21 183.04 356.75 183.89 356.77 194.17 354.83 195.29 354.89 214.02 356.83 212.9 356.84 217.67 358.31 216.83 358.3 212.06 360.24 210.93" fill="#e0dfff"/><polygon points="348.58 174.89 348.67 205.47 350.61 204.35 350.53 173.76 348.58 174.89" fill="#e0dfff"/><polygon points="348.58 174.89 348.57 169.31 347.1 170.15 347.12 175.73 345.17 176.85 345.26 207.44 347.2 206.32 347.23 216.62 348.7 215.78 348.67 205.47 348.58 174.89" fill="#e0dfff"/><polygon points="321.87 228.73 319.92 229.85 319.91 226.19 318.45 227.04 318.46 230.7 316.51 231.82 316.56 246.86 318.5 245.74 318.52 251.81 319.98 250.96 319.97 244.89 321.91 243.77 321.87 228.73" fill="#e0dfff"/><polygon points="312.28 234.26 310.33 235.39 310.31 226.82 308.84 227.67 308.87 236.23 306.93 237.35 307 264.96 308.94 263.84 308.96 269.65 310.43 268.8 310.41 262.99 312.35 261.87 312.28 234.26" fill="#e0dfff"/><polygon points="302.74 257.44 302.68 237.2 300.74 238.32 300.8 258.56 302.74 257.44" fill="#e0dfff"/><polygon points="299.24 229.51 299.27 239.17 297.33 240.29 297.39 260.53 299.33 259.41 299.34 264.24 300.81 263.39 300.8 258.56 300.74 238.32 300.71 228.66 299.24 229.51" fill="#e0dfff"/><polygon points="293.07 234.89 291.13 236.01 291.17 251.71 293.11 250.59 293.07 234.89" fill="#e0dfff"/><polygon points="291.11 230.64 289.64 231.48 289.66 236.85 287.72 237.97 287.76 253.68 289.7 252.56 289.73 261.04 291.19 260.19 291.17 251.71 291.13 236.01 291.11 230.64" fill="#e0dfff"/><polygon points="345.58 198.39 341.14 195.81 343.08 194.68 347.53 197.27 345.58 198.39" fill="#46be49"/><polygon points="344.21 232.38 339.77 229.8 339.73 215.38 344.17 217.96 344.21 232.38" fill="#3a9e3d"/><polygon points="344.12 199.24 339.67 196.65 339.66 190.78 344.1 193.36 344.12 199.24" fill="#3a9e3d"/><polygon points="342.17 200.36 337.73 197.78 339.67 196.65 344.12 199.24 342.17 200.36" fill="#46be49"/><polygon points="342.23 219.08 337.78 216.5 337.73 197.78 342.17 200.36 342.23 219.08" fill="#3a9e3d"/><polygon points="344.1 193.36 339.66 190.78 341.12 189.93 345.57 192.52 344.1 193.36" fill="#46be49"/><polygon points="347.53 197.27 345.58 198.39 345.64 217.11 347.58 215.99 347.53 197.27" fill="#61e041"/><polygon points="345.57 192.52 344.1 193.36 344.12 199.24 342.17 200.36 342.23 219.08 344.17 217.96 344.21 232.38 345.68 231.53 345.64 217.11 345.58 198.39 345.57 192.52" fill="#61e041"/><polygon points="336.04 219.9 331.6 217.31 333.54 216.19 337.98 218.77 336.04 219.9" fill="#46be49"/><polygon points="334.63 242.31 330.19 239.73 330.17 231.61 334.61 234.19 334.63 242.31" fill="#3a9e3d"/><polygon points="334.57 220.74 330.13 218.16 330.12 214.15 334.56 216.73 334.57 220.74" fill="#3a9e3d"/><polygon points="332.63 221.86 328.19 219.28 330.13 218.16 334.57 220.74 332.63 221.86" fill="#46be49"/><polygon points="332.67 235.31 328.22 232.73 328.19 219.28 332.63 221.86 332.67 235.31" fill="#3a9e3d"/><polygon points="334.56 216.73 330.12 214.15 331.58 213.3 336.03 215.88 334.56 216.73" fill="#46be49"/><polygon points="338.02 232.22 337.98 218.77 336.04 219.9 336.08 233.34 338.02 232.22" fill="#61e041"/><polygon points="334.56 216.73 334.57 220.74 332.63 221.86 332.67 235.31 334.61 234.19 334.63 242.31 336.1 241.46 336.08 233.34 336.04 219.9 336.03 215.88 334.56 216.73" fill="#61e041"/><polygon points="364.79 196.68 360.35 194.09 362.29 192.97 366.73 195.56 364.79 196.68"/><polygon points="363.39 221.02 358.94 218.44 358.93 213.67 363.38 216.25 363.39 221.02"/><polygon points="363.32 197.52 358.88 194.94 358.85 184.66 363.29 187.24 363.32 197.52"/><polygon points="361.38 198.64 356.94 196.06 358.88 194.94 363.32 197.52 361.38 198.64"/><polygon points="361.43 217.37 356.99 214.79 356.94 196.06 361.38 198.64 361.43 217.37"/><polygon points="363.29 187.24 358.85 184.66 360.32 183.81 364.76 186.39 363.29 187.24"/><g style="isolation:isolate"><polygon points="366.73 195.56 364.79 196.68 364.84 215.4 366.78 214.28 366.73 195.56"/><polygon points="364.79 196.68 364.76 186.39 363.29 187.24 363.32 197.52 361.38 198.64 361.43 217.37 363.38 216.25 363.38 216.25 363.39 221.02 364.86 220.18 364.84 215.4 364.79 196.68"/></g><polygon points="355.13 178.24 350.69 175.65 352.63 174.53 357.07 177.11 355.13 178.24" fill="#46be49"/><polygon points="353.78 219.97 349.34 217.39 349.31 207.09 353.75 209.67 353.78 219.97" fill="#3a9e3d"/><polygon points="353.67 179.08 349.22 176.5 349.2 170.92 353.65 173.5 353.67 179.08" fill="#3a9e3d"/><polygon points="351.72 180.2 347.28 177.62 349.22 176.5 353.67 179.08 351.72 180.2" fill="#46be49"/><polygon points="351.81 210.79 347.36 208.21 347.28 177.62 351.72 180.2 351.81 210.79" fill="#3a9e3d"/><polygon points="353.65 173.5 349.2 170.92 350.67 170.07 355.12 172.66 353.65 173.5" fill="#46be49"/><g style="isolation:isolate"><polygon points="357.16 207.7 357.07 177.11 355.13 178.24 355.22 208.82 357.16 207.7" fill="#61e041"/><polygon points="355.13 178.24 355.12 172.66 353.65 173.5 353.67 179.08 351.72 180.2 351.81 210.79 353.75 209.67 353.78 219.97 355.25 219.13 355.22 208.82 355.13 178.24" fill="#61e041"/></g><polygon points="326.47 233.2 322.03 230.62 323.97 229.5 328.41 232.08 326.47 233.2"/><polygon points="325.06 255.16 320.62 252.57 320.6 246.5 325.05 249.08 325.06 255.16"/><polygon points="323.06 235.17 318.62 232.59 320.56 231.46 325 234.05 323.06 235.17"/><polygon points="323.11 250.21 318.66 247.62 318.62 232.59 323.06 235.17 323.11 250.21"/><polygon points="325 234.05 320.56 231.46 320.55 227.81 324.99 230.39 325 234.05"/><polygon points="324.99 230.39 320.55 227.81 322.02 226.96 326.46 229.54 324.99 230.39"/><polygon points="328.41 232.08 326.47 233.2 326.46 229.54 324.99 230.39 325 234.05 323.06 235.17 323.11 250.21 325.05 249.08 325.06 255.16 326.53 254.31 326.51 248.24 328.46 247.12 328.41 232.08"/><polygon points="316.88 238.74 312.44 236.15 314.38 235.03 318.82 237.61 316.88 238.74"/><polygon points="315.51 273 311.07 270.42 311.05 264.6 315.49 267.19 315.51 273"/><polygon points="315.42 239.58 310.97 237 310.95 228.44 315.39 231.02 315.42 239.58"/><polygon points="313.47 240.7 309.03 238.12 310.97 237 315.42 239.58 313.47 240.7"/><polygon points="313.55 268.31 309.11 265.73 309.03 238.12 313.47 240.7 313.55 268.31"/><polygon points="315.39 231.02 310.95 228.44 312.42 227.59 316.86 230.17 315.39 231.02"/><polygon points="318.82 237.62 316.88 238.74 316.86 230.17 315.39 231.02 315.42 239.58 313.47 240.7 313.55 268.31 315.49 267.19 315.51 273 316.98 272.15 316.96 266.34 318.9 265.22 318.82 237.62"/><polygon points="307.29 241.67 302.84 239.09 304.78 237.97 309.23 240.55 307.29 241.67"/><polygon points="305.89 267.59 301.45 265 301.43 260.17 305.88 262.76 305.89 267.59"/><polygon points="305.82 242.52 301.38 239.94 301.35 230.28 305.79 232.86 305.82 242.52"/><polygon points="303.88 243.64 299.43 241.06 301.38 239.94 305.82 242.52 303.88 243.64"/><polygon points="303.94 263.88 299.49 261.3 299.43 241.06 303.88 243.64 303.94 263.88"/><polygon points="305.79 232.86 301.35 230.28 302.82 229.43 307.26 232.01 305.79 232.86"/><polygon points="307.29 241.67 307.34 261.91 309.29 260.79 309.23 240.55 307.29 241.67"/><polygon points="307.29 241.67 307.26 232.01 305.79 232.86 305.82 242.52 305.82 242.52 303.88 243.64 303.94 263.88 305.88 262.76 305.88 262.76 305.89 267.59 307.36 266.74 307.34 261.91 307.29 241.67"/><polygon points="297.67 239.36 293.23 236.78 295.17 235.65 299.62 238.24 297.67 239.36" fill="#46be49"/><polygon points="296.28 264.39 291.83 261.81 291.81 253.33 296.25 255.91 296.28 264.39" fill="#3a9e3d"/><polygon points="296.21 240.2 291.76 237.62 291.75 232.25 296.19 234.83 296.21 240.2" fill="#3a9e3d"/><polygon points="294.27 241.32 289.82 238.74 291.76 237.62 296.21 240.2 294.27 241.32" fill="#46be49"/><polygon points="294.31 257.03 289.87 254.45 289.82 238.74 294.27 241.32 294.31 257.03" fill="#3a9e3d"/><polygon points="296.19 234.83 291.75 232.25 293.21 231.4 297.66 233.99 296.19 234.83" fill="#46be49"/><polygon points="299.62 238.24 297.67 239.36 297.72 255.06 299.66 253.94 299.62 238.24" fill="#61e041"/><polygon points="297.66 233.99 296.19 234.83 296.21 240.2 294.27 241.32 294.31 257.03 296.25 255.91 296.28 264.39 297.74 263.54 297.72 255.06 297.67 239.36 297.66 233.99" fill="#61e041"/><g style="isolation:isolate"><path d="M357,271.7a2.49,2.49,0,0,0-2.5.24l-26,15A7.77,7.77,0,0,0,325,293l0,10.28a2.44,2.44,0,0,0,1,2.25l3.46,2a2.42,2.42,0,0,1-1-2.25l0-10.28A7.74,7.74,0,0,1,332,289l26-15a2.49,2.49,0,0,1,2.5-.24Z" fill="#c91818"/><path d="M358,274c1.93-1.11,3.52-.21,3.52,2l0,10.29a7.74,7.74,0,0,1-3.5,6.07l-26,15c-1.94,1.12-3.53.22-3.53-2l0-10.28A7.74,7.74,0,0,1,332,289Z" fill="#f20028"/></g><g style="isolation:isolate"><path d="M316.42,295.13a2.49,2.49,0,0,0-2.5.24l-26,15a7.77,7.77,0,0,0-3.51,6.08l0,10.28a2.46,2.46,0,0,0,1,2.25l3.46,2a2.46,2.46,0,0,1-1-2.25l0-10.29a7.74,7.74,0,0,1,3.51-6.07l26-15a2.49,2.49,0,0,1,2.5-.24Z" fill="#3a9e3d"/><path d="M317.38,297.38c1.93-1.11,3.52-.21,3.52,2l0,10.29a7.74,7.74,0,0,1-3.5,6.07l-26,15c-1.94,1.12-3.52.21-3.53-2l0-10.29a7.74,7.74,0,0,1,3.51-6.07Z" fill="#61e041"/><path d="M358,274c1.93-1.11,3.52-.21,3.52,2l0,10.29a7.74,7.74,0,0,1-3.5,6.07l-26,15c-1.94,1.12-3.53.22-3.53-2l0-10.28A7.74,7.74,0,0,1,332,289Z" fill="#f20028"/><path d="M317.38,297.38c1.93-1.11,3.52-.21,3.52,2l0,10.29a7.74,7.74,0,0,1-3.5,6.07l-26,15c-1.94,1.12-3.52.21-3.53-2l0-10.29a7.74,7.74,0,0,1,3.51-6.07Z" fill="#61e041"/></g><g style="isolation:isolate"><path d="M262.68,104.08l4.06,2.36a3.35,3.35,0,0,0-3.4.33l-4.06-2.36A3.35,3.35,0,0,1,262.68,104.08Z" fill="#f47a00"/><path d="M243.07,147.36,239,145a3.36,3.36,0,0,1-1.39-3.07l4.06,2.36A3.36,3.36,0,0,0,243.07,147.36Z" fill="#f47a00"/><polygon points="241.68 144.29 237.62 141.93 237.56 122.45 241.63 124.81 241.68 144.29" fill="#f47a00"/><polygon points="246.39 116.56 242.33 114.2 259.28 104.41 263.34 106.77 246.39 116.56" fill="#f47a00"/><path d="M241.63,124.81l-4.07-2.36a10.52,10.52,0,0,1,4.77-8.25l4.06,2.36A10.49,10.49,0,0,0,241.63,124.81Z" fill="#f47a00"/><path d="M263.34,106.77c2.64-1.52,4.79-.3,4.8,2.73l.05,19.48a10.5,10.5,0,0,1-4.76,8.26l-17,9.78c-2.64,1.53-4.79.3-4.8-2.73l-.05-19.48a10.49,10.49,0,0,1,4.76-8.25Z" fill="#ff9529"/><path d="M259.05,124.84a3,3,0,0,1,.43,1.71,7.23,7.23,0,0,1-1.26,4,12.66,12.66,0,0,1-3.55,3.52v2.6l-1.52.87V135a11.68,11.68,0,0,1-4.73,1.64v-3.35a9.27,9.27,0,0,0,2.31-.37,12.21,12.21,0,0,0,2.42-.9v-3.93l-.74.1a4.69,4.69,0,0,1-3.11-.36,2.71,2.71,0,0,1-.91-2.35,6.8,6.8,0,0,1,1.24-3.75,12.74,12.74,0,0,1,3.49-3.45V116.3l1.52-.88v1.89a11.67,11.67,0,0,1,4.57-1.47l-1,3.57a10.73,10.73,0,0,0-3.53,1v3.74a10.92,10.92,0,0,1,3.07-.12A2,2,0,0,1,259.05,124.84ZM254.66,131a3.14,3.14,0,0,0,1.5-2.36.65.65,0,0,0-.38-.68,2.73,2.73,0,0,0-1.13-.12V131Zm-1.53-6.66v-3a2.85,2.85,0,0,0-1.42,2.14.73.73,0,0,0,.34.73,2.22,2.22,0,0,0,1.09.11Z" fill="#f47a00"/><polygon points="256.7 139.56 254.31 138.17 254.3 135.62 256.69 137.01 256.7 139.56" fill="#cecdeb"/><path d="M258.19,133.07l-2.39-1.39a3.14,3.14,0,0,0,1.5-2.37.68.68,0,0,0-.3-.64l2.39,1.39a.67.67,0,0,1,.3.64,3.16,3.16,0,0,1-1.5,2.37Z" fill="#cecdeb"/><polygon points="256.68 134.03 254.29 132.64 254.28 128.71 256.67 130.1 256.68 134.03" fill="#cecdeb"/><path d="M258.17,126.24l-2.39-1.38a11,11,0,0,1,3.07-.13,2.67,2.67,0,0,1,.81.29l2.39,1.39a2.67,2.67,0,0,0-.81-.29,11.33,11.33,0,0,0-3.07.12Z" fill="#e0dfff"/><path d="M252,135.3l-2.39-1.39a9.75,9.75,0,0,0,2.32-.37,12.11,12.11,0,0,0,2.41-.9l2.39,1.39a13,13,0,0,1-2.41.9,9.83,9.83,0,0,1-2.32.37Z" fill="#e0dfff"/><polygon points="251.96 138.65 249.57 137.26 249.56 133.91 251.95 135.3 251.96 138.65" fill="#cecdeb"/><path d="M255.54,126.27l-2.39-1.38h0a2.34,2.34,0,0,0,1.09.12l2.39,1.39a2.34,2.34,0,0,1-1.09-.12l0,0Z" fill="#e0dfff"/><polygon points="256.66 126.41 254.27 125.02 254.26 122.04 256.65 123.42 256.66 126.41" fill="#cecdeb"/><path d="M258.15,119.36l-1.38-.81a11.67,11.67,0,0,1,4.57-1.47l1.39.81a11.66,11.66,0,0,0-4.58,1.47Z" fill="#e0dfff"/><polygon points="256.64 120.28 254.25 118.89 254.25 116.95 256.64 118.34 256.64 120.28" fill="#cecdeb"/><polygon points="256.64 118.34 254.25 116.95 255.76 116.08 258.15 117.47 256.64 118.34" fill="#e0dfff"/><path d="M262.58,126.89a2.83,2.83,0,0,1,.43,1.7,7.21,7.21,0,0,1-1.26,4,12.63,12.63,0,0,1-3.55,3.51v2.6l-1.51.88V137a12,12,0,0,1-4.73,1.64V135.3a9.83,9.83,0,0,0,2.32-.37,13,13,0,0,0,2.41-.9V130.1l-.74.09a4.59,4.59,0,0,1-3.1-.36,2.66,2.66,0,0,1-.92-2.35,6.83,6.83,0,0,1,1.24-3.74,12.77,12.77,0,0,1,3.49-3.46v-1.94l1.51-.87v1.89a11.66,11.66,0,0,1,4.58-1.47l-1,3.56a10.78,10.78,0,0,0-3.54,1v3.74a11.33,11.33,0,0,1,3.07-.12A2,2,0,0,1,262.58,126.89Zm-4.39,6.18a3.16,3.16,0,0,0,1.5-2.37.65.65,0,0,0-.38-.68,2.74,2.74,0,0,0-1.13-.11v3.16Zm-1.53-6.66v-3a2.87,2.87,0,0,0-1.42,2.15.73.73,0,0,0,.34.72,2.34,2.34,0,0,0,1.09.12Z" fill="#fff"/><path d="M253,129.91l-2.39-1.39-.12-.08a2.65,2.65,0,0,1-.92-2.34,6.83,6.83,0,0,1,1.24-3.75,12.91,12.91,0,0,1,3.49-3.46l2.39,1.39a12.77,12.77,0,0,0-3.49,3.46,6.83,6.83,0,0,0-1.24,3.74,2.66,2.66,0,0,0,.92,2.35l.12.08Z" fill="#e0dfff"/></g><g style="isolation:isolate"><path d="M205.5,169l-4.06-2.36a3.36,3.36,0,0,1-1.4-3.06L204.1,166A3.36,3.36,0,0,0,205.5,169Z" fill="#f47a00"/><path d="M225.11,125.74l4.06,2.36a3.38,3.38,0,0,0-3.4.34l-4.07-2.36A3.4,3.4,0,0,1,225.11,125.74Z" fill="#f47a00"/><polygon points="204.1 165.96 200.04 163.6 199.99 144.12 204.05 146.47 204.1 165.96" fill="#f47a00"/><polygon points="208.81 138.22 204.75 135.86 221.71 126.08 225.77 128.44 208.81 138.22" fill="#f47a00"/><path d="M204.05,146.48,200,144.12a10.5,10.5,0,0,1,4.76-8.26l4.06,2.36A10.5,10.5,0,0,0,204.05,146.48Z" fill="#f47a00"/><path d="M225.77,128.44c2.64-1.53,4.78-.3,4.79,2.73l.06,19.48a10.5,10.5,0,0,1-4.77,8.25l-16.95,9.79c-2.64,1.52-4.79.3-4.8-2.73l0-19.48a10.5,10.5,0,0,1,4.76-8.26Z" fill="#ff9529"/><path d="M216.85,138.36a7.77,7.77,0,0,1,3.85-1.19l-1.06,3.52a7.46,7.46,0,0,0-1.41.21,5.15,5.15,0,0,0-1.37.56,6.43,6.43,0,0,0-2.19,2.15,8,8,0,0,0-1.1,3.21l4.39-2.54v2.21l-4.56,2.63,0,.45v.59l0,.4,3.87-2.23v2.23l-3.68,2.12q.55,2.73,3.51,1a12.84,12.84,0,0,0,3-2.45v3.21a12,12,0,0,1-3.19,2.58q-2.67,1.55-4.4.88c-1.15-.45-1.88-1.57-2.18-3.36l-1.5.86V153.2l1.29-.74a5,5,0,0,1,0-.76l0-.67-1.27.73v-2.21l1.46-.84a14.38,14.38,0,0,1,2.15-6A12.78,12.78,0,0,1,216.85,138.36Z" fill="#f47a00"/><g style="isolation:isolate"><path d="M218.32,156l-2.24-1.31c.61.36,1.49.2,2.64-.47a12.78,12.78,0,0,0,3-2.44l2.24,1.3a13.09,13.09,0,0,1-3,2.45C219.81,156.2,218.93,156.36,218.32,156Z" fill="#e0dfff"/><polygon points="217.26 152.39 215.02 151.09 218.89 148.85 221.13 150.15 217.26 152.39" fill="#e0dfff"/><path d="M216,159.56l-2.24-1.3a4.21,4.21,0,0,1-1.78-3.17l2.24,1.3A4.21,4.21,0,0,0,216,159.56Z" fill="#cecdeb"/><polygon points="217.41 148.65 215.17 147.34 219.56 144.81 221.81 146.11 217.41 148.65" fill="#e0dfff"/><path d="M214,154.28l-2.24-1.3a4.85,4.85,0,0,1,0-.75l2.24,1.3A4.77,4.77,0,0,0,214,154.28Z" fill="#cecdeb"/><polygon points="212.69 157.26 210.45 155.95 210.45 153.72 212.69 155.03 212.69 157.26" fill="#cecdeb"/><polygon points="212.69 155.03 210.45 153.72 211.74 152.98 213.97 154.28 212.69 155.03" fill="#e0dfff"/><polygon points="213.93 153.53 211.69 152.23 211.71 151.55 213.95 152.85 213.93 153.53" fill="#cecdeb"/><path d="M220.7,140.18l-2.24-1.3a7.81,7.81,0,0,1,3.84-1.19l2.24,1.3A7.81,7.81,0,0,0,220.7,140.18Z" fill="#e0dfff"/><polygon points="212.68 151.38 210.44 150.08 211.89 149.24 214.13 150.54 212.68 151.38" fill="#e0dfff"/><polygon points="212.68 153.59 210.44 152.28 210.44 150.08 212.68 151.38 212.68 153.59" fill="#cecdeb"/><path d="M220.7,140.18a7.81,7.81,0,0,1,3.84-1.19l-1.06,3.53a8.4,8.4,0,0,0-1.41.2,5.56,5.56,0,0,0-1.37.57,6.34,6.34,0,0,0-2.19,2.15,8,8,0,0,0-1.1,3.21l4.39-2.54v2.2L217.25,151l0,.45V152l0,.4,3.87-2.24v2.23l-3.68,2.13q.57,2.73,3.51,1a13.09,13.09,0,0,0,3-2.45v3.21a12,12,0,0,1-3.19,2.58q-2.67,1.55-4.4.87c-1.15-.45-1.88-1.57-2.18-3.36l-1.5.87V155l1.28-.75a4.77,4.77,0,0,1,0-.75l0-.68-1.27.73v-2.2l1.45-.84a14.43,14.43,0,0,1,2.15-6A12.81,12.81,0,0,1,220.7,140.18Z" fill="#fff"/><path d="M214.13,150.54l-2.24-1.3a14.43,14.43,0,0,1,2.15-6.05,12.81,12.81,0,0,1,4.42-4.31l2.24,1.3a12.81,12.81,0,0,0-4.42,4.31A14.43,14.43,0,0,0,214.13,150.54Z" fill="#e0dfff"/></g></g></g></g></svg>