<svg xmlns="http://www.w3.org/2000/svg" xmlns:xlink="http://www.w3.org/1999/xlink" viewBox="0 0 96.33 126.33"><defs><linearGradient id="b67ad0f8-358f-4baf-9ade-4bb012cbdb50" x1="0.13" y1="29.85" x2="59.76" y2="29.85" gradientUnits="userSpaceOnUse"><stop offset="0" stop-color="#b37e10"/><stop offset="0.22" stop-color="#e4c15c"/><stop offset="0.33" stop-color="#f8dd7b"/><stop offset="0.52" stop-color="#fdf1a4"/><stop offset="0.73" stop-color="#f8dd7b"/><stop offset="1" stop-color="#b37e10"/></linearGradient><linearGradient id="a3e049f6-52d2-4116-beb1-d3c7ab79ad99" x1="0" y1="78.16" x2="96.33" y2="78.16" xlink:href="#b67ad0f8-358f-4baf-9ade-4bb012cbdb50"/><linearGradient id="b25eabe9-0b97-4582-9eef-87709dfc1477" x1="58.76" y1="63.48" x2="82.92" y2="63.48" gradientTransform="translate(65.64 -31.5) rotate(45)" xlink:href="#b67ad0f8-358f-4baf-9ade-4bb012cbdb50"/><linearGradient id="e940af06-5fc1-4aee-948f-ea527b9ac759" x1="23.53" y1="98.71" x2="47.69" y2="98.71" gradientTransform="translate(80.23 3.73) rotate(45)" xlink:href="#b67ad0f8-358f-4baf-9ade-4bb012cbdb50"/><linearGradient id="fdcd9766-cecf-48f6-9f42-9fbd6c03c1b9" x1="47.69" y1="52.41" x2="71.85" y2="52.41" gradientTransform="translate(54.57 -26.92) rotate(45)" xlink:href="#b67ad0f8-358f-4baf-9ade-4bb012cbdb50"/><linearGradient id="e64f815b-bb1a-4e72-a4e1-0f6872de3d96" x1="12.46" y1="87.64" x2="36.62" y2="87.64" gradientTransform="translate(69.16 8.31) rotate(45)" xlink:href="#b67ad0f8-358f-4baf-9ade-4bb012cbdb50"/><linearGradient id="a843a585-dc6c-4fef-9af9-d6163308e5ba" x1="12.46" y1="63.48" x2="36.62" y2="63.48" gradientTransform="translate(52.08 1.24) rotate(45)" xlink:href="#b67ad0f8-358f-4baf-9ade-4bb012cbdb50"/><linearGradient id="b4c536db-8221-43d8-bc4d-15a265ba3c37" x1="23.53" y1="52.41" x2="47.69" y2="52.41" gradientTransform="translate(47.49 -9.83) rotate(45)" xlink:href="#b67ad0f8-358f-4baf-9ade-4bb012cbdb50"/><linearGradient id="eb0f19ff-09de-41e9-b185-d624e1c395e7" x1="58.76" y1="87.64" x2="82.92" y2="87.64" gradientTransform="translate(82.72 -24.42) rotate(45)" xlink:href="#b67ad0f8-358f-4baf-9ade-4bb012cbdb50"/><linearGradient id="e3cde779-cbbb-42b4-930b-01853a75ea6e" x1="47.69" y1="98.71" x2="71.85" y2="98.71" gradientTransform="translate(87.31 -13.35) rotate(45)" xlink:href="#b67ad0f8-358f-4baf-9ade-4bb012cbdb50"/></defs><g id="b8916604-2cdc-49e7-b503-f33fbf8a3e9c" data-name="Layer 2"><g id="a5137519-8280-48d3-a01e-4f506a12fbd7" data-name="Layer 1"><path d="M35.24,0A35.11,35.11,0,0,0,10.18,59.7a53.73,53.73,0,0,1,1.88-11.2A26.77,26.77,0,0,1,48.57,11.9,52.92,52.92,0,0,1,59.76,10,35,35,0,0,0,35.24,0Z" fill="url(#b67ad0f8-358f-4baf-9ade-4bb012cbdb50)"/><path d="M48.87,30a34.63,34.63,0,0,1,4.49,8.67,38.17,38.17,0,0,1,4,.74l.65.16.16,0,.84.23h0l.8.23.69.22.71.24.66.24.64.24a37.49,37.49,0,0,1,3.71,1.67l.86.45q.72.39,1.41.81l.6.37.28.17.62.4.59.4A40,40,0,0,1,77,50.69c.23.23.44.46.66.7l.52.58c.28.32.55.64.81,1s.33.39.48.59l.62.81c.19.25.39.51.57.77s.37.53.55.79c.35.53.7,1.07,1,1.62.17.27.33.55.49.83s.32.56.47.84c.33.6.65,1.22.94,1.84.13.25.24.5.35.75s.22.49.33.74l.28.67c.08.21.17.41.25.62.2.52.39,1,.57,1.58.11.31.21.62.3.94,0,0,0,0,0,0,.09.29.18.59.26.89.25.86.46,1.73.65,2.61,0,.22.09.45.14.67s0,.26.07.39.07.34.09.51l.12.74c0,.24.08.49.11.74s0,.22,0,.34l.06.55c0,.18,0,.35,0,.53s.06.54.08.81,0,.64.05,1,0,.68,0,1,0,.68,0,1A39.88,39.88,0,0,1,48.16,118l-1,0c-.34,0-.68,0-1,0s-.67,0-1-.06h0l-.94-.08-.8-.09c-.16,0-.32,0-.49-.06l-.7-.11h-.07l-.7-.11-.59-.11-.86-.17a39,39,0,0,1-4.57-1.26c-.29-.09-.58-.2-.87-.3l-.85-.32-1.14-.47-.71-.32L31,114.1c-.32-.15-.65-.31-1-.48l-.8-.41-.89-.51c-.28-.16-.56-.32-.83-.49h0c-.51-.3-1-.62-1.49-1l-.11-.08-.78-.54q-.39-.27-.78-.57c-.25-.18-.51-.38-.76-.58L23,109c-.32-.26-.64-.53-.95-.81s-.42-.36-.63-.55h0c-.24-.22-.47-.43-.7-.66s-.46-.43-.69-.66q-.66-.66-1.29-1.35l-.66-.75c-.41-.48-.82-1-1.2-1.46-.24-.3-.47-.61-.71-.92l-.39-.55-.13-.18q-.26-.34-.48-.69c-.16-.23-.3-.45-.45-.69s-.42-.64-.62-1c-.32-.53-.63-1.07-.93-1.61-.58-1.06-1.1-2.15-1.58-3.26-.11-.26-.22-.52-.32-.78,0,0,0,0,0,0-.08-.19-.16-.38-.23-.58l-.21-.54-.2-.57-.28-.81c-.08-.28-.17-.55-.26-.83a.19.19,0,0,1,0-.08l-.24-.81c-.08-.29-.16-.58-.23-.88-.22-.87-.42-1.76-.58-2.66l-.15-.9c-.05-.3-.1-.6-.13-.91A34.87,34.87,0,0,1,0,79,48.17,48.17,0,1,0,48.87,30ZM8.51,74.38l.09-.88.12-.88c0-.29.08-.58.13-.87s.1-.58.14-.86c.22-1.16.48-2.29.79-3.4l.24-.83h0l.21-.64a2.76,2.76,0,0,1,.08-.27l.25-.72c.07-.21.14-.43.22-.63l.15-.39c.18-.47.36-.93.56-1.38S12,61.55,12.2,61l.36-.74c.08-.15.16-.31.25-.46l.28-.56.11-.19c.13-.25.27-.49.41-.73l.39-.66c.11-.19.23-.38.35-.56s.21-.35.32-.52c.46-.71.94-1.41,1.45-2.08.16-.23.33-.46.51-.68l.4-.51c.4-.5.81-1,1.24-1.48.17-.2.35-.39.53-.59.38-.42.76-.82,1.17-1.22.16-.16.32-.33.49-.48s.51-.5.77-.73l.57-.52c.35-.32.71-.62,1.07-.92l.55-.44c.81-.64,1.63-1.25,2.48-1.82.24-.17.49-.33.74-.49l.59-.37.45-.27.67-.4.84-.47c.28-.15.56-.31.85-.45l.86-.43.05,0c.51-.25,1-.48,1.56-.71s.78-.33,1.18-.48.52-.21.79-.3l.7-.25.36-.13.79-.25.93-.28,1-.26.84-.2.64-.15.29-.06.48-.1.85-.15.62-.1.64-.1c.56-.08,1.13-.15,1.69-.2a26.57,26.57,0,0,0-5.59-7.6A48.22,48.22,0,0,0,.9,68.81,26.55,26.55,0,0,0,8.51,74.38Z" fill="url(#a3e049f6-52d2-4116-beb1-d3c7ab79ad99)"/><rect x="58.52" y="58.72" width="24.65" height="9.52" transform="translate(-24.14 68.69) rotate(-45)" fill="url(#b25eabe9-0b97-4582-9eef-87709dfc1477)"/><rect x="23.29" y="93.95" width="24.65" height="9.52" transform="translate(-59.37 54.09) rotate(-45)" fill="url(#e940af06-5fc1-4aee-948f-ea527b9ac759)"/><rect x="47.45" y="47.65" width="24.65" height="9.52" transform="translate(-19.55 57.62) rotate(-45)" fill="url(#fdcd9766-cecf-48f6-9f42-9fbd6c03c1b9)"/><rect x="12.22" y="82.88" width="24.65" height="9.52" transform="translate(-54.78 43.02) rotate(-45)" fill="url(#e64f815b-bb1a-4e72-a4e1-0f6872de3d96)"/><rect x="19.78" y="51.16" width="9.52" height="24.65" transform="translate(-37.7 35.95) rotate(-45)" fill="url(#a843a585-dc6c-4fef-9af9-d6163308e5ba)"/><rect x="30.85" y="40.09" width="9.52" height="24.65" transform="translate(-26.63 40.53) rotate(-45)" fill="url(#b4c536db-8221-43d8-bc4d-15a265ba3c37)"/><rect x="66.08" y="75.32" width="9.52" height="24.65" transform="translate(-41.22 75.76) rotate(-45)" fill="url(#eb0f19ff-09de-41e9-b185-d624e1c395e7)"/><rect x="55.01" y="86.39" width="9.52" height="24.65" transform="translate(-52.29 71.18) rotate(-45)" fill="url(#e3cde779-cbbb-42b4-930b-01853a75ea6e)"/><text transform="translate(16.87 35.08)" font-size="28.49" fill="#ffff7c" stroke="#000" stroke-miterlimit="10" font-family="Algerian">s t i f</text></g></g></svg>