<svg xmlns="http://www.w3.org/2000/svg" xmlns:xlink="http://www.w3.org/1999/xlink" viewBox="0 0 114.49 114.49"><defs><radialGradient id="b17af3bd-78b3-47e5-9b3a-90ea7f4248de" cx="57.24" cy="57.24" r="57.24" gradientUnits="userSpaceOnUse"><stop offset="0.11" stop-color="#272361"/><stop offset="0.21" stop-color="#514e80"/><stop offset="0.36" stop-color="#8683a6"/><stop offset="0.51" stop-color="#b1b0c6"/><stop offset="0.65" stop-color="#d3d2df"/><stop offset="0.78" stop-color="#ebebf1"/><stop offset="0.9" stop-color="#fafafb"/><stop offset="1" stop-color="#fff"/></radialGradient></defs><g style="isolation:isolate"><g id="fa6a260e-5e2b-4b17-b96d-569b6b3b8c0a" data-name="Layer 2"><g id="ae1b309b-a683-4369-a2e8-9a3683c86045" data-name="Layer 1"><circle cx="57.24" cy="57.24" r="57.24" opacity="0.5" fill="url(#b17af3bd-78b3-47e5-9b3a-90ea7f4248de)" style="mix-blend-mode:multiply"/><path d="M42.58,77.74A36.82,36.82,0,1,0,5.76,40.92,36.74,36.74,0,0,0,42.58,77.74Z" fill="#3674ba"/><path d="M52.71,46.75c0-5.37-3.22-7.21-9.67-8-4.6-.62-5.52-1.84-5.52-4s1.54-3.53,4.6-3.53c2.77,0,4.3.92,5.07,3.22a1.15,1.15,0,0,0,1.07.77h2.46a1,1,0,0,0,1.07-1.08V34a7.65,7.65,0,0,0-6.9-6.29V24c0-.62-.46-1.08-1.23-1.23h-2.3c-.61,0-1.07.46-1.22,1.23v3.53c-4.61.61-7.52,3.68-7.52,7.52,0,5.06,3.06,7,9.51,7.82,4.29.77,5.68,1.69,5.68,4.14s-2.15,4.14-5.07,4.14c-4,0-5.37-1.68-5.83-4a1.11,1.11,0,0,0-1.07-.92H33.23a1,1,0,0,0-1.07,1.07v.16c.61,3.83,3.06,6.59,8.13,7.36v3.68c0,.62.46,1.08,1.22,1.23h2.3c.62,0,1.08-.46,1.23-1.23V54.88c4.6-.77,7.67-4,7.67-8.13Z" fill="#fff"/><path d="M34.76,62.86a23,23,0,0,1,0-43.11,1.55,1.55,0,0,0,.92-1.54V16.06a1.16,1.16,0,0,0-.92-1.22,1,1,0,0,0-.62.15,27.61,27.61,0,0,0,0,52.63A.94.94,0,0,0,35.53,67c.15-.15.15-.3.15-.61V64.24A2,2,0,0,0,34.76,62.86ZM51,15a.93.93,0,0,0-1.38.61c-.16.16-.16.31-.16.62v2.14a2,2,0,0,0,.92,1.54A23,23,0,0,1,50.4,63a1.55,1.55,0,0,0-.92,1.54v2.14a1.17,1.17,0,0,0,.92,1.23.9.9,0,0,0,.62-.16A27.72,27.72,0,0,0,51,15Z" fill="#fff"/></g></g></g></svg>