<svg xmlns="http://www.w3.org/2000/svg" xmlns:xlink="http://www.w3.org/1999/xlink" viewBox="0 0 114.49 114.49"><defs><radialGradient id="bf32c684-ceed-4c69-8704-2644cc1716c0" cx="57.24" cy="57.24" r="57.24" gradientUnits="userSpaceOnUse"><stop offset="0.11" stop-color="#272361"/><stop offset="0.21" stop-color="#514e80"/><stop offset="0.36" stop-color="#8683a6"/><stop offset="0.51" stop-color="#b1b0c6"/><stop offset="0.65" stop-color="#d3d2df"/><stop offset="0.78" stop-color="#ebebf1"/><stop offset="0.9" stop-color="#fafafb"/><stop offset="1" stop-color="#fff"/></radialGradient></defs><g style="isolation:isolate"><g id="b5250e23-9aa8-419a-bfd7-ebec7491962a" data-name="Layer 2"><g id="ac5a03b3-01c4-4d48-b5d6-e10a005f9fac" data-name="Layer 1"><circle cx="57.24" cy="57.24" r="57.24" opacity="0.5" fill="url(#bf32c684-ceed-4c69-8704-2644cc1716c0)" style="mix-blend-mode:multiply"/><path d="M42.88,4.1A36.82,36.82,0,1,1,6.06,40.92,36.81,36.81,0,0,1,42.88,4.1" fill="#53ae94"/><path d="M47.43,36V30.53H60V22.19H25.85v8.34H38.37V36c-10.18.46-17.83,2.48-17.83,4.9s7.66,4.43,17.83,4.9V63.35h9.06V45.81c10.16-.47,17.8-2.49,17.8-4.9s-7.64-4.43-17.8-4.9m0,8.31h0c-.25,0-1.57.09-4.49.09-2.34,0-4-.06-4.56-.09h0c-9-.4-15.71-2-15.71-3.84s6.71-3.43,15.71-3.83v6.11c.59,0,2.27.14,4.6.14,2.79,0,4.19-.11,4.45-.14V36.65c9,.4,15.68,2,15.68,3.83s-6.7,3.44-15.68,3.84" fill="#fff"/></g></g></g></svg>