<svg xmlns="http://www.w3.org/2000/svg" xmlns:xlink="http://www.w3.org/1999/xlink" viewBox="0 0 450 450"><defs><linearGradient id="af3e3609-ce73-4068-be51-b29d9d5988b6" x1="101.63" y1="92" x2="112.87" y2="72.54" gradientUnits="userSpaceOnUse"><stop offset="0.4" stop-color="#bfbdff"/><stop offset="0.77" stop-color="#e0dfff"/></linearGradient><clipPath id="fa2b809e-f4ae-4ccb-8d04-0eef68f99093"><path d="M191.32,75.73l2.38,1.39a1.81,1.81,0,0,0-1.85.18l-2.38-1.39A1.86,1.86,0,0,1,191.32,75.73Z" fill="none"/></clipPath><clipPath id="a115e516-365e-42bb-a8a4-a7c540e8d803"><path d="M113.65,154.36,111.27,153a1.81,1.81,0,0,1-.76-1.67l2.38,1.39A1.85,1.85,0,0,0,113.65,154.36Z" fill="none"/></clipPath><clipPath id="b9118a22-8cf0-4ec3-b4a0-b46a98570132"><path d="M112.82,125.92l-2.39-1.38a5.73,5.73,0,0,1,2.6-4.49l2.38,1.38A5.69,5.69,0,0,0,112.82,125.92Z" fill="none"/></clipPath><linearGradient id="f0b55496-7af1-44bf-83dc-0d007188433e" x1="111.35" y1="125.08" x2="113.95" y2="120.58" xlink:href="#af3e3609-ce73-4068-be51-b29d9d5988b6"/><clipPath id="fb245857-e17b-4540-af2d-ec21920dbd96"><path d="M123.5,137.79l1.55.9a.8.8,0,0,0-.79.08l-1.55-.9A.8.8,0,0,1,123.5,137.79Z" fill="none"/></clipPath><clipPath id="b4b2191c-6d84-49a0-ac61-e90eec88e2db"><path d="M118.69,144.16l-1.55-.9a.79.79,0,0,1-.33-.71,2.44,2.44,0,0,1,1.11-1.91l1.55.9a2.44,2.44,0,0,0-1.11,1.91A.77.77,0,0,0,118.69,144.16Z" fill="none"/></clipPath><clipPath id="bc290394-37f6-4d9b-8211-b6a25a14c449"><path d="M136.46,130.31l1.55.9a.79.79,0,0,0-.79.07l-1.54-.9A.77.77,0,0,1,136.46,130.31Z" fill="#777687"/></clipPath><clipPath id="b92bda14-3807-4ae2-8fb9-8716ce9d2a54"><path d="M127.68,139l-1.55-.9a.76.76,0,0,1-.32-.71,2.45,2.45,0,0,1,1.1-1.92l1.55.9a2.47,2.47,0,0,0-1.1,1.92A.76.76,0,0,0,127.68,139Z" fill="none"/></clipPath><clipPath id="f75fe657-235a-4d97-ae0e-515cf9b5dbd7"><path d="M139.37,123.7l1.55.9a.77.77,0,0,0-.79.08l-1.55-.9A.77.77,0,0,1,139.37,123.7Z" fill="#777687"/></clipPath><clipPath id="b595ba00-d187-4119-a2c1-ef2fa5907186"><path d="M118.67,139.24l-1.55-.9a.76.76,0,0,1-.32-.71,2.45,2.45,0,0,1,1.11-1.92l1.55.9a2.45,2.45,0,0,0-1.11,1.92A.76.76,0,0,0,118.67,139.24Z" fill="none"/></clipPath><clipPath id="af528f45-965b-44c0-8da0-0d7dc43a6746"><path d="M144.63,110.25l1.55.9a1.57,1.57,0,0,0-1.58.15l-1.55-.9A1.57,1.57,0,0,1,144.63,110.25Z" fill="none"/></clipPath><clipPath id="badbda6b-f8b3-464d-9594-f852fd124529"><path d="M119,130.45l-1.55-.9a1.56,1.56,0,0,1-.65-1.42,4.92,4.92,0,0,1,2.21-3.84l1.55.9a4.92,4.92,0,0,0-2.21,3.84A1.54,1.54,0,0,0,119,130.45Z" fill="none"/></clipPath><clipPath id="f5c80137-d8bf-4faf-a8f6-42055e0a311b"><path d="M128.71,144.38l-.77-.45a.18.18,0,0,0,.17,0l.78.45A.2.2,0,0,1,128.71,144.38Z" fill="none"/></clipPath><clipPath id="a82dc192-c36c-47da-9355-646c9cbd10b2"><path d="M128.29,143l.77.45c.07,0,.1.14.1.3a.66.66,0,0,1-.27.61l-.78-.45a.67.67,0,0,0,.28-.61C128.39,143.14,128.35,143,128.29,143Z" fill="none"/></clipPath><clipPath id="ee609a12-becb-4929-b27e-6251c53a8634"><path d="M128.58,142.58l.77.45c-.11-.07-.27-.05-.47.06l-.77-.45A.46.46,0,0,1,128.58,142.58Z" fill="none"/></clipPath><clipPath id="b077ab8e-6e18-4ab9-bea8-4db8cc86b07d"><path d="M128.42,144.8l-.77-.45a.58.58,0,0,1-.19-.51,1.37,1.37,0,0,1,.65-1.2l.77.45a1.39,1.39,0,0,0-.65,1.2A.58.58,0,0,0,128.42,144.8Z" fill="none"/></clipPath><clipPath id="a34ef4cd-4caa-4c00-8ad9-0b5576a94494"><path d="M126.78,144.4,126,144s.1,0,.18,0a.69.69,0,0,0,.27-.61c0-.16,0-.27-.1-.3l.78.45c.06,0,.1.14.1.3a.69.69,0,0,1-.28.61A.17.17,0,0,1,126.78,144.4Z" fill="none"/></clipPath><clipPath id="b14800d3-5d0d-4e3e-86c8-fc23211faeb5"><path d="M126.5,144.82l-.78-.45a.58.58,0,0,1-.19-.51,1.36,1.36,0,0,1,.65-1.19c.2-.12.36-.14.47-.07l.77.45c-.11-.07-.27-.05-.46.07a1.37,1.37,0,0,0-.66,1.19A.56.56,0,0,0,126.5,144.82Z" fill="none"/></clipPath><clipPath id="bc36147f-b130-4797-b7fc-48739bc47d6d"><path d="M122.39,147.64l-.78-.45a.59.59,0,0,0,.6,0,.66.66,0,0,0,.37-.56.2.2,0,0,0-.07-.17l.77.45a.18.18,0,0,1,.07.17.66.66,0,0,1-.37.56A.57.57,0,0,1,122.39,147.64Z" fill="none"/></clipPath><clipPath id="a96186d4-0922-4e47-9262-ec09c7ced398"><path d="M123.05,145.75l.78.45c-.16-.09-.41,0-.73.13l-.21.13-.78-.45a2.53,2.53,0,0,1,.22-.13C122.64,145.7,122.89,145.66,123.05,145.75Z" fill="none"/></clipPath><clipPath id="b98a4b87-3728-4f00-aa00-640431a54050"><path d="M121.09,147.78l.77.45s-.12,0-.21,0l-.77-.45A.21.21,0,0,1,121.09,147.78Z" fill="none"/></clipPath><clipPath id="ea1aba2f-7356-437e-987d-9ae2c0f80d0f"><path d="M121.45,149l-.77-.45a.22.22,0,0,1-.08-.2.56.56,0,0,1,.28-.49l.77.45a.58.58,0,0,0-.28.49A.22.22,0,0,0,121.45,149Z" fill="none"/></clipPath><clipPath id="ac62d1ae-8a26-47ea-8d20-d956f8224e0b"><path d="M191.42,116.75l2.38,1.38a1.86,1.86,0,0,0-1.85.18l-2.38-1.38A1.81,1.81,0,0,1,191.42,116.75Z" fill="none"/></clipPath><clipPath id="ae1f6372-cbc8-4b49-95f5-c7dff3d52998"><path d="M113.76,195.37,111.37,194a1.82,1.82,0,0,1-.76-1.67L113,193.7A1.81,1.81,0,0,0,113.76,195.37Z" fill="#bfbdff"/></clipPath><clipPath id="b794de54-060e-4ecf-9319-50f64f9cda80"><path d="M112.92,166.94l-2.38-1.39a5.69,5.69,0,0,1,2.59-4.49l2.38,1.39A5.74,5.74,0,0,0,112.92,166.94Z" fill="none"/></clipPath><linearGradient id="a7e3a9e5-e455-41eb-8fc3-d0ca34f1da35" x1="111.46" y1="166.09" x2="114.05" y2="161.6" xlink:href="#af3e3609-ce73-4068-be51-b29d9d5988b6"/><clipPath id="e8e28faf-8e1c-4213-92cb-61ada56065a7"><path d="M123.6,178.81l1.55.9a.77.77,0,0,0-.79.08l-1.55-.9A.77.77,0,0,1,123.6,178.81Z" fill="#777687"/></clipPath><clipPath id="e817bb06-1a7a-40e2-9a65-220509ae8067"><path d="M118.79,185.18l-1.55-.9a.77.77,0,0,1-.32-.71,2.41,2.41,0,0,1,1.1-1.92l1.55.9a2.46,2.46,0,0,0-1.11,1.92A.8.8,0,0,0,118.79,185.18Z" fill="none"/></clipPath><clipPath id="beea0290-3bd9-4b43-bf9e-d00a8500d4fb"><path d="M136.57,171.32l1.55.9a.8.8,0,0,0-.79.08l-1.55-.9A.8.8,0,0,1,136.57,171.32Z"/></clipPath><clipPath id="ba4c17fe-4330-46b8-8d1a-e7457722444d"><path d="M127.78,180l-1.55-.9a.79.79,0,0,1-.32-.72,2.42,2.42,0,0,1,1.11-1.91l1.55.9a2.42,2.42,0,0,0-1.11,1.91A.79.79,0,0,0,127.78,180Z"/></clipPath><clipPath id="f5e9a1f7-64b8-4c7e-bb97-331372f69376"><path d="M139.47,164.72l1.55.9a.79.79,0,0,0-.79.07l-1.55-.9A.79.79,0,0,1,139.47,164.72Z" fill="#777687"/></clipPath><clipPath id="b482926d-e1c4-4920-a95b-a5ae9691b86f"><path d="M118.77,180.26l-1.54-.9a.79.79,0,0,1-.33-.71,2.45,2.45,0,0,1,1.11-1.92l1.55.9a2.42,2.42,0,0,0-1.11,1.92A.79.79,0,0,0,118.77,180.26Z" fill="none"/></clipPath><clipPath id="be75af6b-6d57-40e9-90e1-299ed867f2fe"><path d="M144.73,151.26l1.55.9a1.57,1.57,0,0,0-1.58.16l-1.55-.9A1.57,1.57,0,0,1,144.73,151.26Z" fill="#73d5ff"/></clipPath><clipPath id="f48e1933-4790-4414-97b9-c1b70d7983aa"><path d="M119.07,171.47l-1.55-.9a1.59,1.59,0,0,1-.65-1.43,4.88,4.88,0,0,1,2.22-3.83l1.55.9a4.88,4.88,0,0,0-2.22,3.83A1.59,1.59,0,0,0,119.07,171.47Z" fill="#73d5ff"/></clipPath><clipPath id="f10bdd19-baba-47b2-8823-a9fc3efe1b11"><path d="M120.74,189.06l.77.45a.21.21,0,0,0-.21,0l-.77-.45A.2.2,0,0,1,120.74,189.06Z" fill="none"/></clipPath><clipPath id="ab3f39a1-2ab9-4568-8c96-7aff1a4d4f3a"><path d="M121.1,190.22l-.78-.45a.2.2,0,0,1-.08-.19.6.6,0,0,1,.29-.5l.77.45a.59.59,0,0,0-.28.5A.2.2,0,0,0,121.1,190.22Z" fill="none"/></clipPath><clipPath id="a67f1b56-850d-4746-b60a-1c925929ee8a"><path d="M119.67,190.55l-.77-.45s.11,0,.19,0l.77.45C119.78,190.57,119.72,190.58,119.67,190.55Z"/></clipPath><clipPath id="a7e9b034-2bdd-4f33-bb27-c30422c7185b"><path d="M119.27,188.3l.77.45c.1.06.15.29.15.71,0,.61-.09.93-.33,1.06l-.77-.45c.23-.13.33-.45.33-1.06C119.41,188.59,119.37,188.36,119.27,188.3Z"/></clipPath><clipPath id="aebaafd7-333a-498c-af5d-5faac3d062ff"><path d="M119.7,187.74l.77.45a.64.64,0,0,0-.62.09l-.77-.45A.64.64,0,0,1,119.7,187.74Z"/></clipPath><clipPath id="a6b886f3-f33a-4257-8c90-0cb55163871d"><path d="M119.24,191.11l-.77-.45c-.2-.12-.31-.43-.31-.93a2.06,2.06,0,0,1,.92-1.9l.77.45a2.06,2.06,0,0,0-.91,1.9Q118.94,190.93,119.24,191.11Z"/></clipPath><clipPath id="f322fa12-aeb8-4ee1-9e85-47a0761fe96e"><path d="M128.36,185.66l-.78-.45a.2.2,0,0,0,.18,0l.77.45A.18.18,0,0,1,128.36,185.66Z"/></clipPath><clipPath id="ec3b8bfd-d161-40b2-9bfd-5e98423de231"><path d="M127.93,184.27l.78.45a.38.38,0,0,1,.1.31.67.67,0,0,1-.28.61l-.77-.45a.69.69,0,0,0,.28-.61C128,184.42,128,184.31,127.93,184.27Z"/></clipPath><clipPath id="b8c1558d-7656-49ad-807e-180c2ba228a7"><path d="M128.22,183.86l.78.45a.46.46,0,0,0-.47.06l-.77-.45A.45.45,0,0,1,128.22,183.86Z"/></clipPath><clipPath id="afc74953-d727-44fb-ac3a-8adcf8953099"><path d="M128.07,186.07l-.78-.45c-.12-.07-.19-.24-.19-.5a1.37,1.37,0,0,1,.66-1.2l.77.45a1.39,1.39,0,0,0-.66,1.2C127.88,185.83,127.94,186,128.07,186.07Z"/></clipPath><clipPath id="b105eaee-747f-4802-ac4b-6f9009178fbc"><path d="M126.43,185.68l-.77-.45a.18.18,0,0,0,.17,0,.67.67,0,0,0,.28-.61.38.38,0,0,0-.1-.31l.77.45c.07,0,.1.15.1.31a.69.69,0,0,1-.27.61A.2.2,0,0,1,126.43,185.68Z"/></clipPath><clipPath id="ade95157-e722-44c0-b110-00fd91bff7ef"><path d="M126.14,186.09l-.77-.45c-.13-.07-.2-.24-.2-.5a1.4,1.4,0,0,1,.66-1.2.46.46,0,0,1,.47-.06l.77.45c-.11-.07-.27-.05-.47.06a1.39,1.39,0,0,0-.65,1.2C126,185.85,126,186,126.14,186.09Z"/></clipPath><clipPath id="bdac69af-a2fd-46d3-a59a-f377a94946e6"><path d="M124.36,186.34l.77.45q.09,0,.09.21a.66.66,0,0,1-.34.58l-.77-.45a.65.65,0,0,0,.33-.58A.23.23,0,0,0,124.36,186.34Z"/></clipPath><clipPath id="bd3e5a99-b46c-4ac6-8b3c-2435c03909c1"><path d="M124.62,187.62l-.77-.45c.06,0,.14,0,.26,0l.77.45A.29.29,0,0,1,124.62,187.62Z"/></clipPath><clipPath id="fd2167fc-cc01-4cfa-9f85-9a67a10a5c9e"><path d="M124.79,185.72l.77.45a.51.51,0,0,0-.54.08l-.78-.45A.53.53,0,0,1,124.79,185.72Z"/></clipPath><clipPath id="ee2b7938-2333-46b6-805e-14e809401190"><path d="M124.47,186.85l-.77-.45a1.3,1.3,0,0,1,.54-.6l.78.45A1.27,1.27,0,0,0,124.47,186.85Z"/></clipPath><clipPath id="bd1727a8-6fde-4a1c-804a-f8991fbd2076"><path d="M124.22,188.21l-.78-.45c-.2-.12-.31-.41-.31-.86a2.35,2.35,0,0,1,1.06-2,1.32,1.32,0,0,1,.75-.21l.78.45a1.3,1.3,0,0,0-.75.21,2.3,2.3,0,0,0-1.06,2C123.91,187.8,124,188.09,124.22,188.21Z"/></clipPath><clipPath id="aeb94dc0-7e5d-4d76-85fb-a268446649e0"><path d="M191.32,157.8l2.38,1.39a1.84,1.84,0,0,0-1.85.18L189.47,158A1.84,1.84,0,0,1,191.32,157.8Z" fill="none"/></clipPath><clipPath id="b523e425-68ee-483e-bf01-7eb546822189"><path d="M113.65,236.43,111.27,235a1.81,1.81,0,0,1-.76-1.67l2.38,1.39A1.85,1.85,0,0,0,113.65,236.43Z" fill="none"/></clipPath><clipPath id="f628eb1e-cd6b-44dd-9f65-788517bebbb5"><path d="M112.82,208l-2.39-1.39a5.73,5.73,0,0,1,2.6-4.49l2.38,1.38A5.71,5.71,0,0,0,112.82,208Z" fill="none"/></clipPath><linearGradient id="b5890e7a-b64f-4f3d-8d00-929b3d336a92" x1="111.35" y1="207.15" x2="113.95" y2="202.65" xlink:href="#af3e3609-ce73-4068-be51-b29d9d5988b6"/><clipPath id="a053a561-a8c3-4fc3-958f-77e0ded4baf3"><path d="M123.5,219.87l1.55.9a.79.79,0,0,0-.79.07l-1.55-.9A.79.79,0,0,1,123.5,219.87Z" fill="none"/></clipPath><clipPath id="acb1e650-6162-4e9e-8adb-9faa9f0c05bd"><path d="M118.69,226.24l-1.55-.9a.82.82,0,0,1-.33-.72,2.44,2.44,0,0,1,1.11-1.91l1.55.9a2.44,2.44,0,0,0-1.11,1.91A.78.78,0,0,0,118.69,226.24Z" fill="none"/></clipPath><clipPath id="e68be8ca-c4da-4c5d-a8b0-34ce7ac53682"><path d="M136.46,212.38l1.55.9a.77.77,0,0,0-.79.08l-1.54-.9A.76.76,0,0,1,136.46,212.38Z" fill="#777687"/></clipPath><clipPath id="babd1537-d490-42ea-8bce-edd65f2c186e"><path d="M127.68,221l-1.55-.9a.76.76,0,0,1-.32-.71,2.43,2.43,0,0,1,1.1-1.91l1.55.9a2.43,2.43,0,0,0-1.1,1.91A.76.76,0,0,0,127.68,221Z" fill="none"/></clipPath><clipPath id="b11fda73-4150-4067-bc09-cf834e6dc2b4"><path d="M139.37,205.77l1.55.9a.8.8,0,0,0-.79.08l-1.55-.9A.8.8,0,0,1,139.37,205.77Z" fill="#777687"/></clipPath><clipPath id="b77f6519-8fa8-4177-9631-480bde69b64f"><path d="M118.67,221.31l-1.55-.9a.76.76,0,0,1-.32-.71,2.42,2.42,0,0,1,1.11-1.91l1.55.9a2.42,2.42,0,0,0-1.11,1.91A.76.76,0,0,0,118.67,221.31Z" fill="none"/></clipPath><clipPath id="a54bc6bb-8e66-4915-91fe-14fb4c7f8340"><path d="M144.63,192.32l1.55.9a1.59,1.59,0,0,0-1.58.15l-1.55-.9A1.59,1.59,0,0,1,144.63,192.32Z" fill="none"/></clipPath><clipPath id="b01f54c7-ef5b-432a-a82f-290d0a2c43e6"><path d="M119,212.52l-1.55-.9a1.56,1.56,0,0,1-.65-1.42,4.9,4.9,0,0,1,2.21-3.83l1.55.9a4.9,4.9,0,0,0-2.21,3.83A1.54,1.54,0,0,0,119,212.52Z" fill="none"/></clipPath><clipPath id="ffa15a44-d909-475c-9312-0ff05e55330e"><path d="M128.71,226.45l-.77-.45s.1,0,.17,0l.78.45A.17.17,0,0,1,128.71,226.45Z" fill="none"/></clipPath><clipPath id="bd22af27-1f5e-4817-b433-3ebfaca98da6"><path d="M128.29,225.07l.77.45c.07,0,.1.14.1.3a.66.66,0,0,1-.27.61l-.78-.45a.67.67,0,0,0,.28-.61C128.39,225.21,128.35,225.11,128.29,225.07Z" fill="none"/></clipPath><clipPath id="bcbf1227-a535-49f8-9e87-daf5f2d82621"><path d="M128.58,224.65l.77.45a.5.5,0,0,0-.47.07l-.77-.45A.5.5,0,0,1,128.58,224.65Z" fill="none"/></clipPath><clipPath id="a66af1f4-6427-4882-972c-0c30b3da5cef"><path d="M128.42,226.87l-.77-.45c-.12-.07-.19-.24-.19-.51a1.34,1.34,0,0,1,.65-1.19l.77.45a1.36,1.36,0,0,0-.65,1.19C128.23,226.63,128.3,226.8,128.42,226.87Z" fill="none"/></clipPath><clipPath id="b5435898-a248-4850-b188-a6f9e95f71db"><path d="M126.78,226.47,126,226s.1,0,.18,0a.69.69,0,0,0,.27-.61c0-.16,0-.26-.1-.3l.78.45c.06,0,.1.14.1.3a.69.69,0,0,1-.28.61A.17.17,0,0,1,126.78,226.47Z" fill="none"/></clipPath><clipPath id="b8f18569-0e98-48cf-8ed2-4bb0ed880460"><path d="M126.5,226.89l-.78-.45c-.12-.07-.19-.24-.19-.51a1.36,1.36,0,0,1,.65-1.19.5.5,0,0,1,.47-.07l.77.45a.48.48,0,0,0-.46.07,1.37,1.37,0,0,0-.66,1.19C126.3,226.65,126.37,226.82,126.5,226.89Z" fill="none"/></clipPath><clipPath id="bcdb895c-d24a-4fe7-b2f1-83dbaa9f3b10"><path d="M122.39,229.71l-.78-.45a.59.59,0,0,0,.6,0,.66.66,0,0,0,.37-.56.21.21,0,0,0-.07-.17l.77.45a.18.18,0,0,1,.07.17.66.66,0,0,1-.37.56A.57.57,0,0,1,122.39,229.71Z" fill="none"/></clipPath><clipPath id="b840153e-23fa-4ea8-9145-7213c49a21ec"><path d="M123.05,227.83l.78.45c-.16-.1-.41-.06-.73.12l-.21.13-.78-.45a2.53,2.53,0,0,1,.22-.13C122.64,227.77,122.89,227.73,123.05,227.83Z" fill="none"/></clipPath><clipPath id="b2c293c9-c6cd-470e-b4fb-8a3e5258abff"><path d="M121.09,229.85l.77.45s-.12,0-.21,0l-.77-.45A.21.21,0,0,1,121.09,229.85Z" fill="none"/></clipPath><clipPath id="be1b40b9-ba9b-4b10-b211-f6659a6c980b"><path d="M121.45,231l-.77-.45a.22.22,0,0,1-.08-.2.58.58,0,0,1,.28-.49l.77.45a.6.6,0,0,0-.28.49A.22.22,0,0,0,121.45,231Z" fill="none"/></clipPath><linearGradient id="b53275a5-af1a-4ac0-9396-2b0d2cf5b18d" x1="185.84" y1="140.62" x2="197.08" y2="121.16" xlink:href="#af3e3609-ce73-4068-be51-b29d9d5988b6"/><linearGradient id="feddc7c6-4fce-4b1f-a616-f9ab8cc1af39" x1="177.53" y1="281.15" x2="285.35" y2="94.4" gradientUnits="userSpaceOnUse"><stop offset="0" stop-color="#00226b"/><stop offset="0.11" stop-color="#0c2174"/><stop offset="0.32" stop-color="#2b208d"/><stop offset="0.59" stop-color="#5e1db5"/><stop offset="0.91" stop-color="#a41aec"/><stop offset="0.96" stop-color="#af19f4"/></linearGradient><linearGradient id="b7145db2-f75e-47ad-8335-433330c45b44" x1="197.23" y1="198.2" x2="208.47" y2="178.74" xlink:href="#af3e3609-ce73-4068-be51-b29d9d5988b6"/><linearGradient id="a032e188-baae-4b7d-a126-6e33d09e216d" x1="281.44" y1="211.49" x2="292.68" y2="192.02" xlink:href="#af3e3609-ce73-4068-be51-b29d9d5988b6"/></defs><g style="isolation:isolate"><g id="b70a23da-df14-407b-9ffd-e9439c23e5c3" data-name="Layer 2"><g id="b7e3b8a5-a612-4c5e-881e-ce524952ac29" data-name="Layer 1"><rect width="450" height="450" fill="#fff"/><g style="isolation:isolate"><path d="M108,241l-3.5-2c-2-1.18-3.28-3.68-3.29-7.23l3.5,2C104.76,237.36,106,239.86,108,241Z" fill="#bfbdff"/><path d="M182.93,35.26l3.5,2c-2.05-1.19-4.89-1-8,.78l-3.5-2C178.05,34.23,180.88,34.07,182.93,35.26Z" fill="#e0dfff"/><polygon points="104.75 233.8 101.25 231.77 101.05 91.66 104.55 93.69 104.75 233.8" fill="#bfbdff"/><polygon points="115.78 74.23 112.28 72.2 174.91 36.04 178.41 38.07 115.78 74.23" fill="#e0dfff"/><path d="M104.55,93.69l-3.5-2c0-7.15,5-15.86,11.23-19.46l3.5,2C109.55,77.83,104.53,86.54,104.55,93.69Z" fill="url(#af3e3609-ce73-4068-be51-b29d9d5988b6)"/><path d="M178.41,38.07c6.22-3.59,11.29-.7,11.31,6.45l.2,140.11c0,7.15-5,15.86-11.23,19.46l-62.64,36.16c-6.22,3.59-11.28.71-11.3-6.45l-.2-140.11c0-7.15,5-15.86,11.23-19.45Z" fill="#fbb800"/></g><g style="mix-blend-mode:multiply"><path d="M185.11,73.41c1.44-.83,2.61-.16,2.62,1.49l.07,26.76a5.72,5.72,0,0,1-2.59,4.49l-76.44,44.14c-1.44.83-2.61.16-2.61-1.49L106.08,122a5.74,5.74,0,0,1,2.59-4.49Z" fill="#9795cc"/><path d="M182.81,47.16c2.33-1.35,4.23-.27,4.24,2.42v5.15A9.27,9.27,0,0,1,182.85,62l-41.6,24c-2.34,1.35-4.23.27-4.24-2.41l0-5.16a9.29,9.29,0,0,1,4.22-7.29Z" fill="#9795cc"/><path d="M130.63,77.29c2.33-1.35,4.23-.27,4.23,2.41l0,5.16a9.28,9.28,0,0,1-4.21,7.29l-19.8,11.43c-2.34,1.35-4.23.27-4.24-2.41V96a9.25,9.25,0,0,1,4.21-7.29Z" fill="#9795cc"/><path d="M185.22,114.42c1.43-.83,2.6-.16,2.61,1.49l.07,26.77a5.69,5.69,0,0,1-2.59,4.49L108.87,191.3c-1.44.83-2.61.16-2.61-1.49l-.08-26.76a5.73,5.73,0,0,1,2.6-4.49Z" fill="#9795cc"/><path d="M185.11,155.48c1.44-.83,2.61-.16,2.62,1.49l.07,26.76a5.73,5.73,0,0,1-2.59,4.5l-76.44,44.13c-1.44.83-2.61.16-2.61-1.49l-.08-26.76a5.76,5.76,0,0,1,2.59-4.5Z" fill="#9795cc"/></g><path d="M189,48.67l2.75,1.6a3,3,0,0,0-3,.29L186,49A3,3,0,0,1,189,48.67Z" fill="#b3b4b8"/><path d="M144.14,89.74l-2.75-1.6a2.94,2.94,0,0,1-1.23-2.71L142.9,87A3,3,0,0,0,144.14,89.74Z" fill="#b3b4b8"/><polygon points="142.9 87.03 140.16 85.43 140.14 80.28 142.89 81.88 142.9 87.03" fill="#b3b4b8"/><polygon points="147.1 74.58 144.35 72.98 185.96 48.97 188.7 50.56 147.1 74.58" fill="#b3b4b8"/><path d="M188.7,50.56c2.34-1.34,4.23-.26,4.24,2.42l0,5.15a9.31,9.31,0,0,1-4.22,7.3l-41.6,24c-2.33,1.34-4.23.26-4.24-2.42V81.88a9.28,9.28,0,0,1,4.21-7.3Z" fill="#d8d9dd"/><path d="M188.46,52.29c1.67-1,3-.19,3,1.72v4.76a6.62,6.62,0,0,1-3,5.21L147.38,87.72c-1.67,1-3,.19-3-1.73l0-4.76a6.62,6.62,0,0,1,3-5.2Z" fill="#fff"/><path d="M142.89,81.88l-2.75-1.6A9.27,9.27,0,0,1,144.35,73l2.75,1.59A9.28,9.28,0,0,0,142.89,81.88Z" fill="#b3b4b8"/><path d="M136.78,78.8l2.75,1.6a3,3,0,0,0-3,.29l-2.75-1.6A3,3,0,0,1,136.78,78.8Z" fill="#b3b4b8"/><path d="M113.76,107.28l-2.75-1.6a3,3,0,0,1-1.23-2.71l2.74,1.6A3,3,0,0,0,113.76,107.28Z" fill="#b3b4b8"/><polygon points="112.52 104.57 109.78 102.97 109.76 97.82 112.51 99.42 112.52 104.57" fill="#b3b4b8"/><polygon points="116.72 92.12 113.97 90.53 133.77 79.09 136.52 80.69 116.72 92.12" fill="#b3b4b8"/><path d="M112.51,99.42l-2.75-1.6a9.3,9.3,0,0,1,4.21-7.3l2.75,1.6A9.28,9.28,0,0,0,112.51,99.42Z" fill="#b3b4b8"/><path d="M136.52,80.69c2.33-1.35,4.23-.27,4.24,2.42v5.15a9.24,9.24,0,0,1-4.21,7.29L116.76,107c-2.33,1.34-4.23.26-4.24-2.42V99.42a9.28,9.28,0,0,1,4.21-7.3Z" fill="#d8d9dd"/><g style="isolation:isolate"><g style="isolation:isolate"><g clip-path="url(#fa2b809e-f4ae-4ccb-8d04-0eef68f99093)"><path d="M191.85,77.3l-2.38-1.39a1.86,1.86,0,0,1,1.85-.18l2.38,1.39a1.81,1.81,0,0,0-1.85.18Z" fill="#e0dfff"/></g></g><g style="isolation:isolate"><g clip-path="url(#a115e516-365e-42bb-a8a4-a7c540e8d803)"><path d="M113.65,154.36,111.27,153a1.81,1.81,0,0,1-.76-1.67l2.38,1.39a1.85,1.85,0,0,0,.76,1.67Z" fill="#bfbdff"/></g></g><polygon points="112.89 152.69 110.51 151.3 110.43 124.54 112.82 125.92 112.89 152.69" fill="#bfbdff"/><polygon points="115.41 121.43 113.03 120.05 189.47 75.91 191.85 77.3 115.41 121.43" fill="#e0dfff"/><g style="isolation:isolate"><g clip-path="url(#b9118a22-8cf0-4ec3-b4a0-b46a98570132)"><path d="M112.82,125.92l-2.39-1.38a5.73,5.73,0,0,1,2.6-4.49l2.38,1.38a5.69,5.69,0,0,0-2.59,4.49Z" fill="url(#f0b55496-7af1-44bf-83dc-0d007188433e)"/></g></g><path d="M191.85,77.3c1.44-.83,2.61-.16,2.61,1.49l.08,26.76a5.73,5.73,0,0,1-2.6,4.49L115.5,154.18c-1.43.83-2.6.16-2.61-1.49l-.07-26.77a5.69,5.69,0,0,1,2.59-4.49Z" fill="#fff"/></g><g style="isolation:isolate"><g style="isolation:isolate"><g clip-path="url(#fb245857-e17b-4540-af2d-ec21920dbd96)"><path d="M124.26,138.77l-1.55-.9a.8.8,0,0,1,.79-.08l1.55.9a.8.8,0,0,0-.79.08Z" fill="#777687"/></g></g><polygon points="119.47 141.54 117.92 140.64 122.71 137.87 124.26 138.77 119.47 141.54" fill="#777687"/><g style="isolation:isolate"><g clip-path="url(#b4b2191c-6d84-49a0-ac61-e90eec88e2db)"><path d="M118.69,144.16l-1.55-.9a.79.79,0,0,1-.33-.71,2.44,2.44,0,0,1,1.11-1.91l1.55.9a2.44,2.44,0,0,0-1.11,1.91.77.77,0,0,0,.33.71Z" fill="#777687"/></g></g><path d="M124.26,138.77c.61-.35,1.11-.07,1.11.64a2.42,2.42,0,0,1-1.11,1.91l-4.78,2.77c-.62.35-1.11.07-1.12-.64a2.44,2.44,0,0,1,1.11-1.91Z" fill="#a6a5bd"/></g><g style="isolation:isolate"><g style="isolation:isolate"><path d="M136.46,130.31l1.55.9a.79.79,0,0,0-.79.07l-1.54-.9A.77.77,0,0,1,136.46,130.31Z" fill="#777687"/><g clip-path="url(#bc290394-37f6-4d9b-8211-b6a25a14c449)"><path d="M137.22,131.28l-1.54-.9a.77.77,0,0,1,.78-.07l1.55.9a.79.79,0,0,0-.79.07Z" fill="#777687"/></g></g><polygon points="128.46 136.34 126.92 135.44 135.68 130.38 137.22 131.28 128.46 136.34" fill="#777687"/><g style="isolation:isolate"><g clip-path="url(#b92bda14-3807-4ae2-8fb9-8716ce9d2a54)"><path d="M127.68,139l-1.55-.9a.76.76,0,0,1-.32-.71,2.45,2.45,0,0,1,1.1-1.92l1.55.9a2.47,2.47,0,0,0-1.1,1.92.76.76,0,0,0,.32.71Z" fill="#777687"/></g></g><path d="M137.22,131.28c.62-.35,1.12-.06,1.12.64a2.45,2.45,0,0,1-1.11,1.92l-8.76,5c-.61.36-1.11.07-1.11-.63a2.47,2.47,0,0,1,1.1-1.92Z" fill="#a6a5bd"/></g><g style="isolation:isolate"><g style="isolation:isolate"><path d="M139.37,123.7l1.55.9a.77.77,0,0,0-.79.08l-1.55-.9A.77.77,0,0,1,139.37,123.7Z" fill="#777687"/><g clip-path="url(#f75fe657-235a-4d97-ae0e-515cf9b5dbd7)"><path d="M140.13,124.68l-1.55-.9a.77.77,0,0,1,.79-.08l1.55.9a.77.77,0,0,0-.79.08Z" fill="#777687"/></g></g><polygon points="119.46 136.62 117.91 135.72 138.58 123.78 140.13 124.68 119.46 136.62" fill="#777687"/><g style="isolation:isolate"><g clip-path="url(#b595ba00-d187-4119-a2c1-ef2fa5907186)"><path d="M118.67,139.24l-1.55-.9a.76.76,0,0,1-.32-.71,2.45,2.45,0,0,1,1.11-1.92l1.55.9a2.45,2.45,0,0,0-1.11,1.92.76.76,0,0,0,.32.71Z" fill="#777687"/></g></g><path d="M140.13,124.68c.61-.36,1.11-.07,1.11.63a2.43,2.43,0,0,1-1.1,1.92l-20.68,11.93c-.61.36-1.11.07-1.11-.63a2.45,2.45,0,0,1,1.11-1.92Z" fill="#a6a5bd"/></g><g style="isolation:isolate"><g style="isolation:isolate"><g clip-path="url(#af528f45-965b-44c0-8da0-0d7dc43a6746)"><path d="M144.6,111.3l-1.55-.9a1.57,1.57,0,0,1,1.58-.15l1.55.9a1.57,1.57,0,0,0-1.58.15Z" fill="#777687"/></g></g><polygon points="120.53 125.19 118.98 124.29 143.05 110.4 144.6 111.3 120.53 125.19" fill="#777687"/><g style="isolation:isolate"><g clip-path="url(#badbda6b-f8b3-464d-9594-f852fd124529)"><path d="M119,130.45l-1.55-.9a1.56,1.56,0,0,1-.65-1.42,4.92,4.92,0,0,1,2.21-3.84l1.55.9a4.92,4.92,0,0,0-2.21,3.84,1.54,1.54,0,0,0,.65,1.42Z" fill="#777687"/></g></g><path d="M144.6,111.3c1.22-.71,2.22-.14,2.22,1.27a4.84,4.84,0,0,1-2.21,3.83l-24.06,13.9c-1.23.7-2.22.13-2.23-1.27a4.92,4.92,0,0,1,2.21-3.84Z" fill="#a6a5bd"/></g><g style="isolation:isolate"><polygon points="187.95 96.34 186.4 95.44 191.12 87.28 192.66 88.18 187.95 96.34" fill="#607a4d"/><polygon points="187.49 95.33 185.94 94.43 191.11 85.47 192.66 86.37 187.49 95.33" fill="#3c542b"/><polygon points="187.46 95.28 185.91 94.38 191.11 85.38 192.66 86.28 187.46 95.28" fill="#4fcf53"/><polygon points="183.95 98.65 182.41 97.75 186.4 95.44 187.95 96.34 183.95 98.65" fill="#617c4e"/><polygon points="177.46 109.89 175.91 109 182.41 97.75 183.95 98.65 177.46 109.89" fill="#607a4d"/><polygon points="183.49 97.64 181.94 96.73 185.94 94.43 187.49 95.33 183.49 97.64" fill="#3d552c"/><polygon points="177 108.89 175.45 107.98 181.94 96.73 183.49 97.64 177 108.89" fill="#3c542b"/><polygon points="176.97 108.83 175.42 107.93 181.92 96.68 183.47 97.58 176.97 108.83" fill="#4fcf53"/><polygon points="183.47 97.58 181.92 96.68 185.91 94.38 187.46 95.28 183.47 97.58" fill="#4fcf53"/><polygon points="173.6 112.12 172.05 111.22 175.91 109 177.46 109.89 173.6 112.12" fill="#617c4e"/><polygon points="174.06 110.58 172.51 109.68 175.45 107.98 177 108.89 174.06 110.58" fill="#3d552c"/><polygon points="174.08 110.5 172.53 109.6 175.42 107.93 176.97 108.83 174.08 110.5" fill="#4fcf53"/><polygon points="171.36 110.84 169.81 109.94 172.05 111.22 173.6 112.12 171.36 110.84" fill="#5a7348"/><polygon points="171.82 109.3 170.27 108.4 172.51 109.68 174.06 110.58 171.82 109.3" fill="#384f28"/><polygon points="171.84 109.22 170.29 108.32 172.53 109.6 174.08 110.5 171.84 109.22" fill="#384f28"/><polygon points="167.83 112.89 166.28 111.98 169.81 109.94 171.36 110.84 167.83 112.89" fill="#617c4e"/><polygon points="168.28 111.34 166.73 110.44 170.27 108.4 171.82 109.3 168.28 111.34" fill="#3d552c"/><polygon points="168.31 111.26 166.76 110.36 170.29 108.32 171.84 109.22 168.31 111.26" fill="#4fcf53"/><polygon points="158.96 127.9 157.41 127 157.39 120.99 158.94 121.89 158.96 127.9" fill="#53bf37"/><polygon points="165.05 111.3 163.5 110.4 166.28 111.98 167.83 112.89 165.05 111.3" fill="#5a7348"/><polygon points="158.94 121.89 157.39 120.99 163.5 110.4 165.05 111.3 158.94 121.89" fill="#607a4d"/><polygon points="192.66 88.18 192.72 108.41 158.96 127.9 158.94 121.89 165.05 111.3 167.83 112.89 171.36 110.84 173.6 112.12 177.46 109.89 183.95 98.65 187.95 96.34 192.66 88.18" fill="#69f246"/><polygon points="158.94 121.89 157.39 120.99 157.39 119.19 158.94 120.09 158.94 121.89" fill="#348f37"/><polygon points="192.66 86.37 192.66 88.18 187.95 96.34 183.95 98.65 177.46 109.89 173.6 112.12 171.36 110.84 167.83 112.89 165.05 111.3 158.94 121.89 158.94 120.09 165.05 109.5 168.28 111.34 171.82 109.3 174.06 110.58 177 108.89 183.49 97.64 187.49 95.33 192.66 86.37" fill="#3a9e3d"/><polygon points="158.94 120.09 157.39 119.19 163.5 108.6 165.05 109.5 158.94 120.09" fill="#3c542b"/><polygon points="165.05 109.5 163.5 108.6 166.73 110.44 168.28 111.34 165.05 109.5" fill="#384f28"/><polygon points="158.94 120.09 157.39 119.19 157.39 119.09 158.94 119.99 158.94 120.09" fill="#3a9e3d"/><polygon points="165.05 109.41 163.5 108.5 166.76 110.36 168.31 111.26 165.05 109.41" fill="#384f28"/><polygon points="158.94 119.99 157.39 119.09 163.5 108.5 165.05 109.41 158.94 119.99" fill="#4fcf53"/><polygon points="192.66 86.28 192.66 86.37 187.49 95.33 183.49 97.64 177 108.89 174.06 110.58 171.82 109.3 168.28 111.34 165.05 109.5 158.94 120.09 158.94 119.99 165.05 109.41 168.31 111.26 171.84 109.22 174.08 110.5 176.97 108.83 183.47 97.58 187.46 95.28 192.66 86.28" fill="#6d984e"/></g><g style="isolation:isolate"><polygon points="119.94 149.88 119.17 149.43 119.16 147.31 119.94 147.76 119.94 149.88" fill="#2e7d30"/><polygon points="119.48 148.02 118.71 147.57 118.71 146.99 119.48 147.44 119.48 148.02" fill="#2e7d30"/><polygon points="119.48 147.44 118.71 146.99 119.77 146.38 120.55 146.83 119.48 147.44" fill="#2e7d30"/><polygon points="120.55 146.83 120.56 149.53 119.94 149.88 119.94 147.76 119.48 148.02 119.48 147.44 120.55 146.83" fill="#46be49"/></g><g style="isolation:isolate"><polygon points="118.13 150.52 117.36 150.07 117.36 149.43 118.13 149.88 118.13 150.52" fill="#2e7d30"/><polygon points="118.51 149.23 117.73 148.78 118.29 148.46 119.07 148.91 118.51 149.23" fill="#2e7d30"/><polygon points="117.57 150.21 116.8 149.76 116.8 149.32 117.57 149.77 117.57 150.21" fill="#2e7d30"/><polygon points="117.57 149.77 116.8 149.32 117.36 149 118.13 149.44 117.57 149.77" fill="#2e7d30"/><polygon points="118.13 149.44 117.36 149 117.35 148.35 118.13 148.8 118.13 149.44" fill="#2e7d30"/><polygon points="118.13 148.8 117.35 148.35 117.73 148.13 118.51 148.58 118.13 148.8" fill="#2e7d30"/><polygon points="118.51 148.58 118.51 149.23 119.07 148.91 119.07 149.34 118.51 149.67 118.51 150.31 118.13 150.52 118.13 149.88 117.57 150.21 117.57 149.77 118.13 149.44 118.13 148.8 118.51 148.58" fill="#46be49"/></g><g style="isolation:isolate"><g style="isolation:isolate"><g clip-path="url(#f5c80137-d8bf-4faf-a8f6-42055e0a311b)"><path d="M128.71,144.38l-.77-.45a.18.18,0,0,0,.17,0l.78.45a.2.2,0,0,1-.18,0Z" fill="#2e7d30"/></g></g><g style="isolation:isolate"><g clip-path="url(#a82dc192-c36c-47da-9355-646c9cbd10b2)"><path d="M128.89,144.36l-.78-.45a.67.67,0,0,0,.28-.61c0-.16,0-.27-.1-.3l.77.45c.07,0,.1.14.1.3a.66.66,0,0,1-.27.61Z" fill="#2e7d30"/></g></g><g style="isolation:isolate"><g clip-path="url(#ee609a12-becb-4929-b27e-6251c53a8634)"><path d="M128.88,143.09l-.77-.45a.46.46,0,0,1,.47-.06l.77.45c-.11-.07-.27-.05-.47.06Z" fill="#2e7d30"/></g></g><g style="isolation:isolate"><g clip-path="url(#b077ab8e-6e18-4ab9-bea8-4db8cc86b07d)"><path d="M128.42,144.8l-.77-.45a.58.58,0,0,1-.19-.51,1.37,1.37,0,0,1,.65-1.2l.77.45a1.39,1.39,0,0,0-.65,1.2.58.58,0,0,0,.19.51Z" fill="#2e7d30"/></g></g><path d="M128.88,143.09c.41-.23.66-.06.66.44a1.37,1.37,0,0,1-.65,1.2c-.4.23-.66.06-.66-.44A1.39,1.39,0,0,1,128.88,143.09Zm0,1.27a.66.66,0,0,0,.27-.61c0-.28-.1-.38-.28-.28a.67.67,0,0,0-.27.6c0,.28.1.39.28.29Z" fill="#46be49"/><polygon points="128.47 142.25 129.03 141.93 127.36 145.59 126.8 145.92 128.47 142.25" fill="#46be49"/><polygon points="128.47 142.25 127.69 141.8 128.25 141.48 129.03 141.93 128.47 142.25" fill="#2e7d30"/><polygon points="126.8 145.92 126.03 145.47 127.69 141.8 128.47 142.25 126.8 145.92" fill="#2e7d30"/><g style="isolation:isolate"><g clip-path="url(#a34ef4cd-4caa-4c00-8ad9-0b5576a94494)"><path d="M126.78,144.4,126,144s.1,0,.18,0a.69.69,0,0,0,.27-.61c0-.16,0-.27-.1-.3l.78.45c.06,0,.1.14.1.3a.69.69,0,0,1-.28.61.17.17,0,0,1-.18,0Z" fill="#2e7d30"/></g></g><g style="isolation:isolate"><g clip-path="url(#b14800d3-5d0d-4e3e-86c8-fc23211faeb5)"><path d="M126.5,144.82l-.78-.45a.58.58,0,0,1-.19-.51,1.36,1.36,0,0,1,.65-1.19c.2-.12.36-.14.47-.07l.77.45c-.11-.07-.27-.05-.46.07a1.37,1.37,0,0,0-.66,1.19.56.56,0,0,0,.2.51Z" fill="#2e7d30"/></g></g><path d="M127.62,143.55a1.38,1.38,0,0,1-.66,1.2c-.4.23-.66.07-.66-.44a1.37,1.37,0,0,1,.66-1.19C127.36,142.88,127.61,143.05,127.62,143.55Zm-.94.54c0,.28.11.39.28.29a.69.69,0,0,0,.28-.61c0-.28-.11-.38-.28-.28a.65.65,0,0,0-.28.6Z" fill="#46be49"/></g><g style="isolation:isolate"><polygon points="125.85 145.35 125.08 144.9 125.38 144.72 126.15 145.17 125.85 145.35" fill="#2e7d30"/><polygon points="125.29 146.79 124.52 146.34 124.52 145.76 125.29 146.21 125.29 146.79" fill="#2e7d30"/><polygon points="124.85 145.92 124.08 145.47 124.52 145.22 125.29 145.67 124.85 145.92" fill="#2e7d30"/><polygon points="125.29 145.1 124.51 144.65 125.08 144.33 125.85 144.78 125.29 145.1" fill="#2e7d30"/><polygon points="125.29 145.67 124.52 145.22 124.51 144.65 125.29 145.1 125.29 145.67" fill="#2e7d30"/><polygon points="124.23 146.82 123.45 146.37 123.45 145.9 124.23 146.34 124.23 146.82" fill="#2e7d30"/><polygon points="125.5 143.96 124.85 145.92 125.29 145.67 125.29 145.1 125.85 144.78 125.85 145.35 126.15 145.17 126.16 145.71 125.85 145.88 125.86 146.47 125.29 146.79 125.29 146.21 124.23 146.82 124.23 146.34 124.92 144.3 125.5 143.96" fill="#46be49"/><polygon points="124.23 146.34 123.45 145.9 124.14 143.85 124.92 144.3 124.23 146.34" fill="#2e7d30"/><polygon points="124.92 144.3 124.14 143.85 124.73 143.51 125.5 143.96 124.92 144.3" fill="#2e7d30"/></g><g style="isolation:isolate"><g style="isolation:isolate"><g clip-path="url(#bc36147f-b130-4797-b7fc-48739bc47d6d)"><path d="M122.39,147.64l-.78-.45a.59.59,0,0,0,.6,0,.66.66,0,0,0,.37-.56.2.2,0,0,0-.07-.17l.77.45a.18.18,0,0,1,.07.17.66.66,0,0,1-.37.56.57.57,0,0,1-.59,0Z" fill="#2e7d30"/></g></g><polygon points="122.13 148.31 121.35 147.86 121.59 147.17 122.37 147.62 122.13 148.31" fill="#2e7d30"/><g style="isolation:isolate"><g clip-path="url(#a96186d4-0922-4e47-9262-ec09c7ced398)"><path d="M122.89,146.46l-.78-.45a2.53,2.53,0,0,1,.22-.13c.31-.18.56-.22.72-.13l.78.45c-.16-.09-.41,0-.73.13l-.21.13Z" fill="#2e7d30"/></g></g><polygon points="122.33 147.34 121.55 146.89 121.55 145.35 122.32 145.8 122.33 147.34" fill="#2e7d30"/><polygon points="122.32 145.8 121.55 145.35 123.13 144.44 123.9 144.89 122.32 145.8" fill="#2e7d30"/><path d="M123.9,144.89v.57l-1,.58v.42l.21-.13c.55-.32.91-.19.91.29a1.8,1.8,0,0,1-1,1.49,1.4,1.4,0,0,1-.93.2l.24-.69a.56.56,0,0,0,.61,0,.66.66,0,0,0,.37-.56c0-.2-.13-.24-.37-.11s-.51.3-.65.4V145.8Z" fill="#46be49"/></g><g style="isolation:isolate"><g style="isolation:isolate"><g clip-path="url(#b98a4b87-3728-4f00-aa00-640431a54050)"><path d="M121.65,148.26l-.77-.45a.21.21,0,0,1,.21,0l.77.45s-.12,0-.21,0Z" fill="#2e7d30"/></g></g><g style="isolation:isolate"><g clip-path="url(#ea1aba2f-7356-437e-987d-9ae2c0f80d0f)"><path d="M121.45,149l-.77-.45a.22.22,0,0,1-.08-.2.56.56,0,0,1,.28-.49l.77.45a.58.58,0,0,0-.28.49.22.22,0,0,0,.08.2Z" fill="#2e7d30"/></g></g><path d="M121.65,148.26c.17-.1.29,0,.29.16a.62.62,0,0,1-.28.5c-.17.1-.29,0-.29-.17A.58.58,0,0,1,121.65,148.26Z" fill="#46be49"/></g><g style="isolation:isolate"><polygon points="150.75 110.83 149.98 110.38 152.18 105.58 152.95 106.03 150.75 110.83" fill="#3a9e3d"/><polygon points="152.95 106.03 155.17 108.28 150.75 110.83 152.95 106.03" fill="#46be49"/></g><g style="isolation:isolate"><g style="isolation:isolate"><g clip-path="url(#ac62d1ae-8a26-47ea-8d20-d956f8224e0b)"><path d="M192,118.31l-2.38-1.38a1.81,1.81,0,0,1,1.85-.18l2.38,1.38a1.86,1.86,0,0,0-1.85.18Z" fill="#e0dfff"/></g></g><g style="isolation:isolate"><path d="M113.76,195.37,111.37,194a1.82,1.82,0,0,1-.76-1.67L113,193.7A1.81,1.81,0,0,0,113.76,195.37Z" fill="#bfbdff"/><g clip-path="url(#ae1f6372-cbc8-4b49-95f5-c7dff3d52998)"><path d="M113.76,195.37,111.37,194a1.82,1.82,0,0,1-.76-1.67L113,193.7a1.81,1.81,0,0,0,.76,1.67Z" fill="#bfbdff"/></g></g><polygon points="113 193.7 110.61 192.32 110.54 165.55 112.92 166.94 113 193.7" fill="#bfbdff"/><polygon points="115.51 162.45 113.13 161.06 189.57 116.93 191.95 118.31 115.51 162.45" fill="#e0dfff"/><g style="isolation:isolate"><g clip-path="url(#b794de54-060e-4ecf-9319-50f64f9cda80)"><path d="M112.92,166.94l-2.38-1.39a5.69,5.69,0,0,1,2.59-4.49l2.38,1.39a5.74,5.74,0,0,0-2.59,4.49Z" fill="url(#a7e3a9e5-e455-41eb-8fc3-d0ca34f1da35)"/></g></g><path d="M192,118.31c1.44-.83,2.61-.16,2.61,1.49l.08,26.76a5.74,5.74,0,0,1-2.59,4.5l-76.44,44.13c-1.44.83-2.61.16-2.61-1.49l-.08-26.76a5.74,5.74,0,0,1,2.59-4.49Z" fill="#fff"/></g><g style="isolation:isolate"><g style="isolation:isolate"><path d="M123.6,178.81l1.55.9a.77.77,0,0,0-.79.08l-1.55-.9A.77.77,0,0,1,123.6,178.81Z" fill="#777687"/><g clip-path="url(#e8e28faf-8e1c-4213-92cb-61ada56065a7)"><path d="M124.36,179.79l-1.55-.9a.77.77,0,0,1,.79-.08l1.55.9a.77.77,0,0,0-.79.08Z" fill="#777687"/></g></g><polygon points="119.57 182.55 118.02 181.65 122.81 178.89 124.36 179.79 119.57 182.55" fill="#777687"/><g style="isolation:isolate"><g clip-path="url(#e817bb06-1a7a-40e2-9a65-220509ae8067)"><path d="M118.79,185.18l-1.55-.9a.77.77,0,0,1-.32-.71,2.41,2.41,0,0,1,1.1-1.92l1.55.9a2.46,2.46,0,0,0-1.11,1.92.8.8,0,0,0,.33.71Z" fill="#777687"/></g></g><path d="M124.36,179.79c.61-.36,1.11-.07,1.11.63a2.43,2.43,0,0,1-1.1,1.92l-4.79,2.76c-.61.36-1.11.07-1.12-.63a2.46,2.46,0,0,1,1.11-1.92Z" fill="#a6a5bd"/></g><g style="isolation:isolate"><g style="isolation:isolate"><path d="M136.57,171.32l1.55.9a.8.8,0,0,0-.79.08l-1.55-.9A.8.8,0,0,1,136.57,171.32Z"/><g clip-path="url(#beea0290-3bd9-4b43-bf9e-d00a8500d4fb)"><path d="M137.33,172.3l-1.55-.9a.8.8,0,0,1,.79-.08l1.55.9a.8.8,0,0,0-.79.08Z"/></g></g><polygon points="128.56 177.36 127.02 176.46 135.78 171.4 137.33 172.3 128.56 177.36"/><g style="isolation:isolate"><path d="M127.78,180l-1.55-.9a.79.79,0,0,1-.32-.72,2.42,2.42,0,0,1,1.11-1.91l1.55.9a2.42,2.42,0,0,0-1.11,1.91A.79.79,0,0,0,127.78,180Z"/><g clip-path="url(#ba4c17fe-4330-46b8-8d1a-e7457722444d)"><path d="M127.78,180l-1.55-.9a.79.79,0,0,1-.32-.72,2.42,2.42,0,0,1,1.11-1.91l1.55.9a2.42,2.42,0,0,0-1.11,1.91.79.79,0,0,0,.32.72Z"/></g></g><path d="M137.33,172.3c.61-.35,1.11-.07,1.11.64a2.42,2.42,0,0,1-1.11,1.91l-8.76,5.06c-.61.35-1.11.07-1.11-.64a2.42,2.42,0,0,1,1.11-1.91Z"/></g><g style="isolation:isolate"><g style="isolation:isolate"><path d="M139.47,164.72l1.55.9a.79.79,0,0,0-.79.07l-1.55-.9A.79.79,0,0,1,139.47,164.72Z" fill="#777687"/><g clip-path="url(#f5e9a1f7-64b8-4c7e-bb97-331372f69376)"><path d="M140.23,165.69l-1.55-.9a.79.79,0,0,1,.79-.07l1.55.9a.79.79,0,0,0-.79.07Z" fill="#777687"/></g></g><polygon points="119.56 177.63 118.01 176.73 138.68 164.79 140.23 165.69 119.56 177.63" fill="#777687"/><g style="isolation:isolate"><g clip-path="url(#b482926d-e1c4-4920-a95b-a5ae9691b86f)"><path d="M118.77,180.26l-1.54-.9a.79.79,0,0,1-.33-.71,2.45,2.45,0,0,1,1.11-1.92l1.55.9a2.42,2.42,0,0,0-1.11,1.92.79.79,0,0,0,.32.71Z" fill="#777687"/></g></g><path d="M140.23,165.69c.61-.35,1.11-.07,1.12.64a2.44,2.44,0,0,1-1.11,1.91l-20.68,11.94c-.61.35-1.11.07-1.11-.63a2.42,2.42,0,0,1,1.11-1.92Z"/></g><g style="isolation:isolate"><g style="isolation:isolate"><path d="M144.73,151.26l1.55.9a1.57,1.57,0,0,0-1.58.16l-1.55-.9A1.57,1.57,0,0,1,144.73,151.26Z" fill="#73d5ff"/><g clip-path="url(#be75af6b-6d57-40e9-90e1-299ed867f2fe)"><path d="M144.7,152.32l-1.55-.9a1.57,1.57,0,0,1,1.58-.16l1.55.9a1.57,1.57,0,0,0-1.58.16Z" fill="#73d5ff"/></g></g><polygon points="120.64 166.21 119.09 165.31 143.15 151.42 144.7 152.32 120.64 166.21" fill="#73d5ff"/><g style="isolation:isolate"><path d="M119.07,171.47l-1.55-.9a1.59,1.59,0,0,1-.65-1.43,4.88,4.88,0,0,1,2.22-3.83l1.55.9a4.88,4.88,0,0,0-2.22,3.83A1.59,1.59,0,0,0,119.07,171.47Z" fill="#73d5ff"/><g clip-path="url(#f48e1933-4790-4414-97b9-c1b70d7983aa)"><path d="M119.07,171.47l-1.55-.9a1.59,1.59,0,0,1-.65-1.43,4.88,4.88,0,0,1,2.22-3.83l1.55.9a4.88,4.88,0,0,0-2.22,3.83,1.59,1.59,0,0,0,.65,1.43Z" fill="#73d5ff"/></g></g><path d="M144.7,152.32c1.22-.71,2.22-.14,2.23,1.27a4.88,4.88,0,0,1-2.22,3.83l-24.06,13.89c-1.23.71-2.22.14-2.23-1.27a4.88,4.88,0,0,1,2.22-3.83Z" fill="#73d5ff"/></g><g style="isolation:isolate"><polygon points="192.85 138.35 191.3 137.45 191.31 135.65 192.86 136.55 192.85 138.35"/><polygon points="179.69 146.28 178.14 145.38 181.25 143.59 182.8 144.49 179.69 146.28"/><polygon points="182.8 144.49 181.25 143.59 184.76 137.5 186.31 138.4 182.8 144.49"/><polygon points="180.14 144.74 178.59 143.84 180.78 142.57 182.33 143.47 180.14 144.74"/><polygon points="177.77 143.3 176.22 142.4 178.62 143.76 180.17 144.66 177.77 143.3"/><polygon points="177.72 143.36 176.17 142.46 178.59 143.84 180.14 144.74 177.72 143.36"/><polygon points="176.61 144.53 175.06 143.63 178.14 145.38 179.69 146.28 176.61 144.53"/><polygon points="177.72 143.36 176.17 142.46 176.15 137.58 177.7 138.48 177.72 143.36"/><polygon points="176.61 144.53 175.06 143.63 175.04 138.75 176.59 139.65 176.61 144.53"/><polygon points="174.28 138.34 176.59 139.65 176.61 144.53 179.69 146.28 182.8 144.49 186.31 138.4 189.6 136.5 192.85 138.35 192.86 136.55 192.82 149.43 158.58 169.19 158.54 157.07 163.62 154.14 168.75 145.25 170.22 144.4 173.44 138.82 174.28 138.34"/><polygon points="189.6 136.5 188.06 135.6 191.3 137.45 192.85 138.35 189.6 136.5"/><polygon points="190.06 134.96 188.51 134.06 191.31 135.65 192.86 136.55 190.06 134.96"/><polygon points="190.08 134.88 188.53 133.98 191.31 135.56 192.86 136.46 190.08 134.88"/><polygon points="186.31 138.4 184.76 137.5 188.06 135.6 189.6 136.5 186.31 138.4"/><polygon points="182.33 143.47 180.78 142.57 184.3 136.49 185.85 137.39 182.33 143.47"/><polygon points="185.85 137.39 184.3 136.49 188.51 134.06 190.06 134.96 185.85 137.39"/><polygon points="182.31 143.42 180.76 142.52 184.27 136.44 185.82 137.34 182.31 143.42"/><polygon points="185.82 137.34 184.27 136.44 188.53 133.98 190.08 134.88 185.82 137.34"/><polygon points="180.17 144.66 178.62 143.76 180.76 142.52 182.31 143.42 180.17 144.66"/><polygon points="174.28 138.34 172.73 137.44 175.04 138.75 176.59 139.65 174.28 138.34"/><polygon points="174.74 136.8 173.19 135.9 176.15 137.58 177.7 138.48 174.74 136.8"/><polygon points="174.76 136.71 173.21 135.81 176.21 137.52 177.76 138.42 174.76 136.71"/><polygon points="170.22 144.4 168.67 143.5 171.9 137.92 173.44 138.82 170.22 144.4"/><polygon points="173.44 138.82 171.9 137.92 172.73 137.44 174.28 138.34 173.44 138.82"/><polygon points="163.62 154.14 162.07 153.24 167.2 144.35 168.75 145.25 163.62 154.14"/><polygon points="168.75 145.25 167.2 144.35 168.67 143.5 170.22 144.4 168.75 145.25"/><polygon points="169.76 143.39 168.21 142.49 171.43 136.91 172.98 137.81 169.76 143.39"/><polygon points="172.98 137.81 171.43 136.91 173.19 135.9 174.74 136.8 172.98 137.81"/><polygon points="169.73 143.34 168.18 142.44 171.41 136.85 172.96 137.75 169.73 143.34"/><polygon points="172.96 137.75 171.41 136.85 173.21 135.81 174.76 136.71 172.96 137.75"/><polygon points="168.28 144.24 166.74 143.34 168.21 142.49 169.76 143.39 168.28 144.24"/><polygon points="163.15 153.13 161.6 152.23 166.74 143.34 168.28 144.24 163.15 153.13"/><polygon points="163.13 153.08 161.58 152.18 166.71 143.29 168.26 144.19 163.13 153.08"/><polygon points="168.26 144.19 166.71 143.29 168.18 142.44 169.73 143.34 168.26 144.19"/><polygon points="158.58 169.19 157.03 168.29 157 156.17 158.54 157.07 158.58 169.19"/><polygon points="158.54 157.07 157 156.17 162.07 153.24 163.62 154.14 158.54 157.07"/><polygon points="158.54 155.8 156.99 154.9 161.6 152.23 163.15 153.13 158.54 155.8"/><polygon points="174.74 136.8 177.7 138.48 177.72 143.36 180.14 144.74 182.33 143.47 185.85 137.39 190.06 134.96 192.86 136.55 192.85 138.35 189.6 136.5 186.31 138.4 182.8 144.49 179.69 146.28 176.61 144.53 176.59 139.65 174.28 138.34 173.44 138.82 170.22 144.4 168.75 145.25 163.62 154.14 158.54 157.07 158.54 155.8 163.15 153.13 168.28 144.24 169.76 143.39 172.98 137.81 174.74 136.8"/><polygon points="158.54 157.07 157 156.17 156.99 154.9 158.54 155.8 158.54 157.07"/><polygon points="158.54 155.73 156.99 154.83 161.58 152.18 163.13 153.08 158.54 155.73"/><polygon points="158.54 157.07 157 156.17 156.99 154.83 158.54 155.73 158.54 157.07"/><polygon points="174.76 136.71 177.76 138.42 177.77 143.3 180.17 144.66 182.31 143.42 185.82 137.34 190.08 134.88 192.86 136.46 192.86 136.55 190.06 134.96 185.85 137.39 182.33 143.47 180.14 144.74 177.72 143.36 177.7 138.48 174.74 136.8 172.98 137.81 169.76 143.39 168.28 144.24 163.15 153.13 158.54 155.8 158.54 157.07 158.54 155.73 163.13 153.08 168.26 144.19 169.73 143.34 172.96 137.75 174.76 136.71"/></g><g style="isolation:isolate"><polygon points="122.48 189.49 121.7 189.04 121.69 186.92 122.47 187.37 122.48 189.49" fill="#c41616"/><polygon points="122.02 187.63 121.24 187.18 121.24 186.6 122.02 187.05 122.02 187.63" fill="#c41616"/><polygon points="122.02 187.05 121.24 186.6 122.31 185.99 123.08 186.44 122.02 187.05" fill="#c41616"/><polygon points="123.08 186.44 123.09 189.14 122.48 189.49 122.47 187.37 122.02 187.63 122.02 187.05 123.08 186.44"/></g><g style="isolation:isolate"><g style="isolation:isolate"><g clip-path="url(#f10bdd19-baba-47b2-8823-a9fc3efe1b11)"><path d="M121.3,189.53l-.77-.45a.2.2,0,0,1,.21,0l.77.45a.21.21,0,0,0-.21,0Z" fill="#c41616"/></g></g><g style="isolation:isolate"><g clip-path="url(#ab3f39a1-2ab9-4568-8c96-7aff1a4d4f3a)"><path d="M121.1,190.22l-.78-.45a.2.2,0,0,1-.08-.19.6.6,0,0,1,.29-.5l.77.45a.59.59,0,0,0-.28.5.2.2,0,0,0,.08.19Z" fill="#c41616"/></g></g><path d="M121.3,189.53c.17-.09.29,0,.29.17a.62.62,0,0,1-.29.5c-.16.1-.28,0-.28-.17A.59.59,0,0,1,121.3,189.53Z" fill="#ff2c2c"/></g><g style="isolation:isolate"><g style="isolation:isolate"><path d="M119.67,190.55l-.77-.45s.11,0,.19,0l.77.45C119.78,190.57,119.72,190.58,119.67,190.55Z"/><g clip-path="url(#a67f1b56-850d-4746-b60a-1c925929ee8a)"><path d="M119.67,190.55l-.77-.45s.11,0,.19,0l.77.45c-.08,0-.14.06-.19,0Z"/></g></g><g style="isolation:isolate"><path d="M119.27,188.3l.77.45c.1.06.15.29.15.71,0,.61-.09.93-.33,1.06l-.77-.45c.23-.13.33-.45.33-1.06C119.41,188.59,119.37,188.36,119.27,188.3Z"/><g clip-path="url(#a7e9b034-2bdd-4f33-bb27-c30422c7185b)"><path d="M119.86,190.52l-.77-.45c.23-.13.33-.45.33-1.06,0-.42,0-.65-.15-.71l.77.45c.1.06.15.29.15.71,0,.61-.09.93-.33,1.06Z"/></g></g><g style="isolation:isolate"><path d="M119.7,187.74l.77.45a.64.64,0,0,0-.62.09l-.77-.45A.64.64,0,0,1,119.7,187.74Z"/><g clip-path="url(#aebaafd7-333a-498c-af5d-5faac3d062ff)"><path d="M119.85,188.28l-.77-.45a.64.64,0,0,1,.62-.09l.77.45a.64.64,0,0,0-.62.09Z"/></g></g><g style="isolation:isolate"><path d="M119.24,191.11l-.77-.45c-.2-.12-.31-.43-.31-.93a2.06,2.06,0,0,1,.92-1.9l.77.45a2.06,2.06,0,0,0-.91,1.9Q118.94,190.93,119.24,191.11Z"/><g clip-path="url(#a6b886f3-f33a-4257-8c90-0cb55163871d)"><path d="M119.24,191.11l-.77-.45c-.2-.12-.31-.43-.31-.93a2.06,2.06,0,0,1,.92-1.9l.77.45a2.06,2.06,0,0,0-.91,1.9q0,.75.3.93Z"/></g></g><path d="M119.85,188.28c.59-.34.92,0,.93.84a2.07,2.07,0,0,1-.92,1.9c-.59.34-.92,0-.92-.84A2.06,2.06,0,0,1,119.85,188.28Zm0,2.24c.24-.13.33-.45.33-1.06s-.1-.82-.33-.69-.34.45-.34,1.07.1.82.34.68Z"/></g><g style="isolation:isolate"><polygon points="117.75 191.25 116.98 190.8 116.98 190.37 117.75 190.82 117.75 191.25" fill="#c41616"/><polygon points="117.75 190.82 116.98 190.37 117.86 189.85 118.64 190.3 117.75 190.82" fill="#c41616"/><polygon points="118.64 190.3 118.64 190.74 117.75 191.25 117.75 190.82 118.64 190.3" fill="#ff2c2c"/></g><g style="isolation:isolate"><g style="isolation:isolate"><path d="M128.36,185.66l-.78-.45a.2.2,0,0,0,.18,0l.77.45A.18.18,0,0,1,128.36,185.66Z"/><g clip-path="url(#f322fa12-aeb8-4ee1-9e85-47a0761fe96e)"><path d="M128.36,185.66l-.78-.45a.2.2,0,0,0,.18,0l.77.45a.18.18,0,0,1-.17,0Z"/></g></g><g style="isolation:isolate"><path d="M127.93,184.27l.78.45a.38.38,0,0,1,.1.31.67.67,0,0,1-.28.61l-.77-.45a.69.69,0,0,0,.28-.61C128,184.42,128,184.31,127.93,184.27Z"/><g clip-path="url(#ec3b8bfd-d161-40b2-9bfd-5e98423de231)"><path d="M128.53,185.64l-.77-.45a.69.69,0,0,0,.28-.61c0-.16,0-.27-.11-.31l.78.45a.38.38,0,0,1,.1.31.67.67,0,0,1-.28.61Z"/></g></g><g style="isolation:isolate"><path d="M128.22,183.86l.78.45a.46.46,0,0,0-.47.06l-.77-.45A.45.45,0,0,1,128.22,183.86Z"/><g clip-path="url(#b8c1558d-7656-49ad-807e-180c2ba228a7)"><path d="M128.53,184.37l-.77-.45a.45.45,0,0,1,.46-.06l.78.45a.46.46,0,0,0-.47.06Z"/></g></g><g style="isolation:isolate"><path d="M128.07,186.07l-.78-.45c-.12-.07-.19-.24-.19-.5a1.37,1.37,0,0,1,.66-1.2l.77.45a1.39,1.39,0,0,0-.66,1.2C127.88,185.83,127.94,186,128.07,186.07Z"/><g clip-path="url(#afc74953-d727-44fb-ac3a-8adcf8953099)"><path d="M128.07,186.07l-.78-.45c-.12-.07-.19-.24-.19-.5a1.37,1.37,0,0,1,.66-1.2l.77.45a1.39,1.39,0,0,0-.66,1.2c0,.26.07.43.2.5Z"/></g></g><path d="M128.53,184.37c.4-.23.66-.06.66.44a1.37,1.37,0,0,1-.66,1.2c-.4.23-.65.06-.66-.44A1.39,1.39,0,0,1,128.53,184.37Zm0,1.27a.67.67,0,0,0,.28-.61c0-.28-.11-.38-.28-.28a.67.67,0,0,0-.28.6c0,.28.11.39.28.29Z"/><polygon points="128.11 183.53 128.67 183.21 127.01 186.87 126.45 187.2 128.11 183.53"/><polygon points="128.11 183.53 127.34 183.08 127.9 182.76 128.67 183.21 128.11 183.53"/><polygon points="126.45 187.2 125.67 186.75 127.34 183.08 128.11 183.53 126.45 187.2"/><g style="isolation:isolate"><path d="M126.43,185.68l-.77-.45a.18.18,0,0,0,.17,0,.67.67,0,0,0,.28-.61.38.38,0,0,0-.1-.31l.77.45c.07,0,.1.15.1.31a.69.69,0,0,1-.27.61A.2.2,0,0,1,126.43,185.68Z"/><g clip-path="url(#b105eaee-747f-4802-ac4b-6f9009178fbc)"><path d="M126.43,185.68l-.77-.45a.18.18,0,0,0,.17,0,.67.67,0,0,0,.28-.61.38.38,0,0,0-.1-.31l.77.45c.07,0,.1.15.1.31a.69.69,0,0,1-.27.61.2.2,0,0,1-.18,0Z"/></g></g><g style="isolation:isolate"><path d="M126.14,186.09l-.77-.45c-.13-.07-.2-.24-.2-.5a1.4,1.4,0,0,1,.66-1.2.46.46,0,0,1,.47-.06l.77.45c-.11-.07-.27-.05-.47.06a1.39,1.39,0,0,0-.65,1.2C126,185.85,126,186,126.14,186.09Z"/><g clip-path="url(#ade95157-e722-44c0-b110-00fd91bff7ef)"><path d="M126.14,186.09l-.77-.45c-.13-.07-.2-.24-.2-.5a1.4,1.4,0,0,1,.66-1.2.46.46,0,0,1,.47-.06l.77.45c-.11-.07-.27-.05-.47.06a1.39,1.39,0,0,0-.65,1.2c0,.26.07.43.19.5Z"/></g></g><path d="M127.26,184.83a1.37,1.37,0,0,1-.65,1.2c-.4.23-.66.06-.66-.44a1.39,1.39,0,0,1,.65-1.2C127,184.16,127.26,184.33,127.26,184.83Zm-.93.54c0,.28.1.39.28.29a.69.69,0,0,0,.27-.61c0-.28-.1-.38-.28-.28a.67.67,0,0,0-.27.6Z"/></g><g style="isolation:isolate"><g style="isolation:isolate"><path d="M124.36,186.34l.77.45q.09,0,.09.21a.66.66,0,0,1-.34.58l-.77-.45a.65.65,0,0,0,.33-.58A.23.23,0,0,0,124.36,186.34Z"/><g clip-path="url(#bdac69af-a2fd-46d3-a59a-f377a94946e6)"><path d="M124.88,187.58l-.77-.45a.65.65,0,0,0,.33-.58.23.23,0,0,0-.08-.21l.77.45q.09,0,.09.21a.66.66,0,0,1-.34.58Z"/></g></g><g style="isolation:isolate"><path d="M124.62,187.62l-.77-.45c.06,0,.14,0,.26,0l.77.45A.29.29,0,0,1,124.62,187.62Z"/><g clip-path="url(#bd3e5a99-b46c-4ac6-8b3c-2435c03909c1)"><path d="M124.62,187.62l-.77-.45c.06,0,.14,0,.26,0l.77.45a.29.29,0,0,1-.26,0Z"/></g></g><g style="isolation:isolate"><path d="M124.79,185.72l.77.45a.51.51,0,0,0-.54.08l-.78-.45A.53.53,0,0,1,124.79,185.72Z"/><g clip-path="url(#fd2167fc-cc01-4cfa-9f85-9a67a10a5c9e)"><path d="M125,186.25l-.78-.45a.53.53,0,0,1,.55-.08l.77.45a.51.51,0,0,0-.54.08Z"/></g></g><g style="isolation:isolate"><path d="M124.47,186.85l-.77-.45a1.3,1.3,0,0,1,.54-.6l.78.45A1.27,1.27,0,0,0,124.47,186.85Z"/><g clip-path="url(#ee2b7938-2333-46b6-805e-14e809401190)"><path d="M124.47,186.85l-.77-.45a1.3,1.3,0,0,1,.54-.6l.78.45a1.27,1.27,0,0,0-.55.6Z"/></g></g><g style="isolation:isolate"><path d="M124.22,188.21l-.78-.45c-.2-.12-.31-.41-.31-.86a2.35,2.35,0,0,1,1.06-2,1.32,1.32,0,0,1,.75-.21l.78.45a1.3,1.3,0,0,0-.75.21,2.3,2.3,0,0,0-1.06,2C123.91,187.8,124,188.09,124.22,188.21Z"/><g clip-path="url(#bd1727a8-6fde-4a1c-804a-f8991fbd2076)"><path d="M124.22,188.21l-.78-.45c-.2-.12-.31-.41-.31-.86a2.35,2.35,0,0,1,1.06-2,1.32,1.32,0,0,1,.75-.21l.78.45a1.3,1.3,0,0,0-.75.21,2.3,2.3,0,0,0-1.06,2c0,.45.11.74.31.86Z"/></g></g><path d="M125,186.25c.45-.27.75-.09.75.44a1.7,1.7,0,0,1-.86,1.43c-.62.36-1,.06-1-.77a2.3,2.3,0,0,1,1.06-2,1.3,1.3,0,0,1,.75-.21l-.23.61a.71.71,0,0,0-.48.11,1.09,1.09,0,0,0-.54,1A1.27,1.27,0,0,1,125,186.25Zm-.14,1.33a.66.66,0,0,0,.34-.58c0-.22-.12-.29-.33-.17a.67.67,0,0,0-.35.58c0,.19.11.3.34.17Z"/></g><g style="isolation:isolate"><polygon points="150.74 149.48 149.97 149.03 154.39 146.48 155.16 146.93 150.74 149.48"/><polygon points="152.96 151.73 152.19 151.28 149.97 149.03 150.74 149.48 152.96 151.73"/><polygon points="150.74 149.48 155.16 146.93 152.96 151.73 150.74 149.48"/></g><g style="isolation:isolate"><g style="isolation:isolate"><g clip-path="url(#aeb94dc0-7e5d-4d76-85fb-a268446649e0)"><path d="M191.85,159.37,189.47,158a1.84,1.84,0,0,1,1.85-.19l2.38,1.39a1.84,1.84,0,0,0-1.85.18Z" fill="#e0dfff"/></g></g><g style="isolation:isolate"><g clip-path="url(#b523e425-68ee-483e-bf01-7eb546822189)"><path d="M113.65,236.43,111.27,235a1.81,1.81,0,0,1-.76-1.67l2.38,1.39a1.85,1.85,0,0,0,.76,1.67Z" fill="#bfbdff"/></g></g><polygon points="112.89 234.76 110.51 233.37 110.43 206.61 112.82 208 112.89 234.76" fill="#bfbdff"/><polygon points="115.41 203.5 113.03 202.12 189.47 157.99 191.85 159.37 115.41 203.5" fill="#e0dfff"/><g style="isolation:isolate"><g clip-path="url(#f628eb1e-cd6b-44dd-9f65-788517bebbb5)"><path d="M112.82,208l-2.39-1.39a5.73,5.73,0,0,1,2.6-4.49l2.38,1.38a5.71,5.71,0,0,0-2.59,4.5Z" fill="url(#b5890e7a-b64f-4f3d-8d00-929b3d336a92)"/></g></g><path d="M191.85,159.37c1.44-.83,2.61-.16,2.61,1.49l.08,26.76a5.74,5.74,0,0,1-2.6,4.5L115.5,236.25c-1.43.83-2.6.16-2.61-1.49L112.82,208a5.71,5.71,0,0,1,2.59-4.5Z" fill="#fff"/></g><g style="isolation:isolate"><g style="isolation:isolate"><g clip-path="url(#a053a561-a8c3-4fc3-958f-77e0ded4baf3)"><path d="M124.26,220.84l-1.55-.9a.79.79,0,0,1,.79-.07l1.55.9a.79.79,0,0,0-.79.07Z" fill="#777687"/></g></g><polygon points="119.47 223.61 117.92 222.71 122.71 219.94 124.26 220.84 119.47 223.61" fill="#777687"/><g style="isolation:isolate"><g clip-path="url(#acb1e650-6162-4e9e-8adb-9faa9f0c05bd)"><path d="M118.69,226.24l-1.55-.9a.82.82,0,0,1-.33-.72,2.44,2.44,0,0,1,1.11-1.91l1.55.9a2.44,2.44,0,0,0-1.11,1.91.78.78,0,0,0,.33.72Z" fill="#777687"/></g></g><path d="M124.26,220.84c.61-.35,1.11-.07,1.11.64a2.45,2.45,0,0,1-1.11,1.92l-4.78,2.76c-.62.35-1.11.07-1.12-.64a2.44,2.44,0,0,1,1.11-1.91Z" fill="#a6a5bd"/></g><g style="isolation:isolate"><g style="isolation:isolate"><path d="M136.46,212.38l1.55.9a.77.77,0,0,0-.79.08l-1.54-.9A.76.76,0,0,1,136.46,212.38Z" fill="#777687"/><g clip-path="url(#e68be8ca-c4da-4c5d-a8b0-34ce7ac53682)"><path d="M137.22,213.36l-1.54-.9a.76.76,0,0,1,.78-.08l1.55.9a.77.77,0,0,0-.79.08Z" fill="#777687"/></g></g><polygon points="128.46 218.42 126.92 217.52 135.68 212.46 137.22 213.36 128.46 218.42" fill="#777687"/><g style="isolation:isolate"><g clip-path="url(#babd1537-d490-42ea-8bce-edd65f2c186e)"><path d="M127.68,221l-1.55-.9a.76.76,0,0,1-.32-.71,2.43,2.43,0,0,1,1.1-1.91l1.55.9a2.43,2.43,0,0,0-1.1,1.91.76.76,0,0,0,.32.71Z" fill="#777687"/></g></g><path d="M137.22,213.36c.62-.36,1.12-.07,1.12.63a2.44,2.44,0,0,1-1.11,1.92L128.47,221c-.61.35-1.11.07-1.11-.64a2.43,2.43,0,0,1,1.1-1.91Z" fill="#a6a5bd"/></g><g style="isolation:isolate"><g style="isolation:isolate"><path d="M139.37,205.77l1.55.9a.8.8,0,0,0-.79.08l-1.55-.9A.8.8,0,0,1,139.37,205.77Z" fill="#777687"/><g clip-path="url(#b11fda73-4150-4067-bc09-cf834e6dc2b4)"><path d="M140.13,206.75l-1.55-.9a.8.8,0,0,1,.79-.08l1.55.9a.8.8,0,0,0-.79.08Z" fill="#777687"/></g></g><polygon points="119.46 218.69 117.91 217.79 138.58 205.85 140.13 206.75 119.46 218.69" fill="#777687"/><g style="isolation:isolate"><g clip-path="url(#b77f6519-8fa8-4177-9631-480bde69b64f)"><path d="M118.67,221.31l-1.55-.9a.76.76,0,0,1-.32-.71,2.42,2.42,0,0,1,1.11-1.91l1.55.9a2.42,2.42,0,0,0-1.11,1.91.76.76,0,0,0,.32.71Z" fill="#777687"/></g></g><path d="M140.13,206.75c.61-.35,1.11-.07,1.11.63a2.41,2.41,0,0,1-1.1,1.92l-20.68,11.94c-.61.35-1.11.07-1.11-.64a2.42,2.42,0,0,1,1.11-1.91Z" fill="#a6a5bd"/></g><g style="isolation:isolate"><g style="isolation:isolate"><g clip-path="url(#a54bc6bb-8e66-4915-91fe-14fb4c7f8340)"><path d="M144.6,193.37l-1.55-.9a1.59,1.59,0,0,1,1.58-.15l1.55.9a1.59,1.59,0,0,0-1.58.15Z" fill="#777687"/></g></g><polygon points="120.53 207.27 118.98 206.37 143.05 192.47 144.6 193.37 120.53 207.27" fill="#777687"/><g style="isolation:isolate"><g clip-path="url(#b01f54c7-ef5b-432a-a82f-290d0a2c43e6)"><path d="M119,212.52l-1.55-.9a1.56,1.56,0,0,1-.65-1.42,4.9,4.9,0,0,1,2.21-3.83l1.55.9a4.9,4.9,0,0,0-2.21,3.83,1.54,1.54,0,0,0,.65,1.42Z" fill="#777687"/></g></g><path d="M144.6,193.37c1.22-.7,2.22-.13,2.22,1.27a4.83,4.83,0,0,1-2.21,3.83l-24.06,13.9c-1.23.71-2.22.14-2.23-1.27a4.9,4.9,0,0,1,2.21-3.83Z" fill="#a6a5bd"/></g><g style="isolation:isolate"><polygon points="187.95 178.41 186.4 177.51 191.12 169.35 192.66 170.25 187.95 178.41" fill="#607a4d"/><polygon points="187.49 177.4 185.94 176.5 191.11 167.54 192.66 168.44 187.49 177.4" fill="#3c542b"/><polygon points="187.46 177.35 185.91 176.45 191.11 167.45 192.66 168.35 187.46 177.35" fill="#4fcf53"/><polygon points="183.95 180.72 182.41 179.82 186.4 177.51 187.95 178.41 183.95 180.72" fill="#617c4e"/><polygon points="177.46 191.97 175.91 191.07 182.41 179.82 183.95 180.72 177.46 191.97" fill="#607a4d"/><polygon points="183.49 179.71 181.94 178.81 185.94 176.5 187.49 177.4 183.49 179.71" fill="#3d552c"/><polygon points="177 190.96 175.45 190.06 181.94 178.81 183.49 179.71 177 190.96" fill="#3c542b"/><polygon points="176.97 190.9 175.42 190 181.92 178.75 183.47 179.66 176.97 190.9" fill="#4fcf53"/><polygon points="183.47 179.66 181.92 178.75 185.91 176.45 187.46 177.35 183.47 179.66" fill="#4fcf53"/><polygon points="173.6 194.19 172.05 193.29 175.91 191.07 177.46 191.97 173.6 194.19" fill="#617c4e"/><polygon points="174.06 192.65 172.51 191.75 175.45 190.06 177 190.96 174.06 192.65" fill="#3d552c"/><polygon points="174.08 192.57 172.53 191.67 175.42 190 176.97 190.9 174.08 192.57" fill="#4fcf53"/><polygon points="171.36 192.92 169.81 192.02 172.05 193.29 173.6 194.19 171.36 192.92" fill="#5a7348"/><polygon points="171.82 191.38 170.27 190.47 172.51 191.75 174.06 192.65 171.82 191.38" fill="#384f28"/><polygon points="171.84 191.29 170.29 190.4 172.53 191.67 174.08 192.57 171.84 191.29" fill="#384f28"/><polygon points="167.83 194.96 166.28 194.06 169.81 192.02 171.36 192.92 167.83 194.96" fill="#617c4e"/><polygon points="168.28 193.42 166.73 192.52 170.27 190.47 171.82 191.38 168.28 193.42" fill="#3d552c"/><polygon points="168.31 193.34 166.76 192.44 170.29 190.4 171.84 191.29 168.31 193.34" fill="#4fcf53"/><polygon points="158.96 209.97 157.41 209.07 157.39 203.06 158.94 203.96 158.96 209.97" fill="#53bf37"/><polygon points="165.05 193.38 163.5 192.48 166.28 194.06 167.83 194.96 165.05 193.38" fill="#5a7348"/><polygon points="158.94 203.96 157.39 203.06 163.5 192.48 165.05 193.38 158.94 203.96" fill="#607a4d"/><polygon points="192.66 170.25 192.72 190.48 158.96 209.97 158.94 203.96 165.05 193.38 167.83 194.96 171.36 192.92 173.6 194.19 177.46 191.97 183.95 180.72 187.95 178.41 192.66 170.25" fill="#69f246"/><polygon points="158.94 203.96 157.39 203.06 157.39 201.26 158.94 202.16 158.94 203.96" fill="#348f37"/><polygon points="192.66 168.44 192.66 170.25 187.95 178.41 183.95 180.72 177.46 191.97 173.6 194.19 171.36 192.92 167.83 194.96 165.05 193.38 158.94 203.96 158.94 202.16 165.05 191.57 168.28 193.42 171.82 191.38 174.06 192.65 177 190.96 183.49 179.71 187.49 177.4 192.66 168.44" fill="#3a9e3d"/><polygon points="158.94 202.16 157.39 201.26 163.5 190.67 165.05 191.57 158.94 202.16" fill="#3c542b"/><polygon points="165.05 191.57 163.5 190.67 166.73 192.52 168.28 193.42 165.05 191.57" fill="#384f28"/><polygon points="158.94 202.16 157.39 201.26 157.39 201.17 158.94 202.07 158.94 202.16" fill="#3a9e3d"/><polygon points="165.05 191.48 163.5 190.58 166.76 192.44 168.31 193.34 165.05 191.48" fill="#384f28"/><polygon points="158.94 202.07 157.39 201.17 163.5 190.58 165.05 191.48 158.94 202.07" fill="#4fcf53"/><polygon points="192.66 168.35 192.66 168.44 187.49 177.4 183.49 179.71 177 190.96 174.06 192.65 171.82 191.38 168.28 193.42 165.05 191.57 158.94 202.16 158.94 202.07 165.05 191.48 168.31 193.34 171.84 191.29 174.08 192.57 176.97 190.9 183.47 179.66 187.46 177.35 192.66 168.35" fill="#6d984e"/></g><g style="isolation:isolate"><polygon points="119.94 231.95 119.17 231.5 119.16 229.38 119.94 229.83 119.94 231.95" fill="#2e7d30"/><polygon points="119.48 230.09 118.71 229.64 118.71 229.06 119.48 229.51 119.48 230.09" fill="#2e7d30"/><polygon points="119.48 229.51 118.71 229.06 119.77 228.45 120.55 228.9 119.48 229.51" fill="#2e7d30"/><polygon points="120.55 228.9 120.56 231.6 119.94 231.95 119.94 229.83 119.48 230.09 119.48 229.51 120.55 228.9" fill="#46be49"/></g><g style="isolation:isolate"><polygon points="118.13 232.6 117.36 232.15 117.36 231.51 118.13 231.96 118.13 232.6" fill="#2e7d30"/><polygon points="118.51 231.3 117.73 230.85 118.29 230.53 119.07 230.98 118.51 231.3" fill="#2e7d30"/><polygon points="117.57 232.28 116.8 231.83 116.8 231.39 117.57 231.84 117.57 232.28" fill="#2e7d30"/><polygon points="117.57 231.84 116.8 231.39 117.36 231.07 118.13 231.52 117.57 231.84" fill="#2e7d30"/><polygon points="118.13 231.52 117.36 231.07 117.35 230.42 118.13 230.87 118.13 231.52" fill="#2e7d30"/><polygon points="118.13 230.87 117.35 230.42 117.73 230.21 118.51 230.66 118.13 230.87" fill="#2e7d30"/><polygon points="118.51 230.66 118.51 231.3 119.07 230.98 119.07 231.42 118.51 231.74 118.51 232.38 118.13 232.6 118.13 231.96 117.57 232.28 117.57 231.84 118.13 231.52 118.13 230.87 118.51 230.66" fill="#46be49"/></g><g style="isolation:isolate"><g style="isolation:isolate"><g clip-path="url(#ffa15a44-d909-475c-9312-0ff05e55330e)"><path d="M128.71,226.45l-.77-.45s.1,0,.17,0l.78.45a.17.17,0,0,1-.18,0Z" fill="#2e7d30"/></g></g><g style="isolation:isolate"><g clip-path="url(#bd22af27-1f5e-4817-b433-3ebfaca98da6)"><path d="M128.89,226.43l-.78-.45a.67.67,0,0,0,.28-.61c0-.16,0-.26-.1-.3l.77.45c.07,0,.1.14.1.3a.66.66,0,0,1-.27.61Z" fill="#2e7d30"/></g></g><g style="isolation:isolate"><g clip-path="url(#bcbf1227-a535-49f8-9e87-daf5f2d82621)"><path d="M128.88,225.17l-.77-.45a.5.5,0,0,1,.47-.07l.77.45a.5.5,0,0,0-.47.07Z" fill="#2e7d30"/></g></g><g style="isolation:isolate"><g clip-path="url(#a66af1f4-6427-4882-972c-0c30b3da5cef)"><path d="M128.42,226.87l-.77-.45c-.12-.07-.19-.24-.19-.51a1.34,1.34,0,0,1,.65-1.19l.77.45a1.36,1.36,0,0,0-.65,1.19c0,.27.07.44.19.51Z" fill="#2e7d30"/></g></g><path d="M128.88,225.17c.41-.23.66-.07.66.43a1.37,1.37,0,0,1-.65,1.2c-.4.24-.66.07-.66-.44A1.36,1.36,0,0,1,128.88,225.17Zm0,1.26a.66.66,0,0,0,.27-.61c0-.27-.1-.38-.28-.28a.68.68,0,0,0-.27.6c0,.28.1.39.28.29Z" fill="#46be49"/><polygon points="128.47 224.33 129.03 224 127.36 227.67 126.8 227.99 128.47 224.33" fill="#46be49"/><polygon points="128.47 224.33 127.69 223.88 128.25 223.55 129.03 224 128.47 224.33" fill="#2e7d30"/><polygon points="126.8 227.99 126.03 227.54 127.69 223.88 128.47 224.33 126.8 227.99" fill="#2e7d30"/><g style="isolation:isolate"><g clip-path="url(#b5435898-a248-4850-b188-a6f9e95f71db)"><path d="M126.78,226.47,126,226s.1,0,.18,0a.69.69,0,0,0,.27-.61c0-.16,0-.26-.1-.3l.78.45c.06,0,.1.14.1.3a.69.69,0,0,1-.28.61.17.17,0,0,1-.18,0Z" fill="#2e7d30"/></g></g><g style="isolation:isolate"><g clip-path="url(#b8f18569-0e98-48cf-8ed2-4bb0ed880460)"><path d="M126.5,226.89l-.78-.45c-.12-.07-.19-.24-.19-.51a1.36,1.36,0,0,1,.65-1.19.5.5,0,0,1,.47-.07l.77.45a.48.48,0,0,0-.46.07,1.37,1.37,0,0,0-.66,1.19c0,.27.07.44.2.51Z" fill="#2e7d30"/></g></g><path d="M127.62,225.63a1.37,1.37,0,0,1-.66,1.19c-.4.24-.66.07-.66-.44a1.37,1.37,0,0,1,.66-1.19C127.36,225,127.61,225.12,127.62,225.63Zm-.94.54c0,.27.11.38.28.28a.69.69,0,0,0,.28-.61c0-.27-.11-.38-.28-.28a.67.67,0,0,0-.28.61Z" fill="#46be49"/></g><g style="isolation:isolate"><polygon points="125.85 227.42 125.08 226.97 125.38 226.79 126.15 227.25 125.85 227.42" fill="#2e7d30"/><polygon points="125.29 228.86 124.52 228.41 124.52 227.83 125.29 228.28 125.29 228.86" fill="#2e7d30"/><polygon points="124.85 228 124.08 227.54 124.52 227.29 125.29 227.74 124.85 228" fill="#2e7d30"/><polygon points="125.29 227.17 124.51 226.72 125.08 226.4 125.85 226.85 125.29 227.17" fill="#2e7d30"/><polygon points="125.29 227.74 124.52 227.29 124.51 226.72 125.29 227.17 125.29 227.74" fill="#2e7d30"/><polygon points="124.23 228.89 123.45 228.44 123.45 227.97 124.23 228.42 124.23 228.89" fill="#2e7d30"/><polygon points="125.5 226.03 124.85 228 125.29 227.74 125.29 227.17 125.85 226.85 125.85 227.42 126.15 227.25 126.16 227.78 125.85 227.96 125.86 228.54 125.29 228.86 125.29 228.28 124.23 228.89 124.23 228.42 124.92 226.37 125.5 226.03" fill="#46be49"/><polygon points="124.23 228.42 123.45 227.97 124.14 225.92 124.92 226.37 124.23 228.42" fill="#2e7d30"/><polygon points="124.92 226.37 124.14 225.92 124.73 225.58 125.5 226.03 124.92 226.37" fill="#2e7d30"/></g><g style="isolation:isolate"><g style="isolation:isolate"><g clip-path="url(#bcdb895c-d24a-4fe7-b2f1-83dbaa9f3b10)"><path d="M122.39,229.71l-.78-.45a.59.59,0,0,0,.6,0,.66.66,0,0,0,.37-.56.21.21,0,0,0-.07-.17l.77.45a.18.18,0,0,1,.07.17.66.66,0,0,1-.37.56.57.57,0,0,1-.59,0Z" fill="#2e7d30"/></g></g><polygon points="122.13 230.38 121.35 229.93 121.59 229.25 122.37 229.7 122.13 230.38" fill="#2e7d30"/><g style="isolation:isolate"><g clip-path="url(#b840153e-23fa-4ea8-9145-7213c49a21ec)"><path d="M122.89,228.53l-.78-.45a2.53,2.53,0,0,1,.22-.13c.31-.18.56-.22.72-.12l.78.45c-.16-.1-.41-.06-.73.12l-.21.13Z" fill="#2e7d30"/></g></g><polygon points="122.33 229.41 121.55 228.96 121.55 227.42 122.32 227.87 122.33 229.41" fill="#2e7d30"/><polygon points="122.32 227.87 121.55 227.42 123.13 226.51 123.9 226.96 122.32 227.87" fill="#2e7d30"/><path d="M123.9,227v.57l-1,.59v.41l.21-.13c.55-.32.91-.19.91.29a1.83,1.83,0,0,1-1,1.5,1.39,1.39,0,0,1-.93.19l.24-.68a.58.58,0,0,0,.61,0,.66.66,0,0,0,.37-.56c0-.2-.13-.24-.37-.1s-.51.29-.65.39v-1.54Z" fill="#46be49"/></g><g style="isolation:isolate"><g style="isolation:isolate"><g clip-path="url(#b2c293c9-c6cd-470e-b4fb-8a3e5258abff)"><path d="M121.65,230.33l-.77-.45a.21.21,0,0,1,.21,0l.77.45s-.12,0-.21,0Z" fill="#2e7d30"/></g></g><g style="isolation:isolate"><g clip-path="url(#be1b40b9-ba9b-4b10-b211-f6659a6c980b)"><path d="M121.45,231l-.77-.45a.22.22,0,0,1-.08-.2.58.58,0,0,1,.28-.49l.77.45a.6.6,0,0,0-.28.49.22.22,0,0,0,.08.2Z" fill="#2e7d30"/></g></g><path d="M121.65,230.33c.17-.1.29,0,.29.16a.6.6,0,0,1-.28.5c-.17.1-.29,0-.29-.17A.6.6,0,0,1,121.65,230.33Z" fill="#46be49"/></g><g style="isolation:isolate"><polygon points="150.75 192.91 149.98 192.46 152.18 187.65 152.95 188.1 150.75 192.91" fill="#3a9e3d"/><polygon points="152.95 188.1 155.17 190.36 150.75 192.91 152.95 188.1" fill="#46be49"/></g><g style="isolation:isolate"><path d="M192.25,289.65l-3.5-2c-2-1.18-3.28-3.68-3.29-7.23l3.5,2C189,286,190.22,288.47,192.25,289.65Z" fill="#bfbdff"/><path d="M267.14,83.88l3.5,2c-2.05-1.19-4.89-1-8,.78l-3.5-2C262.26,82.85,265.09,82.68,267.14,83.88Z" fill="#e0dfff"/><polygon points="188.96 282.42 185.46 280.39 185.26 140.28 188.76 142.31 188.96 282.42" fill="#bfbdff"/><polygon points="199.99 122.85 196.49 120.82 259.12 84.66 262.62 86.69 199.99 122.85" fill="#e0dfff"/><path d="M188.76,142.31l-3.5-2c0-7.16,5-15.87,11.23-19.46l3.5,2C193.76,126.45,188.74,135.16,188.76,142.31Z" fill="url(#b53275a5-af1a-4ac0-9396-2b0d2cf5b18d)"/><path d="M262.62,86.69c6.22-3.59,11.28-.71,11.31,6.45l.2,140.11c0,7.15-5,15.86-11.23,19.45l-62.64,36.16c-6.22,3.6-11.28.71-11.3-6.44l-.2-140.11c0-7.15,5-15.86,11.23-19.46Z" fill="url(#feddc7c6-4fce-4b1f-a616-f9ab8cc1af39)"/><g style="mix-blend-mode:multiply"><path d="M256.61,103.8c2.64-1.52,4.78-.3,4.79,2.74l.06,19.48a10.54,10.54,0,0,1-4.77,8.25l-16.95,9.79c-2.64,1.52-4.79.3-4.8-2.74l-.05-19.48a10.49,10.49,0,0,1,4.76-8.25Z" fill="#9795cc"/><path d="M267.28,140.38c6.22-3.59,11.28-.7,11.3,6.45l.21,71.46c0,7.16-5,15.87-11.24,19.46l-62.63,36.16c-6.22,3.59-11.28.71-11.3-6.44L193.41,196c0-7.15,5-15.86,11.24-19.45Z" fill="#9795cc"/><path d="M219,125.47c2.64-1.53,4.79-.3,4.8,2.73l0,19.48a10.49,10.49,0,0,1-4.76,8.25l-17,9.79c-2.64,1.52-4.78.3-4.79-2.73l-.06-19.48a10.48,10.48,0,0,1,4.77-8.25Z" fill="#9795cc"/></g></g><g style="isolation:isolate"><path d="M203.64,278.58l-3.5-2c-2-1.17-3.27-3.67-3.28-7.23l3.49,2C200.36,274.91,201.62,277.41,203.64,278.58Z" fill="#bfbdff"/><path d="M278.54,141.46l3.49,2c-2-1.19-4.88-1-8,.78l-3.49-2C273.65,140.43,276.49,140.27,278.54,141.46Z" fill="#e0dfff"/><polygon points="200.35 271.36 196.86 269.32 196.65 197.86 200.15 199.89 200.35 271.36" fill="#bfbdff"/><polygon points="211.38 180.44 207.89 178.4 270.52 142.24 274.01 144.27 211.38 180.44" fill="#e0dfff"/><path d="M274,144.27c6.23-3.59,11.29-.7,11.31,6.45l.2,71.46c0,7.15-5,15.86-11.23,19.46L211.66,277.8c-6.22,3.59-11.29.71-11.31-6.44l-.2-71.47c0-7.15,5-15.86,11.23-19.45Z" fill="#fff"/><path d="M200.15,199.89l-3.5-2c0-7.15,5-15.86,11.24-19.46l3.49,2C205.16,184,200.13,192.74,200.15,199.89Z" fill="url(#b7145db2-f75e-47ad-8335-433330c45b44)"/></g><polygon points="237.57 189.76 237.71 246.21 223.03 254.69 222.9 198.23 237.57 189.76" fill="#e0dfff"/><polygon points="218.39 214.83 218.49 257.31 203.81 265.78 203.72 223.3 218.39 214.83" fill="#e0dfff"/><polygon points="276.03 173.43 276.15 224.02 261.47 232.49 261.36 181.91 276.03 173.43" fill="#e0dfff"/><polygon points="256.77 169 256.93 235.11 242.25 243.59 242.09 177.47 256.77 169" fill="#e0dfff"/><g style="isolation:isolate"><polygon points="229.23 258.51 225.57 256.38 225.44 199.93 229.1 202.06 229.23 258.51" fill="#3161c2"/><polygon points="229.1 202.06 225.44 199.93 240.11 191.45 243.78 193.58 229.1 202.06" fill="#366bd6"/><polygon points="243.78 193.58 243.91 250.03 229.23 258.51 229.1 202.06 243.78 193.58" fill="#5788e6"/></g><g style="isolation:isolate"><polygon points="210.01 269.61 206.35 267.48 206.25 225 209.91 227.13 210.01 269.61" fill="#3161c2"/><polygon points="209.91 227.13 206.25 225 220.93 216.53 224.59 218.65 209.91 227.13" fill="#366bd6"/><polygon points="224.59 218.65 224.69 261.13 210.01 269.61 209.91 227.13 224.59 218.65" fill="#5788e6"/></g><g style="isolation:isolate"><polygon points="267.68 236.31 264.01 234.19 263.9 183.6 267.56 185.73 267.68 236.31" fill="#3161c2"/><polygon points="267.56 185.73 263.9 183.6 278.57 175.13 282.23 177.26 267.56 185.73" fill="#366bd6"/><polygon points="282.23 177.26 282.35 227.84 267.68 236.31 267.56 185.73 282.23 177.26" fill="#5788e6"/></g><g style="isolation:isolate"><polygon points="248.45 247.41 244.79 245.28 244.63 179.17 248.29 181.3 248.45 247.41" fill="#3161c2"/><polygon points="248.29 181.3 244.63 179.17 259.31 170.7 262.97 172.82 248.29 181.3" fill="#366bd6"/><polygon points="262.97 172.82 263.13 238.94 248.45 247.41 248.29 181.3 262.97 172.82" fill="#5788e6"/></g><g style="isolation:isolate"><path d="M276.46,338.27l-3.5-2c-2-1.18-3.28-3.68-3.29-7.23l3.5,2C273.18,334.59,274.43,337.09,276.46,338.27Z" fill="#a2ffd1"/><path d="M351.35,132.49l3.5,2c-2.05-1.19-4.89-1-8,.78l-3.5-2C346.46,131.47,349.3,131.3,351.35,132.49Z" fill="#a2ffd1"/><polygon points="273.17 331.04 269.67 329.01 269.47 188.89 272.97 190.93 273.17 331.04" fill="#a2ffd1"/><polygon points="284.2 171.47 280.7 169.44 343.33 133.28 346.83 135.31 284.2 171.47" fill="#a2ffd1"/><path d="M273,190.93l-3.5-2c0-7.15,5-15.86,11.23-19.45l3.5,2C278,175.07,273,183.77,273,190.93Z" fill="#a2ffd1"/><path d="M346.83,135.31c6.22-3.59,11.28-.71,11.3,6.44l.21,140.12c0,7.15-5,15.86-11.23,19.45l-62.64,36.16c-6.22,3.6-11.28.71-11.3-6.44L273,190.93c0-7.16,5-15.86,11.23-19.46Z" fill="#8eff8b"/><g style="mix-blend-mode:multiply"><path d="M349.17,269.8c1.94-1.11,3.52-.21,3.53,2l0,10.29a7.72,7.72,0,0,1-3.51,6.07l-26,15c-1.93,1.12-3.52.22-3.53-2l0-10.28a7.8,7.8,0,0,1,3.51-6.08Z" fill="#a2ffd1"/></g><g style="mix-blend-mode:multiply"><path d="M308.59,293.23c1.94-1.11,3.52-.21,3.53,2l0,10.29a7.72,7.72,0,0,1-3.51,6.07l-26,15c-1.93,1.12-3.52.21-3.53-2l0-10.29a7.76,7.76,0,0,1,3.5-6.07Z" fill="#a2ffd1"/></g><g style="mix-blend-mode:multiply"><path d="M351.49,153.67c6.22-3.6,11.28-.71,11.3,6.44l.21,71.47c0,7.15-5,15.86-11.24,19.45l-62.63,36.16c-6.22,3.59-11.28.71-11.3-6.44l-.21-71.47c0-7.15,5-15.86,11.24-19.45Z" fill="#a2ffd1"/></g></g><g style="isolation:isolate"><path d="M287.85,291.86l-3.5-2c-2-1.17-3.27-3.67-3.28-7.23l3.49,2C284.57,288.19,285.83,290.69,287.85,291.86Z" fill="#bfbdff"/><path d="M362.75,154.74l3.49,2c-2.05-1.19-4.88-1-8,.79l-3.49-2C357.86,153.71,360.7,153.55,362.75,154.74Z" fill="#e0dfff"/><polygon points="284.56 284.64 281.07 282.61 280.86 211.14 284.36 213.17 284.56 284.64" fill="#bfbdff"/><polygon points="295.59 193.72 292.1 191.68 354.73 155.52 358.22 157.56 295.59 193.72" fill="#e0dfff"/><path d="M284.36,213.17l-3.5-2c0-7.15,5-15.86,11.24-19.46l3.49,2C289.37,197.31,284.34,206,284.36,213.17Z" fill="url(#a032e188-baae-4b7d-a126-6e33d09e216d)"/><path d="M358.22,157.56c6.23-3.6,11.29-.71,11.31,6.44l.2,71.46c0,7.16-5,15.87-11.23,19.46l-62.63,36.16c-6.23,3.59-11.29.71-11.31-6.44l-.2-71.47c0-7.15,5-15.86,11.23-19.45Z" fill="#45ff6a"/></g><polygon points="340.98 194.84 339.04 195.96 339.02 190.09 337.55 190.94 337.57 196.81 335.63 197.93 335.68 216.65 337.62 215.53 337.66 229.95 339.13 229.1 339.09 214.69 341.03 213.56 340.98 194.84" fill="#e0dfff"/><polygon points="331.47 229.79 331.43 216.35 329.49 217.47 329.53 230.91 331.47 229.79" fill="#e0dfff"/><polygon points="328.01 214.3 328.02 218.31 326.08 219.44 326.12 232.88 328.06 231.76 328.08 239.88 329.55 239.04 329.53 230.91 329.49 217.47 329.48 213.45 328.01 214.3" fill="#e0dfff"/><polygon points="360.24 211.85 360.18 193.13 358.24 194.25 358.21 183.97 356.75 184.81 356.77 195.1 354.83 196.22 354.89 214.94 356.83 213.82 356.84 218.59 358.31 217.75 358.3 212.98 360.24 211.85" fill="#e0dfff"/><polygon points="348.58 175.81 348.67 206.4 350.61 205.27 350.53 174.69 348.58 175.81" fill="#e0dfff"/><polygon points="348.58 175.81 348.57 170.23 347.1 171.07 347.12 176.65 345.17 177.78 345.26 208.36 347.2 207.24 347.23 217.54 348.7 216.7 348.67 206.4 348.58 175.81" fill="#e0dfff"/><polygon points="321.87 229.65 319.92 230.77 319.91 227.12 318.45 227.96 318.46 231.62 316.51 232.74 316.56 247.78 318.5 246.66 318.52 252.73 319.98 251.88 319.97 245.81 321.91 244.69 321.87 229.65" fill="#e0dfff"/><polygon points="312.28 235.19 310.33 236.31 310.31 227.75 308.84 228.59 308.87 237.16 306.93 238.28 307 265.88 308.94 264.76 308.96 270.57 310.43 269.73 310.41 263.91 312.35 262.79 312.28 235.19" fill="#e0dfff"/><polygon points="302.74 258.36 302.68 238.13 300.74 239.25 300.8 259.48 302.74 258.36" fill="#e0dfff"/><polygon points="299.24 230.43 299.27 240.09 297.33 241.22 297.39 261.45 299.33 260.33 299.34 265.16 300.81 264.31 300.8 259.48 300.74 239.25 300.71 229.58 299.24 230.43" fill="#e0dfff"/><polygon points="293.07 235.81 291.13 236.93 291.17 252.63 293.11 251.51 293.07 235.81" fill="#e0dfff"/><polygon points="291.11 231.56 289.64 232.41 289.66 237.78 287.72 238.9 287.76 254.6 289.7 253.48 289.73 261.96 291.19 261.12 291.17 252.63 291.13 236.93 291.11 231.56" fill="#e0dfff"/><polygon points="345.58 199.31 341.14 196.73 343.08 195.61 347.53 198.19 345.58 199.31" fill="#46be49"/><polygon points="344.21 233.3 339.77 230.72 339.73 216.3 344.17 218.88 344.21 233.3" fill="#3a9e3d"/><polygon points="344.12 200.16 339.67 197.57 339.66 191.7 344.1 194.28 344.12 200.16" fill="#3a9e3d"/><polygon points="342.17 201.28 337.73 198.7 339.67 197.57 344.12 200.16 342.17 201.28" fill="#46be49"/><polygon points="342.23 220 337.78 217.42 337.73 198.7 342.17 201.28 342.23 220" fill="#3a9e3d"/><polygon points="344.1 194.28 339.66 191.7 341.12 190.86 345.57 193.44 344.1 194.28" fill="#46be49"/><polygon points="347.53 198.19 345.58 199.31 345.64 218.03 347.58 216.91 347.53 198.19" fill="#61e041"/><polygon points="345.57 193.44 344.1 194.28 344.12 200.16 342.17 201.28 342.23 220 344.17 218.88 344.21 233.3 345.68 232.46 345.64 218.03 345.58 199.31 345.57 193.44" fill="#61e041"/><polygon points="336.04 220.82 331.6 218.23 333.54 217.11 337.98 219.7 336.04 220.82" fill="#46be49"/><polygon points="334.63 243.23 330.19 240.65 330.17 232.53 334.61 235.11 334.63 243.23" fill="#3a9e3d"/><polygon points="334.57 221.66 330.13 219.08 330.12 215.07 334.56 217.65 334.57 221.66" fill="#3a9e3d"/><polygon points="332.63 222.78 328.19 220.2 330.13 219.08 334.57 221.66 332.63 222.78" fill="#46be49"/><polygon points="332.67 236.23 328.22 233.65 328.19 220.2 332.63 222.78 332.67 236.23" fill="#3a9e3d"/><polygon points="334.56 217.65 330.12 215.07 331.58 214.22 336.03 216.8 334.56 217.65" fill="#46be49"/><polygon points="338.02 233.14 337.98 219.7 336.04 220.82 336.08 234.26 338.02 233.14" fill="#61e041"/><polygon points="334.56 217.65 334.57 221.66 332.63 222.78 332.67 236.23 334.61 235.11 334.63 243.23 336.1 242.38 336.08 234.26 336.04 220.82 336.03 216.8 334.56 217.65" fill="#61e041"/><polygon points="364.79 197.6 360.35 195.01 362.29 193.9 366.73 196.48 364.79 197.6"/><polygon points="363.39 221.94 358.94 219.36 358.93 214.59 363.38 217.17 363.39 221.94"/><polygon points="363.32 198.44 358.88 195.86 358.85 185.58 363.29 188.16 363.32 198.44"/><polygon points="361.38 199.57 356.94 196.98 358.88 195.86 363.32 198.44 361.38 199.57"/><polygon points="361.43 218.29 356.99 215.71 356.94 196.98 361.38 199.57 361.43 218.29"/><polygon points="363.29 188.16 358.85 185.58 360.32 184.73 364.76 187.32 363.29 188.16"/><g style="isolation:isolate"><polygon points="366.73 196.48 364.79 197.6 364.84 216.33 366.78 215.21 366.73 196.48"/><polygon points="364.79 197.6 364.76 187.32 363.29 188.16 363.32 198.45 361.38 199.57 361.43 218.29 363.38 217.17 363.38 217.17 363.39 221.94 364.86 221.1 364.84 216.33 364.79 197.6"/></g><polygon points="355.13 179.16 350.69 176.57 352.63 175.45 357.07 178.03 355.13 179.16" fill="#46be49"/><polygon points="353.78 220.89 349.34 218.31 349.31 208.01 353.75 210.59 353.78 220.89" fill="#3a9e3d"/><polygon points="353.67 180 349.22 177.42 349.2 171.84 353.65 174.42 353.67 180" fill="#3a9e3d"/><polygon points="351.72 181.13 347.28 178.54 349.22 177.42 353.67 180 351.72 181.13" fill="#46be49"/><polygon points="351.81 211.71 347.36 209.13 347.28 178.54 351.72 181.13 351.81 211.71" fill="#3a9e3d"/><polygon points="353.65 174.42 349.2 171.84 350.67 170.99 355.12 173.58 353.65 174.42" fill="#46be49"/><g style="isolation:isolate"><polygon points="357.16 208.62 357.07 178.03 355.13 179.16 355.22 209.74 357.16 208.62" fill="#61e041"/><polygon points="355.13 179.16 355.12 173.58 353.65 174.42 353.67 180 351.72 181.13 351.81 211.71 353.75 210.59 353.78 220.89 355.25 220.05 355.22 209.74 355.13 179.16" fill="#61e041"/></g><polygon points="326.47 234.12 322.03 231.54 323.97 230.42 328.41 233 326.47 234.12"/><polygon points="325.06 256.08 320.62 253.5 320.6 247.42 325.05 250.01 325.06 256.08"/><polygon points="323.06 236.09 318.62 233.51 320.56 232.39 325 234.97 323.06 236.09"/><polygon points="323.11 251.13 318.66 248.54 318.62 233.51 323.06 236.09 323.11 251.13"/><polygon points="325 234.97 320.56 232.39 320.55 228.73 324.99 231.31 325 234.97"/><polygon points="324.99 231.31 320.55 228.73 322.02 227.88 326.46 230.47 324.99 231.31"/><polygon points="328.41 233 326.47 234.12 326.46 230.47 324.99 231.31 325 234.97 323.06 236.09 323.11 251.13 325.05 250.01 325.06 256.08 326.53 255.23 326.51 249.16 328.46 248.04 328.41 233"/><polygon points="316.88 239.66 312.44 237.07 314.38 235.95 318.82 238.54 316.88 239.66"/><polygon points="315.51 273.92 311.07 271.34 311.05 265.53 315.49 268.11 315.51 273.92"/><polygon points="315.42 240.5 310.97 237.92 310.95 229.36 315.39 231.94 315.42 240.5"/><polygon points="313.47 241.63 309.03 239.04 310.97 237.92 315.42 240.5 313.47 241.63"/><polygon points="313.55 269.23 309.11 266.65 309.03 239.04 313.47 241.63 313.55 269.23"/><polygon points="315.39 231.94 310.95 229.36 312.42 228.51 316.86 231.09 315.39 231.94"/><polygon points="318.82 238.54 316.88 239.66 316.86 231.09 315.39 231.94 315.42 240.5 313.47 241.63 313.55 269.23 315.49 268.11 315.51 273.92 316.98 273.07 316.96 267.26 318.9 266.14 318.82 238.54"/><polygon points="307.29 242.6 302.84 240.01 304.78 238.89 309.23 241.47 307.29 242.6"/><polygon points="305.89 268.51 301.45 265.93 301.43 261.1 305.88 263.68 305.89 268.51"/><polygon points="305.82 243.44 301.38 240.86 301.35 231.2 305.79 233.78 305.82 243.44"/><polygon points="303.88 244.56 299.43 241.98 301.38 240.86 305.82 243.44 303.88 244.56"/><polygon points="303.94 264.8 299.49 262.22 299.43 241.98 303.88 244.56 303.94 264.8"/><polygon points="305.79 233.78 301.35 231.2 302.82 230.35 307.26 232.93 305.79 233.78"/><polygon points="307.29 242.6 307.34 262.83 309.29 261.71 309.23 241.47 307.29 242.6"/><polygon points="307.29 242.6 307.26 232.93 305.79 233.78 305.82 243.44 305.82 243.44 303.88 244.56 303.94 264.8 305.88 263.68 305.88 263.68 305.89 268.51 307.36 267.66 307.34 262.83 307.29 242.6"/><polygon points="297.67 240.28 293.23 237.7 295.17 236.57 299.62 239.16 297.67 240.28" fill="#46be49"/><polygon points="296.28 265.31 291.83 262.73 291.81 254.25 296.25 256.83 296.28 265.31" fill="#3a9e3d"/><polygon points="296.21 241.13 291.76 238.54 291.75 233.17 296.19 235.75 296.21 241.13" fill="#3a9e3d"/><polygon points="294.27 242.25 289.82 239.66 291.76 238.54 296.21 241.13 294.27 242.25" fill="#46be49"/><polygon points="294.31 257.95 289.87 255.37 289.82 239.66 294.27 242.25 294.31 257.95" fill="#3a9e3d"/><polygon points="296.19 235.75 291.75 233.17 293.21 232.33 297.66 234.91 296.19 235.75" fill="#46be49"/><polygon points="299.62 239.16 297.67 240.28 297.72 255.98 299.66 254.86 299.62 239.16" fill="#61e041"/><polygon points="297.66 234.91 296.19 235.75 296.21 241.13 294.27 242.25 294.31 257.95 296.25 256.83 296.28 265.31 297.74 264.46 297.72 255.98 297.67 240.28 297.66 234.91" fill="#61e041"/><g style="isolation:isolate"><path d="M357,272.63a2.44,2.44,0,0,0-2.5.24l-26,15a7.75,7.75,0,0,0-3.51,6.07l0,10.29a2.46,2.46,0,0,0,1,2.25l3.46,2a2.45,2.45,0,0,1-1-2.26l0-10.28a7.71,7.71,0,0,1,3.51-6.07l26-15a2.49,2.49,0,0,1,2.5-.24Z" fill="#112d1a"/><path d="M358,274.87c1.93-1.11,3.52-.21,3.52,2l0,10.28a7.77,7.77,0,0,1-3.5,6.08l-26,15c-1.94,1.11-3.53.21-3.53-2l0-10.28a7.74,7.74,0,0,1,3.51-6.08Z" fill="#f20028"/></g><g style="isolation:isolate"><path d="M316.42,296.06a2.44,2.44,0,0,0-2.5.24l-26,15a7.74,7.74,0,0,0-3.51,6.07l0,10.28a2.49,2.49,0,0,0,1,2.26l3.46,2a2.44,2.44,0,0,1-1-2.25l0-10.28a7.74,7.74,0,0,1,3.51-6.08l26-15a2.49,2.49,0,0,1,2.5-.24Z" fill="#3a9e3d"/><path d="M317.38,298.3c1.93-1.11,3.52-.21,3.52,2l0,10.29a7.74,7.74,0,0,1-3.5,6.07l-26,15c-1.94,1.12-3.52.21-3.53-2l0-10.28a7.74,7.74,0,0,1,3.51-6.08Z" fill="#61e041"/><path d="M358,274.87c1.93-1.11,3.52-.21,3.52,2l0,10.28a7.77,7.77,0,0,1-3.5,6.08l-26,15c-1.94,1.11-3.53.21-3.53-2l0-10.28a7.74,7.74,0,0,1,3.51-6.08Z"/><path d="M317.38,298.3c1.93-1.11,3.52-.21,3.52,2l0,10.29a7.74,7.74,0,0,1-3.5,6.07l-26,15c-1.94,1.12-3.52.21-3.53-2l0-10.28a7.74,7.74,0,0,1,3.51-6.08Z" fill="#61e041"/></g><g style="isolation:isolate"><path d="M262.68,105l4.06,2.36a3.37,3.37,0,0,0-3.4.33l-4.06-2.36A3.37,3.37,0,0,1,262.68,105Z" fill="#f47a00"/><path d="M243.07,148.28,239,145.92a3.36,3.36,0,0,1-1.39-3.07l4.06,2.36A3.36,3.36,0,0,0,243.07,148.28Z" fill="#f47a00"/><polygon points="241.68 145.21 237.62 142.85 237.56 123.37 241.63 125.73 241.68 145.21" fill="#f47a00"/><polygon points="246.39 117.48 242.33 115.12 259.28 105.33 263.34 107.69 246.39 117.48" fill="#f47a00"/><path d="M241.63,125.73l-4.07-2.36a10.52,10.52,0,0,1,4.77-8.25l4.06,2.36A10.49,10.49,0,0,0,241.63,125.73Z" fill="#f47a00"/><path d="M263.34,107.69c2.64-1.52,4.79-.3,4.8,2.74l.05,19.48a10.5,10.5,0,0,1-4.76,8.25l-17,9.79c-2.64,1.52-4.79.3-4.8-2.74l-.05-19.48a10.49,10.49,0,0,1,4.76-8.25Z" fill="#ff9529"/><path d="M259.05,125.77a2.9,2.9,0,0,1,.43,1.7,7.29,7.29,0,0,1-1.26,4,12.76,12.76,0,0,1-3.55,3.51v2.6l-1.52.88v-2.55a11.79,11.79,0,0,1-4.73,1.63v-3.35a8.83,8.83,0,0,0,2.31-.37,12.87,12.87,0,0,0,2.42-.89V129l-.74.1a4.69,4.69,0,0,1-3.11-.36,2.69,2.69,0,0,1-.91-2.35,6.8,6.8,0,0,1,1.24-3.75,12.74,12.74,0,0,1,3.49-3.45v-1.94l1.52-.87v1.88a12,12,0,0,1,4.57-1.47l-1,3.57a10.73,10.73,0,0,0-3.53,1v3.74a11.33,11.33,0,0,1,3.07-.12A2,2,0,0,1,259.05,125.77Zm-4.39,6.17a3.14,3.14,0,0,0,1.5-2.36.65.65,0,0,0-.38-.68,2.76,2.76,0,0,0-1.13-.11v3.15Zm-1.53-6.66v-3a2.87,2.87,0,0,0-1.42,2.14c0,.38.11.62.34.73a2.22,2.22,0,0,0,1.09.11Z" fill="#f47a00"/><polygon points="256.7 140.48 254.31 139.09 254.3 136.54 256.69 137.93 256.7 140.48" fill="#cecdeb"/><path d="M258.19,134l-2.39-1.39a3.14,3.14,0,0,0,1.5-2.36.69.69,0,0,0-.3-.65l2.39,1.39a.68.68,0,0,1,.3.64,3.14,3.14,0,0,1-1.5,2.37Z" fill="#cecdeb"/><polygon points="256.68 134.95 254.29 133.56 254.28 129.63 256.67 131.02 256.68 134.95" fill="#cecdeb"/><path d="M258.17,127.17l-2.39-1.39a10.55,10.55,0,0,1,3.07-.12,2.42,2.42,0,0,1,.81.28l2.39,1.39a2.67,2.67,0,0,0-.81-.29,11,11,0,0,0-3.07.13Z" fill="#e0dfff"/><path d="M252,136.22l-2.39-1.39a9.75,9.75,0,0,0,2.32-.37,12.11,12.11,0,0,0,2.41-.9l2.39,1.39a12.35,12.35,0,0,1-2.41.9,9.83,9.83,0,0,1-2.32.37Z" fill="#e0dfff"/><polygon points="251.96 139.57 249.57 138.18 249.56 134.83 251.95 136.22 251.96 139.57" fill="#cecdeb"/><path d="M255.54,127.2l-2.39-1.39,0,0a2.36,2.36,0,0,0,1.09.11l2.39,1.39a2.34,2.34,0,0,1-1.09-.12Z" fill="#e0dfff"/><polygon points="256.66 127.33 254.27 125.94 254.26 122.96 256.65 124.35 256.66 127.33" fill="#cecdeb"/><path d="M258.15,120.28l-1.38-.8a11.87,11.87,0,0,1,4.57-1.48l1.39.81a11.66,11.66,0,0,0-4.58,1.47Z" fill="#e0dfff"/><polygon points="256.64 121.2 254.25 119.81 254.25 117.87 256.64 119.26 256.64 121.2" fill="#cecdeb"/><polygon points="256.64 119.26 254.25 117.87 255.76 117 258.15 118.39 256.64 119.26" fill="#e0dfff"/><path d="M262.58,127.81a2.84,2.84,0,0,1,.43,1.71,7.18,7.18,0,0,1-1.26,4A12.66,12.66,0,0,1,258.2,137v2.6l-1.51.87v-2.55a12,12,0,0,1-4.73,1.64v-3.35a9.83,9.83,0,0,0,2.32-.37,12.35,12.35,0,0,0,2.41-.9V131l-.74.1a4.58,4.58,0,0,1-3.1-.37,2.65,2.65,0,0,1-.92-2.34,6.83,6.83,0,0,1,1.24-3.75,12.91,12.91,0,0,1,3.49-3.46v-1.94l1.51-.87v1.89a11.66,11.66,0,0,1,4.58-1.47l-1,3.56a11.29,11.29,0,0,0-3.54,1v3.75a11,11,0,0,1,3.07-.13A2.06,2.06,0,0,1,262.58,127.81ZM258.19,134a3.14,3.14,0,0,0,1.5-2.37.65.65,0,0,0-.38-.68,2.74,2.74,0,0,0-1.13-.11V134Zm-1.53-6.66v-3a2.85,2.85,0,0,0-1.42,2.14.73.73,0,0,0,.34.72,2.34,2.34,0,0,0,1.09.12Z" fill="#fff"/><path d="M253,130.83l-2.39-1.39-.12-.08a2.65,2.65,0,0,1-.92-2.34,6.83,6.83,0,0,1,1.24-3.75,13.05,13.05,0,0,1,3.49-3.46l2.39,1.39a12.91,12.91,0,0,0-3.49,3.46,6.83,6.83,0,0,0-1.24,3.75,2.65,2.65,0,0,0,.92,2.34l.12.08Z" fill="#e0dfff"/></g><g style="isolation:isolate"><path d="M205.5,169.94l-4.06-2.36a3.36,3.36,0,0,1-1.4-3.06l4.06,2.36A3.36,3.36,0,0,0,205.5,169.94Z" fill="#f47a00"/><path d="M225.11,126.66l4.06,2.36a3.38,3.38,0,0,0-3.4.34L221.7,127A3.4,3.4,0,0,1,225.11,126.66Z" fill="#f47a00"/><polygon points="204.1 166.88 200.04 164.52 199.99 145.04 204.05 147.4 204.1 166.88" fill="#f47a00"/><polygon points="208.81 139.15 204.75 136.78 221.71 127 225.77 129.36 208.81 139.15" fill="#f47a00"/><path d="M204.05,147.4,200,145a10.47,10.47,0,0,1,4.76-8.25l4.06,2.36A10.47,10.47,0,0,0,204.05,147.4Z" fill="#f47a00"/><path d="M225.77,129.36c2.64-1.53,4.78-.3,4.79,2.73l.06,19.48a10.5,10.5,0,0,1-4.77,8.25l-16.95,9.79c-2.64,1.52-4.79.3-4.8-2.73l0-19.48a10.47,10.47,0,0,1,4.76-8.25Z" fill="#ff9529"/><path d="M216.85,139.28a7.77,7.77,0,0,1,3.85-1.19l-1.06,3.52a8.37,8.37,0,0,0-1.41.21,4.88,4.88,0,0,0-1.37.57,6.34,6.34,0,0,0-2.19,2.15,8,8,0,0,0-1.1,3.2L218,145.2v2.21L213.41,150l0,.45v.59l0,.4,3.87-2.23v2.23l-3.68,2.13q.55,2.71,3.51,1a12.84,12.84,0,0,0,3-2.45v3.21a12.25,12.25,0,0,1-3.19,2.59c-1.78,1-3.25,1.31-4.4.87s-1.88-1.57-2.18-3.36l-1.5.86v-2.23l1.29-.74a4.94,4.94,0,0,1,0-.75l0-.68-1.27.73v-2.21l1.46-.83a14.38,14.38,0,0,1,2.15-6A12.87,12.87,0,0,1,216.85,139.28Z" fill="#f47a00"/><g style="isolation:isolate"><path d="M218.32,156.93l-2.24-1.3c.61.35,1.49.19,2.64-.47a13.09,13.09,0,0,0,3-2.45L224,154a12.84,12.84,0,0,1-3,2.45C219.81,157.12,218.93,157.28,218.32,156.93Z" fill="#e0dfff"/><polygon points="217.26 153.31 215.02 152.01 218.89 149.77 221.13 151.07 217.26 153.31" fill="#e0dfff"/><path d="M216,160.48l-2.24-1.3A4.21,4.21,0,0,1,212,156l2.24,1.3A4.19,4.19,0,0,0,216,160.48Z" fill="#cecdeb"/><polygon points="217.41 149.57 215.17 148.27 219.56 145.73 221.81 147.03 217.41 149.57" fill="#e0dfff"/><path d="M214,155.2l-2.24-1.3a4.77,4.77,0,0,1,0-.75l2.24,1.3A4.77,4.77,0,0,0,214,155.2Z" fill="#cecdeb"/><polygon points="212.69 158.18 210.45 156.88 210.45 154.65 212.69 155.95 212.69 158.18" fill="#cecdeb"/><polygon points="212.69 155.95 210.45 154.65 211.74 153.9 213.97 155.2 212.69 155.95" fill="#e0dfff"/><polygon points="213.93 154.45 211.69 153.15 211.71 152.47 213.95 153.78 213.93 154.45" fill="#cecdeb"/><path d="M220.7,141.1l-2.24-1.3a7.81,7.81,0,0,1,3.84-1.19l2.24,1.31A7.79,7.79,0,0,0,220.7,141.1Z" fill="#e0dfff"/><polygon points="212.68 152.3 210.44 151 211.89 150.16 214.13 151.46 212.68 152.3" fill="#e0dfff"/><polygon points="212.68 154.51 210.44 153.21 210.44 151 212.68 152.3 212.68 154.51" fill="#cecdeb"/><path d="M220.7,141.1a7.79,7.79,0,0,1,3.84-1.18l-1.06,3.52a8.4,8.4,0,0,0-1.41.2,5.56,5.56,0,0,0-1.37.57,6.34,6.34,0,0,0-2.19,2.15,8,8,0,0,0-1.1,3.21L221.8,147v2.21l-4.56,2.63,0,.45v.59l0,.4,3.87-2.24v2.23l-3.68,2.13q.57,2.73,3.51,1a12.84,12.84,0,0,0,3-2.45v3.21a12,12,0,0,1-3.19,2.58q-2.67,1.55-4.4.87c-1.15-.44-1.88-1.56-2.18-3.36l-1.5.87V156l1.28-.75a4.77,4.77,0,0,1,0-.75l0-.67-1.27.73V152.3l1.45-.84a14.38,14.38,0,0,1,2.15-6A12.75,12.75,0,0,1,220.7,141.1Z" fill="#fff"/><path d="M214.13,151.46l-2.24-1.3a14.43,14.43,0,0,1,2.15-6,12.81,12.81,0,0,1,4.42-4.31l2.24,1.3a12.75,12.75,0,0,0-4.42,4.32A14.38,14.38,0,0,0,214.13,151.46Z" fill="#e0dfff"/></g></g></g></g></g></svg>