<svg xmlns="http://www.w3.org/2000/svg" xmlns:xlink="http://www.w3.org/1999/xlink" viewBox="0 0 476.99 482.07"><defs><linearGradient id="e2ec35f8-c800-49ec-ad98-d711a8434559" x1="101.63" y1="124.07" x2="112.87" y2="104.61" gradientUnits="userSpaceOnUse"><stop offset="0.4" stop-color="#bfbdff"/><stop offset="0.77" stop-color="#e0dfff"/></linearGradient><clipPath id="aa66d845-1ace-4897-8e54-2ae6cc11203b"><path d="M191.32,107.8l2.38,1.39a1.81,1.81,0,0,0-1.85.18L189.47,108A1.86,1.86,0,0,1,191.32,107.8Z" fill="none"/></clipPath><clipPath id="b1149dd6-b6da-4733-88fd-a2e20b7cb611"><path d="M113.65,186.43,111.27,185a1.81,1.81,0,0,1-.76-1.67l2.38,1.39A1.85,1.85,0,0,0,113.65,186.43Z" fill="none"/></clipPath><clipPath id="b1fbc59f-15e2-4da9-a955-2444442fb681"><path d="M112.82,158l-2.39-1.38a5.73,5.73,0,0,1,2.6-4.49l2.38,1.38A5.69,5.69,0,0,0,112.82,158Z" fill="none"/></clipPath><linearGradient id="febca248-062c-4c81-bf5f-89adb7376045" x1="111.35" y1="157.15" x2="113.95" y2="152.65" xlink:href="#e2ec35f8-c800-49ec-ad98-d711a8434559"/><clipPath id="b3d348aa-0c53-49b3-976e-92409ff5d6b8"><path d="M123.5,169.86l1.55.9a.8.8,0,0,0-.79.08l-1.55-.9A.8.8,0,0,1,123.5,169.86Z" fill="none"/></clipPath><clipPath id="ae576c6d-c200-4938-82bd-68901fb9887b"><path d="M118.69,176.23l-1.55-.9a.79.79,0,0,1-.33-.71,2.44,2.44,0,0,1,1.11-1.91l1.55.9a2.44,2.44,0,0,0-1.11,1.91A.77.77,0,0,0,118.69,176.23Z" fill="none"/></clipPath><clipPath id="b2a560cc-03d7-4f86-90a0-91188ab73a1b"><path d="M136.46,162.38l1.55.9a.77.77,0,0,0-.79.08l-1.54-.91A.77.77,0,0,1,136.46,162.38Z" fill="#777687"/></clipPath><clipPath id="e07b7f34-e147-4021-b3a1-cd9c6c0aee58"><path d="M127.68,171l-1.55-.9a.76.76,0,0,1-.32-.71,2.47,2.47,0,0,1,1.1-1.92l1.55.9a2.47,2.47,0,0,0-1.1,1.92A.76.76,0,0,0,127.68,171Z" fill="none"/></clipPath><clipPath id="ba4ab292-a31c-4fd7-9583-58915dad4288"><path d="M139.37,155.77l1.55.9a.77.77,0,0,0-.79.08l-1.55-.9A.77.77,0,0,1,139.37,155.77Z" fill="#777687"/></clipPath><clipPath id="eb60d991-5c81-4083-80b8-dc7db511dd97"><path d="M118.67,171.31l-1.55-.9a.76.76,0,0,1-.32-.71,2.42,2.42,0,0,1,1.11-1.91l1.55.9a2.42,2.42,0,0,0-1.11,1.91A.76.76,0,0,0,118.67,171.31Z" fill="none"/></clipPath><clipPath id="a9ca5ecc-0d98-4fb5-b763-6b32e3ae3974"><path d="M144.63,142.32l1.55.9a1.57,1.57,0,0,0-1.58.15l-1.55-.9A1.57,1.57,0,0,1,144.63,142.32Z" fill="none"/></clipPath><clipPath id="f3159791-83fc-4654-aef9-31f10c241f82"><path d="M119,162.52l-1.55-.9a1.56,1.56,0,0,1-.65-1.42,4.92,4.92,0,0,1,2.21-3.84l1.55.91a4.88,4.88,0,0,0-2.21,3.83A1.54,1.54,0,0,0,119,162.52Z" fill="none"/></clipPath><clipPath id="b9214568-8960-4a6b-90b4-434d9824b4f0"><path d="M128.71,176.45l-.77-.45a.18.18,0,0,0,.17,0l.78.45A.2.2,0,0,1,128.71,176.45Z" fill="none"/></clipPath><clipPath id="a1fa2836-1b5d-44b7-a5a5-03c86bdafcfd"><path d="M128.29,175.07l.77.45c.07,0,.1.14.1.3a.66.66,0,0,1-.27.61l-.78-.45a.67.67,0,0,0,.28-.61C128.39,175.21,128.35,175.1,128.29,175.07Z" fill="none"/></clipPath><clipPath id="be8688c8-5ea9-4cb4-b4b6-578921d7395d"><path d="M128.58,174.65l.77.45c-.11-.07-.27,0-.47.07l-.77-.45A.45.45,0,0,1,128.58,174.65Z" fill="none"/></clipPath><clipPath id="ba290b08-c181-4a30-9015-61bccbcd9678"><path d="M128.42,176.87l-.77-.45a.58.58,0,0,1-.19-.51,1.34,1.34,0,0,1,.65-1.19l.77.45a1.36,1.36,0,0,0-.65,1.19A.58.58,0,0,0,128.42,176.87Z" fill="none"/></clipPath><clipPath id="afbd23f5-cc40-43d6-a91e-d733aa6e7450"><path d="M126.78,176.47,126,176s.1,0,.18,0a.69.69,0,0,0,.27-.61c0-.16,0-.27-.1-.3l.78.45c.06,0,.1.14.1.3a.69.69,0,0,1-.28.61A.17.17,0,0,1,126.78,176.47Z" fill="none"/></clipPath><clipPath id="b9cb1eee-e489-414c-8f17-67d798e92d23"><path d="M126.5,176.89l-.78-.45a.58.58,0,0,1-.19-.51,1.36,1.36,0,0,1,.65-1.19c.2-.12.36-.14.47-.07l.77.45a.46.46,0,0,0-.46.07,1.37,1.37,0,0,0-.66,1.19A.56.56,0,0,0,126.5,176.89Z" fill="none"/></clipPath><clipPath id="a628f9f2-ee7a-484e-88d0-7739c55d0a23"><path d="M122.39,179.71l-.78-.45a.59.59,0,0,0,.6,0,.66.66,0,0,0,.37-.56.21.21,0,0,0-.07-.17l.77.45a.18.18,0,0,1,.07.17.66.66,0,0,1-.37.56A.57.57,0,0,1,122.39,179.71Z" fill="none"/></clipPath><clipPath id="bedc599d-55e3-406f-834f-649166ef208f"><path d="M123.05,177.82l.78.45c-.16-.09-.41-.05-.73.13l-.21.13-.78-.45a2.53,2.53,0,0,1,.22-.13C122.64,177.77,122.89,177.73,123.05,177.82Z" fill="none"/></clipPath><clipPath id="ad5b292d-0e7b-41ee-bc60-9ab79ef58411"><path d="M121.09,179.85l.77.45s-.12,0-.21,0l-.77-.45A.21.21,0,0,1,121.09,179.85Z" fill="none"/></clipPath><clipPath id="b7d2a863-14a5-4be2-b9d0-423abf6bab91"><path d="M121.45,181l-.77-.45a.22.22,0,0,1-.08-.2.56.56,0,0,1,.28-.49l.77.45a.58.58,0,0,0-.28.49A.22.22,0,0,0,121.45,181Z" fill="none"/></clipPath><clipPath id="fd61c06a-f44f-432d-81f0-b4ee74673e69"><path d="M191.42,148.82l2.38,1.38a1.86,1.86,0,0,0-1.85.18L189.57,149A1.81,1.81,0,0,1,191.42,148.82Z" fill="none"/></clipPath><clipPath id="b5f5738e-cf5e-4666-ac55-7fe9e05506e8"><path d="M113.76,227.44l-2.39-1.38a1.81,1.81,0,0,1-.76-1.67l2.39,1.38A1.81,1.81,0,0,0,113.76,227.44Z" fill="#bfbdff"/></clipPath><clipPath id="a2acef0b-e1bb-40f8-8405-09f8212c1805"><path d="M112.92,199l-2.38-1.39a5.69,5.69,0,0,1,2.59-4.49l2.38,1.39A5.74,5.74,0,0,0,112.92,199Z" fill="none"/></clipPath><linearGradient id="a023d1e4-8012-4d9d-bd30-ebe3b9d6bac7" x1="111.46" y1="198.16" x2="114.05" y2="193.67" xlink:href="#e2ec35f8-c800-49ec-ad98-d711a8434559"/><clipPath id="e95da994-c03e-4346-a77b-663b8c0e194a"><path d="M123.6,210.88l1.55.9a.77.77,0,0,0-.79.08l-1.55-.9A.77.77,0,0,1,123.6,210.88Z" fill="#777687"/></clipPath><clipPath id="a6c7eecf-8980-4795-ae84-9887490a3746"><path d="M118.79,217.25l-1.55-.9a.77.77,0,0,1-.32-.71,2.43,2.43,0,0,1,1.1-1.92l1.55.9a2.46,2.46,0,0,0-1.11,1.92A.8.8,0,0,0,118.79,217.25Z" fill="none"/></clipPath><clipPath id="e4a0ead3-606a-4fe4-ba11-e908aa933276"><path d="M136.57,203.39l1.55.9a.8.8,0,0,0-.79.08l-1.55-.9A.8.8,0,0,1,136.57,203.39Z"/></clipPath><clipPath id="e0a8a0ea-ffc5-475b-bf91-40a91431ed6e"><path d="M127.78,212.06l-1.55-.9a.79.79,0,0,1-.32-.72,2.42,2.42,0,0,1,1.11-1.91l1.55.9a2.42,2.42,0,0,0-1.11,1.92A.78.78,0,0,0,127.78,212.06Z"/></clipPath><clipPath id="b8d94374-41ec-4c9e-90cd-1b0cf1a552c4"><path d="M139.47,196.79l1.55.9a.79.79,0,0,0-.79.07l-1.55-.9A.79.79,0,0,1,139.47,196.79Z" fill="#777687"/></clipPath><clipPath id="b6d1ed1c-6e45-4bd3-bbe5-2f009a7de9f9"><path d="M118.77,212.33l-1.54-.9a.78.78,0,0,1-.33-.71A2.45,2.45,0,0,1,118,208.8l1.55.9a2.42,2.42,0,0,0-1.11,1.92A.79.79,0,0,0,118.77,212.33Z" fill="none"/></clipPath><clipPath id="ae67b082-d304-4750-b033-bdc6fb6e6bed"><path d="M144.73,183.33l1.55.9a1.57,1.57,0,0,0-1.58.16l-1.55-.9A1.57,1.57,0,0,1,144.73,183.33Z" fill="#73d5ff"/></clipPath><clipPath id="bfed3cab-4e38-41fc-8613-ae73e556d69a"><path d="M119.07,203.54l-1.55-.9a1.59,1.59,0,0,1-.65-1.43,4.88,4.88,0,0,1,2.22-3.83l1.55.9a4.88,4.88,0,0,0-2.22,3.83A1.59,1.59,0,0,0,119.07,203.54Z" fill="#73d5ff"/></clipPath><clipPath id="b0d46110-ca48-42c5-8b57-7325e2bf765b"><path d="M120.74,221.13l.77.45a.21.21,0,0,0-.21,0l-.77-.45A.2.2,0,0,1,120.74,221.13Z" fill="none"/></clipPath><clipPath id="e5da8e57-7550-4ecf-8fa2-289f08681d04"><path d="M121.1,222.29l-.78-.45s-.08-.09-.08-.19a.6.6,0,0,1,.29-.5l.77.45a.59.59,0,0,0-.28.5C121,222.2,121.05,222.27,121.1,222.29Z" fill="none"/></clipPath><clipPath id="fba882c6-d79c-45d3-9ff8-bfd8db283524"><path d="M119.67,222.62l-.77-.45s.11,0,.19,0l.77.45C119.78,222.64,119.72,222.65,119.67,222.62Z"/></clipPath><clipPath id="ac73d1ed-fe96-4d06-aaf4-5c30fa627d92"><path d="M119.27,220.37l.77.45c.1.06.15.29.15.71,0,.61-.09.93-.33,1.06l-.77-.45c.23-.13.33-.45.33-1.06C119.41,220.66,119.37,220.43,119.27,220.37Z"/></clipPath><clipPath id="bddee75b-66e2-46fc-9ce2-b1342b9894ae"><path d="M119.7,219.81l.77.45a.64.64,0,0,0-.62.09l-.77-.45A.64.64,0,0,1,119.7,219.81Z"/></clipPath><clipPath id="a182624c-6ab9-4bcf-aae7-46783124c026"><path d="M119.24,223.18l-.77-.45c-.2-.12-.31-.43-.31-.93a2.06,2.06,0,0,1,.92-1.9l.77.45a2.06,2.06,0,0,0-.91,1.9Q118.94,223,119.24,223.18Z"/></clipPath><clipPath id="ba1a7c8e-39ac-471e-9156-c5238912f138"><path d="M128.36,217.73l-.78-.45a.2.2,0,0,0,.18,0l.77.45A.18.18,0,0,1,128.36,217.73Z"/></clipPath><clipPath id="ef59ed73-7336-4016-9e36-150b04bba214"><path d="M127.93,216.34l.78.45a.38.38,0,0,1,.1.31.67.67,0,0,1-.28.61l-.77-.45a.69.69,0,0,0,.28-.61C128,216.49,128,216.38,127.93,216.34Z"/></clipPath><clipPath id="a1b6571b-22d0-4baa-85b7-247b1cad57cb"><path d="M128.22,215.93l.78.45a.46.46,0,0,0-.47.06l-.77-.45A.45.45,0,0,1,128.22,215.93Z"/></clipPath><clipPath id="f4897e31-55ed-48bc-af34-058454465278"><path d="M128.07,218.14l-.78-.45c-.12-.07-.19-.24-.19-.5a1.38,1.38,0,0,1,.66-1.2l.77.45a1.4,1.4,0,0,0-.66,1.2C127.88,217.9,127.94,218.07,128.07,218.14Z"/></clipPath><clipPath id="aea9e825-fbf6-4eb2-98c3-7949750442f6"><path d="M126.43,217.75l-.77-.45a.18.18,0,0,0,.17,0,.67.67,0,0,0,.28-.61c0-.16,0-.27-.1-.3l.77.45c.07,0,.1.14.1.3a.69.69,0,0,1-.27.61A.2.2,0,0,1,126.43,217.75Z"/></clipPath><clipPath id="f2914fc9-1b69-4cab-ae6a-1e9b518e25ee"><path d="M126.14,218.16l-.77-.45c-.13-.07-.2-.24-.2-.5a1.4,1.4,0,0,1,.66-1.2.46.46,0,0,1,.47-.06l.77.45c-.11-.07-.27-.05-.47.06a1.39,1.39,0,0,0-.65,1.2C126,217.92,126,218.09,126.14,218.16Z"/></clipPath><clipPath id="f53f3816-37dd-43aa-831b-98d4b27fe92b"><path d="M124.36,218.41l.77.45q.09,0,.09.21a.66.66,0,0,1-.34.58l-.77-.45a.65.65,0,0,0,.33-.58A.23.23,0,0,0,124.36,218.41Z"/></clipPath><clipPath id="b99851dc-52c0-4d0c-9f32-bcdae329f04b"><path d="M124.62,219.69l-.77-.45c.06,0,.14,0,.26,0l.77.45A.29.29,0,0,1,124.62,219.69Z"/></clipPath><clipPath id="a161b218-6608-4a22-96f0-1a21df96b769"><path d="M124.79,217.79l.77.45a.54.54,0,0,0-.54.08l-.78-.45C124.47,217.74,124.66,217.71,124.79,217.79Z"/></clipPath><clipPath id="ad455666-a22f-43f8-a65f-a978b5a32888"><path d="M124.47,218.92l-.77-.45a1.3,1.3,0,0,1,.54-.6l.78.45A1.27,1.27,0,0,0,124.47,218.92Z"/></clipPath><clipPath id="bfe47ce5-b0b5-424a-a753-8c520cbddea4"><path d="M124.22,220.28l-.78-.45c-.2-.12-.31-.41-.31-.86a2.35,2.35,0,0,1,1.06-2,1.32,1.32,0,0,1,.75-.21l.78.45a1.3,1.3,0,0,0-.75.21,2.3,2.3,0,0,0-1.06,2C123.91,219.87,124,220.16,124.22,220.28Z"/></clipPath><clipPath id="a27fffdb-8d6b-4ac1-9917-f4f2b49fc559"><path d="M191.32,189.88l2.38,1.38a1.84,1.84,0,0,0-1.85.18l-2.38-1.38A1.81,1.81,0,0,1,191.32,189.88Z" fill="none"/></clipPath><clipPath id="bd62fbcf-4993-4369-9f03-ef1f974f4fa5"><path d="M113.65,268.5l-2.38-1.39a1.8,1.8,0,0,1-.76-1.67l2.38,1.39A1.85,1.85,0,0,0,113.65,268.5Z" fill="none"/></clipPath><clipPath id="ab0f231f-4c55-402d-9551-533d55a3fdaf"><path d="M112.82,240.07l-2.39-1.39a5.73,5.73,0,0,1,2.6-4.49l2.38,1.38A5.71,5.71,0,0,0,112.82,240.07Z" fill="none"/></clipPath><linearGradient id="be95a62b-6c5f-460c-a608-29632f83ef70" x1="111.35" y1="239.22" x2="113.95" y2="234.72" xlink:href="#e2ec35f8-c800-49ec-ad98-d711a8434559"/><clipPath id="be97683a-885a-4ad6-8b45-35fcfe00f7d2"><path d="M123.5,251.94l1.55.9a.79.79,0,0,0-.79.07l-1.55-.9A.79.79,0,0,1,123.5,251.94Z" fill="none"/></clipPath><clipPath id="f568f7d3-7973-4ac2-a1f9-e7a3c80f58a5"><path d="M118.69,258.31l-1.55-.9a.8.8,0,0,1-.33-.71,2.45,2.45,0,0,1,1.11-1.92l1.55.9a2.45,2.45,0,0,0-1.11,1.92A.78.78,0,0,0,118.69,258.31Z" fill="none"/></clipPath><clipPath id="ea3dbd75-fd4f-4c55-8544-3f2b62c860da"><path d="M136.46,244.45l1.55.9a.77.77,0,0,0-.79.08l-1.54-.9A.76.76,0,0,1,136.46,244.45Z" fill="#777687"/></clipPath><clipPath id="fbfe9d02-ee47-49d5-82bc-74f1e3a92230"><path d="M127.68,253.11l-1.55-.9a.76.76,0,0,1-.32-.71,2.43,2.43,0,0,1,1.1-1.91l1.55.9a2.43,2.43,0,0,0-1.1,1.91A.76.76,0,0,0,127.68,253.11Z" fill="none"/></clipPath><clipPath id="fe6f2421-c110-4833-bcc4-50f46559e856"><path d="M139.37,237.84l1.55.9a.8.8,0,0,0-.79.08l-1.55-.9A.8.8,0,0,1,139.37,237.84Z" fill="#777687"/></clipPath><clipPath id="aa7e6f5a-f720-4626-aee8-eb0cbcfff3e3"><path d="M118.67,253.39l-1.55-.9a.79.79,0,0,1-.32-.72,2.42,2.42,0,0,1,1.11-1.91l1.55.9a2.42,2.42,0,0,0-1.11,1.91A.79.79,0,0,0,118.67,253.39Z" fill="none"/></clipPath><clipPath id="a07fea3d-e059-49fe-9ced-1e1b963a6411"><path d="M144.63,224.39l1.55.9a1.59,1.59,0,0,0-1.58.15l-1.55-.9A1.59,1.59,0,0,1,144.63,224.39Z" fill="none"/></clipPath><clipPath id="aef1861b-4b1c-43c9-954d-83407c14f0ca"><path d="M119,244.59l-1.55-.9a1.56,1.56,0,0,1-.65-1.42,4.9,4.9,0,0,1,2.21-3.83l1.55.9a4.9,4.9,0,0,0-2.21,3.83A1.54,1.54,0,0,0,119,244.59Z" fill="none"/></clipPath><clipPath id="a69114f3-f54a-4b66-bad2-8e1e6a1e5434"><path d="M128.71,258.52l-.77-.45s.1,0,.17,0l.78.45A.17.17,0,0,1,128.71,258.52Z" fill="none"/></clipPath><clipPath id="f474ea71-cc59-4f3a-9c12-4dca292281df"><path d="M128.29,257.14l.77.45c.07,0,.1.14.1.3a.66.66,0,0,1-.27.61l-.78-.45a.67.67,0,0,0,.28-.61C128.39,257.28,128.35,257.18,128.29,257.14Z" fill="none"/></clipPath><clipPath id="a6e9910a-449d-4f5a-bd02-51dcb3f9c8d5"><path d="M128.58,256.72l.77.45a.5.5,0,0,0-.47.07l-.77-.45A.5.5,0,0,1,128.58,256.72Z" fill="none"/></clipPath><clipPath id="b3d10a68-c923-4b2a-aeb5-21cf67cce918"><path d="M128.42,258.94l-.77-.45c-.12-.07-.19-.24-.19-.51a1.34,1.34,0,0,1,.65-1.19l.77.45a1.36,1.36,0,0,0-.65,1.19C128.23,258.7,128.3,258.87,128.42,258.94Z" fill="none"/></clipPath><clipPath id="b95829e7-4028-4647-b741-6341d0438ac8"><path d="M126.78,258.54l-.77-.45s.1,0,.18,0a.69.69,0,0,0,.27-.61c0-.16,0-.26-.1-.3l.78.45c.06,0,.1.14.1.3a.69.69,0,0,1-.28.61A.17.17,0,0,1,126.78,258.54Z" fill="none"/></clipPath><clipPath id="ad7d7a75-e850-4182-b2c2-b62bc846157e"><path d="M126.5,259l-.78-.45c-.12-.07-.19-.24-.19-.51a1.36,1.36,0,0,1,.65-1.19.5.5,0,0,1,.47-.07l.77.45a.48.48,0,0,0-.46.07,1.37,1.37,0,0,0-.66,1.19C126.3,258.72,126.37,258.89,126.5,259Z" fill="none"/></clipPath><clipPath id="fac3d08f-0fd9-405b-9616-666bf2763293"><path d="M122.39,261.78l-.78-.45a.59.59,0,0,0,.6,0,.66.66,0,0,0,.37-.56.21.21,0,0,0-.07-.17l.77.45a.18.18,0,0,1,.07.17.66.66,0,0,1-.37.56A.57.57,0,0,1,122.39,261.78Z" fill="none"/></clipPath><clipPath id="bf4b6666-614b-47ef-bfda-137f029b2d30"><path d="M123.05,259.9l.78.45c-.16-.1-.41-.06-.73.12l-.21.13-.78-.45a2.53,2.53,0,0,1,.22-.13C122.64,259.84,122.89,259.8,123.05,259.9Z" fill="none"/></clipPath><clipPath id="f3739390-6616-4f4c-833c-f84df7a269a9"><path d="M121.09,261.92l.77.45s-.12,0-.21,0l-.77-.45A.21.21,0,0,1,121.09,261.92Z" fill="none"/></clipPath><clipPath id="ffe27c9f-f1ac-4ac6-a7cb-385ab0b57b79"><path d="M121.45,263.09l-.77-.45a.22.22,0,0,1-.08-.2.58.58,0,0,1,.28-.49l.77.45a.6.6,0,0,0-.28.49A.22.22,0,0,0,121.45,263.09Z" fill="none"/></clipPath><linearGradient id="a33e1c28-c40b-414a-b143-a8a7873f6d26" x1="185.84" y1="172.69" x2="197.08" y2="153.23" xlink:href="#e2ec35f8-c800-49ec-ad98-d711a8434559"/><linearGradient id="a0dddb27-d4a6-4143-88b0-9cf246becd41" x1="177.53" y1="313.23" x2="285.35" y2="126.47" gradientUnits="userSpaceOnUse"><stop offset="0" stop-color="#00226b"/><stop offset="0.11" stop-color="#0c2174"/><stop offset="0.32" stop-color="#2b208d"/><stop offset="0.59" stop-color="#5e1db5"/><stop offset="0.91" stop-color="#a41aec"/><stop offset="0.96" stop-color="#af19f4"/></linearGradient><linearGradient id="a6bc29c7-c6a4-4099-8a20-7dd73b78f8db" x1="197.23" y1="230.27" x2="208.47" y2="210.81" xlink:href="#e2ec35f8-c800-49ec-ad98-d711a8434559"/><linearGradient id="e0ff6bd9-6a12-419b-aff2-973ddea25664" x1="281.44" y1="243.56" x2="292.68" y2="224.09" xlink:href="#e2ec35f8-c800-49ec-ad98-d711a8434559"/><radialGradient id="bc6dc593-0f9c-4962-99f7-0ac4a6aef78a" cx="268.19" cy="208.8" r="105.5" gradientUnits="userSpaceOnUse"><stop offset="0" stop-color="#230000"/><stop offset="0.73" stop-color="#93432a"/><stop offset="1" stop-color="#230000"/></radialGradient><radialGradient id="b99790c0-2e7c-4580-9cc3-e0feab90c353" cx="268.19" cy="208.8" r="52.75" gradientUnits="userSpaceOnUse"><stop offset="0.15" stop-color="#fff"/><stop offset="0.21" stop-color="#e2d1d2"/><stop offset="0.29" stop-color="#bf9a9c"/><stop offset="0.36" stop-color="#a67276"/><stop offset="0.42" stop-color="#975a5e"/><stop offset="0.45" stop-color="#915155"/><stop offset="0.56" stop-color="#6c3638"/><stop offset="0.68" stop-color="#44191a"/><stop offset="0.79" stop-color="#2c0707"/><stop offset="0.85" stop-color="#230000"/><stop offset="0.86" stop-color="#270201"/><stop offset="0.86" stop-color="#340805"/><stop offset="0.87" stop-color="#48120b"/><stop offset="0.88" stop-color="#652114"/><stop offset="0.89" stop-color="#8b331f"/><stop offset="0.9" stop-color="#b8492d"/><stop offset="0.9" stop-color="#d65836"/><stop offset="0.9" stop-color="#c95232"/><stop offset="0.91" stop-color="#9d3c25"/><stop offset="0.93" stop-color="#782a1a"/><stop offset="0.94" stop-color="#591b10"/><stop offset="0.95" stop-color="#410f09"/><stop offset="0.97" stop-color="#300604"/><stop offset="0.98" stop-color="#260201"/><stop offset="1" stop-color="#230000"/></radialGradient><radialGradient id="b91dca71-0b09-4d13-83c5-f3d887537e76" cx="268.19" cy="208.8" r="43.96" gradientUnits="userSpaceOnUse"><stop offset="0.15" stop-color="#fff"/><stop offset="0.28" stop-color="#c2c2c2"/><stop offset="0.43" stop-color="#888"/><stop offset="0.56" stop-color="#575757"/><stop offset="0.69" stop-color="#313131"/><stop offset="0.81" stop-color="#161616"/><stop offset="0.92" stop-color="#060606"/><stop offset="1"/></radialGradient></defs><g style="isolation:isolate"><g id="a17e30dc-300e-441c-b135-9a60b665757e" data-name="Layer 2"><g id="a5aea9e5-07a9-414f-ba25-b2c1cffc39aa" data-name="Layer 1"><rect y="32.07" width="450" height="450" fill="#fff"/><g style="isolation:isolate"><path d="M108,273.1l-3.5-2c-2-1.18-3.28-3.68-3.29-7.23l3.5,2C104.76,269.43,106,271.93,108,273.1Z" fill="#bfbdff"/><path d="M182.93,67.33l3.5,2c-2.05-1.19-4.89-1-8,.78l-3.5-2C178.05,66.3,180.88,66.14,182.93,67.33Z" fill="#e0dfff"/><polygon points="104.75 265.87 101.25 263.84 101.05 123.73 104.55 125.76 104.75 265.87" fill="#bfbdff"/><polygon points="115.78 106.31 112.28 104.27 174.91 68.11 178.41 70.14 115.78 106.31" fill="#e0dfff"/><path d="M104.55,125.76l-3.5-2c0-7.15,5-15.86,11.23-19.46l3.5,2C109.55,109.9,104.53,118.61,104.55,125.76Z" fill="url(#e2ec35f8-c800-49ec-ad98-d711a8434559)"/><path d="M178.41,70.14c6.22-3.59,11.29-.7,11.31,6.45l.2,140.11c0,7.15-5,15.86-11.23,19.46l-62.64,36.16c-6.22,3.59-11.28.71-11.3-6.45l-.2-140.11c0-7.15,5-15.86,11.23-19.45Z" fill="#fbb800"/></g><g style="mix-blend-mode:multiply"><path d="M185.11,105.48c1.44-.83,2.61-.16,2.62,1.49l.07,26.76a5.72,5.72,0,0,1-2.59,4.49l-76.44,44.14c-1.44.83-2.61.16-2.61-1.49l-.08-26.77a5.74,5.74,0,0,1,2.59-4.49Z" fill="#9795cc"/><path d="M182.81,79.23c2.33-1.35,4.23-.27,4.24,2.42V86.8a9.27,9.27,0,0,1-4.21,7.29l-41.6,24c-2.34,1.35-4.23.27-4.24-2.41l0-5.16a9.29,9.29,0,0,1,4.22-7.29Z" fill="#9795cc"/><path d="M130.63,109.36c2.33-1.35,4.23-.27,4.23,2.41l0,5.16a9.28,9.28,0,0,1-4.21,7.29l-19.8,11.43c-2.34,1.35-4.23.27-4.24-2.41v-5.16a9.25,9.25,0,0,1,4.21-7.29Z" fill="#9795cc"/><path d="M185.22,146.49c1.43-.82,2.6-.16,2.61,1.49l.07,26.77a5.69,5.69,0,0,1-2.59,4.49l-76.44,44.13c-1.44.83-2.61.16-2.61-1.49l-.08-26.76a5.73,5.73,0,0,1,2.6-4.49Z" fill="#9795cc"/><path d="M185.11,187.55c1.44-.83,2.61-.16,2.62,1.49l.07,26.76a5.73,5.73,0,0,1-2.59,4.5l-76.44,44.13c-1.44.83-2.61.16-2.61-1.49l-.08-26.76a5.73,5.73,0,0,1,2.59-4.49Z" fill="#9795cc"/></g><path d="M189,80.74l2.75,1.6a3,3,0,0,0-3,.29L186,81A3,3,0,0,1,189,80.74Z" fill="#b3b4b8"/><path d="M144.14,121.81l-2.75-1.6a2.94,2.94,0,0,1-1.23-2.71l2.74,1.6A3,3,0,0,0,144.14,121.81Z" fill="#b3b4b8"/><polygon points="142.9 119.1 140.16 117.5 140.14 112.35 142.89 113.95 142.9 119.1" fill="#b3b4b8"/><polygon points="147.1 106.65 144.35 105.06 185.96 81.04 188.7 82.63 147.1 106.65" fill="#b3b4b8"/><path d="M188.7,82.63c2.34-1.34,4.23-.26,4.24,2.42l0,5.15a9.31,9.31,0,0,1-4.22,7.3l-41.6,24c-2.33,1.34-4.23.26-4.24-2.42V114a9.3,9.3,0,0,1,4.21-7.3Z" fill="#d8d9dd"/><path d="M188.46,84.36c1.67-1,3-.19,3,1.72v4.76a6.62,6.62,0,0,1-3,5.21l-41.12,23.74c-1.67,1-3,.19-3-1.73l0-4.76a6.62,6.62,0,0,1,3-5.2Z" fill="#fff"/><path d="M142.89,114l-2.75-1.6a9.27,9.27,0,0,1,4.21-7.29l2.75,1.59A9.3,9.3,0,0,0,142.89,114Z" fill="#b3b4b8"/><path d="M136.78,110.87l2.75,1.6a3,3,0,0,0-3,.29l-2.75-1.6A3,3,0,0,1,136.78,110.87Z" fill="#b3b4b8"/><path d="M113.76,139.35l-2.75-1.6a3,3,0,0,1-1.23-2.71l2.74,1.6A3,3,0,0,0,113.76,139.35Z" fill="#b3b4b8"/><polygon points="112.52 136.64 109.78 135.04 109.76 129.89 112.51 131.49 112.52 136.64" fill="#b3b4b8"/><polygon points="116.72 124.19 113.97 122.59 133.77 111.16 136.52 112.76 116.72 124.19" fill="#b3b4b8"/><path d="M112.51,131.49l-2.75-1.6a9.3,9.3,0,0,1,4.21-7.3l2.75,1.6A9.28,9.28,0,0,0,112.51,131.49Z" fill="#b3b4b8"/><path d="M136.52,112.76c2.33-1.35,4.23-.27,4.24,2.42v5.15a9.24,9.24,0,0,1-4.21,7.29l-19.8,11.44c-2.33,1.34-4.23.26-4.24-2.42v-5.15a9.28,9.28,0,0,1,4.21-7.3Z" fill="#d8d9dd"/><g style="isolation:isolate"><g style="isolation:isolate"><g clip-path="url(#aa66d845-1ace-4897-8e54-2ae6cc11203b)"><path d="M191.85,109.37,189.47,108a1.86,1.86,0,0,1,1.85-.18l2.38,1.39a1.81,1.81,0,0,0-1.85.18Z" fill="#e0dfff"/></g></g><g style="isolation:isolate"><g clip-path="url(#b1149dd6-b6da-4733-88fd-a2e20b7cb611)"><path d="M113.65,186.43,111.27,185a1.81,1.81,0,0,1-.76-1.67l2.38,1.39a1.85,1.85,0,0,0,.76,1.67Z" fill="#bfbdff"/></g></g><polygon points="112.89 184.76 110.51 183.37 110.43 156.61 112.82 157.99 112.89 184.76" fill="#bfbdff"/><polygon points="115.41 153.5 113.03 152.12 189.47 107.98 191.85 109.37 115.41 153.5" fill="#e0dfff"/><g style="isolation:isolate"><g clip-path="url(#b1fbc59f-15e2-4da9-a955-2444442fb681)"><path d="M112.82,158l-2.39-1.38a5.73,5.73,0,0,1,2.6-4.49l2.38,1.38a5.69,5.69,0,0,0-2.59,4.49Z" fill="url(#febca248-062c-4c81-bf5f-89adb7376045)"/></g></g><path d="M191.85,109.37c1.44-.83,2.61-.16,2.61,1.49l.08,26.76a5.73,5.73,0,0,1-2.6,4.49L115.5,186.25c-1.43.83-2.6.16-2.61-1.49L112.82,158a5.69,5.69,0,0,1,2.59-4.49Z" fill="#fff"/></g><g style="isolation:isolate"><g style="isolation:isolate"><g clip-path="url(#b3d348aa-0c53-49b3-976e-92409ff5d6b8)"><path d="M124.26,170.84l-1.55-.9a.8.8,0,0,1,.79-.08l1.55.9a.8.8,0,0,0-.79.08Z" fill="#777687"/></g></g><polygon points="119.47 173.61 117.92 172.71 122.71 169.94 124.26 170.84 119.47 173.61" fill="#777687"/><g style="isolation:isolate"><g clip-path="url(#ae576c6d-c200-4938-82bd-68901fb9887b)"><path d="M118.69,176.23l-1.55-.9a.79.79,0,0,1-.33-.71,2.44,2.44,0,0,1,1.11-1.91l1.55.9a2.44,2.44,0,0,0-1.11,1.91.77.77,0,0,0,.33.71Z" fill="#777687"/></g></g><path d="M124.26,170.84c.61-.35,1.11-.07,1.11.64a2.42,2.42,0,0,1-1.11,1.91l-4.78,2.77c-.62.35-1.11.07-1.12-.64a2.44,2.44,0,0,1,1.11-1.91Z" fill="#a6a5bd"/></g><g style="isolation:isolate"><g style="isolation:isolate"><path d="M136.46,162.38l1.55.9a.77.77,0,0,0-.79.08l-1.54-.91A.77.77,0,0,1,136.46,162.38Z" fill="#777687"/><g clip-path="url(#b2a560cc-03d7-4f86-90a0-91188ab73a1b)"><path d="M137.22,163.36l-1.54-.91a.77.77,0,0,1,.78-.07l1.55.9a.77.77,0,0,0-.79.08Z" fill="#777687"/></g></g><polygon points="128.46 168.41 126.92 167.51 135.68 162.46 137.22 163.35 128.46 168.41" fill="#777687"/><g style="isolation:isolate"><g clip-path="url(#e07b7f34-e147-4021-b3a1-cd9c6c0aee58)"><path d="M127.68,171l-1.55-.9a.76.76,0,0,1-.32-.71,2.47,2.47,0,0,1,1.1-1.92l1.55.9a2.47,2.47,0,0,0-1.1,1.92.76.76,0,0,0,.32.71Z" fill="#777687"/></g></g><path d="M137.22,163.36c.62-.36,1.12-.07,1.12.63a2.45,2.45,0,0,1-1.11,1.92L128.47,171c-.61.36-1.11.07-1.11-.63a2.47,2.47,0,0,1,1.1-1.92Z" fill="#a6a5bd"/></g><g style="isolation:isolate"><g style="isolation:isolate"><path d="M139.37,155.77l1.55.9a.77.77,0,0,0-.79.08l-1.55-.9A.77.77,0,0,1,139.37,155.77Z" fill="#777687"/><g clip-path="url(#ba4ab292-a31c-4fd7-9583-58915dad4288)"><path d="M140.13,156.75l-1.55-.9a.77.77,0,0,1,.79-.08l1.55.9a.77.77,0,0,0-.79.08Z" fill="#777687"/></g></g><polygon points="119.46 168.69 117.91 167.78 138.58 155.85 140.13 156.75 119.46 168.69" fill="#777687"/><g style="isolation:isolate"><g clip-path="url(#eb60d991-5c81-4083-80b8-dc7db511dd97)"><path d="M118.67,171.31l-1.55-.9a.76.76,0,0,1-.32-.71,2.42,2.42,0,0,1,1.11-1.91l1.55.9a2.42,2.42,0,0,0-1.11,1.91.76.76,0,0,0,.32.71Z" fill="#777687"/></g></g><path d="M140.13,156.75c.61-.36,1.11-.07,1.11.63a2.43,2.43,0,0,1-1.1,1.92l-20.68,11.94c-.61.35-1.11.06-1.11-.64a2.42,2.42,0,0,1,1.11-1.91Z" fill="#a6a5bd"/></g><g style="isolation:isolate"><g style="isolation:isolate"><g clip-path="url(#a9ca5ecc-0d98-4fb5-b763-6b32e3ae3974)"><path d="M144.6,143.37l-1.55-.9a1.57,1.57,0,0,1,1.58-.15l1.55.9a1.57,1.57,0,0,0-1.58.15Z" fill="#777687"/></g></g><polygon points="120.53 157.26 118.98 156.37 143.05 142.47 144.6 143.37 120.53 157.26" fill="#777687"/><g style="isolation:isolate"><g clip-path="url(#f3159791-83fc-4654-aef9-31f10c241f82)"><path d="M119,162.52l-1.55-.9a1.56,1.56,0,0,1-.65-1.42,4.92,4.92,0,0,1,2.21-3.84l1.55.91a4.88,4.88,0,0,0-2.21,3.83,1.54,1.54,0,0,0,.65,1.42Z" fill="#777687"/></g></g><path d="M144.6,143.37c1.22-.71,2.22-.14,2.22,1.27a4.83,4.83,0,0,1-2.21,3.83l-24.06,13.9c-1.23.7-2.22.13-2.23-1.27a4.88,4.88,0,0,1,2.21-3.83Z" fill="#a6a5bd"/></g><g style="isolation:isolate"><polygon points="187.95 128.41 186.4 127.51 191.12 119.35 192.66 120.25 187.95 128.41" fill="#607a4d"/><polygon points="187.49 127.4 185.94 126.5 191.11 117.54 192.66 118.44 187.49 127.4" fill="#3c542b"/><polygon points="187.46 127.35 185.91 126.44 191.11 117.45 192.66 118.35 187.46 127.35" fill="#4fcf53"/><polygon points="183.95 130.72 182.41 129.82 186.4 127.51 187.95 128.41 183.95 130.72" fill="#617c4e"/><polygon points="177.46 141.97 175.91 141.07 182.41 129.82 183.95 130.72 177.46 141.97" fill="#607a4d"/><polygon points="183.49 129.71 181.94 128.81 185.94 126.5 187.49 127.4 183.49 129.71" fill="#3d552c"/><polygon points="177 140.96 175.45 140.06 181.94 128.81 183.49 129.71 177 140.96" fill="#3c542b"/><polygon points="176.97 140.9 175.42 140 181.92 128.75 183.47 129.65 176.97 140.9" fill="#4fcf53"/><polygon points="183.47 129.65 181.92 128.75 185.91 126.44 187.46 127.35 183.47 129.65" fill="#4fcf53"/><polygon points="173.6 144.19 172.05 143.29 175.91 141.07 177.46 141.97 173.6 144.19" fill="#617c4e"/><polygon points="174.06 142.65 172.51 141.75 175.45 140.06 177 140.96 174.06 142.65" fill="#3d552c"/><polygon points="174.08 142.57 172.53 141.67 175.42 140 176.97 140.9 174.08 142.57" fill="#4fcf53"/><polygon points="171.36 142.91 169.81 142.01 172.05 143.29 173.6 144.19 171.36 142.91" fill="#5a7348"/><polygon points="171.82 141.37 170.27 140.47 172.51 141.75 174.06 142.65 171.82 141.37" fill="#384f28"/><polygon points="171.84 141.29 170.29 140.39 172.53 141.67 174.08 142.57 171.84 141.29" fill="#384f28"/><polygon points="167.83 144.96 166.28 144.06 169.81 142.01 171.36 142.91 167.83 144.96" fill="#617c4e"/><polygon points="168.28 143.41 166.73 142.51 170.27 140.47 171.82 141.37 168.28 143.41" fill="#3d552c"/><polygon points="168.31 143.33 166.76 142.43 170.29 140.39 171.84 141.29 168.31 143.33" fill="#4fcf53"/><polygon points="158.96 159.97 157.41 159.07 157.39 153.06 158.94 153.96 158.96 159.97" fill="#53bf37"/><polygon points="165.05 143.38 163.5 142.47 166.28 144.06 167.83 144.96 165.05 143.38" fill="#5a7348"/><polygon points="158.94 153.96 157.39 153.06 163.5 142.47 165.05 143.38 158.94 153.96" fill="#607a4d"/><polygon points="192.66 120.25 192.72 140.48 158.96 159.97 158.94 153.96 165.05 143.38 167.83 144.96 171.36 142.91 173.6 144.19 177.46 141.97 183.95 130.72 187.95 128.41 192.66 120.25" fill="#69f246"/><polygon points="158.94 153.96 157.39 153.06 157.39 151.26 158.94 152.16 158.94 153.96" fill="#348f37"/><polygon points="192.66 118.44 192.66 120.25 187.95 128.41 183.95 130.72 177.46 141.97 173.6 144.19 171.36 142.91 167.83 144.96 165.05 143.38 158.94 153.96 158.94 152.16 165.05 141.57 168.28 143.41 171.82 141.37 174.06 142.65 177 140.96 183.49 129.71 187.49 127.4 192.66 118.44" fill="#3a9e3d"/><polygon points="158.94 152.16 157.39 151.26 163.5 140.67 165.05 141.57 158.94 152.16" fill="#3c542b"/><polygon points="165.05 141.57 163.5 140.67 166.73 142.51 168.28 143.41 165.05 141.57" fill="#384f28"/><polygon points="158.94 152.16 157.39 151.26 157.39 151.16 158.94 152.06 158.94 152.16" fill="#3a9e3d"/><polygon points="165.05 141.47 163.5 140.57 166.76 142.43 168.31 143.33 165.05 141.47" fill="#384f28"/><polygon points="158.94 152.06 157.39 151.16 163.5 140.57 165.05 141.47 158.94 152.06" fill="#4fcf53"/><polygon points="192.66 118.35 192.66 118.44 187.49 127.4 183.49 129.71 177 140.96 174.06 142.65 171.82 141.37 168.28 143.41 165.05 141.57 158.94 152.16 158.94 152.06 165.05 141.47 168.31 143.33 171.84 141.29 174.08 142.57 176.97 140.9 183.47 129.65 187.46 127.35 192.66 118.35" fill="#6d984e"/></g><g style="isolation:isolate"><polygon points="119.94 181.95 119.17 181.5 119.16 179.38 119.94 179.83 119.94 181.95" fill="#2e7d30"/><polygon points="119.48 180.09 118.71 179.64 118.71 179.06 119.48 179.51 119.48 180.09" fill="#2e7d30"/><polygon points="119.48 179.51 118.71 179.06 119.77 178.45 120.55 178.9 119.48 179.51" fill="#2e7d30"/><polygon points="120.55 178.9 120.56 181.6 119.94 181.95 119.94 179.83 119.48 180.09 119.48 179.51 120.55 178.9" fill="#46be49"/></g><g style="isolation:isolate"><polygon points="118.13 182.59 117.36 182.14 117.36 181.5 118.13 181.96 118.13 182.59" fill="#2e7d30"/><polygon points="118.51 181.3 117.73 180.85 118.29 180.53 119.07 180.97 118.51 181.3" fill="#2e7d30"/><polygon points="117.57 182.28 116.8 181.83 116.8 181.39 117.57 181.84 117.57 182.28" fill="#2e7d30"/><polygon points="117.57 181.84 116.8 181.39 117.36 181.06 118.13 181.51 117.57 181.84" fill="#2e7d30"/><polygon points="118.13 181.51 117.36 181.06 117.35 180.42 118.13 180.87 118.13 181.51" fill="#2e7d30"/><polygon points="118.13 180.87 117.35 180.42 117.73 180.2 118.51 180.65 118.13 180.87" fill="#2e7d30"/><polygon points="118.51 180.65 118.51 181.3 119.07 180.97 119.07 181.41 118.51 181.74 118.51 182.38 118.13 182.59 118.13 181.96 117.57 182.28 117.57 181.84 118.13 181.51 118.13 180.87 118.51 180.65" fill="#46be49"/></g><g style="isolation:isolate"><g style="isolation:isolate"><g clip-path="url(#b9214568-8960-4a6b-90b4-434d9824b4f0)"><path d="M128.71,176.45l-.77-.45a.18.18,0,0,0,.17,0l.78.45a.2.2,0,0,1-.18,0Z" fill="#2e7d30"/></g></g><g style="isolation:isolate"><g clip-path="url(#a1fa2836-1b5d-44b7-a5a5-03c86bdafcfd)"><path d="M128.89,176.43l-.78-.45a.67.67,0,0,0,.28-.61c0-.16,0-.27-.1-.3l.77.45c.07,0,.1.14.1.3a.66.66,0,0,1-.27.61Z" fill="#2e7d30"/></g></g><g style="isolation:isolate"><g clip-path="url(#be8688c8-5ea9-4cb4-b4b6-578921d7395d)"><path d="M128.88,175.17l-.77-.45a.45.45,0,0,1,.47-.07l.77.45c-.11-.07-.27,0-.47.07Z" fill="#2e7d30"/></g></g><g style="isolation:isolate"><g clip-path="url(#ba290b08-c181-4a30-9015-61bccbcd9678)"><path d="M128.42,176.87l-.77-.45a.58.58,0,0,1-.19-.51,1.34,1.34,0,0,1,.65-1.19l.77.45a1.36,1.36,0,0,0-.65,1.19.58.58,0,0,0,.19.51Z" fill="#2e7d30"/></g></g><path d="M128.88,175.17c.41-.24.66-.07.66.43a1.37,1.37,0,0,1-.65,1.2c-.4.23-.66.06-.66-.44A1.36,1.36,0,0,1,128.88,175.17Zm0,1.26a.66.66,0,0,0,.27-.61c0-.28-.1-.38-.28-.28a.67.67,0,0,0-.27.6c0,.28.1.39.28.29Z" fill="#46be49"/><polygon points="128.47 174.32 129.03 174 127.36 177.66 126.8 177.99 128.47 174.32" fill="#46be49"/><polygon points="128.47 174.32 127.69 173.87 128.25 173.55 129.03 174 128.47 174.32" fill="#2e7d30"/><polygon points="126.8 177.99 126.03 177.54 127.69 173.87 128.47 174.32 126.8 177.99" fill="#2e7d30"/><g style="isolation:isolate"><g clip-path="url(#afbd23f5-cc40-43d6-a91e-d733aa6e7450)"><path d="M126.78,176.47,126,176s.1,0,.18,0a.69.69,0,0,0,.27-.61c0-.16,0-.27-.1-.3l.78.45c.06,0,.1.14.1.3a.69.69,0,0,1-.28.61.17.17,0,0,1-.18,0Z" fill="#2e7d30"/></g></g><g style="isolation:isolate"><g clip-path="url(#b9cb1eee-e489-414c-8f17-67d798e92d23)"><path d="M126.5,176.89l-.78-.45a.58.58,0,0,1-.19-.51,1.36,1.36,0,0,1,.65-1.19c.2-.12.36-.14.47-.07l.77.45a.46.46,0,0,0-.46.07,1.37,1.37,0,0,0-.66,1.19.56.56,0,0,0,.2.51Z" fill="#2e7d30"/></g></g><path d="M127.62,175.62a1.38,1.38,0,0,1-.66,1.2c-.4.23-.66.07-.66-.44a1.37,1.37,0,0,1,.66-1.19C127.36,175,127.61,175.12,127.62,175.62Zm-.94.54c0,.28.11.39.28.29a.69.69,0,0,0,.28-.61c0-.28-.11-.38-.28-.28a.65.65,0,0,0-.28.6Z" fill="#46be49"/></g><g style="isolation:isolate"><polygon points="125.85 177.42 125.08 176.97 125.38 176.79 126.15 177.24 125.85 177.42" fill="#2e7d30"/><polygon points="125.29 178.86 124.52 178.41 124.52 177.83 125.29 178.28 125.29 178.86" fill="#2e7d30"/><polygon points="124.85 177.99 124.08 177.54 124.52 177.29 125.29 177.74 124.85 177.99" fill="#2e7d30"/><polygon points="125.29 177.17 124.51 176.72 125.08 176.4 125.85 176.85 125.29 177.17" fill="#2e7d30"/><polygon points="125.29 177.74 124.52 177.29 124.51 176.72 125.29 177.17 125.29 177.74" fill="#2e7d30"/><polygon points="124.23 178.89 123.45 178.44 123.45 177.97 124.23 178.41 124.23 178.89" fill="#2e7d30"/><polygon points="125.5 176.03 124.85 177.99 125.29 177.74 125.29 177.17 125.85 176.85 125.85 177.42 126.15 177.24 126.16 177.78 125.85 177.95 125.86 178.54 125.29 178.86 125.29 178.28 124.23 178.89 124.23 178.41 124.92 176.37 125.5 176.03" fill="#46be49"/><polygon points="124.23 178.41 123.45 177.97 124.14 175.92 124.92 176.37 124.23 178.41" fill="#2e7d30"/><polygon points="124.92 176.37 124.14 175.92 124.73 175.58 125.5 176.03 124.92 176.37" fill="#2e7d30"/></g><g style="isolation:isolate"><g style="isolation:isolate"><g clip-path="url(#a628f9f2-ee7a-484e-88d0-7739c55d0a23)"><path d="M122.39,179.71l-.78-.45a.59.59,0,0,0,.6,0,.66.66,0,0,0,.37-.56.21.21,0,0,0-.07-.17l.77.45a.18.18,0,0,1,.07.17.66.66,0,0,1-.37.56.57.57,0,0,1-.59,0Z" fill="#2e7d30"/></g></g><polygon points="122.13 180.38 121.35 179.93 121.59 179.24 122.37 179.69 122.13 180.38" fill="#2e7d30"/><g style="isolation:isolate"><g clip-path="url(#bedc599d-55e3-406f-834f-649166ef208f)"><path d="M122.89,178.53l-.78-.45a2.53,2.53,0,0,1,.22-.13c.31-.18.56-.22.72-.13l.78.45c-.16-.09-.41-.05-.73.13l-.21.13Z" fill="#2e7d30"/></g></g><polygon points="122.33 179.41 121.55 178.96 121.55 177.42 122.32 177.87 122.33 179.41" fill="#2e7d30"/><polygon points="122.32 177.87 121.55 177.42 123.13 176.51 123.9 176.96 122.32 177.87" fill="#2e7d30"/><path d="M123.9,177v.57l-1,.58v.42l.21-.13c.55-.32.91-.19.91.29a1.8,1.8,0,0,1-1,1.49,1.4,1.4,0,0,1-.93.2l.24-.69a.56.56,0,0,0,.61,0,.66.66,0,0,0,.37-.56c0-.2-.13-.24-.37-.11s-.51.3-.65.4v-1.54Z" fill="#46be49"/></g><g style="isolation:isolate"><g style="isolation:isolate"><g clip-path="url(#ad5b292d-0e7b-41ee-bc60-9ab79ef58411)"><path d="M121.65,180.33l-.77-.45a.21.21,0,0,1,.21,0l.77.45s-.12,0-.21,0Z" fill="#2e7d30"/></g></g><g style="isolation:isolate"><g clip-path="url(#b7d2a863-14a5-4be2-b9d0-423abf6bab91)"><path d="M121.45,181l-.77-.45a.22.22,0,0,1-.08-.2.56.56,0,0,1,.28-.49l.77.45a.58.58,0,0,0-.28.49.22.22,0,0,0,.08.2Z" fill="#2e7d30"/></g></g><path d="M121.65,180.33c.17-.1.29,0,.29.16a.62.62,0,0,1-.28.5c-.17.1-.29,0-.29-.17A.58.58,0,0,1,121.65,180.33Z" fill="#46be49"/></g><g style="isolation:isolate"><polygon points="150.75 142.9 149.98 142.45 152.18 137.65 152.95 138.1 150.75 142.9" fill="#3a9e3d"/><polygon points="152.95 138.1 155.17 140.35 150.75 142.9 152.95 138.1" fill="#46be49"/></g><g style="isolation:isolate"><g style="isolation:isolate"><g clip-path="url(#fd61c06a-f44f-432d-81f0-b4ee74673e69)"><path d="M192,150.38,189.57,149a1.81,1.81,0,0,1,1.85-.18l2.38,1.38a1.86,1.86,0,0,0-1.85.18Z" fill="#e0dfff"/></g></g><g style="isolation:isolate"><path d="M113.76,227.44l-2.39-1.38a1.81,1.81,0,0,1-.76-1.67l2.39,1.38A1.81,1.81,0,0,0,113.76,227.44Z" fill="#bfbdff"/><g clip-path="url(#b5f5738e-cf5e-4666-ac55-7fe9e05506e8)"><path d="M113.76,227.44l-2.39-1.38a1.81,1.81,0,0,1-.76-1.67l2.39,1.38a1.81,1.81,0,0,0,.76,1.67Z" fill="#bfbdff"/></g></g><polygon points="113 225.77 110.61 224.39 110.54 197.62 112.92 199.01 113 225.77" fill="#bfbdff"/><polygon points="115.51 194.52 113.13 193.13 189.57 149 191.95 150.38 115.51 194.52" fill="#e0dfff"/><g style="isolation:isolate"><g clip-path="url(#a2acef0b-e1bb-40f8-8405-09f8212c1805)"><path d="M112.92,199l-2.38-1.39a5.69,5.69,0,0,1,2.59-4.49l2.38,1.39a5.74,5.74,0,0,0-2.59,4.49Z" fill="url(#a023d1e4-8012-4d9d-bd30-ebe3b9d6bac7)"/></g></g><path d="M192,150.38c1.44-.83,2.61-.16,2.61,1.49l.08,26.77a5.74,5.74,0,0,1-2.59,4.49l-76.44,44.13c-1.44.83-2.61.16-2.61-1.49L112.92,199a5.74,5.74,0,0,1,2.59-4.49Z" fill="#fff"/></g><g style="isolation:isolate"><g style="isolation:isolate"><path d="M123.6,210.88l1.55.9a.77.77,0,0,0-.79.08l-1.55-.9A.77.77,0,0,1,123.6,210.88Z" fill="#777687"/><g clip-path="url(#e95da994-c03e-4346-a77b-663b8c0e194a)"><path d="M124.36,211.86l-1.55-.9a.77.77,0,0,1,.79-.08l1.55.9a.77.77,0,0,0-.79.08Z" fill="#777687"/></g></g><polygon points="119.57 214.62 118.02 213.72 122.81 210.96 124.36 211.86 119.57 214.62" fill="#777687"/><g style="isolation:isolate"><g clip-path="url(#a6c7eecf-8980-4795-ae84-9887490a3746)"><path d="M118.79,217.25l-1.55-.9a.77.77,0,0,1-.32-.71,2.43,2.43,0,0,1,1.1-1.92l1.55.9a2.46,2.46,0,0,0-1.11,1.92.8.8,0,0,0,.33.71Z" fill="#777687"/></g></g><path d="M124.36,211.86c.61-.36,1.11-.07,1.11.63a2.43,2.43,0,0,1-1.1,1.92l-4.79,2.76c-.61.36-1.11.07-1.12-.63a2.46,2.46,0,0,1,1.11-1.92Z" fill="#a6a5bd"/></g><g style="isolation:isolate"><g style="isolation:isolate"><path d="M136.57,203.39l1.55.9a.8.8,0,0,0-.79.08l-1.55-.9A.8.8,0,0,1,136.57,203.39Z"/><g clip-path="url(#e4a0ead3-606a-4fe4-ba11-e908aa933276)"><path d="M137.33,204.37l-1.55-.9a.8.8,0,0,1,.79-.08l1.55.9a.8.8,0,0,0-.79.08Z"/></g></g><polygon points="128.56 209.43 127.02 208.53 135.78 203.47 137.33 204.37 128.56 209.43"/><g style="isolation:isolate"><path d="M127.78,212.06l-1.55-.9a.79.79,0,0,1-.32-.72,2.42,2.42,0,0,1,1.11-1.91l1.55.9a2.42,2.42,0,0,0-1.11,1.92A.78.78,0,0,0,127.78,212.06Z"/><g clip-path="url(#e0a8a0ea-ffc5-475b-bf91-40a91431ed6e)"><path d="M127.78,212.06l-1.55-.9a.79.79,0,0,1-.32-.72,2.42,2.42,0,0,1,1.11-1.91l1.55.9a2.42,2.42,0,0,0-1.11,1.92.78.78,0,0,0,.32.71Z"/></g></g><path d="M137.33,204.37c.61-.35,1.11-.07,1.11.64a2.42,2.42,0,0,1-1.11,1.91L128.57,212c-.61.35-1.11.07-1.11-.63a2.42,2.42,0,0,1,1.11-1.92Z"/></g><g style="isolation:isolate"><g style="isolation:isolate"><path d="M139.47,196.79l1.55.9a.79.79,0,0,0-.79.07l-1.55-.9A.79.79,0,0,1,139.47,196.79Z" fill="#777687"/><g clip-path="url(#b8d94374-41ec-4c9e-90cd-1b0cf1a552c4)"><path d="M140.23,197.76l-1.55-.9a.79.79,0,0,1,.79-.07l1.55.9a.79.79,0,0,0-.79.07Z" fill="#777687"/></g></g><polygon points="119.56 209.7 118.01 208.8 138.68 196.86 140.23 197.76 119.56 209.7" fill="#777687"/><g style="isolation:isolate"><g clip-path="url(#b6d1ed1c-6e45-4bd3-bbe5-2f009a7de9f9)"><path d="M118.77,212.33l-1.54-.9a.78.78,0,0,1-.33-.71A2.45,2.45,0,0,1,118,208.8l1.55.9a2.42,2.42,0,0,0-1.11,1.92.79.79,0,0,0,.32.71Z" fill="#777687"/></g></g><path d="M140.23,197.76c.61-.35,1.11-.07,1.12.64a2.44,2.44,0,0,1-1.11,1.91l-20.68,11.94c-.61.35-1.11.07-1.11-.63a2.42,2.42,0,0,1,1.11-1.92Z"/></g><g style="isolation:isolate"><g style="isolation:isolate"><path d="M144.73,183.33l1.55.9a1.57,1.57,0,0,0-1.58.16l-1.55-.9A1.57,1.57,0,0,1,144.73,183.33Z" fill="#73d5ff"/><g clip-path="url(#ae67b082-d304-4750-b033-bdc6fb6e6bed)"><path d="M144.7,184.39l-1.55-.9a1.57,1.57,0,0,1,1.58-.16l1.55.9a1.57,1.57,0,0,0-1.58.16Z" fill="#73d5ff"/></g></g><polygon points="120.64 198.28 119.09 197.38 143.15 183.49 144.7 184.39 120.64 198.28" fill="#73d5ff"/><g style="isolation:isolate"><path d="M119.07,203.54l-1.55-.9a1.59,1.59,0,0,1-.65-1.43,4.88,4.88,0,0,1,2.22-3.83l1.55.9a4.88,4.88,0,0,0-2.22,3.83A1.59,1.59,0,0,0,119.07,203.54Z" fill="#73d5ff"/><g clip-path="url(#bfed3cab-4e38-41fc-8613-ae73e556d69a)"><path d="M119.07,203.54l-1.55-.9a1.59,1.59,0,0,1-.65-1.43,4.88,4.88,0,0,1,2.22-3.83l1.55.9a4.88,4.88,0,0,0-2.22,3.83,1.59,1.59,0,0,0,.65,1.43Z" fill="#73d5ff"/></g></g><path d="M144.7,184.39c1.22-.71,2.22-.14,2.23,1.27a4.88,4.88,0,0,1-2.22,3.83l-24.06,13.89c-1.23.71-2.22.14-2.23-1.27a4.88,4.88,0,0,1,2.22-3.83Z" fill="#73d5ff"/></g><g style="isolation:isolate"><polygon points="192.85 170.42 191.3 169.52 191.31 167.72 192.86 168.62 192.85 170.42"/><polygon points="179.69 178.35 178.14 177.45 181.25 175.66 182.8 176.56 179.69 178.35"/><polygon points="182.8 176.56 181.25 175.66 184.76 169.57 186.31 170.47 182.8 176.56"/><polygon points="180.14 176.81 178.59 175.91 180.78 174.65 182.33 175.55 180.14 176.81"/><polygon points="177.77 175.37 176.22 174.47 178.62 175.83 180.17 176.73 177.77 175.37"/><polygon points="177.72 175.43 176.17 174.53 178.59 175.91 180.14 176.81 177.72 175.43"/><polygon points="176.61 176.6 175.06 175.7 178.14 177.45 179.69 178.35 176.61 176.6"/><polygon points="177.72 175.43 176.17 174.53 176.15 169.66 177.7 170.56 177.72 175.43"/><polygon points="176.61 176.6 175.06 175.7 175.04 170.82 176.59 171.72 176.61 176.6"/><polygon points="174.28 170.41 176.59 171.72 176.61 176.6 179.69 178.35 182.8 176.56 186.31 170.47 189.6 168.57 192.85 170.42 192.86 168.62 192.82 181.5 158.58 201.26 158.54 189.14 163.62 186.21 168.75 177.32 170.22 176.47 173.44 170.89 174.28 170.41"/><polygon points="189.6 168.57 188.06 167.67 191.3 169.52 192.85 170.42 189.6 168.57"/><polygon points="190.06 167.03 188.51 166.13 191.31 167.72 192.86 168.62 190.06 167.03"/><polygon points="190.08 166.95 188.53 166.05 191.31 167.63 192.86 168.53 190.08 166.95"/><polygon points="186.31 170.47 184.76 169.57 188.06 167.67 189.6 168.57 186.31 170.47"/><polygon points="182.33 175.55 180.78 174.65 184.3 168.56 185.85 169.46 182.33 175.55"/><polygon points="185.85 169.46 184.3 168.56 188.51 166.13 190.06 167.03 185.85 169.46"/><polygon points="182.31 175.49 180.76 174.59 184.27 168.51 185.82 169.41 182.31 175.49"/><polygon points="185.82 169.41 184.27 168.51 188.53 166.05 190.08 166.95 185.82 169.41"/><polygon points="180.17 176.73 178.62 175.83 180.76 174.59 182.31 175.49 180.17 176.73"/><polygon points="174.28 170.41 172.73 169.51 175.04 170.82 176.59 171.72 174.28 170.41"/><polygon points="174.74 168.87 173.19 167.97 176.15 169.66 177.7 170.56 174.74 168.87"/><polygon points="174.76 168.78 173.21 167.88 176.21 169.59 177.76 170.49 174.76 168.78"/><polygon points="170.22 176.47 168.67 175.57 171.9 169.99 173.44 170.89 170.22 176.47"/><polygon points="173.44 170.89 171.9 169.99 172.73 169.51 174.28 170.41 173.44 170.89"/><polygon points="163.62 186.21 162.07 185.31 167.2 176.42 168.75 177.32 163.62 186.21"/><polygon points="168.75 177.32 167.2 176.42 168.67 175.57 170.22 176.47 168.75 177.32"/><polygon points="169.76 175.46 168.21 174.56 171.43 168.98 172.98 169.88 169.76 175.46"/><polygon points="172.98 169.88 171.43 168.98 173.19 167.97 174.74 168.87 172.98 169.88"/><polygon points="169.73 175.41 168.18 174.51 171.41 168.93 172.96 169.82 169.73 175.41"/><polygon points="172.96 169.82 171.41 168.93 173.21 167.88 174.76 168.78 172.96 169.82"/><polygon points="168.28 176.31 166.74 175.41 168.21 174.56 169.76 175.46 168.28 176.31"/><polygon points="163.15 185.2 161.6 184.3 166.74 175.41 168.28 176.31 163.15 185.2"/><polygon points="163.13 185.15 161.58 184.25 166.71 175.36 168.26 176.26 163.13 185.15"/><polygon points="168.26 176.26 166.71 175.36 168.18 174.51 169.73 175.41 168.26 176.26"/><polygon points="158.58 201.26 157.03 200.36 157 188.24 158.54 189.14 158.58 201.26"/><polygon points="158.54 189.14 157 188.24 162.07 185.31 163.62 186.21 158.54 189.14"/><polygon points="158.54 187.87 156.99 186.97 161.6 184.3 163.15 185.2 158.54 187.87"/><polygon points="174.74 168.87 177.7 170.56 177.72 175.43 180.14 176.81 182.33 175.55 185.85 169.46 190.06 167.03 192.86 168.62 192.85 170.42 189.6 168.57 186.31 170.47 182.8 176.56 179.69 178.35 176.61 176.6 176.59 171.72 174.28 170.41 173.44 170.89 170.22 176.47 168.75 177.32 163.62 186.21 158.54 189.14 158.54 187.87 163.15 185.2 168.28 176.31 169.76 175.46 172.98 169.88 174.74 168.87"/><polygon points="158.54 189.14 157 188.24 156.99 186.97 158.54 187.87 158.54 189.14"/><polygon points="158.54 187.8 156.99 186.9 161.58 184.25 163.13 185.15 158.54 187.8"/><polygon points="158.54 189.14 157 188.24 156.99 186.9 158.54 187.8 158.54 189.14"/><polygon points="174.76 168.78 177.76 170.49 177.77 175.37 180.17 176.73 182.31 175.49 185.82 169.41 190.08 166.95 192.86 168.53 192.86 168.62 190.06 167.03 185.85 169.46 182.33 175.55 180.14 176.81 177.72 175.43 177.7 170.56 174.74 168.87 172.98 169.88 169.76 175.46 168.28 176.31 163.15 185.2 158.54 187.87 158.54 189.14 158.54 187.8 163.13 185.15 168.26 176.26 169.73 175.41 172.96 169.82 174.76 168.78"/></g><g style="isolation:isolate"><polygon points="122.48 221.56 121.7 221.11 121.69 218.99 122.47 219.44 122.48 221.56" fill="#c41616"/><polygon points="122.02 219.7 121.24 219.25 121.24 218.67 122.02 219.12 122.02 219.7" fill="#c41616"/><polygon points="122.02 219.12 121.24 218.67 122.31 218.06 123.08 218.51 122.02 219.12" fill="#c41616"/><polygon points="123.08 218.51 123.09 221.21 122.48 221.56 122.47 219.44 122.02 219.7 122.02 219.12 123.08 218.51"/></g><g style="isolation:isolate"><g style="isolation:isolate"><g clip-path="url(#b0d46110-ca48-42c5-8b57-7325e2bf765b)"><path d="M121.3,221.6l-.77-.45a.2.2,0,0,1,.21,0l.77.45a.21.21,0,0,0-.21,0Z" fill="#c41616"/></g></g><g style="isolation:isolate"><g clip-path="url(#e5da8e57-7550-4ecf-8fa2-289f08681d04)"><path d="M121.1,222.29l-.78-.45s-.08-.09-.08-.19a.6.6,0,0,1,.29-.5l.77.45a.59.59,0,0,0-.28.5c0,.1,0,.17.08.19Z" fill="#c41616"/></g></g><path d="M121.3,221.6c.17-.09.29,0,.29.17a.62.62,0,0,1-.29.5c-.16.1-.28,0-.28-.17A.59.59,0,0,1,121.3,221.6Z" fill="#ff2c2c"/></g><g style="isolation:isolate"><g style="isolation:isolate"><path d="M119.67,222.62l-.77-.45s.11,0,.19,0l.77.45C119.78,222.64,119.72,222.65,119.67,222.62Z"/><g clip-path="url(#fba882c6-d79c-45d3-9ff8-bfd8db283524)"><path d="M119.67,222.62l-.77-.45s.11,0,.19,0l.77.45c-.08,0-.14.06-.19,0Z"/></g></g><g style="isolation:isolate"><path d="M119.27,220.37l.77.45c.1.06.15.29.15.71,0,.61-.09.93-.33,1.06l-.77-.45c.23-.13.33-.45.33-1.06C119.41,220.66,119.37,220.43,119.27,220.37Z"/><g clip-path="url(#ac73d1ed-fe96-4d06-aaf4-5c30fa627d92)"><path d="M119.86,222.59l-.77-.45c.23-.13.33-.45.33-1.06,0-.42,0-.65-.15-.71l.77.45c.1.06.15.29.15.71,0,.61-.09.93-.33,1.06Z"/></g></g><g style="isolation:isolate"><path d="M119.7,219.81l.77.45a.64.64,0,0,0-.62.09l-.77-.45A.64.64,0,0,1,119.7,219.81Z"/><g clip-path="url(#bddee75b-66e2-46fc-9ce2-b1342b9894ae)"><path d="M119.85,220.35l-.77-.45a.64.64,0,0,1,.62-.09l.77.45a.64.64,0,0,0-.62.09Z"/></g></g><g style="isolation:isolate"><path d="M119.24,223.18l-.77-.45c-.2-.12-.31-.43-.31-.93a2.06,2.06,0,0,1,.92-1.9l.77.45a2.06,2.06,0,0,0-.91,1.9Q118.94,223,119.24,223.18Z"/><g clip-path="url(#a182624c-6ab9-4bcf-aae7-46783124c026)"><path d="M119.24,223.18l-.77-.45c-.2-.12-.31-.43-.31-.93a2.06,2.06,0,0,1,.92-1.9l.77.45a2.06,2.06,0,0,0-.91,1.9q0,.75.3.93Z"/></g></g><path d="M119.85,220.35c.59-.34.92,0,.93.84a2.07,2.07,0,0,1-.92,1.9c-.59.34-.92,0-.92-.84A2.06,2.06,0,0,1,119.85,220.35Zm0,2.24c.24-.13.33-.45.33-1.06s-.1-.82-.33-.69-.34.45-.34,1.07.1.82.34.68Z"/></g><g style="isolation:isolate"><polygon points="117.75 223.32 116.98 222.88 116.98 222.44 117.75 222.89 117.75 223.32" fill="#c41616"/><polygon points="117.75 222.89 116.98 222.44 117.86 221.92 118.64 222.37 117.75 222.89" fill="#c41616"/><polygon points="118.64 222.37 118.64 222.81 117.75 223.32 117.75 222.89 118.64 222.37" fill="#ff2c2c"/></g><g style="isolation:isolate"><g style="isolation:isolate"><path d="M128.36,217.73l-.78-.45a.2.2,0,0,0,.18,0l.77.45A.18.18,0,0,1,128.36,217.73Z"/><g clip-path="url(#ba1a7c8e-39ac-471e-9156-c5238912f138)"><path d="M128.36,217.73l-.78-.45a.2.2,0,0,0,.18,0l.77.45a.18.18,0,0,1-.17,0Z"/></g></g><g style="isolation:isolate"><path d="M127.93,216.34l.78.45a.38.38,0,0,1,.1.31.67.67,0,0,1-.28.61l-.77-.45a.69.69,0,0,0,.28-.61C128,216.49,128,216.38,127.93,216.34Z"/><g clip-path="url(#ef59ed73-7336-4016-9e36-150b04bba214)"><path d="M128.53,217.71l-.77-.45a.69.69,0,0,0,.28-.61c0-.16,0-.27-.11-.31l.78.45a.38.38,0,0,1,.1.31.67.67,0,0,1-.28.61Z"/></g></g><g style="isolation:isolate"><path d="M128.22,215.93l.78.45a.46.46,0,0,0-.47.06l-.77-.45A.45.45,0,0,1,128.22,215.93Z"/><g clip-path="url(#a1b6571b-22d0-4baa-85b7-247b1cad57cb)"><path d="M128.53,216.44l-.77-.45a.45.45,0,0,1,.46-.06l.78.45a.46.46,0,0,0-.47.06Z"/></g></g><g style="isolation:isolate"><path d="M128.07,218.14l-.78-.45c-.12-.07-.19-.24-.19-.5a1.38,1.38,0,0,1,.66-1.2l.77.45a1.4,1.4,0,0,0-.66,1.2C127.88,217.9,127.94,218.07,128.07,218.14Z"/><g clip-path="url(#f4897e31-55ed-48bc-af34-058454465278)"><path d="M128.07,218.14l-.78-.45c-.12-.07-.19-.24-.19-.5a1.38,1.38,0,0,1,.66-1.2l.77.45a1.4,1.4,0,0,0-.66,1.2c0,.26.07.43.2.5Z"/></g></g><path d="M128.53,216.44c.4-.23.66-.06.66.44a1.36,1.36,0,0,1-.66,1.2c-.4.23-.65.06-.66-.44A1.4,1.4,0,0,1,128.53,216.44Zm0,1.27a.67.67,0,0,0,.28-.61c0-.28-.11-.38-.28-.28a.67.67,0,0,0-.28.6c0,.28.11.39.28.29Z"/><polygon points="128.11 215.6 128.67 215.28 127.01 218.94 126.45 219.27 128.11 215.6"/><polygon points="128.11 215.6 127.34 215.15 127.9 214.83 128.67 215.28 128.11 215.6"/><polygon points="126.45 219.27 125.67 218.82 127.34 215.15 128.11 215.6 126.45 219.27"/><g style="isolation:isolate"><path d="M126.43,217.75l-.77-.45a.18.18,0,0,0,.17,0,.67.67,0,0,0,.28-.61c0-.16,0-.27-.1-.3l.77.45c.07,0,.1.14.1.3a.69.69,0,0,1-.27.61A.2.2,0,0,1,126.43,217.75Z"/><g clip-path="url(#aea9e825-fbf6-4eb2-98c3-7949750442f6)"><path d="M126.43,217.75l-.77-.45a.18.18,0,0,0,.17,0,.67.67,0,0,0,.28-.61c0-.16,0-.27-.1-.3l.77.45c.07,0,.1.14.1.3a.69.69,0,0,1-.27.61.2.2,0,0,1-.18,0Z"/></g></g><g style="isolation:isolate"><path d="M126.14,218.16l-.77-.45c-.13-.07-.2-.24-.2-.5a1.4,1.4,0,0,1,.66-1.2.46.46,0,0,1,.47-.06l.77.45c-.11-.07-.27-.05-.47.06a1.39,1.39,0,0,0-.65,1.2C126,217.92,126,218.09,126.14,218.16Z"/><g clip-path="url(#f2914fc9-1b69-4cab-ae6a-1e9b518e25ee)"><path d="M126.14,218.16l-.77-.45c-.13-.07-.2-.24-.2-.5a1.4,1.4,0,0,1,.66-1.2.46.46,0,0,1,.47-.06l.77.45c-.11-.07-.27-.05-.47.06a1.39,1.39,0,0,0-.65,1.2c0,.26.07.43.19.5Z"/></g></g><path d="M127.26,216.9a1.37,1.37,0,0,1-.65,1.2c-.4.23-.66.06-.66-.44a1.39,1.39,0,0,1,.65-1.2C127,216.23,127.26,216.4,127.26,216.9Zm-.93.54c0,.28.1.39.28.29a.69.69,0,0,0,.27-.61c0-.28-.1-.38-.28-.28a.67.67,0,0,0-.27.6Z"/></g><g style="isolation:isolate"><g style="isolation:isolate"><path d="M124.36,218.41l.77.45q.09,0,.09.21a.66.66,0,0,1-.34.58l-.77-.45a.65.65,0,0,0,.33-.58A.23.23,0,0,0,124.36,218.41Z"/><g clip-path="url(#f53f3816-37dd-43aa-831b-98d4b27fe92b)"><path d="M124.88,219.65l-.77-.45a.65.65,0,0,0,.33-.58.23.23,0,0,0-.08-.21l.77.45q.09,0,.09.21a.66.66,0,0,1-.34.58Z"/></g></g><g style="isolation:isolate"><path d="M124.62,219.69l-.77-.45c.06,0,.14,0,.26,0l.77.45A.29.29,0,0,1,124.62,219.69Z"/><g clip-path="url(#b99851dc-52c0-4d0c-9f32-bcdae329f04b)"><path d="M124.62,219.69l-.77-.45c.06,0,.14,0,.26,0l.77.45a.29.29,0,0,1-.26,0Z"/></g></g><g style="isolation:isolate"><path d="M124.79,217.79l.77.45a.54.54,0,0,0-.54.08l-.78-.45C124.47,217.74,124.66,217.71,124.79,217.79Z"/><g clip-path="url(#a161b218-6608-4a22-96f0-1a21df96b769)"><path d="M125,218.32l-.78-.45c.23-.13.42-.16.55-.08l.77.45a.54.54,0,0,0-.54.08Z"/></g></g><g style="isolation:isolate"><path d="M124.47,218.92l-.77-.45a1.3,1.3,0,0,1,.54-.6l.78.45A1.27,1.27,0,0,0,124.47,218.92Z"/><g clip-path="url(#ad455666-a22f-43f8-a65f-a978b5a32888)"><path d="M124.47,218.92l-.77-.45a1.3,1.3,0,0,1,.54-.6l.78.45a1.27,1.27,0,0,0-.55.6Z"/></g></g><g style="isolation:isolate"><path d="M124.22,220.28l-.78-.45c-.2-.12-.31-.41-.31-.86a2.35,2.35,0,0,1,1.06-2,1.32,1.32,0,0,1,.75-.21l.78.45a1.3,1.3,0,0,0-.75.21,2.3,2.3,0,0,0-1.06,2C123.91,219.87,124,220.16,124.22,220.28Z"/><g clip-path="url(#bfe47ce5-b0b5-424a-a753-8c520cbddea4)"><path d="M124.22,220.28l-.78-.45c-.2-.12-.31-.41-.31-.86a2.35,2.35,0,0,1,1.06-2,1.32,1.32,0,0,1,.75-.21l.78.45a1.3,1.3,0,0,0-.75.21,2.3,2.3,0,0,0-1.06,2c0,.45.11.74.31.86Z"/></g></g><path d="M125,218.32c.45-.27.75-.09.75.44a1.7,1.7,0,0,1-.86,1.43c-.62.36-1,.06-1-.77a2.3,2.3,0,0,1,1.06-2,1.3,1.3,0,0,1,.75-.21l-.23.62a.65.65,0,0,0-.48.1,1.09,1.09,0,0,0-.54,1A1.27,1.27,0,0,1,125,218.32Zm-.14,1.33a.66.66,0,0,0,.34-.58c0-.22-.12-.29-.33-.17a.67.67,0,0,0-.35.58c0,.19.11.3.34.17Z"/></g><g style="isolation:isolate"><polygon points="150.74 181.55 149.97 181.1 154.39 178.55 155.16 179 150.74 181.55"/><polygon points="152.96 183.8 152.19 183.35 149.97 181.1 150.74 181.55 152.96 183.8"/><polygon points="150.74 181.55 155.16 179 152.96 183.8 150.74 181.55"/></g><g style="isolation:isolate"><g style="isolation:isolate"><g clip-path="url(#a27fffdb-8d6b-4ac1-9917-f4f2b49fc559)"><path d="M191.85,191.44l-2.38-1.38a1.81,1.81,0,0,1,1.85-.18l2.38,1.38a1.84,1.84,0,0,0-1.85.18Z" fill="#e0dfff"/></g></g><g style="isolation:isolate"><g clip-path="url(#bd62fbcf-4993-4369-9f03-ef1f974f4fa5)"><path d="M113.65,268.5l-2.38-1.39a1.8,1.8,0,0,1-.76-1.67l2.38,1.39a1.85,1.85,0,0,0,.76,1.67Z" fill="#bfbdff"/></g></g><polygon points="112.89 266.83 110.51 265.44 110.43 238.68 112.82 240.07 112.89 266.83" fill="#bfbdff"/><polygon points="115.41 235.57 113.03 234.19 189.47 190.06 191.85 191.44 115.41 235.57" fill="#e0dfff"/><g style="isolation:isolate"><g clip-path="url(#ab0f231f-4c55-402d-9551-533d55a3fdaf)"><path d="M112.82,240.07l-2.39-1.39a5.73,5.73,0,0,1,2.6-4.49l2.38,1.38a5.71,5.71,0,0,0-2.59,4.5Z" fill="url(#be95a62b-6c5f-460c-a608-29632f83ef70)"/></g></g><path d="M191.85,191.44c1.44-.83,2.61-.16,2.61,1.49l.08,26.76a5.74,5.74,0,0,1-2.6,4.5L115.5,268.32c-1.43.83-2.6.16-2.61-1.49l-.07-26.76a5.71,5.71,0,0,1,2.59-4.5Z" fill="#fff"/></g><g style="isolation:isolate"><g style="isolation:isolate"><g clip-path="url(#be97683a-885a-4ad6-8b45-35fcfe00f7d2)"><path d="M124.26,252.91l-1.55-.9a.79.79,0,0,1,.79-.07l1.55.9a.79.79,0,0,0-.79.07Z" fill="#777687"/></g></g><polygon points="119.47 255.68 117.92 254.78 122.71 252.01 124.26 252.91 119.47 255.68" fill="#777687"/><g style="isolation:isolate"><g clip-path="url(#f568f7d3-7973-4ac2-a1f9-e7a3c80f58a5)"><path d="M118.69,258.31l-1.55-.9a.8.8,0,0,1-.33-.71,2.45,2.45,0,0,1,1.11-1.92l1.55.9a2.45,2.45,0,0,0-1.11,1.92.78.78,0,0,0,.33.71Z" fill="#777687"/></g></g><path d="M124.26,252.91c.61-.35,1.11-.07,1.11.64a2.45,2.45,0,0,1-1.11,1.92l-4.78,2.76c-.62.35-1.11.07-1.12-.63a2.45,2.45,0,0,1,1.11-1.92Z" fill="#a6a5bd"/></g><g style="isolation:isolate"><g style="isolation:isolate"><path d="M136.46,244.45l1.55.9a.77.77,0,0,0-.79.08l-1.54-.9A.76.76,0,0,1,136.46,244.45Z" fill="#777687"/><g clip-path="url(#ea3dbd75-fd4f-4c55-8544-3f2b62c860da)"><path d="M137.22,245.43l-1.54-.9a.76.76,0,0,1,.78-.08l1.55.9a.77.77,0,0,0-.79.08Z" fill="#777687"/></g></g><polygon points="128.46 250.49 126.92 249.59 135.68 244.53 137.22 245.43 128.46 250.49" fill="#777687"/><g style="isolation:isolate"><g clip-path="url(#fbfe9d02-ee47-49d5-82bc-74f1e3a92230)"><path d="M127.68,253.11l-1.55-.9a.76.76,0,0,1-.32-.71,2.43,2.43,0,0,1,1.1-1.91l1.55.9a2.43,2.43,0,0,0-1.1,1.91.76.76,0,0,0,.32.71Z" fill="#777687"/></g></g><path d="M137.22,245.43c.62-.36,1.12-.07,1.12.63a2.42,2.42,0,0,1-1.11,1.92L128.47,253c-.61.35-1.11.07-1.11-.64a2.43,2.43,0,0,1,1.1-1.91Z" fill="#a6a5bd"/></g><g style="isolation:isolate"><g style="isolation:isolate"><path d="M139.37,237.84l1.55.9a.8.8,0,0,0-.79.08l-1.55-.9A.8.8,0,0,1,139.37,237.84Z" fill="#777687"/><g clip-path="url(#fe6f2421-c110-4833-bcc4-50f46559e856)"><path d="M140.13,238.82l-1.55-.9a.8.8,0,0,1,.79-.08l1.55.9a.8.8,0,0,0-.79.08Z" fill="#777687"/></g></g><polygon points="119.46 250.76 117.91 249.86 138.58 237.92 140.13 238.82 119.46 250.76" fill="#777687"/><g style="isolation:isolate"><g clip-path="url(#aa7e6f5a-f720-4626-aee8-eb0cbcfff3e3)"><path d="M118.67,253.39l-1.55-.9a.79.79,0,0,1-.32-.72,2.42,2.42,0,0,1,1.11-1.91l1.55.9a2.42,2.42,0,0,0-1.11,1.91.79.79,0,0,0,.32.72Z" fill="#777687"/></g></g><path d="M140.13,238.82c.61-.35,1.11-.07,1.11.63a2.41,2.41,0,0,1-1.1,1.92l-20.68,11.94c-.61.35-1.11.07-1.11-.64a2.42,2.42,0,0,1,1.11-1.91Z" fill="#a6a5bd"/></g><g style="isolation:isolate"><g style="isolation:isolate"><g clip-path="url(#a07fea3d-e059-49fe-9ced-1e1b963a6411)"><path d="M144.6,225.44l-1.55-.9a1.59,1.59,0,0,1,1.58-.15l1.55.9a1.59,1.59,0,0,0-1.58.15Z" fill="#777687"/></g></g><polygon points="120.53 239.34 118.98 238.44 143.05 224.54 144.6 225.44 120.53 239.34" fill="#777687"/><g style="isolation:isolate"><g clip-path="url(#aef1861b-4b1c-43c9-954d-83407c14f0ca)"><path d="M119,244.59l-1.55-.9a1.56,1.56,0,0,1-.65-1.42,4.9,4.9,0,0,1,2.21-3.83l1.55.9a4.9,4.9,0,0,0-2.21,3.83,1.54,1.54,0,0,0,.65,1.42Z" fill="#777687"/></g></g><path d="M144.6,225.44c1.22-.7,2.22-.13,2.22,1.27a4.86,4.86,0,0,1-2.21,3.84l-24.06,13.89c-1.23.71-2.22.14-2.23-1.27a4.9,4.9,0,0,1,2.21-3.83Z" fill="#a6a5bd"/></g><g style="isolation:isolate"><polygon points="187.95 210.48 186.4 209.58 191.12 201.42 192.66 202.32 187.95 210.48" fill="#607a4d"/><polygon points="187.49 209.47 185.94 208.57 191.11 199.62 192.66 200.52 187.49 209.47" fill="#3c542b"/><polygon points="187.46 209.42 185.91 208.52 191.11 199.52 192.66 200.42 187.46 209.42" fill="#4fcf53"/><polygon points="183.95 212.79 182.41 211.89 186.4 209.58 187.95 210.48 183.95 212.79" fill="#617c4e"/><polygon points="177.46 224.04 175.91 223.14 182.41 211.89 183.95 212.79 177.46 224.04" fill="#607a4d"/><polygon points="183.49 211.78 181.94 210.88 185.94 208.57 187.49 209.47 183.49 211.78" fill="#3d552c"/><polygon points="177 223.03 175.45 222.13 181.94 210.88 183.49 211.78 177 223.03" fill="#3c542b"/><polygon points="176.97 222.97 175.42 222.07 181.92 210.82 183.47 211.73 176.97 222.97" fill="#4fcf53"/><polygon points="183.47 211.73 181.92 210.82 185.91 208.52 187.46 209.42 183.47 211.73" fill="#4fcf53"/><polygon points="173.6 226.26 172.05 225.36 175.91 223.14 177.46 224.04 173.6 226.26" fill="#617c4e"/><polygon points="174.06 224.72 172.51 223.82 175.45 222.13 177 223.03 174.06 224.72" fill="#3d552c"/><polygon points="174.08 224.64 172.53 223.74 175.42 222.07 176.97 222.97 174.08 224.64" fill="#4fcf53"/><polygon points="171.36 224.99 169.81 224.09 172.05 225.36 173.6 226.26 171.36 224.99" fill="#5a7348"/><polygon points="171.82 223.45 170.27 222.54 172.51 223.82 174.06 224.72 171.82 223.45" fill="#384f28"/><polygon points="171.84 223.37 170.29 222.47 172.53 223.74 174.08 224.64 171.84 223.37" fill="#384f28"/><polygon points="167.83 227.03 166.28 226.13 169.81 224.09 171.36 224.99 167.83 227.03" fill="#617c4e"/><polygon points="168.28 225.49 166.73 224.59 170.27 222.54 171.82 223.45 168.28 225.49" fill="#3d552c"/><polygon points="168.31 225.41 166.76 224.51 170.29 222.47 171.84 223.37 168.31 225.41" fill="#4fcf53"/><polygon points="158.96 242.04 157.41 241.14 157.39 235.13 158.94 236.03 158.96 242.04" fill="#53bf37"/><polygon points="165.05 225.45 163.5 224.55 166.28 226.13 167.83 227.03 165.05 225.45" fill="#5a7348"/><polygon points="158.94 236.03 157.39 235.13 163.5 224.55 165.05 225.45 158.94 236.03" fill="#607a4d"/><polygon points="192.66 202.32 192.72 222.55 158.96 242.04 158.94 236.03 165.05 225.45 167.83 227.03 171.36 224.99 173.6 226.26 177.46 224.04 183.95 212.79 187.95 210.48 192.66 202.32" fill="#69f246"/><polygon points="158.94 236.03 157.39 235.13 157.39 233.33 158.94 234.23 158.94 236.03" fill="#348f37"/><polygon points="192.66 200.52 192.66 202.32 187.95 210.48 183.95 212.79 177.46 224.04 173.6 226.26 171.36 224.99 167.83 227.03 165.05 225.45 158.94 236.03 158.94 234.23 165.05 223.64 168.28 225.49 171.82 223.45 174.06 224.72 177 223.03 183.49 211.78 187.49 209.47 192.66 200.52" fill="#3a9e3d"/><polygon points="158.94 234.23 157.39 233.33 163.5 222.74 165.05 223.64 158.94 234.23" fill="#3c542b"/><polygon points="165.05 223.64 163.5 222.74 166.73 224.59 168.28 225.49 165.05 223.64" fill="#384f28"/><polygon points="158.94 234.23 157.39 233.33 157.39 233.24 158.94 234.14 158.94 234.23" fill="#3a9e3d"/><polygon points="165.05 223.55 163.5 222.65 166.76 224.51 168.31 225.41 165.05 223.55" fill="#384f28"/><polygon points="158.94 234.14 157.39 233.24 163.5 222.65 165.05 223.55 158.94 234.14" fill="#4fcf53"/><polygon points="192.66 200.42 192.66 200.52 187.49 209.47 183.49 211.78 177 223.03 174.06 224.72 171.82 223.45 168.28 225.49 165.05 223.64 158.94 234.23 158.94 234.14 165.05 223.55 168.31 225.41 171.84 223.37 174.08 224.64 176.97 222.97 183.47 211.73 187.46 209.42 192.66 200.42" fill="#6d984e"/></g><g style="isolation:isolate"><polygon points="119.94 264.02 119.17 263.57 119.16 261.45 119.94 261.9 119.94 264.02" fill="#2e7d30"/><polygon points="119.48 262.16 118.71 261.71 118.71 261.14 119.48 261.59 119.48 262.16" fill="#2e7d30"/><polygon points="119.48 261.59 118.71 261.14 119.77 260.52 120.55 260.97 119.48 261.59" fill="#2e7d30"/><polygon points="120.55 260.97 120.56 263.67 119.94 264.02 119.94 261.9 119.48 262.16 119.48 261.59 120.55 260.97" fill="#46be49"/></g><g style="isolation:isolate"><polygon points="118.13 264.67 117.36 264.22 117.36 263.58 118.13 264.03 118.13 264.67" fill="#2e7d30"/><polygon points="118.51 263.37 117.73 262.92 118.29 262.6 119.07 263.05 118.51 263.37" fill="#2e7d30"/><polygon points="117.57 264.35 116.8 263.9 116.8 263.46 117.57 263.91 117.57 264.35" fill="#2e7d30"/><polygon points="117.57 263.91 116.8 263.46 117.36 263.14 118.13 263.59 117.57 263.91" fill="#2e7d30"/><polygon points="118.13 263.59 117.36 263.14 117.35 262.49 118.13 262.94 118.13 263.59" fill="#2e7d30"/><polygon points="118.13 262.94 117.35 262.49 117.73 262.28 118.51 262.73 118.13 262.94" fill="#2e7d30"/><polygon points="118.51 262.73 118.51 263.37 119.07 263.05 119.07 263.49 118.51 263.81 118.51 264.45 118.13 264.67 118.13 264.03 117.57 264.35 117.57 263.91 118.13 263.59 118.13 262.94 118.51 262.73" fill="#46be49"/></g><g style="isolation:isolate"><g style="isolation:isolate"><g clip-path="url(#a69114f3-f54a-4b66-bad2-8e1e6a1e5434)"><path d="M128.71,258.52l-.77-.45s.1,0,.17,0l.78.45a.17.17,0,0,1-.18,0Z" fill="#2e7d30"/></g></g><g style="isolation:isolate"><g clip-path="url(#f474ea71-cc59-4f3a-9c12-4dca292281df)"><path d="M128.89,258.5l-.78-.45a.67.67,0,0,0,.28-.61c0-.16,0-.26-.1-.3l.77.45c.07,0,.1.14.1.3a.66.66,0,0,1-.27.61Z" fill="#2e7d30"/></g></g><g style="isolation:isolate"><g clip-path="url(#a6e9910a-449d-4f5a-bd02-51dcb3f9c8d5)"><path d="M128.88,257.24l-.77-.45a.5.5,0,0,1,.47-.07l.77.45a.5.5,0,0,0-.47.07Z" fill="#2e7d30"/></g></g><g style="isolation:isolate"><g clip-path="url(#b3d10a68-c923-4b2a-aeb5-21cf67cce918)"><path d="M128.42,258.94l-.77-.45c-.12-.07-.19-.24-.19-.51a1.34,1.34,0,0,1,.65-1.19l.77.45a1.36,1.36,0,0,0-.65,1.19c0,.27.07.44.19.51Z" fill="#2e7d30"/></g></g><path d="M128.88,257.24c.41-.23.66-.07.66.43a1.37,1.37,0,0,1-.65,1.2c-.4.24-.66.07-.66-.44A1.36,1.36,0,0,1,128.88,257.24Zm0,1.26a.66.66,0,0,0,.27-.61c0-.27-.1-.38-.28-.28a.68.68,0,0,0-.27.6c0,.28.1.39.28.29Z" fill="#46be49"/><polygon points="128.47 256.4 129.03 256.07 127.36 259.74 126.8 260.06 128.47 256.4" fill="#46be49"/><polygon points="128.47 256.4 127.69 255.95 128.25 255.62 129.03 256.07 128.47 256.4" fill="#2e7d30"/><polygon points="126.8 260.06 126.03 259.61 127.69 255.95 128.47 256.4 126.8 260.06" fill="#2e7d30"/><g style="isolation:isolate"><g clip-path="url(#b95829e7-4028-4647-b741-6341d0438ac8)"><path d="M126.78,258.54l-.77-.45s.1,0,.18,0a.69.69,0,0,0,.27-.61c0-.16,0-.26-.1-.3l.78.45c.06,0,.1.14.1.3a.69.69,0,0,1-.28.61.17.17,0,0,1-.18,0Z" fill="#2e7d30"/></g></g><g style="isolation:isolate"><g clip-path="url(#ad7d7a75-e850-4182-b2c2-b62bc846157e)"><path d="M126.5,259l-.78-.45c-.12-.07-.19-.24-.19-.51a1.36,1.36,0,0,1,.65-1.19.5.5,0,0,1,.47-.07l.77.45a.48.48,0,0,0-.46.07,1.37,1.37,0,0,0-.66,1.19c0,.27.07.44.2.51Z" fill="#2e7d30"/></g></g><path d="M127.62,257.7a1.37,1.37,0,0,1-.66,1.19c-.4.24-.66.07-.66-.44a1.37,1.37,0,0,1,.66-1.19C127.36,257,127.61,257.2,127.62,257.7Zm-.94.54c0,.27.11.38.28.28a.69.69,0,0,0,.28-.61c0-.27-.11-.38-.28-.28a.67.67,0,0,0-.28.61Z" fill="#46be49"/></g><g style="isolation:isolate"><polygon points="125.85 259.49 125.08 259.04 125.38 258.87 126.15 259.31 125.85 259.49" fill="#2e7d30"/><polygon points="125.29 260.93 124.52 260.48 124.52 259.9 125.29 260.35 125.29 260.93" fill="#2e7d30"/><polygon points="124.85 260.07 124.08 259.62 124.52 259.36 125.29 259.81 124.85 260.07" fill="#2e7d30"/><polygon points="125.29 259.24 124.51 258.79 125.08 258.47 125.85 258.92 125.29 259.24" fill="#2e7d30"/><polygon points="125.29 259.81 124.52 259.36 124.51 258.79 125.29 259.24 125.29 259.81" fill="#2e7d30"/><polygon points="124.23 260.96 123.45 260.51 123.45 260.04 124.23 260.49 124.23 260.96" fill="#2e7d30"/><polygon points="125.5 258.11 124.85 260.07 125.29 259.81 125.29 259.24 125.85 258.92 125.85 259.49 126.15 259.31 126.16 259.85 125.85 260.02 125.86 260.61 125.29 260.93 125.29 260.35 124.23 260.96 124.23 260.49 124.92 258.44 125.5 258.11" fill="#46be49"/><polygon points="124.23 260.49 123.45 260.04 124.14 257.99 124.92 258.44 124.23 260.49" fill="#2e7d30"/><polygon points="124.92 258.44 124.14 257.99 124.73 257.65 125.5 258.11 124.92 258.44" fill="#2e7d30"/></g><g style="isolation:isolate"><g style="isolation:isolate"><g clip-path="url(#fac3d08f-0fd9-405b-9616-666bf2763293)"><path d="M122.39,261.78l-.78-.45a.59.59,0,0,0,.6,0,.66.66,0,0,0,.37-.56.21.21,0,0,0-.07-.17l.77.45a.18.18,0,0,1,.07.17.66.66,0,0,1-.37.56.57.57,0,0,1-.59,0Z" fill="#2e7d30"/></g></g><polygon points="122.13 262.45 121.35 262 121.59 261.32 122.37 261.77 122.13 262.45" fill="#2e7d30"/><g style="isolation:isolate"><g clip-path="url(#bf4b6666-614b-47ef-bfda-137f029b2d30)"><path d="M122.89,260.6l-.78-.45a2.53,2.53,0,0,1,.22-.13c.31-.18.56-.22.72-.12l.78.45c-.16-.1-.41-.06-.73.12l-.21.13Z" fill="#2e7d30"/></g></g><polygon points="122.33 261.48 121.55 261.03 121.55 259.49 122.32 259.94 122.33 261.48" fill="#2e7d30"/><polygon points="122.32 259.94 121.55 259.49 123.13 258.58 123.9 259.03 122.32 259.94" fill="#2e7d30"/><path d="M123.9,259v.57l-1,.59v.41l.21-.13c.55-.32.91-.19.91.29a1.83,1.83,0,0,1-1,1.5,1.39,1.39,0,0,1-.93.19l.24-.68a.58.58,0,0,0,.61,0,.66.66,0,0,0,.37-.56c0-.2-.13-.24-.37-.1l-.65.39v-1.54Z" fill="#46be49"/></g><g style="isolation:isolate"><g style="isolation:isolate"><g clip-path="url(#f3739390-6616-4f4c-833c-f84df7a269a9)"><path d="M121.65,262.4l-.77-.45a.21.21,0,0,1,.21,0l.77.45s-.12,0-.21,0Z" fill="#2e7d30"/></g></g><g style="isolation:isolate"><g clip-path="url(#ffe27c9f-f1ac-4ac6-a7cb-385ab0b57b79)"><path d="M121.45,263.09l-.77-.45a.22.22,0,0,1-.08-.2.58.58,0,0,1,.28-.49l.77.45a.6.6,0,0,0-.28.49.22.22,0,0,0,.08.2Z" fill="#2e7d30"/></g></g><path d="M121.65,262.4c.17-.1.29,0,.29.16a.6.6,0,0,1-.28.5c-.17.1-.29,0-.29-.17A.6.6,0,0,1,121.65,262.4Z" fill="#46be49"/></g><g style="isolation:isolate"><polygon points="150.75 224.98 149.98 224.53 152.18 219.72 152.95 220.17 150.75 224.98" fill="#3a9e3d"/><polygon points="152.95 220.17 155.17 222.43 150.75 224.98 152.95 220.17" fill="#46be49"/></g><g style="isolation:isolate"><path d="M192.25,321.72l-3.5-2c-2-1.18-3.28-3.68-3.29-7.23l3.5,2C189,318.05,190.22,320.54,192.25,321.72Z" fill="#bfbdff"/><path d="M267.14,116l3.5,2c-2.05-1.19-4.89-1-8,.78l-3.5-2C262.26,114.92,265.09,114.76,267.14,116Z" fill="#e0dfff"/><polygon points="188.96 314.49 185.46 312.46 185.26 172.35 188.76 174.38 188.96 314.49" fill="#bfbdff"/><polygon points="199.99 154.92 196.49 152.89 259.12 116.73 262.62 118.76 199.99 154.92" fill="#e0dfff"/><path d="M188.76,174.38l-3.5-2c0-7.16,5-15.86,11.23-19.46l3.5,2C193.76,158.52,188.74,167.23,188.76,174.38Z" fill="url(#a33e1c28-c40b-414a-b143-a8a7873f6d26)"/><path d="M262.62,118.76c6.22-3.59,11.28-.71,11.31,6.45l.2,140.11c0,7.15-5,15.86-11.23,19.45l-62.64,36.17c-6.22,3.59-11.28.7-11.3-6.45l-.2-140.11c0-7.15,5-15.86,11.23-19.46Z" fill="url(#a0dddb27-d4a6-4143-88b0-9cf246becd41)"/><g style="mix-blend-mode:multiply"><path d="M256.61,135.87c2.64-1.52,4.78-.3,4.79,2.74l.06,19.48a10.54,10.54,0,0,1-4.77,8.25l-16.95,9.79c-2.64,1.52-4.79.3-4.8-2.74l-.05-19.48a10.5,10.5,0,0,1,4.76-8.25Z" fill="#9795cc"/><path d="M267.28,172.46c6.22-3.6,11.28-.71,11.3,6.44l.21,71.46c0,7.16-5,15.87-11.24,19.46L204.92,306c-6.22,3.59-11.28.71-11.3-6.44l-.21-71.47c0-7.15,5-15.86,11.24-19.45Z" fill="#9795cc"/><path d="M219,157.54c2.64-1.53,4.79-.3,4.8,2.73l0,19.48a10.47,10.47,0,0,1-4.76,8.25l-17,9.79c-2.64,1.53-4.78.3-4.79-2.73l-.06-19.48a10.5,10.5,0,0,1,4.77-8.25Z" fill="#9795cc"/></g></g><g style="isolation:isolate"><path d="M203.64,310.65l-3.5-2c-2-1.17-3.27-3.67-3.28-7.23l3.49,2C200.36,307,201.62,309.48,203.64,310.65Z" fill="#bfbdff"/><path d="M278.54,173.53l3.49,2c-2-1.19-4.88-1-8,.78l-3.49-2C273.65,172.5,276.49,172.34,278.54,173.53Z" fill="#e0dfff"/><polygon points="200.35 303.43 196.86 301.39 196.65 229.93 200.15 231.96 200.35 303.43" fill="#bfbdff"/><polygon points="211.38 212.5 207.89 210.47 270.52 174.31 274.01 176.34 211.38 212.5" fill="#e0dfff"/><path d="M274,176.34c6.23-3.59,11.29-.7,11.31,6.45l.2,71.46c0,7.16-5,15.87-11.23,19.46l-62.63,36.16c-6.22,3.59-11.29.71-11.31-6.44l-.2-71.47c0-7.15,5-15.86,11.23-19.45Z" fill="#fff"/><path d="M200.15,232l-3.5-2c0-7.15,5-15.86,11.24-19.46l3.49,2C205.16,216.1,200.13,224.81,200.15,232Z" fill="url(#a6bc29c7-c6a4-4099-8a20-7dd73b78f8db)"/></g><polygon points="237.57 221.83 237.71 278.28 223.03 286.75 222.9 230.3 237.57 221.83" fill="#e0dfff"/><polygon points="218.39 246.9 218.49 289.38 203.81 297.85 203.72 255.37 218.39 246.9" fill="#e0dfff"/><polygon points="276.03 205.5 276.15 256.09 261.47 264.56 261.36 213.98 276.03 205.5" fill="#e0dfff"/><polygon points="256.77 201.07 256.93 267.18 242.25 275.66 242.09 209.54 256.77 201.07" fill="#e0dfff"/><g style="isolation:isolate"><polygon points="229.23 290.58 225.57 288.45 225.44 232 229.1 234.13 229.23 290.58" fill="#3161c2"/><polygon points="229.1 234.13 225.44 232 240.11 223.52 243.78 225.65 229.1 234.13" fill="#366bd6"/><polygon points="243.78 225.65 243.91 282.1 229.23 290.58 229.1 234.13 243.78 225.65" fill="#5788e6"/></g><g style="isolation:isolate"><polygon points="210.01 301.68 206.35 299.55 206.25 257.07 209.91 259.2 210.01 301.68" fill="#3161c2"/><polygon points="209.91 259.2 206.25 257.07 220.93 248.6 224.59 250.72 209.91 259.2" fill="#366bd6"/><polygon points="224.59 250.72 224.69 293.2 210.01 301.68 209.91 259.2 224.59 250.72" fill="#5788e6"/></g><g style="isolation:isolate"><polygon points="267.68 268.38 264.01 266.26 263.9 215.67 267.56 217.8 267.68 268.38" fill="#3161c2"/><polygon points="267.56 217.8 263.9 215.67 278.57 207.2 282.23 209.33 267.56 217.8" fill="#366bd6"/><polygon points="282.23 209.33 282.35 259.91 267.68 268.38 267.56 217.8 282.23 209.33" fill="#5788e6"/></g><g style="isolation:isolate"><polygon points="248.45 279.48 244.79 277.35 244.63 211.24 248.29 213.37 248.45 279.48" fill="#3161c2"/><polygon points="248.29 213.37 244.63 211.24 259.31 202.77 262.97 204.9 248.29 213.37" fill="#366bd6"/><polygon points="262.97 204.9 263.13 271.01 248.45 279.48 248.29 213.37 262.97 204.9" fill="#5788e6"/></g><g style="isolation:isolate"><path d="M276.46,370.34l-3.5-2c-2-1.18-3.28-3.68-3.29-7.23l3.5,2C273.18,366.66,274.43,369.16,276.46,370.34Z" fill="#a2ffd1"/><path d="M351.35,164.56l3.5,2c-2.05-1.19-4.89-1-8,.78l-3.5-2C346.46,163.54,349.3,163.37,351.35,164.56Z" fill="#a2ffd1"/><polygon points="273.17 363.11 269.67 361.08 269.47 220.96 272.97 223 273.17 363.11" fill="#a2ffd1"/><polygon points="284.2 203.54 280.7 201.51 343.33 165.35 346.83 167.38 284.2 203.54" fill="#a2ffd1"/><path d="M273,223l-3.5-2c0-7.15,5-15.86,11.23-19.45l3.5,2C278,207.14,273,215.85,273,223Z" fill="#a2ffd1"/><path d="M346.83,167.38c6.22-3.59,11.28-.71,11.3,6.44l.21,140.12c0,7.15-5,15.86-11.23,19.45l-62.64,36.16c-6.22,3.6-11.28.71-11.3-6.44L273,223c0-7.15,5-15.86,11.23-19.46Z" fill="#8eff8b"/><g style="mix-blend-mode:multiply"><path d="M349.17,301.87c1.94-1.11,3.52-.21,3.53,2l0,10.29a7.72,7.72,0,0,1-3.51,6.07l-26,15c-1.93,1.12-3.52.22-3.53-2l0-10.28a7.8,7.8,0,0,1,3.51-6.08Z" fill="#a2ffd1"/></g><g style="mix-blend-mode:multiply"><path d="M308.59,325.3c1.94-1.11,3.52-.21,3.53,2l0,10.29a7.72,7.72,0,0,1-3.51,6.07l-26,15c-1.93,1.12-3.52.21-3.53-2l0-10.29a7.76,7.76,0,0,1,3.5-6.07Z" fill="#a2ffd1"/></g><g style="mix-blend-mode:multiply"><path d="M351.49,185.74c6.22-3.6,11.28-.71,11.3,6.44l.21,71.47c0,7.15-5,15.86-11.24,19.45l-62.63,36.16c-6.22,3.59-11.28.71-11.3-6.44l-.21-71.47c0-7.15,5-15.86,11.24-19.45Z" fill="#a2ffd1"/></g></g><g style="isolation:isolate"><path d="M287.85,323.94l-3.5-2c-2-1.17-3.27-3.67-3.28-7.22l3.49,2C284.57,320.26,285.83,322.76,287.85,323.94Z" fill="#bfbdff"/><path d="M362.75,186.81l3.49,2c-2.05-1.19-4.88-1-8,.79l-3.49-2C357.86,185.79,360.7,185.62,362.75,186.81Z" fill="#e0dfff"/><polygon points="284.56 316.71 281.07 314.68 280.86 243.21 284.36 245.24 284.56 316.71" fill="#bfbdff"/><polygon points="295.59 225.79 292.1 223.75 354.73 187.59 358.22 189.63 295.59 225.79" fill="#e0dfff"/><path d="M284.36,245.24l-3.5-2c0-7.15,5-15.86,11.24-19.46l3.49,2C289.37,229.38,284.34,238.09,284.36,245.24Z" fill="url(#e0ff6bd9-6a12-419b-aff2-973ddea25664)"/><path d="M358.22,189.63c6.23-3.6,11.29-.71,11.31,6.44l.2,71.46c0,7.16-5,15.87-11.23,19.46l-62.63,36.16c-6.23,3.59-11.29.71-11.31-6.44l-.2-71.47c0-7.15,5-15.86,11.23-19.45Z" fill="#45ff6a"/></g><polygon points="340.98 226.91 339.04 228.03 339.02 222.16 337.55 223.01 337.57 228.88 335.63 230 335.68 248.72 337.62 247.6 337.66 262.02 339.13 261.18 339.09 246.76 341.03 245.63 340.98 226.91" fill="#e0dfff"/><polygon points="331.47 261.86 331.43 248.42 329.49 249.54 329.53 262.99 331.47 261.86" fill="#e0dfff"/><polygon points="328.01 246.37 328.02 250.38 326.08 251.51 326.12 264.95 328.06 263.83 328.08 271.95 329.55 271.11 329.53 262.99 329.49 249.54 329.48 245.52 328.01 246.37" fill="#e0dfff"/><polygon points="360.24 243.93 360.18 225.2 358.24 226.32 358.21 216.04 356.75 216.88 356.77 227.17 354.83 228.29 354.89 247.01 356.83 245.89 356.84 250.66 358.31 249.82 358.3 245.05 360.24 243.93" fill="#e0dfff"/><polygon points="348.58 207.88 348.67 238.47 350.61 237.34 350.53 206.76 348.58 207.88" fill="#e0dfff"/><polygon points="348.58 207.88 348.57 202.3 347.1 203.14 347.12 208.72 345.17 209.85 345.26 240.43 347.2 239.31 347.23 249.62 348.7 248.77 348.67 238.47 348.58 207.88" fill="#e0dfff"/><polygon points="321.87 261.72 319.92 262.84 319.91 259.19 318.45 260.03 318.46 263.69 316.51 264.81 316.56 279.85 318.5 278.73 318.52 284.8 319.98 283.95 319.97 277.88 321.91 276.76 321.87 261.72" fill="#e0dfff"/><polygon points="312.28 267.26 310.33 268.38 310.31 259.81 308.84 260.66 308.87 269.23 306.93 270.35 307 297.95 308.94 296.83 308.96 302.64 310.43 301.8 310.41 295.98 312.35 294.86 312.28 267.26" fill="#e0dfff"/><polygon points="302.74 290.43 302.68 270.2 300.74 271.32 300.8 291.55 302.74 290.43" fill="#e0dfff"/><polygon points="299.24 262.5 299.27 272.16 297.33 273.29 297.39 293.52 299.33 292.4 299.34 297.23 300.81 296.38 300.8 291.55 300.74 271.32 300.71 261.65 299.24 262.5" fill="#e0dfff"/><polygon points="293.07 267.88 291.13 269 291.17 284.7 293.11 283.58 293.07 267.88" fill="#e0dfff"/><polygon points="291.11 263.63 289.64 264.48 289.66 269.85 287.72 270.97 287.76 286.67 289.7 285.55 289.73 294.03 291.19 293.19 291.17 284.7 291.13 269 291.11 263.63" fill="#e0dfff"/><polygon points="345.58 231.38 341.14 228.8 343.08 227.68 347.53 230.26 345.58 231.38" fill="#46be49"/><polygon points="344.21 265.37 339.77 262.79 339.73 248.37 344.17 250.95 344.21 265.37" fill="#3a9e3d"/><polygon points="344.12 232.23 339.67 229.65 339.66 223.77 344.1 226.35 344.12 232.23" fill="#3a9e3d"/><polygon points="342.17 233.35 337.73 230.77 339.67 229.65 344.12 232.23 342.17 233.35" fill="#46be49"/><polygon points="342.23 252.07 337.78 249.49 337.73 230.77 342.17 233.35 342.23 252.07" fill="#3a9e3d"/><polygon points="344.1 226.35 339.66 223.77 341.12 222.93 345.57 225.51 344.1 226.35" fill="#46be49"/><polygon points="347.53 230.26 345.58 231.38 345.64 250.11 347.58 248.98 347.53 230.26" fill="#61e041"/><polygon points="345.57 225.51 344.1 226.35 344.12 232.23 342.17 233.35 342.23 252.07 344.17 250.95 344.21 265.37 345.68 264.52 345.64 250.11 345.58 231.38 345.57 225.51" fill="#61e041"/><polygon points="336.04 252.89 331.6 250.3 333.54 249.18 337.98 251.77 336.04 252.89" fill="#46be49"/><polygon points="334.63 275.3 330.19 272.72 330.17 264.6 334.61 267.18 334.63 275.3" fill="#3a9e3d"/><polygon points="334.57 253.73 330.13 251.15 330.12 247.14 334.56 249.72 334.57 253.73" fill="#3a9e3d"/><polygon points="332.63 254.85 328.19 252.27 330.13 251.15 334.57 253.73 332.63 254.85" fill="#46be49"/><polygon points="332.67 268.3 328.22 265.72 328.19 252.27 332.63 254.85 332.67 268.3" fill="#3a9e3d"/><polygon points="334.56 249.72 330.12 247.14 331.58 246.29 336.03 248.87 334.56 249.72" fill="#46be49"/><polygon points="338.02 265.21 337.98 251.77 336.04 252.89 336.08 266.33 338.02 265.21" fill="#61e041"/><polygon points="334.56 249.72 334.57 253.73 332.63 254.85 332.67 268.3 334.61 267.18 334.63 275.3 336.1 274.45 336.08 266.33 336.04 252.89 336.03 248.87 334.56 249.72" fill="#61e041"/><polygon points="364.79 229.67 360.35 227.09 362.29 225.97 366.73 228.55 364.79 229.67"/><polygon points="363.39 254.01 358.94 251.43 358.93 246.66 363.38 249.24 363.39 254.01"/><polygon points="363.32 230.52 358.88 227.93 358.85 217.65 363.29 220.23 363.32 230.52"/><polygon points="361.38 231.64 356.94 229.05 358.88 227.93 363.32 230.52 361.38 231.64"/><polygon points="361.43 250.36 356.99 247.78 356.94 229.05 361.38 231.64 361.43 250.36"/><polygon points="363.29 220.23 358.85 217.65 360.32 216.8 364.76 219.39 363.29 220.23"/><g style="isolation:isolate"><polygon points="366.73 228.55 364.79 229.67 364.84 248.4 366.78 247.28 366.73 228.55"/><polygon points="364.79 229.67 364.76 219.39 363.29 220.23 363.32 230.52 361.38 231.64 361.43 250.36 363.38 249.24 363.38 249.24 363.39 254.01 364.86 253.17 364.84 248.4 364.79 229.67"/></g><polygon points="355.13 211.23 350.69 208.65 352.63 207.52 357.07 210.1 355.13 211.23" fill="#46be49"/><polygon points="353.78 252.96 349.34 250.38 349.31 240.08 353.75 242.66 353.78 252.96" fill="#3a9e3d"/><polygon points="353.67 212.07 349.22 209.49 349.2 203.91 353.65 206.49 353.67 212.07" fill="#3a9e3d"/><polygon points="351.72 213.2 347.28 210.61 349.22 209.49 353.67 212.07 351.72 213.2" fill="#46be49"/><polygon points="351.81 243.78 347.36 241.2 347.28 210.61 351.72 213.2 351.81 243.78" fill="#3a9e3d"/><polygon points="353.65 206.49 349.2 203.91 350.67 203.06 355.12 205.65 353.65 206.49" fill="#46be49"/><g style="isolation:isolate"><polygon points="357.16 240.69 357.07 210.1 355.13 211.23 355.22 241.81 357.16 240.69" fill="#61e041"/><polygon points="355.13 211.23 355.12 205.65 353.65 206.49 353.67 212.07 351.72 213.2 351.81 243.78 353.75 242.66 353.78 252.96 355.25 252.12 355.22 241.81 355.13 211.23" fill="#61e041"/></g><polygon points="326.47 266.19 322.03 263.61 323.97 262.49 328.41 265.07 326.47 266.19"/><polygon points="325.06 288.15 320.62 285.57 320.6 279.49 325.05 282.08 325.06 288.15"/><polygon points="323.06 268.16 318.62 265.58 320.56 264.46 325 267.04 323.06 268.16"/><polygon points="323.11 283.2 318.66 280.62 318.62 265.58 323.06 268.16 323.11 283.2"/><polygon points="325 267.04 320.56 264.46 320.55 260.8 324.99 263.38 325 267.04"/><polygon points="324.99 263.38 320.55 260.8 322.02 259.95 326.46 262.54 324.99 263.38"/><polygon points="328.41 265.07 326.47 266.19 326.46 262.54 324.99 263.38 325 267.04 323.06 268.16 323.11 283.2 325.05 282.08 325.06 288.15 326.53 287.3 326.51 281.23 328.46 280.11 328.41 265.07"/><polygon points="316.88 271.73 312.44 269.14 314.38 268.02 318.82 270.61 316.88 271.73"/><polygon points="315.51 305.99 311.07 303.41 311.05 297.6 315.49 300.18 315.51 305.99"/><polygon points="315.42 272.57 310.97 269.99 310.95 261.43 315.39 264.01 315.42 272.57"/><polygon points="313.47 273.7 309.03 271.11 310.97 269.99 315.42 272.57 313.47 273.7"/><polygon points="313.55 301.3 309.11 298.72 309.03 271.11 313.47 273.7 313.55 301.3"/><polygon points="315.39 264.01 310.95 261.43 312.42 260.58 316.86 263.16 315.39 264.01"/><polygon points="318.82 270.61 316.88 271.73 316.86 263.16 315.39 264.01 315.42 272.57 313.47 273.69 313.55 301.3 315.49 300.18 315.51 305.99 316.98 305.14 316.96 299.33 318.9 298.21 318.82 270.61"/><polygon points="307.29 274.67 302.84 272.08 304.78 270.96 309.23 273.55 307.29 274.67"/><polygon points="305.89 300.58 301.45 298 301.43 293.17 305.88 295.75 305.89 300.58"/><polygon points="305.82 275.51 301.38 272.93 301.35 263.27 305.79 265.85 305.82 275.51"/><polygon points="303.88 276.63 299.43 274.05 301.38 272.93 305.82 275.51 303.88 276.63"/><polygon points="303.94 296.87 299.49 294.29 299.43 274.05 303.88 276.63 303.94 296.87"/><polygon points="305.79 265.85 301.35 263.27 302.82 262.42 307.26 265 305.79 265.85"/><polygon points="307.29 274.67 307.34 294.9 309.29 293.78 309.23 273.55 307.29 274.67"/><polygon points="307.29 274.67 307.26 265 305.79 265.85 305.82 275.51 305.82 275.51 303.88 276.63 303.94 296.87 305.88 295.75 305.88 295.75 305.89 300.58 307.36 299.73 307.34 294.9 307.29 274.67"/><polygon points="297.67 272.35 293.23 269.77 295.17 268.64 299.62 271.23 297.67 272.35" fill="#46be49"/><polygon points="296.28 297.38 291.83 294.8 291.81 286.32 296.25 288.9 296.28 297.38" fill="#3a9e3d"/><polygon points="296.21 273.2 291.76 270.61 291.75 265.24 296.19 267.82 296.21 273.2" fill="#3a9e3d"/><polygon points="294.27 274.32 289.82 271.73 291.76 270.61 296.21 273.2 294.27 274.32" fill="#46be49"/><polygon points="294.31 290.02 289.87 287.44 289.82 271.73 294.27 274.32 294.31 290.02" fill="#3a9e3d"/><polygon points="296.19 267.82 291.75 265.24 293.21 264.4 297.66 266.98 296.19 267.82" fill="#46be49"/><polygon points="299.62 271.23 297.67 272.35 297.72 288.05 299.66 286.93 299.62 271.23" fill="#61e041"/><polygon points="297.66 266.98 296.19 267.82 296.21 273.2 294.27 274.32 294.31 290.02 296.25 288.9 296.28 297.38 297.74 296.54 297.72 288.05 297.67 272.35 297.66 266.98" fill="#61e041"/><g style="isolation:isolate"><path d="M357,304.7a2.44,2.44,0,0,0-2.5.24l-26,15A7.75,7.75,0,0,0,325,326l0,10.29a2.46,2.46,0,0,0,1,2.25l3.46,2a2.45,2.45,0,0,1-1-2.26l0-10.28A7.71,7.71,0,0,1,332,322l26-15a2.47,2.47,0,0,1,2.5-.25Z" fill="#112d1a"/><path d="M358,307c1.93-1.12,3.52-.22,3.52,2l0,10.28a7.76,7.76,0,0,1-3.5,6.08l-26,15c-1.94,1.11-3.53.21-3.53-2l0-10.28A7.71,7.71,0,0,1,332,322Z" fill="#f20028"/></g><g style="isolation:isolate"><path d="M316.42,328.13a2.44,2.44,0,0,0-2.5.24l-26,15a7.74,7.74,0,0,0-3.51,6.07l0,10.28a2.49,2.49,0,0,0,1,2.26l3.46,2a2.44,2.44,0,0,1-1-2.25l0-10.28a7.74,7.74,0,0,1,3.51-6.08l26-15a2.49,2.49,0,0,1,2.5-.24Z" fill="#3a9e3d"/><path d="M317.38,330.37c1.93-1.11,3.52-.21,3.52,2l0,10.28a7.77,7.77,0,0,1-3.5,6.08l-26,15c-1.94,1.11-3.52.21-3.53-2l0-10.28a7.74,7.74,0,0,1,3.51-6.08Z" fill="#61e041"/><path d="M358,307c1.93-1.12,3.52-.22,3.52,2l0,10.28a7.76,7.76,0,0,1-3.5,6.08l-26,15c-1.94,1.11-3.53.21-3.53-2l0-10.28A7.71,7.71,0,0,1,332,322Z"/><path d="M317.38,330.37c1.93-1.11,3.52-.21,3.52,2l0,10.28a7.77,7.77,0,0,1-3.5,6.08l-26,15c-1.94,1.11-3.52.21-3.53-2l0-10.28a7.74,7.74,0,0,1,3.51-6.08Z" fill="#61e041"/></g><g style="isolation:isolate"><path d="M262.68,137.07l4.06,2.36a3.37,3.37,0,0,0-3.4.33l-4.06-2.36A3.37,3.37,0,0,1,262.68,137.07Z" fill="#f47a00"/><path d="M243.07,180.35,239,178a3.36,3.36,0,0,1-1.39-3.07l4.06,2.36A3.36,3.36,0,0,0,243.07,180.35Z" fill="#f47a00"/><polygon points="241.68 177.28 237.62 174.92 237.56 155.44 241.63 157.8 241.68 177.28" fill="#f47a00"/><polygon points="246.39 149.55 242.33 147.19 259.28 137.4 263.34 139.76 246.39 149.55" fill="#f47a00"/><path d="M241.63,157.8l-4.07-2.36a10.52,10.52,0,0,1,4.77-8.25l4.06,2.36A10.49,10.49,0,0,0,241.63,157.8Z" fill="#f47a00"/><path d="M263.34,139.76c2.64-1.52,4.79-.3,4.8,2.74l.05,19.48a10.5,10.5,0,0,1-4.76,8.25l-17,9.79c-2.64,1.52-4.79.3-4.8-2.74l-.05-19.48a10.49,10.49,0,0,1,4.76-8.25Z" fill="#ff9529"/><path d="M259.05,157.84a2.9,2.9,0,0,1,.43,1.7,7.29,7.29,0,0,1-1.26,4,12.76,12.76,0,0,1-3.55,3.51v2.6l-1.52.88V168a11.79,11.79,0,0,1-4.73,1.63v-3.34a9.34,9.34,0,0,0,2.31-.38,12.87,12.87,0,0,0,2.42-.89V161l-.74.1a4.69,4.69,0,0,1-3.11-.36,2.69,2.69,0,0,1-.91-2.35,6.8,6.8,0,0,1,1.24-3.75,12.74,12.74,0,0,1,3.49-3.45v-1.94l1.52-.87v1.89a11.87,11.87,0,0,1,4.57-1.48l-1,3.57a10.73,10.73,0,0,0-3.53,1v3.74a11.33,11.33,0,0,1,3.07-.12A2,2,0,0,1,259.05,157.84ZM254.66,164a3.14,3.14,0,0,0,1.5-2.36.65.65,0,0,0-.38-.68,2.76,2.76,0,0,0-1.13-.11V164Zm-1.53-6.66v-3a2.87,2.87,0,0,0-1.42,2.14c0,.38.11.62.34.73a2.22,2.22,0,0,0,1.09.11Z" fill="#f47a00"/><polygon points="256.7 172.55 254.31 171.16 254.3 168.61 256.69 170 256.7 172.55" fill="#cecdeb"/><path d="M258.19,166.06l-2.39-1.39a3.14,3.14,0,0,0,1.5-2.36.69.69,0,0,0-.3-.65l2.39,1.39a.68.68,0,0,1,.3.64,3.14,3.14,0,0,1-1.5,2.37Z" fill="#cecdeb"/><polygon points="256.68 167.02 254.29 165.63 254.28 161.7 256.67 163.09 256.68 167.02" fill="#cecdeb"/><path d="M258.17,159.24l-2.39-1.39a10.55,10.55,0,0,1,3.07-.12,2.66,2.66,0,0,1,.81.28l2.39,1.39a2.42,2.42,0,0,0-.81-.28,10.55,10.55,0,0,0-3.07.12Z" fill="#e0dfff"/><path d="M252,168.29l-2.39-1.39a9.75,9.75,0,0,0,2.32-.37,12.11,12.11,0,0,0,2.41-.9l2.39,1.39a12.35,12.35,0,0,1-2.41.9,9.83,9.83,0,0,1-2.32.37Z" fill="#e0dfff"/><polygon points="251.96 171.64 249.57 170.25 249.56 166.9 251.95 168.29 251.96 171.64" fill="#cecdeb"/><path d="M255.54,159.27l-2.39-1.39,0,0a2.36,2.36,0,0,0,1.09.11l2.39,1.39a2.34,2.34,0,0,1-1.09-.12Z" fill="#e0dfff"/><polygon points="256.66 159.4 254.27 158.01 254.26 155.03 256.65 156.42 256.66 159.4" fill="#cecdeb"/><path d="M258.15,152.35l-1.38-.8a11.87,11.87,0,0,1,4.57-1.48l1.39.81a11.66,11.66,0,0,0-4.58,1.47Z" fill="#e0dfff"/><polygon points="256.64 153.27 254.25 151.88 254.25 149.94 256.64 151.33 256.64 153.27" fill="#cecdeb"/><polygon points="256.64 151.33 254.25 149.94 255.76 149.07 258.15 150.46 256.64 151.33" fill="#e0dfff"/><path d="M262.58,159.88a2.84,2.84,0,0,1,.43,1.71,7.18,7.18,0,0,1-1.26,4,12.66,12.66,0,0,1-3.55,3.52v2.6l-1.51.87V170a12,12,0,0,1-4.73,1.64v-3.35a9.83,9.83,0,0,0,2.32-.37,12.35,12.35,0,0,0,2.41-.9v-3.93l-.74.1a4.58,4.58,0,0,1-3.1-.37,2.65,2.65,0,0,1-.92-2.34,6.83,6.83,0,0,1,1.24-3.75,12.91,12.91,0,0,1,3.49-3.46v-1.94l1.51-.87v1.89a11.66,11.66,0,0,1,4.58-1.47l-1,3.56a11.29,11.29,0,0,0-3.54,1.05v3.75a10.55,10.55,0,0,1,3.07-.12A2,2,0,0,1,262.58,159.88Zm-4.39,6.18a3.14,3.14,0,0,0,1.5-2.37.65.65,0,0,0-.38-.68,2.74,2.74,0,0,0-1.13-.11v3.16Zm-1.53-6.66v-3a2.85,2.85,0,0,0-1.42,2.14.73.73,0,0,0,.34.72,2.34,2.34,0,0,0,1.09.12Z" fill="#fff"/><path d="M253,162.9l-2.39-1.39-.12-.08a2.65,2.65,0,0,1-.92-2.34,6.83,6.83,0,0,1,1.24-3.75,13.05,13.05,0,0,1,3.49-3.46l2.39,1.39a12.91,12.91,0,0,0-3.49,3.46,6.83,6.83,0,0,0-1.24,3.75,2.65,2.65,0,0,0,.92,2.34l.12.08Z" fill="#e0dfff"/></g><g style="isolation:isolate"><path d="M205.5,202l-4.06-2.36a3.36,3.36,0,0,1-1.4-3.06L204.1,199A3.33,3.33,0,0,0,205.5,202Z" fill="#f47a00"/><path d="M225.11,158.73l4.06,2.36a3.38,3.38,0,0,0-3.4.34l-4.07-2.36A3.4,3.4,0,0,1,225.11,158.73Z" fill="#f47a00"/><polygon points="204.1 198.95 200.04 196.59 199.99 177.11 204.05 179.47 204.1 198.95" fill="#f47a00"/><polygon points="208.81 171.22 204.75 168.85 221.71 159.07 225.77 161.43 208.81 171.22" fill="#f47a00"/><path d="M204.05,179.47,200,177.11a10.47,10.47,0,0,1,4.76-8.25l4.06,2.36A10.47,10.47,0,0,0,204.05,179.47Z" fill="#f47a00"/><path d="M225.77,161.43c2.64-1.53,4.78-.3,4.79,2.73l.06,19.48a10.5,10.5,0,0,1-4.77,8.25l-16.95,9.79c-2.64,1.52-4.79.3-4.8-2.73l0-19.48a10.47,10.47,0,0,1,4.76-8.25Z" fill="#ff9529"/><path d="M216.85,171.35a7.77,7.77,0,0,1,3.85-1.19l-1.06,3.52a8.37,8.37,0,0,0-1.41.21,4.88,4.88,0,0,0-1.37.57,6.34,6.34,0,0,0-2.19,2.15,8,8,0,0,0-1.1,3.2l4.39-2.54v2.21l-4.56,2.63,0,.45v.59l0,.4,3.87-2.23v2.23l-3.68,2.13q.55,2.72,3.51,1a12.84,12.84,0,0,0,3-2.45v3.21a12.25,12.25,0,0,1-3.19,2.59c-1.78,1-3.25,1.31-4.4.87s-1.88-1.57-2.18-3.36l-1.5.86v-2.23l1.29-.74a4.94,4.94,0,0,1,0-.75l0-.68-1.27.73v-2.21l1.46-.83a14.38,14.38,0,0,1,2.15-6.05A12.87,12.87,0,0,1,216.85,171.35Z" fill="#f47a00"/><g style="isolation:isolate"><path d="M218.32,189l-2.24-1.3c.61.35,1.49.19,2.64-.47a12.84,12.84,0,0,0,3-2.45l2.24,1.3a12.84,12.84,0,0,1-3,2.45C219.81,189.19,218.93,189.35,218.32,189Z" fill="#e0dfff"/><polygon points="217.26 185.38 215.02 184.08 218.89 181.84 221.13 183.14 217.26 185.38" fill="#e0dfff"/><path d="M216,192.55l-2.24-1.3a4.21,4.21,0,0,1-1.78-3.17l2.24,1.3A4.19,4.19,0,0,0,216,192.55Z" fill="#cecdeb"/><polygon points="217.41 181.64 215.17 180.34 219.56 177.8 221.81 179.1 217.41 181.64" fill="#e0dfff"/><path d="M214,187.27l-2.24-1.3a4.77,4.77,0,0,1,0-.75l2.24,1.3A4.77,4.77,0,0,0,214,187.27Z" fill="#cecdeb"/><polygon points="212.69 190.25 210.45 188.95 210.45 186.72 212.69 188.02 212.69 190.25" fill="#cecdeb"/><polygon points="212.69 188.02 210.45 186.72 211.74 185.97 213.97 187.27 212.69 188.02" fill="#e0dfff"/><polygon points="213.93 186.52 211.69 185.22 211.71 184.54 213.95 185.85 213.93 186.52" fill="#cecdeb"/><path d="M220.7,173.17l-2.24-1.3a7.69,7.69,0,0,1,3.84-1.18l2.24,1.3A7.79,7.79,0,0,0,220.7,173.17Z" fill="#e0dfff"/><polygon points="212.68 184.37 210.44 183.07 211.89 182.23 214.13 183.53 212.68 184.37" fill="#e0dfff"/><polygon points="212.68 186.58 210.44 185.28 210.44 183.07 212.68 184.37 212.68 186.58" fill="#cecdeb"/><path d="M220.7,173.17a7.79,7.79,0,0,1,3.84-1.18l-1.06,3.52a8.4,8.4,0,0,0-1.41.2,5.56,5.56,0,0,0-1.37.57,6.43,6.43,0,0,0-2.19,2.15,8,8,0,0,0-1.1,3.21l4.39-2.54v2.21l-4.56,2.63,0,.45V185l0,.4,3.87-2.24v2.23l-3.68,2.13q.57,2.73,3.51,1a12.84,12.84,0,0,0,3-2.45v3.21a12,12,0,0,1-3.19,2.58q-2.67,1.55-4.4.87c-1.15-.44-1.88-1.56-2.18-3.36l-1.5.87V188l1.28-.75a4.77,4.77,0,0,1,0-.75l0-.67-1.27.73v-2.21l1.45-.84a14.38,14.38,0,0,1,2.15-6A12.75,12.75,0,0,1,220.7,173.17Z" fill="#fff"/><path d="M214.13,183.53l-2.24-1.3a14.43,14.43,0,0,1,2.15-6,12.81,12.81,0,0,1,4.42-4.31l2.24,1.3a12.75,12.75,0,0,0-4.42,4.32A14.38,14.38,0,0,0,214.13,183.53Z" fill="#e0dfff"/></g></g><line x1="268.19" y1="208.8" x2="284.58" y2="258.94" fill="none"/><circle cx="268.19" cy="208.8" r="43.96" fill="none"/><circle cx="268.19" cy="208.8" r="52.75" fill="none"/><polyline points="268.19 208.8 241.39 5.71 268.19 208.8 295 411.89 268.19 208.8 471.29 181.99 268.19 208.8 65.1 235.61 268.19 208.8 281.75 118.03 268.19 208.8 254.63 299.57 268.19 208.8 358.97 222.36 268.19 208.8 177.42 195.24 268.19 208.8 269.5 134.17 268.19 208.8 266.88 283.43 268.19 208.8 342.82 210.11 268.19 208.8 193.56 207.49 268.19 208.8 262.19 190.13 268.19 208.8 274.2 227.47 268.19 208.8 286.86 202.79 268.19 208.8 249.53 214.81 268.19 208.8 309.47 112.55 268.19 208.8 226.92 305.05 268.19 208.8 364.44 250.07 268.19 208.8 171.94 167.53 268.19 208.8 338.98 54.43 268.19 208.8 197.41 363.17 268.19 208.8 422.57 279.59 268.19 208.8 113.82 138.01 268.19 208.8 276.02 147.79 268.19 208.8 260.36 269.81 268.19 208.8 329.2 216.63 268.19 208.8 207.19 200.97 268.19 208.8 220.58 146.94 268.19 208.8 315.8 270.67 268.19 208.8 330.06 161.19 268.19 208.8 206.33 256.41 268.19 208.8 304.39 130.5 268.19 208.8 231.99 287.1 268.19 208.8 346.49 245 268.19 208.8 189.9 172.6 268.19 208.8 275.57 131.5 268.19 208.8 260.82 286.1 268.19 208.8 345.49 216.18 268.19 208.8 190.9 201.43 268.19 208.8 241.39 179.44 268.19 208.8 295 238.16 268.19 208.8 297.56 182 268.19 208.8 238.83 235.6 268.19 208.8 175.34 143.06 268.19 208.8 361.04 274.54 268.19 208.8 333.93 115.95 268.19 208.8 202.46 301.65 268.19 208.8 264.31 204.22 268.19 208.8 272.08 213.38 268.19 208.8 272.77 204.91 268.19 208.8 263.62 212.69 268.19 208.8 264.51 160.34 268.19 208.8 271.88 257.25 268.19 208.8 316.65 205.12 268.19 208.8 219.74 212.49 268.19 208.8 155.13 0.48 268.19 208.8 381.26 417.12 268.19 208.8 476.52 95.74 268.19 208.8 59.87 321.86" fill="none"/><circle cx="268.19" cy="208.8" r="105.5" opacity="0.15" fill="url(#bc6dc593-0f9c-4962-99f7-0ac4a6aef78a)" style="mix-blend-mode:screen"/><circle cx="268.19" cy="208.8" r="52.75" opacity="0.5" fill="url(#b99790c0-2e7c-4580-9cc3-e0feab90c353)" style="mix-blend-mode:screen"/><circle cx="268.19" cy="208.8" r="43.96" fill="url(#b91dca71-0b09-4d13-83c5-f3d887537e76)" style="mix-blend-mode:screen"/><polyline points="268.19 208.8 241.39 5.71 268.19 208.8 295 411.89 268.19 208.8 471.29 181.99 268.19 208.8 65.1 235.61 268.19 208.8 281.75 118.03 268.19 208.8 254.63 299.57 268.19 208.8 358.97 222.36 268.19 208.8 177.42 195.24 268.19 208.8 269.5 134.17 268.19 208.8 266.88 283.43 268.19 208.8 342.82 210.11 268.19 208.8 193.56 207.49 268.19 208.8 262.19 190.13 268.19 208.8 274.2 227.47 268.19 208.8 286.86 202.79 268.19 208.8 249.53 214.81 268.19 208.8 309.47 112.55 268.19 208.8 226.92 305.05 268.19 208.8 364.44 250.07 268.19 208.8 171.94 167.53 268.19 208.8 338.98 54.43 268.19 208.8 197.41 363.17 268.19 208.8 422.57 279.59 268.19 208.8 113.82 138.01 268.19 208.8 276.02 147.79 268.19 208.8 260.36 269.81 268.19 208.8 329.2 216.63 268.19 208.8 207.19 200.97 268.19 208.8 220.58 146.94 268.19 208.8 315.8 270.67 268.19 208.8 330.06 161.19 268.19 208.8 206.33 256.41 268.19 208.8 304.39 130.5 268.19 208.8 231.99 287.1 268.19 208.8 346.49 245 268.19 208.8 189.9 172.6 268.19 208.8 275.57 131.5 268.19 208.8 260.82 286.1 268.19 208.8 345.49 216.18 268.19 208.8 190.9 201.43 268.19 208.8 241.39 179.44 268.19 208.8 295 238.16 268.19 208.8 297.56 182 268.19 208.8 238.83 235.6 268.19 208.8 175.34 143.06 268.19 208.8 361.04 274.54 268.19 208.8 333.93 115.95 268.19 208.8 202.46 301.65 268.19 208.8 264.31 204.22 268.19 208.8 272.08 213.38 268.19 208.8 272.77 204.91 268.19 208.8 263.62 212.69 268.19 208.8 264.51 160.34 268.19 208.8 271.88 257.25 268.19 208.8 316.65 205.12 268.19 208.8 219.74 212.49 268.19 208.8 155.13 0.48 268.19 208.8 381.26 417.12 268.19 208.8 476.52 95.74 268.19 208.8 59.87 321.86" fill="none" stroke="#fff" stroke-miterlimit="10" stroke-width="2" opacity="0.03" style="mix-blend-mode:screen"/></g></g></g></svg>