<svg xmlns="http://www.w3.org/2000/svg" xmlns:xlink="http://www.w3.org/1999/xlink" viewBox="0 0 680.83 680.83"><defs><linearGradient id="f42b30cf-c8ac-4f40-a378-a6ba78d5481d" x1="358.98" y1="270.91" x2="415.91" y2="270.91" gradientUnits="userSpaceOnUse"><stop offset="0.27" stop-color="#fff"/><stop offset="0.52"/></linearGradient><linearGradient id="f9c438c5-6f62-4c7d-8de1-f752554263bc" x1="101.91" y1="331.91" x2="259.4" y2="331.91" xlink:href="#f42b30cf-c8ac-4f40-a378-a6ba78d5481d"/><linearGradient id="f5555426-2cf0-4ab9-bfc5-2600b7ea338c" x1="131.91" y1="333.41" x2="239.18" y2="333.41" xlink:href="#f42b30cf-c8ac-4f40-a378-a6ba78d5481d"/><linearGradient id="e1e208c4-bbb5-430a-b1f7-bc414bd34035" x1="110.91" y1="320.41" x2="185.55" y2="320.41" xlink:href="#f42b30cf-c8ac-4f40-a378-a6ba78d5481d"/><linearGradient id="bfc17ca3-f2cc-4717-b976-016e776281ca" x1="222.57" y1="317.95" x2="250.49" y2="317.95" xlink:href="#f42b30cf-c8ac-4f40-a378-a6ba78d5481d"/><linearGradient id="e06da856-a471-4f54-9680-236ee31f740d" x1="532.91" y1="270.91" x2="576.91" y2="270.91" xlink:href="#f42b30cf-c8ac-4f40-a378-a6ba78d5481d"/><radialGradient id="fb8b7397-183a-4a5d-a675-ead4c565ea52" cx="340.41" cy="340.41" r="156.46" gradientUnits="userSpaceOnUse"><stop offset="0" stop-color="#230000"/><stop offset="0.73" stop-color="#93432a"/><stop offset="1" stop-color="#230000"/></radialGradient><radialGradient id="f6a877b5-30f1-4990-bd9a-485daeae70e6" cx="340.41" cy="340.41" r="78.23" gradientUnits="userSpaceOnUse"><stop offset="0.15" stop-color="#fff"/><stop offset="0.21" stop-color="#e2d1d2"/><stop offset="0.29" stop-color="#bf9a9c"/><stop offset="0.36" stop-color="#a67276"/><stop offset="0.42" stop-color="#975a5e"/><stop offset="0.45" stop-color="#915155"/><stop offset="0.56" stop-color="#6c3638"/><stop offset="0.68" stop-color="#44191a"/><stop offset="0.79" stop-color="#2c0707"/><stop offset="0.85" stop-color="#230000"/><stop offset="0.86" stop-color="#270201"/><stop offset="0.86" stop-color="#340805"/><stop offset="0.87" stop-color="#48120b"/><stop offset="0.88" stop-color="#652114"/><stop offset="0.89" stop-color="#8b331f"/><stop offset="0.9" stop-color="#b8492d"/><stop offset="0.9" stop-color="#d65836"/><stop offset="0.9" stop-color="#c95232"/><stop offset="0.91" stop-color="#9d3c25"/><stop offset="0.93" stop-color="#782a1a"/><stop offset="0.94" stop-color="#591b10"/><stop offset="0.95" stop-color="#410f09"/><stop offset="0.97" stop-color="#300604"/><stop offset="0.98" stop-color="#260201"/><stop offset="1" stop-color="#230000"/></radialGradient><radialGradient id="ad0544b9-0bfb-4c62-9419-31d7faa264e0" cx="340.41" cy="340.41" r="65.19" gradientUnits="userSpaceOnUse"><stop offset="0.15" stop-color="#fff"/><stop offset="0.28" stop-color="#c2c2c2"/><stop offset="0.43" stop-color="#888"/><stop offset="0.56" stop-color="#575757"/><stop offset="0.69" stop-color="#313131"/><stop offset="0.81" stop-color="#161616"/><stop offset="0.92" stop-color="#060606"/><stop offset="1"/></radialGradient></defs><g style="isolation:isolate"><g id="f14bc648-e889-41c9-8977-2eaf92109311" data-name="Layer 2"><g id="abd33919-4c96-4d4b-90c0-817051f540b4" data-name="Layer 1"><image width="1026" height="899" transform="translate(83.91 147.41) scale(0.5)" xlink:href="src/assets/card.png"/><rect x="201.91" y="518.41" width="232" height="64" rx="12" fill="#212129"/><path d="M259.39,511.36a36.82,36.82,0,1,1-36.82,36.82,36.82,36.82,0,0,1,36.82-36.82" fill="#53ae94"/><path d="M263.94,543.28V537.8h12.52v-8.35h-34.1v8.35h12.52v5.47c-10.18.47-17.83,2.49-17.83,4.9s7.66,4.43,17.83,4.9v17.55h9.06V553.07c10.16-.47,17.8-2.48,17.8-4.89s-7.64-4.43-17.8-4.9m0,8.31h0c-.25,0-1.57.1-4.49.1-2.34,0-4-.07-4.56-.1h0c-9-.4-15.71-2-15.71-3.84s6.71-3.44,15.71-3.84V550c.59,0,2.27.14,4.6.14,2.79,0,4.19-.12,4.45-.14v-6.12c9,.4,15.68,2,15.68,3.84s-6.7,3.43-15.68,3.83" fill="#fff"/><path d="M365.89,585a36.82,36.82,0,1,0-36.82-36.82A36.73,36.73,0,0,0,365.89,585Z" fill="#2775ca"/><path d="M376,554c0-5.37-3.22-7.21-9.66-8-4.61-.61-5.53-1.84-5.53-4s1.54-3.53,4.61-3.53c2.76,0,4.29.92,5.06,3.22a1.15,1.15,0,0,0,1.07.77H374a1.05,1.05,0,0,0,1.08-1.08v-.15a7.66,7.66,0,0,0-6.91-6.29V531.3c0-.61-.46-1.07-1.22-1.22h-2.31c-.61,0-1.07.46-1.22,1.22v3.53c-4.6.62-7.52,3.68-7.52,7.52,0,5.06,3.07,7.06,9.51,7.83,4.3.76,5.68,1.68,5.68,4.14s-2.15,4.14-5.06,4.14c-4,0-5.37-1.69-5.83-4a1.14,1.14,0,0,0-1.08-.92h-2.61a1,1,0,0,0-1.07,1.08v.15c.61,3.84,3.07,6.6,8.13,7.37v3.68c0,.61.46,1.07,1.23,1.22h2.3c.61,0,1.07-.46,1.22-1.22v-3.68c4.6-.77,7.67-4,7.67-8.14Z" fill="#fff"/><path d="M358.06,570.12a23,23,0,0,1,0-43.11,1.52,1.52,0,0,0,.92-1.53v-2.15a1.16,1.16,0,0,0-.92-1.23.88.88,0,0,0-.61.16,27.61,27.61,0,0,0,0,52.62.93.93,0,0,0,1.38-.61c.15-.16.15-.31.15-.62v-2.14A2,2,0,0,0,358.06,570.12Zm16.26-47.87a.94.94,0,0,0-1.38.62c-.15.15-.15.3-.15.61v2.15a2,2,0,0,0,.92,1.54,23,23,0,0,1,0,43.11,1.52,1.52,0,0,0-.92,1.53V574a1.15,1.15,0,0,0,.92,1.22.93.93,0,0,0,.61-.15,27.55,27.55,0,0,0,17.95-34.67,27.83,27.83,0,0,0-17.95-18.11Z" fill="#fff"/><rect x="358.98" y="263.41" width="56.93" height="15" rx="7.5" stroke="#888" stroke-miterlimit="10" fill="url(#f42b30cf-c8ac-4f40-a378-a6ba78d5481d)"/><rect x="101.91" y="296.41" width="157.49" height="71" rx="12" stroke="#888" stroke-miterlimit="10" fill="url(#f9c438c5-6f62-4c7d-8de1-f752554263bc)"/><rect x="131.91" y="316.41" width="107.27" height="34" rx="12" stroke="#888" stroke-miterlimit="10" fill="url(#f5555426-2cf0-4ab9-bfc5-2600b7ea338c)"/><rect x="110.91" y="307.41" width="74.63" height="26" rx="12" stroke="#888" stroke-miterlimit="10" fill="url(#e1e208c4-bbb5-430a-b1f7-bc414bd34035)"/><rect x="222.57" y="303.99" width="27.92" height="27.92" rx="12" stroke="#888" stroke-miterlimit="10" fill="url(#bfc17ca3-f2cc-4717-b976-016e776281ca)"/><text transform="translate(185.55 345.08)" font-size="18" fill="#17dbff" font-family="MyriadPro-Regular, Myriad Pro">S<tspan x="8.87" y="0" letter-spacing="-0.04em"> </tspan><tspan x="11.95" y="0">T I F</tspan></text><rect x="532.91" y="263.41" width="44" height="15" rx="7.5" fill="url(#e06da856-a471-4f54-9680-236ee31f740d)"/><line x1="340.41" y1="340.41" x2="262.41" y2="346.41" fill="none"/><circle cx="340.41" cy="340.41" r="65.19" fill="none"/><circle cx="340.41" cy="340.41" r="78.23" fill="none"/><polyline points="340.41 340.41 232.25 538.72 340.41 340.41 448.58 142.1 340.41 340.41 142.1 232.25 340.41 340.41 538.72 448.58 340.41 340.41 316.94 376.62 340.41 340.41 363.89 304.2 340.41 340.41 304.2 316.94 340.41 340.41 376.62 363.89 340.41 340.41 493.01 522.86 340.41 340.41 187.81 157.97 340.41 340.41 157.97 493.01 340.41 340.41 522.86 187.81 340.41 340.41 419.57 631.48 340.41 340.41 261.26 49.35 340.41 340.41 49.35 419.57 340.41 340.41 631.48 261.26 340.41 340.41 369.79 649.9 340.41 340.41 311.04 30.93 340.41 340.41 30.93 369.79 340.41 340.41 649.9 311.04 340.41 340.41 162.81 660.79 340.41 340.41 518.02 20.04 340.41 340.41 20.04 162.81 340.41 340.41 660.79 518.02 340.41 340.41 195.07 586.87 340.41 340.41 485.76 93.95 340.41 340.41 93.95 195.07 340.41 340.41 586.87 485.76 340.41 340.41 368.47 635.7 340.41 340.41 312.36 45.12 340.41 340.41 45.12 368.47 340.41 340.41 635.7 312.36 340.41 340.41 427.4 565.07 340.41 340.41 253.43 115.76 340.41 340.41 115.76 427.4 340.41 340.41 565.07 253.43 340.41 340.41 363.96 436.97 340.41 340.41 316.86 243.85 340.41 340.41 243.85 363.96 340.41 340.41 436.97 316.86 340.41 340.41 390.14 416.05 340.41 340.41 290.68 264.78 340.41 340.41 264.78 390.14 340.41 340.41 416.05 290.68 340.41 340.41 274.89 670.22 340.41 340.41 405.94 10.61 340.41 340.41 10.61 274.89 340.41 340.41 670.22 405.94 340.41 340.41 369.51 665.71 340.41 340.41 311.32 15.12 340.41 340.41 15.12 369.51 340.41 340.41 665.71 311.32 340.41 340.41 310.1 680.74 340.41 340.41 370.73 0.09 340.41 340.41 0.09 310.1 340.41 340.41 680.74 370.73 340.41 340.41 282.81 583.26 340.41 340.41 398.01 97.56 340.41 340.41 97.56 282.81 340.41 340.41 583.26 398.01" fill="none"/><circle cx="340.41" cy="340.41" r="156.46" opacity="0.15" fill="url(#fb8b7397-183a-4a5d-a675-ead4c565ea52)" style="mix-blend-mode:screen"/><circle cx="340.41" cy="340.41" r="78.23" opacity="0.5" fill="url(#f6a877b5-30f1-4990-bd9a-485daeae70e6)" style="mix-blend-mode:screen"/><circle cx="340.41" cy="340.41" r="65.19" fill="url(#ad0544b9-0bfb-4c62-9419-31d7faa264e0)" style="mix-blend-mode:screen"/><polyline points="340.41 340.41 232.25 538.72 340.41 340.41 448.58 142.1 340.41 340.41 142.1 232.25 340.41 340.41 538.72 448.58 340.41 340.41 316.94 376.62 340.41 340.41 363.89 304.2 340.41 340.41 304.2 316.94 340.41 340.41 376.62 363.89 340.41 340.41 493.01 522.86 340.41 340.41 187.81 157.97 340.41 340.41 157.97 493.01 340.41 340.41 522.86 187.81 340.41 340.41 419.57 631.48 340.41 340.41 261.26 49.35 340.41 340.41 49.35 419.57 340.41 340.41 631.48 261.26 340.41 340.41 369.79 649.9 340.41 340.41 311.04 30.93 340.41 340.41 30.93 369.79 340.41 340.41 649.9 311.04 340.41 340.41 162.81 660.79 340.41 340.41 518.02 20.04 340.41 340.41 20.04 162.81 340.41 340.41 660.79 518.02 340.41 340.41 195.07 586.87 340.41 340.41 485.76 93.95 340.41 340.41 93.95 195.07 340.41 340.41 586.87 485.76 340.41 340.41 368.47 635.7 340.41 340.41 312.36 45.12 340.41 340.41 45.12 368.47 340.41 340.41 635.7 312.36 340.41 340.41 427.4 565.07 340.41 340.41 253.43 115.76 340.41 340.41 115.76 427.4 340.41 340.41 565.07 253.43 340.41 340.41 363.96 436.97 340.41 340.41 316.86 243.85 340.41 340.41 243.85 363.96 340.41 340.41 436.97 316.86 340.41 340.41 390.14 416.05 340.41 340.41 290.68 264.78 340.41 340.41 264.78 390.14 340.41 340.41 416.05 290.68 340.41 340.41 274.89 670.22 340.41 340.41 405.94 10.61 340.41 340.41 10.61 274.89 340.41 340.41 670.22 405.94 340.41 340.41 369.51 665.71 340.41 340.41 311.32 15.12 340.41 340.41 15.12 369.51 340.41 340.41 665.71 311.32 340.41 340.41 310.1 680.74 340.41 340.41 370.73 0.09 340.41 340.41 0.09 310.1 340.41 340.41 680.74 370.73 340.41 340.41 282.81 583.26 340.41 340.41 398.01 97.56 340.41 340.41 97.56 282.81 340.41 340.41 583.26 398.01" fill="none" stroke="#fff" stroke-miterlimit="10" stroke-width="2" opacity="0.03" style="mix-blend-mode:screen"/></g></g></g></svg>